<svg width="25" height="25" viewBox="0 0 25 25" fill="none" xmlns="http://www.w3.org/2000/svg">
<path d="M15.25 23.4233H9.25C3.82 23.4233 1.5 21.1033 1.5 15.6733V9.67334C1.5 4.24334 3.82 1.92334 9.25 1.92334H11.25C11.66 1.92334 12 2.26334 12 2.67334C12 3.08334 11.66 3.42334 11.25 3.42334H9.25C4.64 3.42334 3 5.06334 3 9.67334V15.6733C3 20.2833 4.64 21.9233 9.25 21.9233H15.25C19.86 21.9233 21.5 20.2833 21.5 15.6733V13.6733C21.5 13.2633 21.84 12.9233 22.25 12.9233C22.66 12.9233 23 13.2633 23 13.6733V15.6733C23 21.1033 20.68 23.4233 15.25 23.4233Z" fill="#6D28D9"/>
<path d="M8.74984 18.3634C8.13984 18.3634 7.57984 18.1434 7.16984 17.7434C6.67984 17.2534 6.46984 16.5434 6.57984 15.7934L7.00984 12.7834C7.08984 12.2034 7.46984 11.4534 7.87984 11.0434L15.7598 3.1634C17.7498 1.1734 19.7698 1.1734 21.7598 3.1634C22.8498 4.2534 23.3398 5.3634 23.2398 6.4734C23.1498 7.3734 22.6698 8.2534 21.7598 9.1534L13.8798 17.0334C13.4698 17.4434 12.7198 17.8234 12.1398 17.9034L9.12984 18.3334C8.99984 18.3634 8.86984 18.3634 8.74984 18.3634ZM16.8198 4.2234L8.93984 12.1034C8.74984 12.2934 8.52984 12.7334 8.48984 12.9934L8.05984 16.0034C8.01984 16.2934 8.07984 16.5334 8.22984 16.6834C8.37984 16.8334 8.61984 16.8934 8.90984 16.8534L11.9198 16.4234C12.1798 16.3834 12.6298 16.1634 12.8098 15.9734L20.6898 8.0934C21.3398 7.4434 21.6798 6.8634 21.7298 6.3234C21.7898 5.6734 21.4498 4.9834 20.6898 4.2134C19.0898 2.6134 17.9898 3.0634 16.8198 4.2234Z" fill="#6D28D9"/>
<path d="M20.1001 10.5034C20.0301 10.5034 19.9601 10.4934 19.9001 10.4734C17.2701 9.73337 15.1801 7.64337 14.4401 5.01337C14.3301 4.61337 14.5601 4.20337 14.9601 4.08337C15.3601 3.97337 15.7701 4.20337 15.8801 4.60337C16.4801 6.73337 18.1701 8.42337 20.3001 9.02337C20.7001 9.13337 20.9301 9.55337 20.8201 9.95337C20.7301 10.2934 20.4301 10.5034 20.1001 10.5034Z" fill="#6D28D9"/>
</svg>
