<svg width="22" height="22" viewBox="0 0 22 22" fill="none" xmlns="http://www.w3.org/2000/svg">
<g filter="url(#filter0_i_815_6510)">
<path d="M8.22705 9.84253C6.84523 9.84253 5.72705 8.72435 5.72705 7.34253C5.72705 5.96071 6.84523 4.84253 8.22705 4.84253C9.60887 4.84253 10.7271 5.96071 10.7271 7.34253C10.7271 8.72435 9.60887 9.84253 8.22705 9.84253ZM8.22705 6.20617C7.59978 6.20617 7.09069 6.71526 7.09069 7.34253C7.09069 7.9698 7.59978 8.47889 8.22705 8.47889C8.85432 8.47889 9.36341 7.9698 9.36341 7.34253C9.36341 6.71526 8.85432 6.20617 8.22705 6.20617Z" fill="#6D28D9"/>
<path d="M13.6816 20.7518H8.2271C3.29073 20.7518 1.18164 18.6427 1.18164 13.7063V8.25175C1.18164 3.31539 3.29073 1.2063 8.2271 1.2063H11.8635C12.2362 1.2063 12.5453 1.51539 12.5453 1.88812C12.5453 2.26084 12.2362 2.56994 11.8635 2.56994H8.2271C4.03619 2.56994 2.54528 4.06084 2.54528 8.25175V13.7063C2.54528 17.8972 4.03619 19.3881 8.2271 19.3881H13.6816C17.8725 19.3881 19.3635 17.8972 19.3635 13.7063V9.16084C19.3635 8.78812 19.6725 8.47903 20.0453 8.47903C20.418 8.47903 20.7271 8.78812 20.7271 9.16084V13.7063C20.7271 18.6427 18.618 20.7518 13.6816 20.7518Z" fill="#6D28D9"/>
<path d="M14.2911 8.93352C13.9365 8.93352 13.6093 8.80624 13.3729 8.56079C13.0911 8.27897 12.9547 7.86079 13.0183 7.43352L13.2002 6.16988C13.2456 5.8517 13.4365 5.46079 13.6729 5.23352L16.9729 1.93352C18.2911 0.615334 19.4365 1.36988 20.0002 1.93352C20.5365 2.46988 20.782 3.03352 20.7274 3.61533C20.682 4.07897 20.4456 4.52443 20.0002 4.96079L16.7002 8.26079C16.4729 8.48806 16.082 8.67897 15.7638 8.73352L14.5002 8.91533C14.4274 8.93352 14.3547 8.93352 14.2911 8.93352ZM17.9274 2.90624L14.6274 6.20624C14.6002 6.23352 14.5547 6.33352 14.5456 6.37897L14.3729 7.56079L15.5638 7.39715C15.6002 7.38806 15.7002 7.34261 15.7365 7.30624L19.0365 4.00624C19.2365 3.80624 19.3547 3.62443 19.3638 3.48806C19.382 3.29715 19.1911 3.06079 19.0365 2.90624C18.5638 2.43352 18.3456 2.48806 17.9274 2.90624Z" fill="#6D28D9"/>
<path d="M19.0454 5.64249C18.9818 5.64249 18.9181 5.6334 18.8636 5.61522C17.6454 5.26976 16.6727 4.29704 16.3272 3.07885C16.2272 2.71522 16.4363 2.34249 16.7999 2.24249C17.1636 2.14249 17.5363 2.35158 17.6363 2.71522C17.8545 3.47886 18.4636 4.09704 19.2363 4.31522C19.5999 4.41522 19.809 4.79704 19.709 5.15158C19.609 5.44249 19.3363 5.64249 19.0454 5.64249Z" fill="#6D28D9"/>
<path d="M2.47246 17.979C2.25428 17.979 2.0361 17.8699 1.90882 17.679C1.69973 17.3699 1.78155 16.9426 2.09064 16.7336L6.57246 13.7245C7.55428 13.0699 8.90882 13.1426 9.79973 13.8972L10.0997 14.1608C10.5543 14.5517 11.327 14.5517 11.7725 14.1608L15.5543 10.9154C16.5179 10.0881 18.0361 10.0881 19.0088 10.9154L20.4906 12.1881C20.7725 12.4336 20.8088 12.8608 20.5634 13.1517C20.3179 13.4336 19.8906 13.4699 19.5997 13.2245L18.1179 11.9517C17.6634 11.5608 16.8906 11.5608 16.4452 11.9517L12.6634 15.1972C11.6997 16.0245 10.1816 16.0245 9.20882 15.1972L8.90882 14.9336C8.49064 14.579 7.79973 14.5426 7.3361 14.8608L2.86337 17.8699C2.7361 17.9426 2.59973 17.979 2.47246 17.979Z" fill="#6D28D9"/>
</g>
<defs>
<filter id="filter0_i_815_6510" x="0.0454102" y="0.0698242" width="21.8184" height="22.8181" filterUnits="userSpaceOnUse" color-interpolation-filters="sRGB">
<feFlood flood-opacity="0" result="BackgroundImageFix"/>
<feBlend mode="normal" in="SourceGraphic" in2="BackgroundImageFix" result="shape"/>
<feColorMatrix in="SourceAlpha" type="matrix" values="0 0 0 0 0 0 0 0 0 0 0 0 0 0 0 0 0 0 127 0" result="hardAlpha"/>
<feOffset dy="1"/>
<feGaussianBlur stdDeviation="0.5"/>
<feComposite in2="hardAlpha" operator="arithmetic" k2="-1" k3="1"/>
<feColorMatrix type="matrix" values="0 0 0 0 0 0 0 0 0 0 0 0 0 0 0 0 0 0 0.25 0"/>
<feBlend mode="normal" in2="shape" result="effect1_innerShadow_815_6510"/>
</filter>
</defs>
</svg>
