<svg width="25" height="25" viewBox="0 0 25 25" fill="none" xmlns="http://www.w3.org/2000/svg">
<g filter="url(#filter0_i_826_8687)">
<path d="M8.15006 20.9661C8.12006 20.9661 8.08006 20.9861 8.05006 20.9861C6.11006 20.0261 4.53006 18.4361 3.56006 16.4961C3.56006 16.4661 3.58006 16.4261 3.58006 16.3961C4.80006 16.7561 6.06006 17.0261 7.31006 17.2361C7.53006 18.4961 7.79006 19.7461 8.15006 20.9661Z" fill="#94A3B8"/>
<path d="M21.44 16.5061C20.45 18.4961 18.8 20.1061 16.79 21.0761C17.17 19.8061 17.49 18.5261 17.7 17.2361C18.96 17.0261 20.2 16.7561 21.42 16.3961C21.41 16.4361 21.44 16.4761 21.44 16.5061Z" fill="#94A3B8"/>
<path d="M21.52 7.76613C20.26 7.38613 18.99 7.07613 17.7 6.85613C17.49 5.56613 17.18 4.28613 16.79 3.03613C18.86 4.02613 20.53 5.69613 21.52 7.76613Z" fill="#94A3B8"/>
<path d="M8.14998 3.14621C7.78998 4.36621 7.52998 5.60621 7.31998 6.86621C6.02998 7.06621 4.74998 7.38621 3.47998 7.76621C4.44998 5.75621 6.05998 4.10621 8.04998 3.11621C8.07998 3.11621 8.11998 3.14621 8.14998 3.14621Z" fill="#94A3B8"/>
<path d="M15.9898 6.64615C13.6698 6.38615 11.3298 6.38615 9.00977 6.64615C9.25977 5.27615 9.57977 3.90615 10.0298 2.58615C10.0498 2.50615 10.0398 2.44615 10.0498 2.36615C10.8398 2.17615 11.6498 2.05615 12.4998 2.05615C13.3398 2.05615 14.1598 2.17615 14.9398 2.36615C14.9498 2.44615 14.9498 2.50615 14.9698 2.58615C15.4198 3.91615 15.7398 5.27615 15.9898 6.64615Z" fill="#94A3B8"/>
<path d="M7.09 15.5462C5.71 15.2962 4.35 14.9762 3.03 14.5262C2.95 14.5062 2.89 14.5162 2.81 14.5062C2.62 13.7162 2.5 12.9062 2.5 12.0562C2.5 11.2162 2.62 10.3962 2.81 9.61616C2.89 9.60616 2.95 9.60616 3.03 9.58616C4.36 9.14616 5.71 8.81616 7.09 8.56616C6.84 10.8862 6.84 13.2262 7.09 15.5462Z" fill="#94A3B8"/>
<path d="M22.5002 12.0562C22.5002 12.9062 22.3802 13.7162 22.1902 14.5062C22.1102 14.5162 22.0502 14.5062 21.9702 14.5262C20.6402 14.9662 19.2802 15.2962 17.9102 15.5462C18.1702 13.2262 18.1702 10.8862 17.9102 8.56616C19.2802 8.81616 20.6502 9.13616 21.9702 9.58616C22.0502 9.60616 22.1102 9.61616 22.1902 9.61616C22.3802 10.4062 22.5002 11.2162 22.5002 12.0562Z" fill="#94A3B8"/>
<path d="M15.9898 17.4662C15.7398 18.8462 15.4198 20.2062 14.9698 21.5262C14.9498 21.6062 14.9498 21.6662 14.9398 21.7462C14.1598 21.9362 13.3398 22.0562 12.4998 22.0562C11.6498 22.0562 10.8398 21.9362 10.0498 21.7462C10.0398 21.6662 10.0498 21.6062 10.0298 21.5262C9.58977 20.1962 9.25977 18.8462 9.00977 17.4662C10.1698 17.5962 11.3298 17.6862 12.4998 17.6862C13.6698 17.6862 14.8398 17.5962 15.9898 17.4662Z" fill="#94A3B8"/>
<path d="M16.2633 15.8195C13.7622 16.135 11.2378 16.135 8.73667 15.8195C8.42111 13.3184 8.42111 10.7939 8.73667 8.29282C11.2378 7.97726 13.7622 7.97726 16.2633 8.29282C16.5789 10.7939 16.5789 13.3184 16.2633 15.8195Z" fill="#94A3B8"/>
</g>
<defs>
<filter id="filter0_i_826_8687" x="0.5" y="0.0561523" width="24" height="25" filterUnits="userSpaceOnUse" color-interpolation-filters="sRGB">
<feFlood flood-opacity="0" result="BackgroundImageFix"/>
<feBlend mode="normal" in="SourceGraphic" in2="BackgroundImageFix" result="shape"/>
<feColorMatrix in="SourceAlpha" type="matrix" values="0 0 0 0 0 0 0 0 0 0 0 0 0 0 0 0 0 0 127 0" result="hardAlpha"/>
<feOffset dy="1"/>
<feGaussianBlur stdDeviation="0.5"/>
<feComposite in2="hardAlpha" operator="arithmetic" k2="-1" k3="1"/>
<feColorMatrix type="matrix" values="0 0 0 0 0 0 0 0 0 0 0 0 0 0 0 0 0 0 0.25 0"/>
<feBlend mode="normal" in2="shape" result="effect1_innerShadow_826_8687"/>
</filter>
</defs>
</svg>
