<svg width="25" height="25" viewBox="0 0 25 25" fill="none" xmlns="http://www.w3.org/2000/svg">
<path d="M9.5 11.2803C7.98 11.2803 6.75 10.0503 6.75 8.53027C6.75 7.01027 7.98 5.78027 9.5 5.78027C11.02 5.78027 12.25 7.01027 12.25 8.53027C12.25 10.0503 11.02 11.2803 9.5 11.2803ZM9.5 7.28027C8.81 7.28027 8.25 7.84027 8.25 8.53027C8.25 9.22027 8.81 9.78027 9.5 9.78027C10.19 9.78027 10.75 9.22027 10.75 8.53027C10.75 7.84027 10.19 7.28027 9.5 7.28027Z" fill="#6D28D9"/>
<path d="M15.5 23.2803H9.5C4.07 23.2803 1.75 20.9603 1.75 15.5303V9.53027C1.75 4.10027 4.07 1.78027 9.5 1.78027H13.5C13.91 1.78027 14.25 2.12027 14.25 2.53027C14.25 2.94027 13.91 3.28027 13.5 3.28027H9.5C4.89 3.28027 3.25 4.92027 3.25 9.53027V15.5303C3.25 20.1403 4.89 21.7803 9.5 21.7803H15.5C20.11 21.7803 21.75 20.1403 21.75 15.5303V10.5303C21.75 10.1203 22.09 9.78027 22.5 9.78027C22.91 9.78027 23.25 10.1203 23.25 10.5303V15.5303C23.25 20.9603 20.93 23.2803 15.5 23.2803Z" fill="#6D28D9"/>
<path d="M18.5 9.28027C18.4 9.28027 18.31 9.26027 18.21 9.22027C17.93 9.11027 17.75 8.83027 17.75 8.53027V2.53027C17.75 2.12027 18.09 1.78027 18.5 1.78027C18.91 1.78027 19.25 2.12027 19.25 2.53027V6.72027L19.97 6.00027C20.26 5.71027 20.74 5.71027 21.03 6.00027C21.32 6.29027 21.32 6.77027 21.03 7.06027L19.03 9.06027C18.89 9.20027 18.7 9.28027 18.5 9.28027Z" fill="#6D28D9"/>
<path d="M18.4999 9.28022C18.3099 9.28022 18.1199 9.21021 17.9699 9.06021L15.9699 7.06022C15.6799 6.77022 15.6799 6.29021 15.9699 6.00021C16.2599 5.71021 16.7399 5.71021 17.0299 6.00021L19.0299 8.00021C19.3199 8.29021 19.3199 8.77021 19.0299 9.06021C18.8799 9.21021 18.6899 9.28022 18.4999 9.28022Z" fill="#6D28D9"/>
<path d="M3.16977 20.2303C2.92977 20.2303 2.68977 20.1103 2.54977 19.9003C2.31977 19.5603 2.40977 19.0903 2.75977 18.8603L7.68977 15.5503C8.76977 14.8203 10.2598 14.9103 11.2398 15.7403L11.5698 16.0303C12.0698 16.4603 12.9198 16.4603 13.4098 16.0303L17.5698 12.4603C18.6298 11.5503 20.2998 11.5503 21.3698 12.4603L22.9998 13.8603C23.3098 14.1303 23.3498 14.6003 23.0798 14.9203C22.8098 15.2303 22.3398 15.2703 22.0198 15.0003L20.3898 13.6003C19.8898 13.1703 19.0398 13.1703 18.5398 13.6003L14.3798 17.1703C13.3198 18.0803 11.6498 18.0803 10.5798 17.1703L10.2498 16.8803C9.78977 16.4903 9.02977 16.4503 8.51977 16.8003L3.58977 20.1103C3.45977 20.1903 3.30977 20.2303 3.16977 20.2303Z" fill="#6D28D9"/>
</svg>
