<svg width="24" height="24" viewBox="0 0 24 24" fill="none" xmlns="http://www.w3.org/2000/svg">
<g filter="url(#filter0_i_898_4568)">
<path d="M18.25 3H5.75C4.234 3 3 4.234 3 5.75V18.25C3 19.766 4.234 21 5.75 21H18.25C19.766 21 21 19.766 21 18.25V5.75C21 4.234 19.766 3 18.25 3ZM9 17C9 17.2765 8.7765 17.5 8.5 17.5H7C6.7235 17.5 6.5 17.2765 6.5 17V10.5C6.5 10.2235 6.7235 10 7 10H8.5C8.7765 10 9 10.2235 9 10.5V17ZM7.75 9C7.0595 9 6.5 8.4405 6.5 7.75C6.5 7.0595 7.0595 6.5 7.75 6.5C8.4405 6.5 9 7.0595 9 7.75C9 8.4405 8.4405 9 7.75 9ZM17.5 17C17.5 17.2765 17.2765 17.5 17 17.5H15.5C15.2235 17.5 15 17.2765 15 17V13.25C15 12.5605 14.4395 12 13.75 12C13.0605 12 12.5 12.5605 12.5 13.25V17C12.5 17.2765 12.2765 17.5 12 17.5H10.5C10.2235 17.5 10 17.2765 10 17V10.5C10 10.2235 10.2235 10 10.5 10H12C12.2765 10 12.5 10.2235 12.5 10.5V10.7705C13.0315 10.293 13.731 10 14.5 10C16.1545 10 17.5 11.3455 17.5 13V17Z" fill="#6D28D9"/>
</g>
<defs>
<filter id="filter0_i_898_4568" x="0" y="0" width="24" height="25" filterUnits="userSpaceOnUse" color-interpolation-filters="sRGB">
<feFlood flood-opacity="0" result="BackgroundImageFix"/>
<feBlend mode="normal" in="SourceGraphic" in2="BackgroundImageFix" result="shape"/>
<feColorMatrix in="SourceAlpha" type="matrix" values="0 0 0 0 0 0 0 0 0 0 0 0 0 0 0 0 0 0 127 0" result="hardAlpha"/>
<feOffset dy="1"/>
<feGaussianBlur stdDeviation="0.5"/>
<feComposite in2="hardAlpha" operator="arithmetic" k2="-1" k3="1"/>
<feColorMatrix type="matrix" values="0 0 0 0 0.858824 0 0 0 0 0.882353 0 0 0 0 0.937255 0 0 0 0.21 0"/>
<feBlend mode="normal" in2="shape" result="effect1_innerShadow_898_4568"/>
</filter>
</defs>
</svg>
