<svg width="25" height="25" viewBox="0 0 25 25" fill="none" xmlns="http://www.w3.org/2000/svg">
<g filter="url(#filter0_i_1491_4108)">
<path d="M11.6851 22.0776C6.03506 22.0776 1.43506 17.4776 1.43506 11.8276C1.43506 6.17764 6.03506 1.57764 11.6851 1.57764C17.3351 1.57764 21.9351 6.17764 21.9351 11.8276C21.9351 17.4776 17.3351 22.0776 11.6851 22.0776ZM11.6851 3.07764C6.85506 3.07764 2.93506 7.00764 2.93506 11.8276C2.93506 16.6476 6.85506 20.5776 11.6851 20.5776C16.5151 20.5776 20.4351 16.6476 20.4351 11.8276C20.4351 7.00764 16.5151 3.07764 11.6851 3.07764Z" fill="#94A3B8"/>
<path d="M22.185 23.0776C21.995 23.0776 21.805 23.0076 21.655 22.8576L19.655 20.8576C19.365 20.5676 19.365 20.0876 19.655 19.7976C19.945 19.5076 20.425 19.5076 20.715 19.7976L22.715 21.7976C23.005 22.0876 23.005 22.5676 22.715 22.8576C22.565 23.0076 22.375 23.0776 22.185 23.0776Z" fill="#94A3B8"/>
</g>
<defs>
<filter id="filter0_i_1491_4108" x="1.43506" y="1.57764" width="21.4976" height="22.5" filterUnits="userSpaceOnUse" color-interpolation-filters="sRGB">
<feFlood flood-opacity="0" result="BackgroundImageFix"/>
<feBlend mode="normal" in="SourceGraphic" in2="BackgroundImageFix" result="shape"/>
<feColorMatrix in="SourceAlpha" type="matrix" values="0 0 0 0 0 0 0 0 0 0 0 0 0 0 0 0 0 0 127 0" result="hardAlpha"/>
<feOffset dy="1"/>
<feGaussianBlur stdDeviation="1"/>
<feComposite in2="hardAlpha" operator="arithmetic" k2="-1" k3="1"/>
<feColorMatrix type="matrix" values="0 0 0 0 0.352941 0 0 0 0 0.396078 0 0 0 0 0.443137 0 0 0 1 0"/>
<feBlend mode="normal" in2="shape" result="effect1_innerShadow_1491_4108"/>
</filter>
</defs>
</svg>
