<svg width="25" height="24" viewBox="0 0 25 24" fill="none" xmlns="http://www.w3.org/2000/svg">
<path d="M22.1455 12C22.1455 6.49 17.6555 2 12.1455 2C6.63551 2 2.14551 6.49 2.14551 12C2.14551 14.9 3.39551 17.51 5.37551 19.34C5.37551 19.35 5.37551 19.35 5.36551 19.36C5.46551 19.46 5.58551 19.54 5.68551 19.63C5.74551 19.68 5.79551 19.73 5.85551 19.77C6.03551 19.92 6.23551 20.06 6.42551 20.2C6.49551 20.25 6.55551 20.29 6.62551 20.34C6.81551 20.47 7.01551 20.59 7.22551 20.7C7.29551 20.74 7.37551 20.79 7.44551 20.83C7.64551 20.94 7.85551 21.04 8.07551 21.13C8.15551 21.17 8.23551 21.21 8.31551 21.24C8.53551 21.33 8.75551 21.41 8.97551 21.48C9.05551 21.51 9.13551 21.54 9.21551 21.56C9.45551 21.63 9.69551 21.69 9.93551 21.75C10.0055 21.77 10.0755 21.79 10.1555 21.8C10.4355 21.86 10.7155 21.9 11.0055 21.93C11.0455 21.93 11.0855 21.94 11.1255 21.95C11.4655 21.98 11.8055 22 12.1455 22C12.4855 22 12.8255 21.98 13.1555 21.95C13.1955 21.95 13.2355 21.94 13.2755 21.93C13.5655 21.9 13.8455 21.86 14.1255 21.8C14.1955 21.79 14.2655 21.76 14.3455 21.75C14.5855 21.69 14.8355 21.64 15.0655 21.56C15.1455 21.53 15.2255 21.5 15.3055 21.48C15.5255 21.4 15.7555 21.33 15.9655 21.24C16.0455 21.21 16.1255 21.17 16.2055 21.13C16.4155 21.04 16.6255 20.94 16.8355 20.83C16.9155 20.79 16.9855 20.74 17.0555 20.7C17.2555 20.58 17.4555 20.47 17.6555 20.34C17.7255 20.3 17.7855 20.25 17.8555 20.2C18.0555 20.06 18.2455 19.92 18.4255 19.77C18.4855 19.72 18.5355 19.67 18.5955 19.63C18.7055 19.54 18.8155 19.45 18.9155 19.36C18.9155 19.35 18.9155 19.35 18.9055 19.34C20.8955 17.51 22.1455 14.9 22.1455 12ZM17.0855 16.97C14.3755 15.15 9.93551 15.15 7.20551 16.97C6.76551 17.26 6.40551 17.6 6.10551 17.97C4.58551 16.43 3.64551 14.32 3.64551 12C3.64551 7.31 7.45551 3.5 12.1455 3.5C16.8355 3.5 20.6455 7.31 20.6455 12C20.6455 14.32 19.7055 16.43 18.1855 17.97C17.8955 17.6 17.5255 17.26 17.0855 16.97Z" fill="#94A3B8"/>
<path d="M12.1455 6.93005C10.0755 6.93005 8.39551 8.61005 8.39551 10.6801C8.39551 12.7101 9.98551 14.3601 12.0955 14.4201C12.1255 14.4201 12.1655 14.4201 12.1855 14.4201C12.2055 14.4201 12.2355 14.4201 12.2555 14.4201C12.2655 14.4201 12.2755 14.4201 12.2755 14.4201C14.2955 14.3501 15.8855 12.7101 15.8955 10.6801C15.8955 8.61005 14.2155 6.93005 12.1455 6.93005Z" fill="#94A3B8"/>
</svg>
