<svg width="20" height="21" viewBox="0 0 20 21" fill="none" xmlns="http://www.w3.org/2000/svg">
<g filter="url(#filter0_i_10685_33170)">
<path d="M13.5189 10.9495L10.8417 12.2878C10.0387 12.6913 9.38715 13.3428 8.98371 14.1459L7.64511 16.8231C7.44531 17.2027 6.90591 17.2027 6.70611 16.8231L5.36751 14.1461C4.96407 13.343 4.31252 12.6915 3.50951 12.2881L0.792513 10.9493C0.412913 10.7493 0.412913 10.21 0.792513 10.0102L3.48951 8.69145C4.29252 8.28801 4.94407 7.63645 5.34751 6.83345L6.68611 4.15645C6.88611 3.77665 7.42531 3.77665 7.62511 4.15645L8.96371 6.83345C9.36715 7.63645 10.0187 8.28801 10.8217 8.69145L13.4989 10.0301C13.8985 10.21 13.8985 10.7695 13.5189 10.9495ZM19.3727 16.9431L18.2139 16.3637C17.8736 16.1831 17.5952 15.9048 17.4147 15.5645L16.8353 14.4057C16.7553 14.2457 16.5157 14.2457 16.4357 14.4057L15.8563 15.5645C15.6758 15.9048 15.3974 16.1831 15.0571 16.3637L13.8983 16.9431C13.7383 17.0231 13.7383 17.2626 13.8983 17.3426L15.0571 17.9221C15.3974 18.1026 15.6758 18.3809 15.8563 18.7213L16.4357 19.8801C16.5157 20.0399 16.7553 20.0399 16.8353 19.8801L17.4147 18.7213C17.5952 18.3809 17.8736 18.1026 18.2139 17.9221L19.3727 17.3426C19.5325 17.2427 19.5325 17.0229 19.3727 16.9431ZM19.3727 3.65705L18.2139 3.07765C17.8736 2.89714 17.5952 2.61876 17.4147 2.27845L16.8353 1.11985C16.7553 0.96005 16.5157 0.96005 16.4357 1.11985L15.8563 2.27865C15.6758 2.61896 15.3974 2.89734 15.0571 3.07785L13.8983 3.65725C13.7383 3.73725 13.7383 3.97685 13.8983 4.05685L15.0571 4.63625C15.3974 4.81676 15.6758 5.09514 15.8563 5.43545L16.4357 6.59425C16.5157 6.75425 16.7553 6.75425 16.8353 6.59425L17.4147 5.43545C17.5952 5.09514 17.8736 4.81676 18.2139 4.63625L19.3727 4.05685C19.5325 3.95685 19.5325 3.73705 19.3727 3.65705Z" fill="#5B21B6"/>
</g>
<defs>
<filter id="filter0_i_10685_33170" x="0" y="0.5" width="20" height="21" filterUnits="userSpaceOnUse" color-interpolation-filters="sRGB">
<feFlood flood-opacity="0" result="BackgroundImageFix"/>
<feBlend mode="normal" in="SourceGraphic" in2="BackgroundImageFix" result="shape"/>
<feColorMatrix in="SourceAlpha" type="matrix" values="0 0 0 0 0 0 0 0 0 0 0 0 0 0 0 0 0 0 127 0" result="hardAlpha"/>
<feOffset dy="1"/>
<feGaussianBlur stdDeviation="0.5"/>
<feComposite in2="hardAlpha" operator="arithmetic" k2="-1" k3="1"/>
<feColorMatrix type="matrix" values="0 0 0 0 0.858824 0 0 0 0 0.882353 0 0 0 0 0.937255 0 0 0 0.21 0"/>
<feBlend mode="normal" in2="shape" result="effect1_innerShadow_10685_33170"/>
</filter>
</defs>
</svg>
