<svg width="21" height="21" viewBox="0 0 21 21" fill="none" xmlns="http://www.w3.org/2000/svg">
<rect x="0.22168" y="0.383789" width="20" height="20" rx="10" fill="black"/>
<path d="M15.4911 13.5147C15.2936 13.9689 15.0599 14.387 14.789 14.7714C14.4198 15.2954 14.1175 15.6581 13.8846 15.8595C13.5235 16.1901 13.1365 16.3594 12.7222 16.369C12.4247 16.369 12.066 16.2848 11.6485 16.1139C11.2295 15.9437 10.8446 15.8595 10.4925 15.8595C10.1233 15.8595 9.72738 15.9437 9.30386 16.1139C8.87969 16.2848 8.53799 16.3738 8.27673 16.3827C7.8794 16.3995 7.48337 16.2254 7.08806 15.8595C6.83575 15.6404 6.52016 15.2649 6.1421 14.7328C5.73648 14.1647 5.40299 13.5059 5.14174 12.7548C4.86194 11.9436 4.72168 11.158 4.72168 10.3974C4.72168 9.52618 4.91079 8.77478 5.28958 8.1451C5.58727 7.63932 5.9833 7.24034 6.47897 6.94745C6.97464 6.65456 7.51021 6.5053 8.08697 6.49575C8.40256 6.49575 8.81641 6.59293 9.3307 6.78391C9.84354 6.97553 10.1728 7.07271 10.3172 7.07271C10.4251 7.07271 10.7909 6.95908 11.4111 6.73255C11.9975 6.52247 12.4925 6.43549 12.8979 6.46975C13.9966 6.55802 14.8221 6.98918 15.371 7.76594C14.3884 8.35863 13.9023 9.18876 13.912 10.2537C13.9209 11.0832 14.2231 11.7734 14.8172 12.3215C15.0865 12.5759 15.3872 12.7725 15.7217 12.9121C15.6491 13.1215 15.5726 13.3221 15.4911 13.5147ZM12.9713 3.64386C12.9713 4.29401 12.7327 4.90105 12.2571 5.46292C11.6831 6.13088 10.9889 6.51686 10.2361 6.45595C10.2265 6.37795 10.221 6.29586 10.221 6.2096C10.221 5.58546 10.4939 4.9175 10.9786 4.37136C11.2206 4.09484 11.5284 3.86491 11.9016 3.6815C12.274 3.50082 12.6263 3.4009 12.9576 3.38379C12.9672 3.4707 12.9713 3.55762 12.9713 3.64385V3.64386Z" fill="white"/>
</svg>
