<svg width="24" height="25" viewBox="0 0 24 25" fill="none" xmlns="http://www.w3.org/2000/svg">
<path d="M11.9999 23.251C11.9399 23.251 11.8799 23.241 11.8299 23.231C11.7699 23.221 11.7099 23.191 11.6499 23.161L9.43987 22.061C9.06987 21.871 8.91986 21.421 9.09986 21.051C9.28986 20.681 9.73986 20.531 10.1099 20.711L11.2499 21.281V19.721C11.2499 19.311 11.5899 18.971 11.9999 18.971C12.4099 18.971 12.7499 19.311 12.7499 19.721V21.281L13.8899 20.711C14.2599 20.531 14.7099 20.681 14.8999 21.051C15.0899 21.421 14.9399 21.871 14.5599 22.061L12.3499 23.161C12.2899 23.191 12.2299 23.211 12.1699 23.231C12.1099 23.241 12.0599 23.251 11.9999 23.251ZM18.6699 19.921C18.3999 19.921 18.1299 19.771 17.9999 19.511C17.8099 19.141 17.9599 18.691 18.3399 18.501L20.1499 17.601V15.291C20.1499 14.881 20.4899 14.541 20.8999 14.541C21.3099 14.541 21.6499 14.881 21.6499 15.291V18.071C21.6499 18.351 21.4899 18.611 21.2399 18.741L19.0199 19.851C18.8899 19.891 18.7799 19.921 18.6699 19.921ZM5.32986 19.921C5.21986 19.921 5.09986 19.891 4.99986 19.841L2.77986 18.731C2.52986 18.601 2.36987 18.341 2.36987 18.061V15.281C2.36987 14.871 2.70987 14.531 3.11987 14.531C3.52987 14.531 3.86987 14.871 3.86987 15.281V17.591L5.67986 18.491C6.04986 18.681 6.19986 19.131 6.01986 19.501C5.86986 19.761 5.60986 19.921 5.32986 19.921ZM11.9999 14.921C11.5899 14.921 11.2499 14.581 11.2499 14.171V11.861L9.43987 10.961C9.06987 10.771 8.91986 10.321 9.09986 9.95102C9.28986 9.58102 9.73986 9.43102 10.1099 9.61102L11.9999 10.551L13.8899 9.61102C14.2599 9.43102 14.7099 9.57102 14.8999 9.95102C15.0899 10.331 14.9399 10.771 14.5599 10.961L12.7499 11.861V14.171C12.7499 14.581 12.4099 14.921 11.9999 14.921ZM20.8899 10.471C20.4799 10.471 20.1399 10.131 20.1399 9.72102V8.16102L18.9999 8.73101C18.6299 8.92101 18.1799 8.77102 17.9899 8.39102C17.7999 8.02102 17.9499 7.57102 18.3299 7.38102L19.2099 6.94102L18.3299 6.50102C17.9599 6.31102 17.8099 5.86102 17.9899 5.49102C18.1799 5.12102 18.6299 4.97101 18.9999 5.15101L21.2099 6.25102C21.2299 6.26102 21.2599 6.27101 21.2799 6.29101C21.3399 6.32101 21.3899 6.37102 21.4399 6.42102C21.4699 6.46102 21.4999 6.50101 21.5299 6.54101C21.5699 6.61101 21.5999 6.68101 21.6199 6.76101C21.6299 6.82101 21.6399 6.88101 21.6399 6.93101V6.94102V9.70101C21.6399 10.141 21.2999 10.471 20.8899 10.471ZM3.10986 10.471C2.69986 10.471 2.35986 10.131 2.35986 9.72102V6.96102V6.95101C2.35986 6.89102 2.36986 6.83102 2.37986 6.78102C2.39986 6.70102 2.42986 6.63102 2.46986 6.56102C2.49986 6.51102 2.52986 6.47101 2.56986 6.43101C2.60986 6.39101 2.65986 6.35103 2.70986 6.32103C2.72986 6.31103 2.75986 6.29102 2.77986 6.28102L4.98986 5.18101C5.35986 5.00101 5.80986 5.14102 5.99986 5.52102C6.18986 5.90102 6.03987 6.34102 5.65987 6.53102L4.77986 6.97102L5.65987 7.41102C6.02987 7.60102 6.17986 8.05102 5.99986 8.42102C5.80986 8.79102 5.36986 8.94101 4.98986 8.76101L3.84986 8.19102V9.75102C3.85986 10.141 3.52986 10.471 3.10986 10.471ZM14.2199 4.36102C14.1099 4.36102 13.9899 4.33102 13.8899 4.28102L11.9999 3.34101L10.1099 4.28102C9.73986 4.47102 9.28986 4.32102 9.09986 3.94102C8.90986 3.57102 9.05986 3.12101 9.43987 2.93101L11.6599 1.82103C11.8699 1.71103 12.1199 1.71103 12.3299 1.82103L14.5499 2.93101C14.9199 3.12101 15.0699 3.57102 14.8899 3.94102C14.7599 4.21102 14.4999 4.36102 14.2199 4.36102Z" fill="white"/>
</svg>
