<svg width="25" height="24" viewBox="0 0 25 24" fill="none" xmlns="http://www.w3.org/2000/svg">
<g filter="url(#filter0_i_826_10958)">
<path d="M12.25 21.7999C11.55 21.7999 10.85 21.5299 10.32 20.9999L3.80002 14.4799C3.51002 14.1899 3.51002 13.7099 3.80002 13.4199C4.09002 13.1299 4.57002 13.1299 4.86002 13.4199L11.38 19.9399C11.86 20.4199 12.64 20.4199 13.12 19.9399L19.64 13.4199C19.93 13.1299 20.41 13.1299 20.7 13.4199C20.99 13.7099 20.99 14.1899 20.7 14.4799L14.18 20.9999C13.65 21.5299 12.95 21.7999 12.25 21.7999Z" fill="#6D28D9"/>
<path d="M12.25 2.20206C12.95 2.20206 13.65 2.47206 14.18 3.00206L20.7 9.52206C20.99 9.81206 20.99 10.2921 20.7 10.5821C20.41 10.8721 19.93 10.8721 19.64 10.5821L13.12 4.06206C12.64 3.58206 11.86 3.58206 11.38 4.06206L4.85998 10.5821C4.56998 10.8721 4.08998 10.8721 3.79998 10.5821C3.50998 10.2921 3.50998 9.81206 3.79998 9.52206L10.32 3.00206C10.85 2.47206 11.55 2.20206 12.25 2.20206Z" fill="#6D28D9"/>
</g>
<defs>
<filter id="filter0_i_826_10958" x="0.25" y="0" width="24" height="25" filterUnits="userSpaceOnUse" color-interpolation-filters="sRGB">
<feFlood flood-opacity="0" result="BackgroundImageFix"/>
<feBlend mode="normal" in="SourceGraphic" in2="BackgroundImageFix" result="shape"/>
<feColorMatrix in="SourceAlpha" type="matrix" values="0 0 0 0 0 0 0 0 0 0 0 0 0 0 0 0 0 0 127 0" result="hardAlpha"/>
<feOffset dy="1"/>
<feGaussianBlur stdDeviation="0.5"/>
<feComposite in2="hardAlpha" operator="arithmetic" k2="-1" k3="1"/>
<feColorMatrix type="matrix" values="0 0 0 0 0 0 0 0 0 0 0 0 0 0 0 0 0 0 0.21 0"/>
<feBlend mode="normal" in2="shape" result="effect1_innerShadow_826_10958"/>
</filter>
</defs>
</svg>
