<svg width="20" height="21" viewBox="0 0 20 21" fill="none" xmlns="http://www.w3.org/2000/svg">
<path d="M2.9165 15.6533C2.57484 15.6533 2.2915 15.37 2.2915 15.0283V5.86167C2.2915 2.18667 3.40817 1.07001 7.08317 1.07001H12.9165C16.5915 1.07001 17.7082 2.18667 17.7082 5.86167V14.195C17.7082 14.3283 17.7082 14.4533 17.6998 14.5867C17.6748 14.9283 17.3665 15.195 17.0332 15.17C16.6915 15.145 16.4248 14.845 16.4498 14.5033C16.4582 14.4033 16.4582 14.295 16.4582 14.195V5.86167C16.4582 2.88667 15.8998 2.32001 12.9165 2.32001H7.08317C4.09984 2.32001 3.5415 2.88667 3.5415 5.86167V15.0283C3.5415 15.37 3.25817 15.6533 2.9165 15.6533Z" fill="#6D28D9"/>
<path d="M14.1665 18.9867H5.83317C3.88317 18.9867 2.2915 17.395 2.2915 15.445V14.9033C2.2915 13.245 3.6415 11.9033 5.2915 11.9033H17.0832C17.4248 11.9033 17.7082 12.1867 17.7082 12.5283V15.445C17.7082 17.395 16.1165 18.9867 14.1665 18.9867ZM5.2915 13.1533C4.32484 13.1533 3.5415 13.9367 3.5415 14.9033V15.445C3.5415 16.7117 4.5665 17.7367 5.83317 17.7367H14.1665C15.4332 17.7367 16.4582 16.7117 16.4582 15.445V13.1533H5.2915Z" fill="#6D28D9"/>
<path d="M13.3332 6.48663H6.6665C6.32484 6.48663 6.0415 6.2033 6.0415 5.86163C6.0415 5.51997 6.32484 5.23663 6.6665 5.23663H13.3332C13.6748 5.23663 13.9582 5.51997 13.9582 5.86163C13.9582 6.2033 13.6748 6.48663 13.3332 6.48663Z" fill="#6D28D9"/>
<path d="M10.8332 9.40332H6.6665C6.32484 9.40332 6.0415 9.11999 6.0415 8.77832C6.0415 8.43665 6.32484 8.15332 6.6665 8.15332H10.8332C11.1748 8.15332 11.4582 8.43665 11.4582 8.77832C11.4582 9.11999 11.1748 9.40332 10.8332 9.40332Z" fill="#6D28D9"/>
</svg>
