<svg width="25" height="24" viewBox="0 0 25 24" fill="none" xmlns="http://www.w3.org/2000/svg">
<path d="M22.8477 21.25H2.84766C2.43766 21.25 2.09766 21.59 2.09766 22C2.09766 22.41 2.43766 22.75 2.84766 22.75H22.8477C23.2577 22.75 23.5977 22.41 23.5977 22C23.5977 21.59 23.2577 21.25 22.8477 21.25Z" fill="#6D28D9"/>
<path d="M17.8477 2H7.84766C4.84766 2 3.84766 3.79 3.84766 6V22H21.8477V6C21.8477 3.79 20.8477 2 17.8477 2ZM10.8477 17.25H7.84766C7.43766 17.25 7.09766 16.91 7.09766 16.5C7.09766 16.09 7.43766 15.75 7.84766 15.75H10.8477C11.2577 15.75 11.5977 16.09 11.5977 16.5C11.5977 16.91 11.2577 17.25 10.8477 17.25ZM10.8477 12.75H7.84766C7.43766 12.75 7.09766 12.41 7.09766 12C7.09766 11.59 7.43766 11.25 7.84766 11.25H10.8477C11.2577 11.25 11.5977 11.59 11.5977 12C11.5977 12.41 11.2577 12.75 10.8477 12.75ZM10.8477 8.25H7.84766C7.43766 8.25 7.09766 7.91 7.09766 7.5C7.09766 7.09 7.43766 6.75 7.84766 6.75H10.8477C11.2577 6.75 11.5977 7.09 11.5977 7.5C11.5977 7.91 11.2577 8.25 10.8477 8.25ZM17.8477 17.25H14.8477C14.4377 17.25 14.0977 16.91 14.0977 16.5C14.0977 16.09 14.4377 15.75 14.8477 15.75H17.8477C18.2577 15.75 18.5977 16.09 18.5977 16.5C18.5977 16.91 18.2577 17.25 17.8477 17.25ZM17.8477 12.75H14.8477C14.4377 12.75 14.0977 12.41 14.0977 12C14.0977 11.59 14.4377 11.25 14.8477 11.25H17.8477C18.2577 11.25 18.5977 11.59 18.5977 12C18.5977 12.41 18.2577 12.75 17.8477 12.75ZM17.8477 8.25H14.8477C14.4377 8.25 14.0977 7.91 14.0977 7.5C14.0977 7.09 14.4377 6.75 14.8477 6.75H17.8477C18.2577 6.75 18.5977 7.09 18.5977 7.5C18.5977 7.91 18.2577 8.25 17.8477 8.25Z" fill="#6D28D9"/>
</svg>
