<svg width="25" height="24" viewBox="0 0 25 24" fill="none" xmlns="http://www.w3.org/2000/svg">
<path d="M8.5 5.75C8.09 5.75 7.75 5.41 7.75 5V2C7.75 1.59 8.09 1.25 8.5 1.25C8.91 1.25 9.25 1.59 9.25 2V5C9.25 5.41 8.91 5.75 8.5 5.75Z" fill="#6D28D9"/>
<path d="M16.5 5.75C16.09 5.75 15.75 5.41 15.75 5V2C15.75 1.59 16.09 1.25 16.5 1.25C16.91 1.25 17.25 1.59 17.25 2V5C17.25 5.41 16.91 5.75 16.5 5.75Z" fill="#6D28D9"/>
<path d="M21 9.83984H4C3.59 9.83984 3.25 9.49984 3.25 9.08984C3.25 8.67984 3.59 8.33984 4 8.33984H21C21.41 8.33984 21.75 8.67984 21.75 9.08984C21.75 9.49984 21.41 9.83984 21 9.83984Z" fill="#6D28D9"/>
<path d="M16.5 22.75H8.5C4.85 22.75 2.75 20.65 2.75 17V8.5C2.75 4.85 4.85 2.75 8.5 2.75H16.5C20.15 2.75 22.25 4.85 22.25 8.5V17C22.25 20.65 20.15 22.75 16.5 22.75ZM8.5 4.25C5.64 4.25 4.25 5.64 4.25 8.5V17C4.25 19.86 5.64 21.25 8.5 21.25H16.5C19.36 21.25 20.75 19.86 20.75 17V8.5C20.75 5.64 19.36 4.25 16.5 4.25H8.5Z" fill="#6D28D9"/>
<path d="M9 14.5C8.87 14.5 8.74 14.47 8.62 14.42C8.5 14.37 8.39001 14.3 8.29001 14.21C8.20001 14.11 8.12999 14 8.07999 13.88C8.02999 13.76 8 13.63 8 13.5C8 13.24 8.11001 12.98 8.29001 12.79C8.39001 12.7 8.5 12.63 8.62 12.58C8.8 12.5 9.00001 12.48 9.20001 12.52C9.26001 12.53 9.32 12.55 9.38 12.58C9.44 12.6 9.5 12.63 9.56 12.67C9.61 12.71 9.65999 12.75 9.70999 12.79C9.74999 12.84 9.79999 12.89 9.82999 12.94C9.86999 13 9.90001 13.06 9.92001 13.12C9.95001 13.18 9.97001 13.24 9.98001 13.3C9.99001 13.37 10 13.43 10 13.5C10 13.76 9.88999 14.02 9.70999 14.21C9.51999 14.39 9.26 14.5 9 14.5Z" fill="#6D28D9"/>
<path d="M12.5 14.4999C12.24 14.4999 11.98 14.3899 11.79 14.2099C11.75 14.1599 11.71 14.1099 11.67 14.0599C11.63 13.9999 11.6 13.9399 11.58 13.8799C11.55 13.8199 11.53 13.7599 11.52 13.6999C11.51 13.6299 11.5 13.5699 11.5 13.4999C11.5 13.3699 11.53 13.2399 11.58 13.1199C11.63 12.9999 11.7 12.8899 11.79 12.7899C12.07 12.5099 12.52 12.4199 12.88 12.5799C13.01 12.6299 13.11 12.6999 13.21 12.7899C13.39 12.9799 13.5 13.2399 13.5 13.4999C13.5 13.5699 13.49 13.6299 13.48 13.6999C13.47 13.7599 13.45 13.8199 13.42 13.8799C13.4 13.9399 13.37 13.9999 13.33 14.0599C13.29 14.1099 13.25 14.1599 13.21 14.2099C13.11 14.2999 13.01 14.3699 12.88 14.4199C12.76 14.4699 12.63 14.4999 12.5 14.4999Z" fill="#6D28D9"/>
<path d="M9 17.9999C8.87 17.9999 8.74 17.9699 8.62 17.9199C8.5 17.8699 8.39001 17.7999 8.29001 17.7099C8.20001 17.6099 8.12999 17.5099 8.07999 17.3799C8.02999 17.2599 8 17.1299 8 16.9999C8 16.7399 8.11001 16.4799 8.29001 16.2899C8.39001 16.1999 8.5 16.1299 8.62 16.0799C8.99 15.9199 9.42999 16.0099 9.70999 16.2899C9.74999 16.3399 9.79999 16.3899 9.82999 16.4399C9.86999 16.4999 9.90001 16.5599 9.92001 16.6199C9.95001 16.6799 9.97001 16.7399 9.98001 16.8099C9.99001 16.8699 10 16.9399 10 16.9999C10 17.2599 9.88999 17.5199 9.70999 17.7099C9.51999 17.8899 9.26 17.9999 9 17.9999Z" fill="#6D28D9"/>
</svg>
