<svg width="25" height="24" viewBox="0 0 25 24" fill="none" xmlns="http://www.w3.org/2000/svg">
<g filter="url(#filter0_i_1061_7871)">
<path d="M17.0979 3.56V2C17.0979 1.59 16.7579 1.25 16.3479 1.25C15.9379 1.25 15.5979 1.59 15.5979 2V3.5H9.09789V2C9.09789 1.59 8.75789 1.25 8.34789 1.25C7.93789 1.25 7.59789 1.59 7.59789 2V3.56C4.89789 3.81 3.58789 5.42 3.38789 7.81C3.36789 8.1 3.60789 8.34 3.88789 8.34H20.8079C21.0979 8.34 21.3379 8.09 21.3079 7.81C21.1079 5.42 19.7979 3.81 17.0979 3.56Z" fill="#6D28D9"/>
<path d="M20.3477 9.83997H4.34766C3.79766 9.83997 3.34766 10.29 3.34766 10.84V17C3.34766 20 4.84766 22 8.34766 22H16.3477C19.8477 22 21.3477 20 21.3477 17V10.84C21.3477 10.29 20.8977 9.83997 20.3477 9.83997ZM9.55766 18.21C9.50766 18.25 9.45766 18.3 9.40766 18.33C9.34766 18.37 9.28766 18.4 9.22766 18.42C9.16766 18.45 9.10766 18.47 9.04766 18.48C8.97766 18.49 8.91766 18.5 8.84766 18.5C8.71766 18.5 8.58766 18.47 8.46766 18.42C8.33766 18.37 8.23766 18.3 8.13766 18.21C7.95766 18.02 7.84766 17.76 7.84766 17.5C7.84766 17.24 7.95766 16.98 8.13766 16.79C8.23766 16.7 8.33766 16.63 8.46766 16.58C8.64766 16.5 8.84766 16.48 9.04766 16.52C9.10766 16.53 9.16766 16.55 9.22766 16.58C9.28766 16.6 9.34766 16.63 9.40766 16.67C9.45766 16.71 9.50766 16.75 9.55766 16.79C9.73766 16.98 9.84766 17.24 9.84766 17.5C9.84766 17.76 9.73766 18.02 9.55766 18.21ZM9.55766 14.71C9.36766 14.89 9.10766 15 8.84766 15C8.58766 15 8.32766 14.89 8.13766 14.71C7.95766 14.52 7.84766 14.26 7.84766 14C7.84766 13.74 7.95766 13.48 8.13766 13.29C8.41766 13.01 8.85766 12.92 9.22766 13.08C9.35766 13.13 9.46766 13.2 9.55766 13.29C9.73766 13.48 9.84766 13.74 9.84766 14C9.84766 14.26 9.73766 14.52 9.55766 14.71ZM13.0577 18.21C12.8677 18.39 12.6077 18.5 12.3477 18.5C12.0877 18.5 11.8277 18.39 11.6377 18.21C11.4577 18.02 11.3477 17.76 11.3477 17.5C11.3477 17.24 11.4577 16.98 11.6377 16.79C12.0077 16.42 12.6877 16.42 13.0577 16.79C13.2377 16.98 13.3477 17.24 13.3477 17.5C13.3477 17.76 13.2377 18.02 13.0577 18.21ZM13.0577 14.71C13.0077 14.75 12.9577 14.79 12.9077 14.83C12.8477 14.87 12.7877 14.9 12.7277 14.92C12.6677 14.95 12.6077 14.97 12.5477 14.98C12.4777 14.99 12.4177 15 12.3477 15C12.0877 15 11.8277 14.89 11.6377 14.71C11.4577 14.52 11.3477 14.26 11.3477 14C11.3477 13.74 11.4577 13.48 11.6377 13.29C11.7277 13.2 11.8377 13.13 11.9677 13.08C12.3377 12.92 12.7777 13.01 13.0577 13.29C13.2377 13.48 13.3477 13.74 13.3477 14C13.3477 14.26 13.2377 14.52 13.0577 14.71ZM16.5577 18.21C16.3677 18.39 16.1077 18.5 15.8477 18.5C15.5877 18.5 15.3277 18.39 15.1377 18.21C14.9577 18.02 14.8477 17.76 14.8477 17.5C14.8477 17.24 14.9577 16.98 15.1377 16.79C15.5077 16.42 16.1877 16.42 16.5577 16.79C16.7377 16.98 16.8477 17.24 16.8477 17.5C16.8477 17.76 16.7377 18.02 16.5577 18.21ZM16.5577 14.71C16.5077 14.75 16.4577 14.79 16.4077 14.83C16.3477 14.87 16.2877 14.9 16.2277 14.92C16.1677 14.95 16.1077 14.97 16.0477 14.98C15.9777 14.99 15.9077 15 15.8477 15C15.5877 15 15.3277 14.89 15.1377 14.71C14.9577 14.52 14.8477 14.26 14.8477 14C14.8477 13.74 14.9577 13.48 15.1377 13.29C15.2377 13.2 15.3377 13.13 15.4677 13.08C15.6477 13 15.8477 12.98 16.0477 13.02C16.1077 13.03 16.1677 13.05 16.2277 13.08C16.2877 13.1 16.3477 13.13 16.4077 13.17C16.4577 13.21 16.5077 13.25 16.5577 13.29C16.7377 13.48 16.8477 13.74 16.8477 14C16.8477 14.26 16.7377 14.52 16.5577 14.71Z" fill="#6D28D9"/>
</g>
<defs>
<filter id="filter0_i_1061_7871" x="0.347656" y="0" width="24" height="25" filterUnits="userSpaceOnUse" color-interpolation-filters="sRGB">
<feFlood flood-opacity="0" result="BackgroundImageFix"/>
<feBlend mode="normal" in="SourceGraphic" in2="BackgroundImageFix" result="shape"/>
<feColorMatrix in="SourceAlpha" type="matrix" values="0 0 0 0 0 0 0 0 0 0 0 0 0 0 0 0 0 0 127 0" result="hardAlpha"/>
<feOffset dy="1"/>
<feGaussianBlur stdDeviation="0.5"/>
<feComposite in2="hardAlpha" operator="arithmetic" k2="-1" k3="1"/>
<feColorMatrix type="matrix" values="0 0 0 0 0.858824 0 0 0 0 0.882353 0 0 0 0 0.937255 0 0 0 0.21 0"/>
<feBlend mode="normal" in2="shape" result="effect1_innerShadow_1061_7871"/>
</filter>
</defs>
</svg>
