<svg width="20" height="21" viewBox="0 0 20 21" fill="none" xmlns="http://www.w3.org/2000/svg">
<path d="M6.66699 5.26367C6.32533 5.26367 6.04199 4.98034 6.04199 4.63867V2.13867C6.04199 1.79701 6.32533 1.51367 6.66699 1.51367C7.00866 1.51367 7.29199 1.79701 7.29199 2.13867V4.63867C7.29199 4.98034 7.00866 5.26367 6.66699 5.26367Z" fill="#94A3B8"/>
<path d="M13.333 5.26367C12.9913 5.26367 12.708 4.98034 12.708 4.63867V2.13867C12.708 1.79701 12.9913 1.51367 13.333 1.51367C13.6747 1.51367 13.958 1.79701 13.958 2.13867V4.63867C13.958 4.98034 13.6747 5.26367 13.333 5.26367Z" fill="#94A3B8"/>
<path d="M17.0837 8.67187H2.91699C2.57533 8.67187 2.29199 8.38854 2.29199 8.04687C2.29199 7.70521 2.57533 7.42188 2.91699 7.42188H17.0837C17.4253 7.42188 17.7087 7.70521 17.7087 8.04687C17.7087 8.38854 17.4253 8.67187 17.0837 8.67187Z" fill="#94A3B8"/>
<path d="M13.3333 19.4303H6.66667C3.625 19.4303 1.875 17.6803 1.875 14.6387V7.55534C1.875 4.51367 3.625 2.76367 6.66667 2.76367H13.3333C16.375 2.76367 18.125 4.51367 18.125 7.55534V14.6387C18.125 17.6803 16.375 19.4303 13.3333 19.4303ZM6.66667 4.01367C4.28333 4.01367 3.125 5.17201 3.125 7.55534V14.6387C3.125 17.022 4.28333 18.1803 6.66667 18.1803H13.3333C15.7167 18.1803 16.875 17.022 16.875 14.6387V7.55534C16.875 5.17201 15.7167 4.01367 13.3333 4.01367H6.66667Z" fill="#94A3B8"/>
<path d="M7.08333 12.5553C6.975 12.5553 6.86666 12.5304 6.76666 12.4887C6.66666 12.447 6.57501 12.3887 6.49167 12.3137C6.41667 12.2303 6.35832 12.1387 6.31666 12.0387C6.27499 11.9387 6.25 11.8303 6.25 11.722C6.25 11.5053 6.34167 11.2887 6.49167 11.1304C6.57501 11.0554 6.66666 10.997 6.76666 10.9553C6.91666 10.8887 7.08334 10.872 7.25001 10.9053C7.30001 10.9137 7.35 10.9303 7.4 10.9553C7.45 10.972 7.5 10.997 7.55 11.0304C7.59166 11.0637 7.63333 11.097 7.67499 11.1304C7.70833 11.172 7.74999 11.2137 7.77499 11.2554C7.80832 11.3054 7.83334 11.3553 7.85001 11.4053C7.87501 11.4553 7.89168 11.5053 7.90001 11.5553C7.90834 11.6137 7.91667 11.6637 7.91667 11.722C7.91667 11.9387 7.82499 12.1553 7.67499 12.3137C7.51666 12.4637 7.3 12.5553 7.08333 12.5553Z" fill="#94A3B8"/>
<path d="M10.0003 12.5554C9.78366 12.5554 9.567 12.4637 9.40867 12.3137C9.37533 12.2721 9.342 12.2304 9.30867 12.1887C9.27534 12.1387 9.25031 12.0887 9.23365 12.0387C9.20865 11.9887 9.19198 11.9387 9.18365 11.8887C9.17532 11.8304 9.16699 11.7804 9.16699 11.7221C9.16699 11.6137 9.19198 11.5054 9.23365 11.4054C9.27531 11.3054 9.33367 11.2137 9.40867 11.1304C9.642 10.8971 10.017 10.8221 10.317 10.9554C10.4253 10.9971 10.5087 11.0554 10.592 11.1304C10.742 11.2887 10.8337 11.5054 10.8337 11.7221C10.8337 11.7804 10.8253 11.8304 10.817 11.8887C10.8087 11.9387 10.792 11.9887 10.767 12.0387C10.7503 12.0887 10.7253 12.1387 10.692 12.1887C10.6586 12.2304 10.6253 12.2721 10.592 12.3137C10.5087 12.3887 10.4253 12.4471 10.317 12.4887C10.217 12.5304 10.1087 12.5554 10.0003 12.5554Z" fill="#94A3B8"/>
<path d="M7.08333 15.4714C6.975 15.4714 6.86666 15.4464 6.76666 15.4048C6.66666 15.3631 6.57501 15.3047 6.49167 15.2297C6.41667 15.1464 6.35832 15.0631 6.31666 14.9547C6.27499 14.8547 6.25 14.7464 6.25 14.6381C6.25 14.4214 6.34167 14.2048 6.49167 14.0464C6.57501 13.9714 6.66666 13.9131 6.76666 13.8714C7.075 13.7381 7.44166 13.8131 7.67499 14.0464C7.70833 14.0881 7.74999 14.1297 7.77499 14.1714C7.80832 14.2214 7.83334 14.2714 7.85001 14.3214C7.87501 14.3714 7.89168 14.4214 7.90001 14.4797C7.90834 14.5297 7.91667 14.5881 7.91667 14.6381C7.91667 14.8547 7.82499 15.0714 7.67499 15.2297C7.51666 15.3797 7.3 15.4714 7.08333 15.4714Z" fill="#94A3B8"/>
</svg>
