<svg width="25" height="24" viewBox="0 0 25 24" fill="none" xmlns="http://www.w3.org/2000/svg">
<g filter="url(#filter0_i_1055_6991)">
<path d="M11.3977 14.95L9.54766 16.8C9.15766 17.19 8.53766 17.19 8.13766 16.81C8.02766 16.7 7.91766 16.6 7.80766 16.49C6.77766 15.45 5.84766 14.36 5.01766 13.22C4.19766 12.08 3.53766 10.94 3.05766 9.81C2.58766 8.67 2.34766 7.58 2.34766 6.54C2.34766 5.86 2.46766 5.21 2.70766 4.61C2.94766 4 3.32766 3.44 3.85766 2.94C4.49766 2.31 5.19766 2 5.93766 2C6.21766 2 6.49766 2.06 6.74766 2.18C7.00766 2.3 7.23766 2.48 7.41766 2.74L9.73766 6.01C9.91766 6.26 10.0477 6.49 10.1377 6.71C10.2277 6.92 10.2777 7.13 10.2777 7.32C10.2777 7.56 10.2077 7.8 10.0677 8.03C9.93766 8.26 9.74766 8.5 9.50766 8.74L8.74766 9.53C8.63766 9.64 8.58766 9.77 8.58766 9.93C8.58766 10.01 8.59766 10.08 8.61766 10.16C8.64766 10.24 8.67766 10.3 8.69766 10.36C8.87766 10.69 9.18766 11.12 9.62766 11.64C10.0777 12.16 10.5577 12.69 11.0777 13.22C11.1777 13.32 11.2877 13.42 11.3877 13.52C11.7877 13.91 11.7977 14.55 11.3977 14.95Z" fill="#6D28D9"/>
<path d="M22.3178 18.33C22.3178 18.61 22.2678 18.9 22.1678 19.18C22.1378 19.26 22.1078 19.34 22.0678 19.42C21.8978 19.78 21.6778 20.12 21.3878 20.44C20.8978 20.98 20.3578 21.37 19.7478 21.62C19.7378 21.62 19.7278 21.63 19.7178 21.63C19.1278 21.87 18.4878 22 17.7978 22C16.7778 22 15.6878 21.76 14.5378 21.27C13.3878 20.78 12.2378 20.12 11.0978 19.29C10.7078 19 10.3178 18.71 9.94775 18.4L13.2178 15.13C13.4978 15.34 13.7478 15.5 13.9578 15.61C14.0078 15.63 14.0678 15.66 14.1378 15.69C14.2178 15.72 14.2978 15.73 14.3878 15.73C14.5578 15.73 14.6878 15.67 14.7978 15.56L15.5578 14.81C15.8078 14.56 16.0478 14.37 16.2778 14.25C16.5078 14.11 16.7378 14.04 16.9878 14.04C17.1778 14.04 17.3778 14.08 17.5978 14.17C17.8178 14.26 18.0478 14.39 18.2978 14.56L21.6078 16.91C21.8678 17.09 22.0478 17.3 22.1578 17.55C22.2578 17.8 22.3178 18.05 22.3178 18.33Z" fill="#6D28D9"/>
</g>
<defs>
<filter id="filter0_i_1055_6991" x="0.347656" y="0" width="24" height="25" filterUnits="userSpaceOnUse" color-interpolation-filters="sRGB">
<feFlood flood-opacity="0" result="BackgroundImageFix"/>
<feBlend mode="normal" in="SourceGraphic" in2="BackgroundImageFix" result="shape"/>
<feColorMatrix in="SourceAlpha" type="matrix" values="0 0 0 0 0 0 0 0 0 0 0 0 0 0 0 0 0 0 127 0" result="hardAlpha"/>
<feOffset dy="1"/>
<feGaussianBlur stdDeviation="0.5"/>
<feComposite in2="hardAlpha" operator="arithmetic" k2="-1" k3="1"/>
<feColorMatrix type="matrix" values="0 0 0 0 0.858824 0 0 0 0 0.882353 0 0 0 0 0.937255 0 0 0 0.21 0"/>
<feBlend mode="normal" in2="shape" result="effect1_innerShadow_1055_6991"/>
</filter>
</defs>
</svg>
