<svg width="24" height="25" viewBox="0 0 24 25" fill="none" xmlns="http://www.w3.org/2000/svg">
<g filter="url(#filter0_i_2014_19784)">
<path d="M17.2798 11.7002C17.0898 11.7002 16.8997 11.6302 16.7497 11.4802C16.4597 11.1902 16.4597 10.7102 16.7497 10.4202L19.9397 7.2302L16.7497 4.04019C16.4597 3.75019 16.4597 3.2702 16.7497 2.9802C17.0397 2.6902 17.5197 2.6902 17.8097 2.9802L21.5298 6.70023C21.6698 6.84023 21.7497 7.0302 21.7497 7.2302C21.7497 7.4302 21.6698 7.62022 21.5298 7.76022L17.8097 11.4802C17.6597 11.6202 17.4698 11.7002 17.2798 11.7002Z" fill="#94A3B8"/>
<path d="M21 7.97998H3C2.59 7.97998 2.25 7.63998 2.25 7.22998C2.25 6.81998 2.59 6.47998 3 6.47998H21C21.41 6.47998 21.75 6.81998 21.75 7.22998C21.75 7.63998 21.41 7.97998 21 7.97998Z" fill="#94A3B8"/>
<path d="M6.71997 22.25C6.52997 22.25 6.34 22.18 6.19 22.03L2.46997 18.31C2.32997 18.17 2.25 17.98 2.25 17.78C2.25 17.58 2.32997 17.39 2.46997 17.25L6.19 13.53C6.48 13.24 6.96 13.24 7.25 13.53C7.54 13.82 7.54 14.3 7.25 14.59L4.06 17.78L7.25 20.9699C7.54 21.2599 7.54 21.74 7.25 22.03C7.11 22.18 6.91997 22.25 6.71997 22.25Z" fill="#94A3B8"/>
<path d="M21 18.52H3C2.59 18.52 2.25 18.18 2.25 17.77C2.25 17.36 2.59 17.02 3 17.02H21C21.41 17.02 21.75 17.36 21.75 17.77C21.75 18.18 21.41 18.52 21 18.52Z" fill="#94A3B8"/>
</g>
<defs>
<filter id="filter0_i_2014_19784" x="2.25" y="2.7627" width="19.5" height="20.4873" filterUnits="userSpaceOnUse" color-interpolation-filters="sRGB">
<feFlood flood-opacity="0" result="BackgroundImageFix"/>
<feBlend mode="normal" in="SourceGraphic" in2="BackgroundImageFix" result="shape"/>
<feColorMatrix in="SourceAlpha" type="matrix" values="0 0 0 0 0 0 0 0 0 0 0 0 0 0 0 0 0 0 127 0" result="hardAlpha"/>
<feOffset dy="1"/>
<feGaussianBlur stdDeviation="1"/>
<feComposite in2="hardAlpha" operator="arithmetic" k2="-1" k3="1"/>
<feColorMatrix type="matrix" values="0 0 0 0 0.352941 0 0 0 0 0.396078 0 0 0 0 0.443137 0 0 0 1 0"/>
<feBlend mode="normal" in2="shape" result="effect1_innerShadow_2014_19784"/>
</filter>
</defs>
</svg>
