<svg width="16" height="17" viewBox="0 0 16 17" fill="none" xmlns="http://www.w3.org/2000/svg">
<g filter="url(#filter0_i_1368_7086)">
<path d="M7.60016 15.3881H5.06683C2.14016 15.3881 0.833496 14.0815 0.833496 11.1548V8.62146C0.833496 5.69479 2.14016 4.38812 5.06683 4.38812H7.06683C7.34016 4.38812 7.56683 4.61479 7.56683 4.88812C7.56683 5.16146 7.34016 5.38812 7.06683 5.38812H5.06683C2.68016 5.38812 1.8335 6.23479 1.8335 8.62146V11.1548C1.8335 13.5415 2.68016 14.3881 5.06683 14.3881H7.60016C9.98683 14.3881 10.8335 13.5415 10.8335 11.1548V9.15479C10.8335 8.88146 11.0602 8.65479 11.3335 8.65479C11.6068 8.65479 11.8335 8.88146 11.8335 9.15479V11.1548C11.8335 14.0815 10.5268 15.3881 7.60016 15.3881Z" fill="#6D28D9"/>
<path d="M11.3336 9.65478H9.20023C7.32689 9.65478 6.56689 8.89478 6.56689 7.02145V4.88812C6.56689 4.68812 6.68689 4.50145 6.87356 4.42812C7.06023 4.34812 7.27356 4.39478 7.42023 4.53478L11.6869 8.80145C11.8269 8.94145 11.8736 9.16145 11.7936 9.34811C11.7202 9.53478 11.5336 9.65478 11.3336 9.65478ZM7.56689 6.09478V7.02145C7.56689 8.34811 7.87356 8.65478 9.20023 8.65478H10.1269L7.56689 6.09478Z" fill="#6D28D9"/>
<path d="M10.4001 2.05475H7.7334C7.46007 2.05475 7.2334 1.82808 7.2334 1.55475C7.2334 1.28142 7.46007 1.05475 7.7334 1.05475H10.4001C10.6734 1.05475 10.9001 1.28142 10.9001 1.55475C10.9001 1.82808 10.6734 2.05475 10.4001 2.05475Z" fill="#6D28D9"/>
<path d="M4.6665 4.05475C4.39317 4.05475 4.1665 3.82808 4.1665 3.55475C4.1665 2.17475 5.2865 1.05475 6.6665 1.05475H8.41317C8.6865 1.05475 8.91317 1.28142 8.91317 1.55475C8.91317 1.82808 8.6865 2.05475 8.41317 2.05475H6.6665C5.83984 2.05475 5.1665 2.72808 5.1665 3.55475C5.1665 3.82808 4.93984 4.05475 4.6665 4.05475Z" fill="#6D28D9"/>
<path d="M12.7935 12.0547C12.5201 12.0547 12.2935 11.8281 12.2935 11.5547C12.2935 11.2814 12.5201 11.0547 12.7935 11.0547C13.5535 11.0547 14.1668 10.4347 14.1668 9.68142V5.55475C14.1668 5.28142 14.3935 5.05475 14.6668 5.05475C14.9401 5.05475 15.1668 5.28142 15.1668 5.55475V9.68142C15.1668 10.9881 14.1001 12.0547 12.7935 12.0547Z" fill="#6D28D9"/>
<path d="M14.6665 6.05474H12.6665C10.8932 6.05474 10.1665 5.32807 10.1665 3.55474V1.55474C10.1665 1.35474 10.2865 1.16807 10.4732 1.09474C10.6598 1.01474 10.8732 1.06141 11.0198 1.20141L15.0198 5.20141C15.1598 5.34141 15.2065 5.56141 15.1265 5.74807C15.0532 5.93474 14.8665 6.05474 14.6665 6.05474ZM11.1665 2.76141V3.55474C11.1665 4.77474 11.4465 5.05474 12.6665 5.05474H13.4598L11.1665 2.76141Z" fill="#6D28D9"/>
</g>
<defs>
<filter id="filter0_i_1368_7086" x="0" y="0.221436" width="16" height="17" filterUnits="userSpaceOnUse" color-interpolation-filters="sRGB">
<feFlood flood-opacity="0" result="BackgroundImageFix"/>
<feBlend mode="normal" in="SourceGraphic" in2="BackgroundImageFix" result="shape"/>
<feColorMatrix in="SourceAlpha" type="matrix" values="0 0 0 0 0 0 0 0 0 0 0 0 0 0 0 0 0 0 127 0" result="hardAlpha"/>
<feOffset dy="1"/>
<feGaussianBlur stdDeviation="0.5"/>
<feComposite in2="hardAlpha" operator="arithmetic" k2="-1" k3="1"/>
<feColorMatrix type="matrix" values="0 0 0 0 0 0 0 0 0 0 0 0 0 0 0 0 0 0 0.25 0"/>
<feBlend mode="normal" in2="shape" result="effect1_innerShadow_1368_7086"/>
</filter>
</defs>
</svg>
