<svg width="24" height="25" viewBox="0 0 24 25" fill="none" xmlns="http://www.w3.org/2000/svg">
<g filter="url(#filter0_i_10084_29187)">
<path d="M5.56971 23.2008C3.22971 23.2008 1.24971 21.2208 1.24971 18.8808V12.7208C1.19971 9.80078 2.27971 7.05078 4.29971 4.99078C6.31971 2.94078 9.02971 1.80078 11.9497 1.80078C17.9097 1.80078 22.7497 6.65078 22.7497 12.6008V18.7608C22.7497 21.1408 20.8097 23.0808 18.4297 23.0808C16.0897 23.0808 14.1097 21.1008 14.1097 18.7608V15.9508C14.1097 14.5008 15.2497 13.3608 16.6997 13.3608C18.1497 13.3608 19.2897 14.5008 19.2897 15.9508V18.9808C19.2897 19.3908 18.9497 19.7308 18.5397 19.7308C18.1297 19.7308 17.7897 19.3908 17.7897 18.9808V15.9508C17.7897 15.2708 17.2397 14.8608 16.6997 14.8608C16.0197 14.8608 15.6097 15.4108 15.6097 15.9508V18.7608C15.6097 20.2908 16.8997 21.5808 18.4297 21.5808C19.9597 21.5808 21.2497 20.2908 21.2497 18.7608V12.6008C21.2497 7.47078 17.0797 3.30078 11.9497 3.30078C9.43971 3.30078 7.10971 4.27078 5.36971 6.04078C3.62971 7.81078 2.69971 10.1808 2.74971 12.7008V18.8808C2.74971 20.4108 4.03971 21.7008 5.56971 21.7008C7.09971 21.7008 8.38971 20.4108 8.38971 18.8808V16.0708C8.38971 15.3908 7.83971 14.9808 7.29971 14.9808C6.61971 14.9808 6.20971 15.5308 6.20971 16.0708V18.9908C6.20971 19.4008 5.86971 19.7408 5.45971 19.7408C5.04971 19.7408 4.70971 19.4008 4.70971 18.9908V16.0708C4.70971 14.6208 5.84971 13.4808 7.29971 13.4808C8.74971 13.4808 9.88971 14.6208 9.88971 16.0708V18.8808C9.88971 21.2208 7.90971 23.2008 5.56971 23.2008Z" fill="#5B21B6"/>
</g>
<defs>
<filter id="filter0_i_10084_29187" x="0" y="0.5" width="24" height="25" filterUnits="userSpaceOnUse" color-interpolation-filters="sRGB">
<feFlood flood-opacity="0" result="BackgroundImageFix"/>
<feBlend mode="normal" in="SourceGraphic" in2="BackgroundImageFix" result="shape"/>
<feColorMatrix in="SourceAlpha" type="matrix" values="0 0 0 0 0 0 0 0 0 0 0 0 0 0 0 0 0 0 127 0" result="hardAlpha"/>
<feOffset dy="1"/>
<feGaussianBlur stdDeviation="0.5"/>
<feComposite in2="hardAlpha" operator="arithmetic" k2="-1" k3="1"/>
<feColorMatrix type="matrix" values="0 0 0 0 0.858824 0 0 0 0 0.882353 0 0 0 0 0.937255 0 0 0 0.21 0"/>
<feBlend mode="normal" in2="shape" result="effect1_innerShadow_10084_29187"/>
</filter>
</defs>
</svg>
