<svg width="21" height="21" viewBox="0 0 21 21" fill="none" xmlns="http://www.w3.org/2000/svg">
<path d="M9.95833 19.9141H6.79167C3.13333 19.9141 1.5 18.2807 1.5 14.6224V11.4557C1.5 7.7974 3.13333 6.16406 6.79167 6.16406H9.29167C9.63333 6.16406 9.91667 6.4474 9.91667 6.78906C9.91667 7.13073 9.63333 7.41406 9.29167 7.41406H6.79167C3.80833 7.41406 2.75 8.4724 2.75 11.4557V14.6224C2.75 17.6057 3.80833 18.6641 6.79167 18.6641H9.95833C12.9417 18.6641 14 17.6057 14 14.6224V12.1224C14 11.7807 14.2833 11.4974 14.625 11.4974C14.9667 11.4974 15.25 11.7807 15.25 12.1224V14.6224C15.25 18.2807 13.6167 19.9141 9.95833 19.9141Z" fill="#5B21B6"/>
<path d="M14.6224 12.7462H11.9557C9.61406 12.7462 8.66406 11.7962 8.66406 9.4545V6.78783C8.66406 6.53783 8.81406 6.3045 9.0474 6.21283C9.28073 6.11283 9.5474 6.17117 9.73073 6.34617L15.0641 11.6795C15.2391 11.8545 15.2974 12.1295 15.1974 12.3628C15.1057 12.5962 14.8724 12.7462 14.6224 12.7462ZM9.91406 8.29617V9.4545C9.91406 11.1128 10.2974 11.4962 11.9557 11.4962H13.1141L9.91406 8.29617Z" fill="#5B21B6"/>
<path d="M13.4583 3.24609H10.125C9.78333 3.24609 9.5 2.96276 9.5 2.62109C9.5 2.27943 9.78333 1.99609 10.125 1.99609H13.4583C13.8 1.99609 14.0833 2.27943 14.0833 2.62109C14.0833 2.96276 13.8 3.24609 13.4583 3.24609Z" fill="#5B21B6"/>
<path d="M6.28906 5.74609C5.9474 5.74609 5.66406 5.46276 5.66406 5.12109C5.66406 3.39609 7.06406 1.99609 8.78906 1.99609H10.9724C11.3141 1.99609 11.5974 2.27943 11.5974 2.62109C11.5974 2.96276 11.3141 3.24609 10.9724 3.24609H8.78906C7.75573 3.24609 6.91406 4.08776 6.91406 5.12109C6.91406 5.46276 6.63073 5.74609 6.28906 5.74609Z" fill="#5B21B6"/>
<path d="M16.4492 15.7461C16.1076 15.7461 15.8242 15.4628 15.8242 15.1211C15.8242 14.7794 16.1076 14.4961 16.4492 14.4961C17.3992 14.4961 18.1659 13.7211 18.1659 12.7794V7.62109C18.1659 7.27943 18.4492 6.99609 18.7909 6.99609C19.1326 6.99609 19.4159 7.27943 19.4159 7.62109V12.7794C19.4159 14.4128 18.0826 15.7461 16.4492 15.7461Z" fill="#5B21B6"/>
<path d="M18.7891 8.24682H16.2891C14.0724 8.24682 13.1641 7.33848 13.1641 5.12182V2.62182C13.1641 2.37182 13.3141 2.13848 13.5474 2.04682C13.7807 1.94682 14.0474 2.00515 14.2307 2.18015L19.2307 7.18015C19.4057 7.35515 19.4641 7.63015 19.3641 7.86348C19.2724 8.09682 19.0391 8.24682 18.7891 8.24682ZM14.4141 4.13015V5.12182C14.4141 6.64682 14.7641 6.99682 16.2891 6.99682H17.2807L14.4141 4.13015Z" fill="#5B21B6"/>
</svg>
