<svg width="21" height="18" viewBox="0 0 21 18" fill="none" xmlns="http://www.w3.org/2000/svg">
<path d="M15.3477 0.5H5.34766C2.34766 0.5 0.347656 2 0.347656 5.5V12.5C0.347656 16 2.34766 17.5 5.34766 17.5H15.3477C18.3477 17.5 20.3477 16 20.3477 12.5V5.5C20.3477 2 18.3477 0.5 15.3477 0.5ZM15.8177 6.59L12.6877 9.09C12.0277 9.62 11.1877 9.88 10.3477 9.88C9.50766 9.88 8.65766 9.62 8.00766 9.09L4.87766 6.59C4.55766 6.33 4.50766 5.85 4.75766 5.53C5.01766 5.21 5.48766 5.15 5.80766 5.41L8.93766 7.91C9.69766 8.52 10.9877 8.52 11.7477 7.91L14.8777 5.41C15.1977 5.15 15.6777 5.2 15.9277 5.53C16.1877 5.85 16.1377 6.33 15.8177 6.59Z" fill="#6D28D9"/>
</svg>
