<svg width="17" height="17" viewBox="0 0 17 17" fill="none" xmlns="http://www.w3.org/2000/svg">
<g filter="url(#filter0_i_1368_7080)">
<path d="M11.8335 14.3881H5.16683C2.7335 14.3881 1.3335 12.9881 1.3335 10.5547V5.88808C1.3335 3.45475 2.7335 2.05475 5.16683 2.05475H11.8335C14.2668 2.05475 15.6668 3.45475 15.6668 5.88808V10.5547C15.6668 12.9881 14.2668 14.3881 11.8335 14.3881ZM5.16683 3.05475C3.26016 3.05475 2.3335 3.98142 2.3335 5.88808V10.5547C2.3335 12.4614 3.26016 13.3881 5.16683 13.3881H11.8335C13.7402 13.3881 14.6668 12.4614 14.6668 10.5547V5.88808C14.6668 3.98142 13.7402 3.05475 11.8335 3.05475H5.16683Z" fill="#6D28D9"/>
<path d="M8.49969 8.80141C7.93969 8.80141 7.37302 8.62808 6.93969 8.27475L4.85302 6.60808C4.63969 6.43475 4.59969 6.12141 4.77302 5.90808C4.94636 5.69475 5.25969 5.65475 5.47303 5.82808L7.55969 7.49475C8.06635 7.90142 8.92635 7.90142 9.43302 7.49475L11.5197 5.82808C11.733 5.65475 12.053 5.68808 12.2197 5.90808C12.393 6.12141 12.3597 6.44142 12.1397 6.60808L10.053 8.27475C9.62636 8.62808 9.05969 8.80141 8.49969 8.80141Z" fill="#6D28D9"/>
</g>
<defs>
<filter id="filter0_i_1368_7080" x="0.5" y="0.221436" width="16" height="17" filterUnits="userSpaceOnUse" color-interpolation-filters="sRGB">
<feFlood flood-opacity="0" result="BackgroundImageFix"/>
<feBlend mode="normal" in="SourceGraphic" in2="BackgroundImageFix" result="shape"/>
<feColorMatrix in="SourceAlpha" type="matrix" values="0 0 0 0 0 0 0 0 0 0 0 0 0 0 0 0 0 0 127 0" result="hardAlpha"/>
<feOffset dy="1"/>
<feGaussianBlur stdDeviation="0.5"/>
<feComposite in2="hardAlpha" operator="arithmetic" k2="-1" k3="1"/>
<feColorMatrix type="matrix" values="0 0 0 0 0 0 0 0 0 0 0 0 0 0 0 0 0 0 0.25 0"/>
<feBlend mode="normal" in2="shape" result="effect1_innerShadow_1368_7080"/>
</filter>
</defs>
</svg>
