<svg width="24" height="24" viewBox="0 0 24 24" fill="none" xmlns="http://www.w3.org/2000/svg">
<g clip-path="url(#clip0_9098_5367)">
<path d="M23.25 20.2505H12.75C12.336 20.2505 12 19.9145 12 19.5005V4.50049C12 4.08649 12.336 3.75049 12.75 3.75049H23.25C23.664 3.75049 24 4.08649 24 4.50049V19.5005C24 19.9145 23.664 20.2505 23.25 20.2505Z" fill="#ECEFF1"/>
<path d="M15.75 8.25049H12.75C12.336 8.25049 12 7.91449 12 7.50049C12 7.08649 12.336 6.75049 12.75 6.75049H15.75C16.164 6.75049 16.5 7.08649 16.5 7.50049C16.5 7.91449 16.164 8.25049 15.75 8.25049ZM15.75 11.2505H12.75C12.336 11.2505 12 10.9145 12 10.5005C12 10.0865 12.336 9.75049 12.75 9.75049H15.75C16.164 9.75049 16.5 10.0865 16.5 10.5005C16.5 10.9145 16.164 11.2505 15.75 11.2505ZM15.75 14.2505H12.75C12.336 14.2505 12 13.9145 12 13.5005C12 13.0865 12.336 12.7505 12.75 12.7505H15.75C16.164 12.7505 16.5 13.0865 16.5 13.5005C16.5 13.9145 16.164 14.2505 15.75 14.2505ZM15.75 17.2505H12.75C12.336 17.2505 12 16.9145 12 16.5005C12 16.0865 12.336 15.7505 12.75 15.7505H15.75C16.164 15.7505 16.5 16.0865 16.5 16.5005C16.5 16.9145 16.164 17.2505 15.75 17.2505ZM20.25 8.25049H18.75C18.336 8.25049 18 7.91449 18 7.50049C18 7.08649 18.336 6.75049 18.75 6.75049H20.25C20.664 6.75049 21 7.08649 21 7.50049C21 7.91449 20.664 8.25049 20.25 8.25049ZM20.25 11.2505H18.75C18.336 11.2505 18 10.9145 18 10.5005C18 10.0865 18.336 9.75049 18.75 9.75049H20.25C20.664 9.75049 21 10.0865 21 10.5005C21 10.9145 20.664 11.2505 20.25 11.2505ZM20.25 14.2505H18.75C18.336 14.2505 18 13.9145 18 13.5005C18 13.0865 18.336 12.7505 18.75 12.7505H20.25C20.664 12.7505 21 13.0865 21 13.5005C21 13.9145 20.664 14.2505 20.25 14.2505ZM20.25 17.2505H18.75C18.336 17.2505 18 16.9145 18 16.5005C18 16.0865 18.336 15.7505 18.75 15.7505H20.25C20.664 15.7505 21 16.0865 21 16.5005C21 16.9145 20.664 17.2505 20.25 17.2505Z" fill="#388E3C"/>
<path d="M13.2285 0.923022C13.0575 0.780522 12.828 0.719022 12.612 0.764022L0.612001 3.01402C0.439951 3.04581 0.284493 3.13692 0.172674 3.27148C0.0608545 3.40605 -0.000246856 3.57556 7.49592e-07 3.75052V20.2505C7.49592e-07 20.6105 0.256501 20.921 0.612001 20.987L12.612 23.237C12.657 23.246 12.7035 23.2505 12.75 23.2505C12.924 23.2505 13.0935 23.1905 13.2285 23.078C13.3134 23.0076 13.3818 22.9194 13.4287 22.8196C13.4756 22.7198 13.5 22.6108 13.5 22.5005V1.50052C13.5 1.27702 13.401 1.06552 13.2285 0.923022Z" fill="#2E7D32"/>
<path d="M10.3148 14.5072L7.94327 11.7967L10.3418 8.71274C10.5968 8.38574 10.5368 7.91474 10.2113 7.65974C9.88577 7.40474 9.41477 7.46474 9.15827 7.79024L6.93677 10.6462L5.06477 8.50724C4.79027 8.19224 4.31627 8.16374 4.00727 8.43674C3.69527 8.70974 3.66377 9.18374 3.93677 9.49424L5.99927 11.8522L3.90827 14.5402C3.65327 14.8672 3.71327 15.3382 4.03877 15.5932C4.17108 15.6954 4.33358 15.7508 4.50077 15.7507C4.72427 15.7507 4.94477 15.6517 5.09327 15.4612L7.00577 13.0012L9.18677 15.4927C9.25669 15.5738 9.34328 15.6388 9.44061 15.6833C9.53794 15.7278 9.64374 15.7508 9.75077 15.7507C9.92627 15.7507 10.1018 15.6892 10.2443 15.5647C10.5563 15.2917 10.5878 14.8177 10.3148 14.5072Z" fill="#FAFAFA"/>
</g>
<defs>
<clipPath id="clip0_9098_5367">
<rect width="24" height="24" fill="white"/>
</clipPath>
</defs>
</svg>
