<svg width="21" height="21" viewBox="0 0 21 21" fill="none" xmlns="http://www.w3.org/2000/svg">
<path d="M13.2169 18.57H7.78356C3.69189 18.57 1.94189 16.82 1.94189 12.7284V12.62C1.94189 8.92005 3.40023 7.13672 6.66689 6.82838C7.00023 6.80338 7.31689 7.05338 7.35023 7.39505C7.38356 7.73672 7.13356 8.04505 6.78356 8.07838C4.16689 8.32005 3.19189 9.55338 3.19189 12.6284V12.7367C3.19189 16.1284 4.39189 17.3284 7.78356 17.3284H13.2169C16.6086 17.3284 17.8086 16.1284 17.8086 12.7367V12.6284C17.8086 9.53672 16.8169 8.30338 14.1502 8.07838C13.8086 8.04505 13.5502 7.74505 13.5836 7.40338C13.6169 7.06172 13.9086 6.80338 14.2586 6.83672C17.5752 7.12005 19.0586 8.91172 19.0586 12.6367V12.745C19.0586 16.82 17.3086 18.57 13.2169 18.57Z" fill="white"/>
<path d="M10.5 13.1533C10.1583 13.1533 9.875 12.8699 9.875 12.5283V3.04492C9.875 2.70326 10.1583 2.41992 10.5 2.41992C10.8417 2.41992 11.125 2.70326 11.125 3.04492V12.5283C11.125 12.8699 10.8417 13.1533 10.5 13.1533Z" fill="white"/>
<path d="M13.2917 5.52835C13.1334 5.52835 12.975 5.47002 12.85 5.34502L10.5 2.99502L8.15003 5.34502C7.90837 5.58669 7.50837 5.58669 7.2667 5.34502C7.02503 5.10335 7.02503 4.70335 7.2667 4.46169L10.0584 1.67002C10.3 1.42835 10.7 1.42835 10.9417 1.67002L13.7334 4.46169C13.975 4.70335 13.975 5.10335 13.7334 5.34502C13.6167 5.47002 13.45 5.52835 13.2917 5.52835Z" fill="white"/>
</svg>
