<svg width="41" height="41" viewBox="0 0 41 41" fill="none" xmlns="http://www.w3.org/2000/svg">
<g clip-path="url(#clip0_1889_9200)">
<path d="M38.858 -0.17334H1.3991C0.116047 -0.17334 -0.924072 0.86678 -0.924072 2.14983V39.6088C-0.924072 40.8918 0.116047 41.9319 1.3991 41.9319H38.858C40.1411 41.9319 41.1812 40.8918 41.1812 39.6088V2.14983C41.1812 0.86678 40.1411 -0.17334 38.858 -0.17334Z" fill="#3D5A98"/>
<path d="M22.4646 36.1987V21.8768H27.2708L27.9896 16.2956H22.4646V12.7331C22.4646 11.1175 22.9146 10.0143 25.2302 10.0143H28.1864V5.01432C26.7549 4.86513 25.3163 4.79419 23.8771 4.80183C19.6208 4.80183 16.6896 7.39558 16.6896 12.18V16.2956H11.8833V21.8768H16.6896V36.1987H22.4646Z" fill="white"/>
</g>
<defs>
<clipPath id="clip0_1889_9200">
<rect x="0.0349121" y="0.5" width="40" height="40" rx="20" fill="white"/>
</clipPath>
</defs>
</svg>
