<svg width="17" height="16" viewBox="0 0 17 16" fill="none" xmlns="http://www.w3.org/2000/svg">
<g clip-path="url(#clip0_3649_14336)" filter="url(#filter0_i_3649_14336)">
<path d="M8.10352 0C3.68528 0 0.103516 3.58176 0.103516 8C0.103516 11.7517 2.68656 14.8998 6.17104 15.7645V10.4448H4.52144V8H6.17104V6.94656C6.17104 4.22368 7.40336 2.9616 10.0766 2.9616C10.5835 2.9616 11.4581 3.06112 11.8158 3.16032V5.37632C11.627 5.35648 11.299 5.34656 10.8917 5.34656C9.58 5.34656 9.07312 5.84352 9.07312 7.13536V8H11.6862L11.2373 10.4448H9.07312V15.9414C13.0344 15.463 16.1038 12.0902 16.1038 8C16.1035 3.58176 12.5218 0 8.10352 0Z" fill="#5534C1"/>
</g>
<defs>
<filter id="filter0_i_3649_14336" x="0.103516" y="0" width="16" height="17" filterUnits="userSpaceOnUse" color-interpolation-filters="sRGB">
<feFlood flood-opacity="0" result="BackgroundImageFix"/>
<feBlend mode="normal" in="SourceGraphic" in2="BackgroundImageFix" result="shape"/>
<feColorMatrix in="SourceAlpha" type="matrix" values="0 0 0 0 0 0 0 0 0 0 0 0 0 0 0 0 0 0 127 0" result="hardAlpha"/>
<feOffset dy="1"/>
<feGaussianBlur stdDeviation="0.5"/>
<feComposite in2="hardAlpha" operator="arithmetic" k2="-1" k3="1"/>
<feColorMatrix type="matrix" values="0 0 0 0 0 0 0 0 0 0 0 0 0 0 0 0 0 0 0.21 0"/>
<feBlend mode="normal" in2="shape" result="effect1_innerShadow_3649_14336"/>
</filter>
<clipPath id="clip0_3649_14336">
<rect width="16" height="16" fill="white" transform="translate(0.103516)"/>
</clipPath>
</defs>
</svg>
