<svg width="21" height="28" viewBox="0 0 21 28" fill="none" xmlns="http://www.w3.org/2000/svg">
<path d="M21.0005 4.15466V26.2139C21.0005 26.7367 20.5739 27.1632 20.051 27.1632H2.54716C2.02425 27.1632 1.59766 26.7367 1.59766 26.2139V0.949291C1.59766 0.426527 2.02425 6.10352e-05 2.54716 6.10352e-05H16.8379L21.0005 4.15466Z" fill="white"/>
<path d="M20.9956 4.1546V26.2139C20.9956 26.7366 20.569 27.1631 20.0461 27.1631H18.6907C19.2136 27.1631 19.6402 26.7366 19.6402 26.2139V4.1546L15.4844 0H16.8398L20.9956 4.1546Z" fill="#E5E5E5"/>
<path d="M20.9986 4.15466H17.7854C17.2625 4.15466 16.8359 3.7282 16.8359 3.20543V6.10352e-05L20.9986 4.15466Z" fill="#CECECE"/>
<path d="M16.9895 12.862H5.7193C5.34087 12.862 5.03125 12.5525 5.03125 12.1742C5.03125 11.7959 5.34087 11.4863 5.7193 11.4863H16.9895C17.3679 11.4863 17.6775 11.7959 17.6775 12.1742C17.6775 12.5594 17.3748 12.862 16.9895 12.862Z" fill="#CECECE"/>
<path d="M16.9895 16.3913H5.7193C5.34087 16.3913 5.03125 16.0818 5.03125 15.7035C5.03125 15.3252 5.34087 15.0156 5.7193 15.0156H16.9895C17.3679 15.0156 17.6775 15.3252 17.6775 15.7035C17.6775 16.0887 17.3748 16.3913 16.9895 16.3913Z" fill="#CECECE"/>
<path d="M16.9895 19.9196H5.7193C5.34087 19.9196 5.03125 19.6101 5.03125 19.2318C5.03125 18.8535 5.34087 18.5439 5.7193 18.5439H16.9895C17.3679 18.5439 17.6775 18.8535 17.6775 19.2318C17.6775 19.617 17.3748 19.9196 16.9895 19.9196Z" fill="#CECECE"/>
<path d="M9.52942 9.28562H0V5.4268C0 5.1379 0.233932 4.89716 0.529791 4.89716H9.52942C9.8184 4.89716 10.0592 5.13102 10.0592 5.4268V8.75598C10.0592 9.04488 9.82528 9.28562 9.52942 9.28562Z" fill="#F55B4B"/>
<path d="M10.0592 8.6872V8.75598C10.0592 9.04488 9.82528 9.28562 9.52942 9.28562H0V5.4268C0 5.1379 0.233932 4.89716 0.529791 4.89716H0.798131V6.27285C0.798131 7.60728 1.87836 8.69408 3.22005 8.69408H10.0592V8.6872Z" fill="#DD4E43"/>
<path d="M0 9.28564L1.59626 11.1016V9.28564H0Z" fill="#DB1B1B"/>
<path d="M2.57864 7.92371V8.38456H1.14062V7.92371H1.49153V6.11467H1.14062V5.65381H2.57864C2.91578 5.65381 3.17036 5.72947 3.35613 5.88768C3.5419 6.04588 3.63135 6.25912 3.63135 6.5205C3.63135 6.67182 3.59694 6.80939 3.53502 6.93321C3.4731 7.05702 3.39053 7.15332 3.28733 7.21522C3.18412 7.28401 3.07403 7.32528 2.9433 7.35279C2.81258 7.38031 2.65432 7.38718 2.46167 7.38718H2.20022V7.91683H2.57864V7.92371ZM2.20022 6.93321H2.30342C2.54424 6.93321 2.70249 6.89193 2.77129 6.81627C2.8401 6.74061 2.8745 6.63743 2.8745 6.5205C2.8745 6.4242 2.84697 6.33478 2.79881 6.26599C2.75065 6.19721 2.69561 6.15594 2.63368 6.1353C2.57176 6.12155 2.46855 6.10779 2.32406 6.10779H2.19333V6.93321H2.20022Z" fill="white"/>
<path d="M3.79688 8.38456V7.92371H4.2097V6.11467H3.79688V5.65381H5.0904C5.36562 5.65381 5.57891 5.66757 5.75092 5.70196C5.91606 5.73635 6.07431 5.81201 6.22568 5.92207C6.37705 6.039 6.50089 6.19033 6.59034 6.38293C6.67979 6.57553 6.72795 6.78876 6.72795 7.02263C6.72795 7.21522 6.69355 7.39406 6.63162 7.56603C6.5697 7.73799 6.48713 7.87556 6.39081 7.98561C6.29448 8.08879 6.18439 8.17821 6.04678 8.24012C5.91605 8.30202 5.79221 8.34329 5.68212 8.36393C5.57203 8.38456 5.40002 8.39144 5.16609 8.39144H3.79688V8.38456ZM4.92527 7.92371H5.09728C5.3037 7.92371 5.46883 7.89619 5.59268 7.84116C5.71652 7.78614 5.81285 7.68984 5.88165 7.55915C5.95734 7.42158 5.99174 7.24962 5.99174 7.0295C5.99174 6.82315 5.95734 6.64431 5.88165 6.49986C5.80597 6.35541 5.70964 6.25224 5.57891 6.19721C5.45507 6.14218 5.28993 6.11467 5.09728 6.11467H4.92527V7.92371Z" fill="white"/>
<path d="M7.04688 8.38456V7.92371H7.43906V6.11467H7.04688V5.65381H9.49632V6.49986H8.9734V6.12155H8.15463V6.75437H8.74635V7.21522H8.15463V7.92371H8.57434V8.38456H7.04688Z" fill="white"/>
<path d="M8.48201 10.565H1.60156V9.28564H9.56224V9.492C9.55536 10.0835 9.07373 10.565 8.48201 10.565Z" fill="#E5E5E5"/>
</svg>
