<svg width="24" height="25" viewBox="0 0 24 25" fill="none" xmlns="http://www.w3.org/2000/svg">
<path d="M15 23.2783H9C3.57 23.2783 1.25 20.9583 1.25 15.5283V9.52832C1.25 4.09832 3.57 1.77832 9 1.77832H15C20.43 1.77832 22.75 4.09832 22.75 9.52832V15.5283C22.75 20.9583 20.43 23.2783 15 23.2783ZM9 3.27832C4.39 3.27832 2.75 4.91832 2.75 9.52832V15.5283C2.75 20.1383 4.39 21.7783 9 21.7783H15C19.61 21.7783 21.25 20.1383 21.25 15.5283V9.52832C21.25 4.91832 19.61 3.27832 15 3.27832H9Z" fill="#6D28D9"/>
<path d="M9 11.2783C7.48 11.2783 6.25 10.0483 6.25 8.52832C6.25 7.00832 7.48 5.77832 9 5.77832C10.52 5.77832 11.75 7.00832 11.75 8.52832C11.75 10.0483 10.52 11.2783 9 11.2783ZM9 7.27832C8.31 7.27832 7.75 7.83832 7.75 8.52832C7.75 9.21832 8.31 9.77832 9 9.77832C9.69 9.77832 10.25 9.21832 10.25 8.52832C10.25 7.83832 9.69 7.27832 9 7.27832Z" fill="#6D28D9"/>
<path d="M2.66977 20.2283C2.42977 20.2283 2.18977 20.1083 2.04977 19.8983C1.81977 19.5583 1.90977 19.0883 2.25977 18.8583L7.18977 15.5483C8.26977 14.8183 9.75977 14.9083 10.7398 15.7383L11.0698 16.0283C11.5698 16.4583 12.4198 16.4583 12.9098 16.0283L17.0698 12.4583C18.1298 11.5483 19.7998 11.5483 20.8698 12.4583L22.4998 13.8583C22.8098 14.1283 22.8498 14.5983 22.5798 14.9183C22.3098 15.2283 21.8398 15.2683 21.5198 14.9983L19.8898 13.5983C19.3898 13.1683 18.5398 13.1683 18.0398 13.5983L13.8798 17.1683C12.8198 18.0783 11.1498 18.0783 10.0798 17.1683L9.74977 16.8783C9.28977 16.4883 8.52977 16.4483 8.01977 16.7983L3.08977 20.1083C2.95977 20.1883 2.80977 20.2283 2.66977 20.2283Z" fill="#6D28D9"/>
</svg>
