<svg width="20" height="21" viewBox="0 0 20 21" fill="none" xmlns="http://www.w3.org/2000/svg">
<path d="M19.999 10.6057C19.999 9.78349 19.9309 9.18349 19.7836 8.56128H10.2031V12.2723H15.8266C15.7133 13.1946 15.1011 14.5835 13.7405 15.5168L13.7214 15.641L16.7506 17.9407L16.9605 17.9613C18.8879 16.2168 19.999 13.6501 19.999 10.6057Z" fill="#4285F4"/>
<path d="M10.2035 20.3839C12.9585 20.3839 15.2714 19.4949 16.9608 17.9616L13.7409 15.5171C12.8792 16.106 11.7227 16.5171 10.2035 16.5171C7.50512 16.5171 5.21491 14.7727 4.39851 12.3616L4.27884 12.3715L1.12908 14.7604L1.08789 14.8727C2.76587 18.1393 6.21256 20.3839 10.2035 20.3839Z" fill="#576DD6"/>
<path d="M4.39903 12.3615C4.18362 11.7393 4.05895 11.0726 4.05895 10.3837C4.05895 9.69482 4.18362 9.02818 4.3877 8.40597L4.38199 8.27345L1.19275 5.84619L1.08841 5.89483C0.396828 7.2504 0 8.77265 0 10.3837C0 11.9949 0.396828 13.517 1.08841 14.8726L4.39903 12.3615Z" fill="#FBBC05"/>
<path d="M10.2036 4.25042C12.1196 4.25042 13.4121 5.06152 14.1491 5.73935L17.0289 2.98378C15.2603 1.37268 12.9586 0.383789 10.2036 0.383789C6.21259 0.383789 2.76588 2.62821 1.08789 5.89484L4.38719 8.40598C5.21493 5.99488 7.50516 4.25042 10.2036 4.25042Z" fill="#EB4335"/>
</svg>
