<svg width="24" height="25" viewBox="0 0 24 25" fill="none" xmlns="http://www.w3.org/2000/svg">
<g filter="url(#filter0_i_9739_55476)">
<path d="M8 22.8194C7.72 22.8194 7.42998 22.7494 7.16998 22.6094C6.59998 22.3094 6.25 21.7094 6.25 21.0694V19.6495C3.23 19.3395 1.25 17.1194 1.25 13.9394V7.93945C1.25 4.49945 3.56 2.18945 7 2.18945H17C20.44 2.18945 22.75 4.49945 22.75 7.93945V13.9394C22.75 17.3794 20.44 19.6894 17 19.6894H13.23L8.96997 22.5295C8.67997 22.7195 8.34 22.8194 8 22.8194ZM7 3.67944C4.42 3.67944 2.75 5.34944 2.75 7.92944V13.9295C2.75 16.5095 4.42 18.1795 7 18.1795C7.41 18.1795 7.75 18.5195 7.75 18.9295V21.0595C7.75 21.1895 7.83 21.2495 7.88 21.2795C7.93001 21.3095 8.03001 21.3395 8.14001 21.2695L12.59 18.3095C12.71 18.2295 12.86 18.1795 13.01 18.1795H17.01C19.59 18.1795 21.26 16.5095 21.26 13.9295V7.92944C21.26 5.34944 19.59 3.67944 17.01 3.67944H7Z" fill="#5B21B6"/>
<path d="M11.9998 12.6094C11.5898 12.6094 11.2498 12.2694 11.2498 11.8594V11.6494C11.2498 10.4894 12.0998 9.9194 12.4198 9.6994C12.7898 9.4494 12.9098 9.27941 12.9098 9.01941C12.9098 8.51941 12.4998 8.10938 11.9998 8.10938C11.4998 8.10938 11.0898 8.51941 11.0898 9.01941C11.0898 9.42941 10.7498 9.76941 10.3398 9.76941C9.92984 9.76941 9.58984 9.42941 9.58984 9.01941C9.58984 7.68941 10.6698 6.60938 11.9998 6.60938C13.3298 6.60938 14.4098 7.68941 14.4098 9.01941C14.4098 10.1594 13.5698 10.7294 13.2598 10.9394C12.8698 11.1994 12.7498 11.3694 12.7498 11.6494V11.8594C12.7498 12.2794 12.4098 12.6094 11.9998 12.6094Z" fill="#5B21B6"/>
<path d="M12 15.0996C11.58 15.0996 11.25 14.7596 11.25 14.3496C11.25 13.9396 11.59 13.5996 12 13.5996C12.41 13.5996 12.75 13.9396 12.75 14.3496C12.75 14.7596 12.42 15.0996 12 15.0996Z" fill="#5B21B6"/>
</g>
<defs>
<filter id="filter0_i_9739_55476" x="0" y="0.5" width="24" height="25" filterUnits="userSpaceOnUse" color-interpolation-filters="sRGB">
<feFlood flood-opacity="0" result="BackgroundImageFix"/>
<feBlend mode="normal" in="SourceGraphic" in2="BackgroundImageFix" result="shape"/>
<feColorMatrix in="SourceAlpha" type="matrix" values="0 0 0 0 0 0 0 0 0 0 0 0 0 0 0 0 0 0 127 0" result="hardAlpha"/>
<feOffset dy="1"/>
<feGaussianBlur stdDeviation="0.5"/>
<feComposite in2="hardAlpha" operator="arithmetic" k2="-1" k3="1"/>
<feColorMatrix type="matrix" values="0 0 0 0 0.858824 0 0 0 0 0.882353 0 0 0 0 0.937255 0 0 0 0.21 0"/>
<feBlend mode="normal" in2="shape" result="effect1_innerShadow_9739_55476"/>
</filter>
</defs>
</svg>
