<svg width="20" height="24" viewBox="0 0 20 24" fill="none" xmlns="http://www.w3.org/2000/svg">
<path d="M18.8125 6.60375V20.625C18.8125 21.1969 18.5853 21.7453 18.181 22.1497C17.7766 22.5541 17.2281 22.7812 16.6562 22.7812H3.34375C2.77188 22.7812 2.22343 22.5541 1.81905 22.1497C1.41468 21.7453 1.1875 21.1969 1.1875 20.625V3.375C1.1875 2.80313 1.41468 2.25468 1.81905 1.8503C2.22343 1.44593 2.77188 1.21875 3.34375 1.21875H13.4228C13.7061 1.21871 13.9866 1.2745 14.2483 1.38292C14.5101 1.49134 14.7479 1.65027 14.9481 1.85062L18.1806 5.07938C18.585 5.48362 18.8123 6.03194 18.8125 6.60375Z" fill="#49021F"/>
<path d="M13.5681 1.68751C13.7405 1.68719 13.9113 1.72098 14.0706 1.78695C14.2299 1.85292 14.3745 1.94976 14.4963 2.07188L17.8656 5.43751C17.9877 5.55921 18.0846 5.70387 18.1506 5.86316C18.2165 6.02245 18.2503 6.19322 18.25 6.36563V21C18.25 21.3481 18.1117 21.6819 17.8656 21.9281C17.6194 22.1742 17.2856 22.3125 16.9375 22.3125H3.0625C2.7144 22.3125 2.38056 22.1742 2.13442 21.9281C1.88828 21.6819 1.75 21.3481 1.75 21V3.00001C1.75 2.65191 1.88828 2.31807 2.13442 2.07193C2.38056 1.82579 2.7144 1.68751 3.0625 1.68751H13.5681ZM13.5681 0.750007H3.0625C2.46576 0.750007 1.89347 0.98706 1.47151 1.40902C1.04955 1.83097 0.8125 2.40327 0.8125 3.00001V21C0.8125 21.5967 1.04955 22.169 1.47151 22.591C1.89347 23.013 2.46576 23.25 3.0625 23.25H16.9375C17.5342 23.25 18.1065 23.013 18.5285 22.591C18.9504 22.169 19.1875 21.5967 19.1875 21V6.36938C19.1882 6.07364 19.1306 5.78065 19.018 5.50718C18.9054 5.23371 18.74 4.98512 18.5312 4.77563L15.1562 1.40626C14.9468 1.19749 14.6982 1.03208 14.4247 0.919474C14.1512 0.806869 13.8582 0.749282 13.5625 0.750007H13.5681Z" fill="#FF3366"/>
<path d="M5.68786 16.7277V20.0164C5.68786 20.0474 5.67473 20.0624 5.64755 20.0624H5.16567C5.13848 20.0624 5.12536 20.0474 5.12536 20.0164V16.7277C5.12458 16.7222 5.12508 16.7166 5.12683 16.7114C5.12858 16.7061 5.13152 16.7014 5.13543 16.6974C5.13935 16.6935 5.14411 16.6906 5.14936 16.6888C5.15461 16.6871 5.1602 16.6866 5.16567 16.6874H5.65223C5.67567 16.6874 5.68786 16.7005 5.68786 16.7277ZM6.77442 20.0624H6.2888C6.26348 20.0624 6.25036 20.0474 6.25036 20.0164V16.723C6.25036 16.6996 6.26161 16.6874 6.28411 16.6874H6.93192C6.94388 16.6871 6.95564 16.6904 6.96579 16.6967C6.97594 16.703 6.98404 16.7122 6.98911 16.723L8.12536 19.3124V16.7286C8.12536 16.7014 8.13942 16.6874 8.16848 16.6874H8.64942C8.67473 16.6874 8.68786 16.7014 8.68786 16.7286V20.0164C8.68786 20.0474 8.67192 20.0624 8.64005 20.0624H8.04005C8.02792 20.0636 8.01574 20.0607 8.0054 20.0543C7.99506 20.0478 7.98714 20.0382 7.98286 20.0267C7.9313 19.9077 6.81286 17.4374 6.81286 17.4374V20.0211C6.81286 20.0483 6.79973 20.0624 6.77442 20.0624ZM9.25036 20.0061V16.738C9.24902 16.7287 9.25142 16.7192 9.25704 16.7116C9.26266 16.7041 9.27105 16.6991 9.28036 16.6977C9.64505 16.6911 9.94692 16.6874 10.23 16.6874C10.7663 16.6874 11.1747 16.838 11.4554 17.1392C11.736 17.4405 11.876 17.8371 11.8754 18.3289C11.879 18.5665 11.8422 18.803 11.7666 19.0283C11.7056 19.2107 11.6102 19.3798 11.4854 19.5261C11.3702 19.6545 11.2331 19.7611 11.0804 19.8411C10.9332 19.9208 10.7753 19.9789 10.6116 20.0136C10.4544 20.0466 10.2941 20.063 10.1335 20.0624C9.81567 20.0624 9.54473 20.0624 9.27473 20.0521C9.26067 20.0521 9.25036 20.0371 9.25036 20.0061ZM9.81286 17.1561V19.5936C9.97598 19.6002 10.0613 19.6039 10.1691 19.6039C10.5038 19.6039 10.8404 19.5027 11.0297 19.3011C11.2191 19.0996 11.311 18.7817 11.311 18.3477C11.311 17.9421 11.2225 17.6414 11.0457 17.4458C10.8685 17.2508 10.545 17.1533 10.2282 17.1533C10.0275 17.1496 9.92161 17.1561 9.81286 17.1561ZM12.2504 20.0061V16.738C12.249 16.7287 12.2514 16.7192 12.257 16.7116C12.2627 16.7041 12.271 16.6991 12.2804 16.6977C12.645 16.6911 12.9469 16.6874 13.23 16.6874C13.7663 16.6874 14.1747 16.838 14.4554 17.1392C14.736 17.4405 14.876 17.8371 14.8754 18.3289C14.879 18.5665 14.8422 18.803 14.7666 19.0283C14.7056 19.2107 14.6102 19.3798 14.4854 19.5261C14.3702 19.6545 14.2331 19.7611 14.0804 19.8411C13.9332 19.9208 13.7753 19.9789 13.6116 20.0136C13.4544 20.0466 13.2941 20.063 13.1335 20.0624C12.8157 20.0624 12.5447 20.0624 12.2747 20.0521C12.2607 20.0521 12.2504 20.0371 12.2504 20.0061ZM12.8129 17.1561V19.5936C12.976 19.6002 13.0613 19.6039 13.1691 19.6039C13.5038 19.6039 13.8404 19.5027 14.0297 19.3011C14.2191 19.0996 14.311 18.7817 14.311 18.3477C14.311 17.9421 14.2225 17.6414 14.0457 17.4458C13.8685 17.2508 13.545 17.1533 13.2282 17.1533C13.0275 17.1496 12.9216 17.1561 12.8129 17.1561Z" fill="white"/>
<path d="M7.7509 5.53132V12.8316C7.7509 12.9019 7.71996 12.9376 7.65715 12.9376H6.53215C6.46934 12.9376 6.4384 12.9019 6.4384 12.8316V5.53132C6.4365 5.51857 6.43762 5.50556 6.44166 5.49332C6.4457 5.48108 6.45255 5.46995 6.46166 5.46084C6.47078 5.45172 6.4819 5.44487 6.49414 5.44083C6.50638 5.43679 6.5194 5.43568 6.53215 5.43757H7.6684C7.72371 5.43757 7.7509 5.46851 7.7509 5.53132ZM11.3528 13.1251C10.5371 13.1251 9.90902 12.8935 9.42059 12.4313C8.93215 11.9691 8.6884 11.2876 8.6884 10.3848C8.6884 9.56351 8.95059 8.88851 9.47496 8.35976C9.74335 8.08187 10.066 7.86214 10.4229 7.71425C10.7799 7.56636 11.1634 7.49345 11.5496 7.50007C11.7225 7.49715 11.8951 7.51573 12.0634 7.55539V5.1282C12.0622 5.11929 12.063 5.11021 12.0658 5.10168C12.0687 5.09315 12.0735 5.0854 12.0799 5.07904C12.0862 5.07267 12.094 5.06788 12.1025 5.06502C12.111 5.06216 12.1201 5.06133 12.129 5.06257H13.3215C13.3571 5.06257 13.3759 5.08414 13.3759 5.1282V11.8379C13.3759 12.1191 13.54 12.3582 13.5634 12.5635C13.5677 12.5838 13.5645 12.605 13.5545 12.6232C13.5446 12.6414 13.5284 12.6555 13.509 12.6629C12.8331 12.9741 12.0968 13.1319 11.3528 13.1251ZM12.0634 12.0357V8.63539C12.0175 8.55476 11.7756 8.43757 11.5281 8.43757C11.3231 8.43242 11.1196 8.47299 10.9323 8.55635C10.745 8.6397 10.5786 8.76374 10.4453 8.91945C10.164 9.23445 10.0009 9.75007 10.0009 10.3257C10.0009 10.9416 10.1668 11.4104 10.4406 11.7029C10.57 11.8533 10.73 11.9743 10.91 12.0579C11.0899 12.1415 11.2856 12.1857 11.484 12.1876C11.7465 12.1876 12.0034 12.1013 12.0634 12.0357Z" fill="#FF3366"/>
</svg>
