<svg width="25" height="24" viewBox="0 0 25 24" fill="none" xmlns="http://www.w3.org/2000/svg">
<path d="M15.76 22.25H9.23998C4.32998 22.25 2.22998 20.15 2.22998 15.24V15.11C2.22998 10.67 3.97998 8.53003 7.89998 8.16003C8.29998 8.13003 8.67998 8.43003 8.71998 8.84003C8.75998 9.25003 8.45998 9.62003 8.03998 9.66003C4.89998 9.95003 3.72998 11.43 3.72998 15.12V15.25C3.72998 19.32 5.16998 20.76 9.23998 20.76H15.76C19.83 20.76 21.27 19.32 21.27 15.25V15.12C21.27 11.41 20.08 9.93003 16.88 9.66003C16.47 9.62003 16.16 9.26003 16.2 8.85003C16.24 8.44003 16.59 8.13003 17.01 8.17003C20.99 8.51003 22.77 10.66 22.77 15.13V15.26C22.77 20.15 20.67 22.25 15.76 22.25Z" fill="#6D28D9"/>
<path d="M12.5 15.63C12.09 15.63 11.75 15.29 11.75 14.88V2C11.75 1.59 12.09 1.25 12.5 1.25C12.91 1.25 13.25 1.59 13.25 2V14.88C13.25 15.3 12.91 15.63 12.5 15.63Z" fill="#6D28D9"/>
<path d="M12.4998 16.75C12.3098 16.75 12.1198 16.68 11.9698 16.53L8.61984 13.18C8.32984 12.89 8.32984 12.41 8.61984 12.12C8.90984 11.83 9.38984 11.83 9.67984 12.12L12.4998 14.94L15.3198 12.12C15.6098 11.83 16.0898 11.83 16.3798 12.12C16.6698 12.41 16.6698 12.89 16.3798 13.18L13.0298 16.53C12.8798 16.68 12.6898 16.75 12.4998 16.75Z" fill="#6D28D9"/>
</svg>
