<svg width="24" height="25" viewBox="0 0 24 25" fill="none" xmlns="http://www.w3.org/2000/svg">
<path d="M12 17.3692C11.59 17.3692 11.25 17.0292 11.25 16.6192V11.3292C11.25 10.9192 11.59 10.5792 12 10.5792C12.41 10.5792 12.75 10.9192 12.75 11.3292V16.6192C12.75 17.0292 12.41 17.3692 12 17.3692Z" fill="#6D28D9"/>
<path d="M12 9.67931C11.73 9.67931 11.48 9.5793 11.29 9.3893C11.2 9.2993 11.12 9.18932 11.07 9.06932C11.02 8.93932 11 8.81931 11 8.67931C11 8.54931 11.02 8.4193 11.07 8.2993C11.13 8.1793 11.2 8.0693 11.29 7.9793C11.38 7.8793 11.49 7.8093 11.61 7.7593C11.98 7.6093 12.43 7.6993 12.7 7.9793C12.8 8.0693 12.87 8.1793 12.92 8.2993C12.97 8.4193 13 8.54931 13 8.67931C13 8.81931 12.97 8.94932 12.92 9.06932C12.87 9.18932 12.8 9.2993 12.7 9.3893C12.61 9.4793 12.5 9.5593 12.38 9.6093C12.26 9.6593 12.13 9.67931 12 9.67931Z" fill="#6D28D9"/>
<path d="M15 23.2783H9C3.57 23.2783 1.25 20.9583 1.25 15.5283V9.52832C1.25 4.09832 3.57 1.77832 9 1.77832H15C20.43 1.77832 22.75 4.09832 22.75 9.52832V15.5283C22.75 20.9583 20.43 23.2783 15 23.2783ZM9 3.27832C4.39 3.27832 2.75 4.91832 2.75 9.52832V15.5283C2.75 20.1383 4.39 21.7783 9 21.7783H15C19.61 21.7783 21.25 20.1383 21.25 15.5283V9.52832C21.25 4.91832 19.61 3.27832 15 3.27832H9Z" fill="#6D28D9"/>
</svg>
