<svg width="17" height="16" viewBox="0 0 17 16" fill="none" xmlns="http://www.w3.org/2000/svg">
<g filter="url(#filter0_i_3649_14335)">
<path d="M10.8965 1.3335H5.30986C2.88319 1.3335 1.43652 2.78016 1.43652 5.20683V10.7868C1.43652 13.2202 2.88319 14.6668 5.30986 14.6668H10.8899C13.3165 14.6668 14.7632 13.2202 14.7632 10.7935V5.20683C14.7699 2.78016 13.3232 1.3335 10.8965 1.3335ZM8.10319 10.5868C6.67652 10.5868 5.51652 9.42683 5.51652 8.00016C5.51652 6.5735 6.67652 5.4135 8.10319 5.4135C9.52986 5.4135 10.6899 6.5735 10.6899 8.00016C10.6899 9.42683 9.52986 10.5868 8.10319 10.5868ZM12.0499 4.58683C12.0165 4.66683 11.9699 4.74016 11.9099 4.80683C11.8432 4.86683 11.7699 4.9135 11.6899 4.94683C11.6099 4.98016 11.5232 5.00016 11.4365 5.00016C11.2565 5.00016 11.0899 4.9335 10.9632 4.80683C10.9032 4.74016 10.8565 4.66683 10.8232 4.58683C10.7899 4.50683 10.7699 4.42016 10.7699 4.3335C10.7699 4.24683 10.7899 4.16016 10.8232 4.08016C10.8565 3.9935 10.9032 3.92683 10.9632 3.86016C11.1165 3.70683 11.3499 3.6335 11.5632 3.68016C11.6099 3.68683 11.6499 3.70016 11.6899 3.72016C11.7299 3.7335 11.7699 3.7535 11.8099 3.78016C11.8432 3.80016 11.8765 3.8335 11.9099 3.86016C11.9699 3.92683 12.0165 3.9935 12.0499 4.08016C12.0832 4.16016 12.1032 4.24683 12.1032 4.3335C12.1032 4.42016 12.0832 4.50683 12.0499 4.58683Z" fill="#5534C1"/>
</g>
<defs>
<filter id="filter0_i_3649_14335" x="0.103516" y="0" width="16" height="17" filterUnits="userSpaceOnUse" color-interpolation-filters="sRGB">
<feFlood flood-opacity="0" result="BackgroundImageFix"/>
<feBlend mode="normal" in="SourceGraphic" in2="BackgroundImageFix" result="shape"/>
<feColorMatrix in="SourceAlpha" type="matrix" values="0 0 0 0 0 0 0 0 0 0 0 0 0 0 0 0 0 0 127 0" result="hardAlpha"/>
<feOffset dy="1"/>
<feGaussianBlur stdDeviation="0.5"/>
<feComposite in2="hardAlpha" operator="arithmetic" k2="-1" k3="1"/>
<feColorMatrix type="matrix" values="0 0 0 0 0 0 0 0 0 0 0 0 0 0 0 0 0 0 0.21 0"/>
<feBlend mode="normal" in2="shape" result="effect1_innerShadow_3649_14335"/>
</filter>
</defs>
</svg>
