<svg width="17" height="17" viewBox="0 0 17 17" fill="none" xmlns="http://www.w3.org/2000/svg">
<g filter="url(#filter0_i_1369_7201)">
<path d="M5.66683 12.5548C3.28016 12.5548 1.3335 10.6081 1.3335 8.22143C1.3335 5.83476 3.28016 3.88809 5.66683 3.88809C5.94016 3.88809 6.16683 4.11476 6.16683 4.38809C6.16683 4.66143 5.94016 4.88809 5.66683 4.88809C3.82683 4.88809 2.3335 6.38143 2.3335 8.22143C2.3335 10.0614 3.82683 11.5548 5.66683 11.5548C7.50683 11.5548 9.00016 10.0614 9.00016 8.22143C9.00016 7.94809 9.22683 7.72143 9.50016 7.72143C9.7735 7.72143 10.0002 7.94809 10.0002 8.22143C10.0002 10.6081 8.0535 12.5548 5.66683 12.5548Z" fill="#7E22CE"/>
<path d="M11.1665 12.7214C10.8932 12.7214 10.6665 12.4948 10.6665 12.2214C10.6665 11.9481 10.8932 11.7214 11.1665 11.7214C13.0932 11.7214 14.6665 10.1481 14.6665 8.22144C14.6665 6.29477 13.0932 4.72144 11.1665 4.72144C9.23984 4.72144 7.6665 6.29477 7.6665 8.22144C7.6665 8.49477 7.43984 8.72144 7.1665 8.72144C6.89317 8.72144 6.6665 8.49477 6.6665 8.22144C6.6665 5.74144 8.6865 3.72144 11.1665 3.72144C13.6465 3.72144 15.6665 5.74144 15.6665 8.22144C15.6665 10.7014 13.6465 12.7214 11.1665 12.7214Z" fill="#7E22CE"/>
</g>
<defs>
<filter id="filter0_i_1369_7201" x="0.5" y="0.221436" width="16" height="17" filterUnits="userSpaceOnUse" color-interpolation-filters="sRGB">
<feFlood flood-opacity="0" result="BackgroundImageFix"/>
<feBlend mode="normal" in="SourceGraphic" in2="BackgroundImageFix" result="shape"/>
<feColorMatrix in="SourceAlpha" type="matrix" values="0 0 0 0 0 0 0 0 0 0 0 0 0 0 0 0 0 0 127 0" result="hardAlpha"/>
<feOffset dy="1"/>
<feGaussianBlur stdDeviation="0.5"/>
<feComposite in2="hardAlpha" operator="arithmetic" k2="-1" k3="1"/>
<feColorMatrix type="matrix" values="0 0 0 0 0 0 0 0 0 0 0 0 0 0 0 0 0 0 0.25 0"/>
<feBlend mode="normal" in2="shape" result="effect1_innerShadow_1369_7201"/>
</filter>
</defs>
</svg>
