<svg width="17" height="16" viewBox="0 0 17 16" fill="none" xmlns="http://www.w3.org/2000/svg">
<g filter="url(#filter0_i_3649_14334)">
<rect x="0.103516" width="16" height="16" rx="8" fill="#5534C1"/>
<g clip-path="url(#clip0_3649_14334)">
<path d="M3.43652 4.57852C3.43652 4.27821 3.54163 4.03046 3.75184 3.83527C3.96205 3.64008 4.23533 3.54248 4.57166 3.54248C4.90199 3.54248 5.16925 3.63857 5.37346 3.83077C5.58367 4.02897 5.68878 4.28722 5.68878 4.60554C5.68878 4.89383 5.58668 5.13407 5.38247 5.32626C5.17226 5.52446 4.89598 5.62356 4.55364 5.62356H4.54463C4.2143 5.62356 3.94704 5.52446 3.74283 5.32626C3.53862 5.12807 3.43652 4.87881 3.43652 4.57852ZM3.55364 12.4614V6.44338H5.55364V12.4614H3.55364ZM6.66175 12.4614H8.66175V9.10104C8.66175 8.89082 8.68578 8.72866 8.73382 8.61455C8.8179 8.41035 8.94553 8.23767 9.1167 8.09653C9.28788 7.95539 9.50259 7.88482 9.76085 7.88482C10.4335 7.88482 10.7699 8.33827 10.7699 9.24518V12.4614H12.7699V9.01095C12.7699 8.12206 12.5597 7.44789 12.1392 6.98843C11.7188 6.52897 11.1633 6.29924 10.4726 6.29924C9.69778 6.29924 9.09418 6.63257 8.66175 7.29924V7.31726H8.65274L8.66175 7.29924V6.44338H6.66175C6.67376 6.63557 6.67977 7.23317 6.67977 8.23617C6.67977 9.23917 6.67376 10.6476 6.66175 12.4614Z" fill="white"/>
</g>
</g>
<defs>
<filter id="filter0_i_3649_14334" x="0.103516" y="0" width="16" height="17" filterUnits="userSpaceOnUse" color-interpolation-filters="sRGB">
<feFlood flood-opacity="0" result="BackgroundImageFix"/>
<feBlend mode="normal" in="SourceGraphic" in2="BackgroundImageFix" result="shape"/>
<feColorMatrix in="SourceAlpha" type="matrix" values="0 0 0 0 0 0 0 0 0 0 0 0 0 0 0 0 0 0 127 0" result="hardAlpha"/>
<feOffset dy="1"/>
<feGaussianBlur stdDeviation="0.5"/>
<feComposite in2="hardAlpha" operator="arithmetic" k2="-1" k3="1"/>
<feColorMatrix type="matrix" values="0 0 0 0 0 0 0 0 0 0 0 0 0 0 0 0 0 0 0.21 0"/>
<feBlend mode="normal" in2="shape" result="effect1_innerShadow_3649_14334"/>
</filter>
<clipPath id="clip0_3649_14334">
<rect x="3.43652" y="3.3335" width="9.33333" height="9.33333" fill="white"/>
</clipPath>
</defs>
</svg>
