<svg width="19" height="22" viewBox="0 0 19 22" fill="none" xmlns="http://www.w3.org/2000/svg">
<path d="M17.9678 7.45C16.9178 2.83 12.8878 0.75 9.34775 0.75C9.34775 0.75 9.34775 0.75 9.33775 0.75C5.80775 0.75 1.76775 2.82 0.717752 7.44C-0.452248 12.6 2.70775 16.97 5.56775 19.72C6.62775 20.74 7.98775 21.25 9.34775 21.25C10.7078 21.25 12.0678 20.74 13.1178 19.72C15.9778 16.97 19.1378 12.61 17.9678 7.45ZM9.34775 12.46C7.60775 12.46 6.19775 11.05 6.19775 9.31C6.19775 7.57 7.60775 6.16 9.34775 6.16C11.0878 6.16 12.4978 7.57 12.4978 9.31C12.4978 11.05 11.0878 12.46 9.34775 12.46Z" fill="#6D28D9"/>
</svg>
