<svg width="24" height="25" viewBox="0 0 24 25" fill="none" xmlns="http://www.w3.org/2000/svg">
<path d="M11.9999 14.6983C9.86988 14.6983 8.12988 12.9683 8.12988 10.8283C8.12988 8.68826 9.86988 6.96826 11.9999 6.96826C14.1299 6.96826 15.8699 8.69826 15.8699 10.8383C15.8699 12.9783 14.1299 14.6983 11.9999 14.6983ZM11.9999 8.46826C10.6999 8.46826 9.62988 9.52826 9.62988 10.8383C9.62988 12.1483 10.6899 13.2083 11.9999 13.2083C13.3099 13.2083 14.3699 12.1483 14.3699 10.8383C14.3699 9.52826 13.2999 8.46826 11.9999 8.46826Z" fill="#6D28D9"/>
<path d="M12.0002 23.2883C10.5202 23.2883 9.03018 22.7283 7.87018 21.6183C4.92018 18.7783 1.66018 14.2483 2.89018 8.85832C4.00018 3.96832 8.27018 1.77832 12.0002 1.77832C12.0002 1.77832 12.0002 1.77832 12.0102 1.77832C15.7402 1.77832 20.0102 3.96832 21.1202 8.86832C22.3402 14.2583 19.0802 18.7783 16.1302 21.6183C14.9702 22.7283 13.4802 23.2883 12.0002 23.2883ZM12.0002 3.27832C9.09018 3.27832 5.35018 4.82832 4.36018 9.18832C3.28018 13.8983 6.24018 17.9583 8.92018 20.5283C10.6502 22.1983 13.3602 22.1983 15.0902 20.5283C17.7602 17.9583 20.7202 13.8983 19.6602 9.18832C18.6602 4.82832 14.9102 3.27832 12.0002 3.27832Z" fill="#6D28D9"/>
</svg>
