<svg width="24" height="25" viewBox="0 0 24 25" fill="none" xmlns="http://www.w3.org/2000/svg">
<g filter="url(#filter0_i_835_13122)">
<path d="M9.6 21.2783C5.21 21.2783 3.25 19.3183 3.25 14.9283V10.1283C3.25 5.73832 5.21 3.77832 9.6 3.77832H14.4C18.79 3.77832 20.75 5.73832 20.75 10.1283C20.75 10.5383 20.41 10.8783 20 10.8783C19.59 10.8783 19.25 10.5383 19.25 10.1283C19.25 6.54832 17.98 5.27832 14.4 5.27832H9.6C6.02 5.27832 4.75 6.54832 4.75 10.1283V14.9283C4.75 18.5083 6.02 19.7783 9.6 19.7783C10.01 19.7783 10.35 20.1183 10.35 20.5283C10.35 20.9383 10.01 21.2783 9.6 21.2783Z" fill="#6D28D9"/>
<path d="M7.99023 17.6283C7.83023 17.6283 7.66023 17.5783 7.52023 17.4683C6.65023 16.7783 6.24023 15.6783 6.24023 14.0283V11.0283C6.24023 8.12832 7.59023 6.77832 10.4902 6.77832H13.4902C15.1402 6.77832 16.2302 7.18832 16.9302 8.05832C17.1902 8.37832 17.1302 8.85832 16.8102 9.10832C16.4902 9.36832 16.0102 9.31832 15.7602 8.98832C15.5202 8.67832 15.0202 8.27832 13.5002 8.27832H10.5002C8.42023 8.27832 7.75023 8.94832 7.75023 11.0283V14.0283C7.75023 15.5483 8.16023 16.0483 8.46023 16.2883C8.78023 16.5483 8.84023 17.0183 8.58023 17.3383C8.43023 17.5283 8.21023 17.6283 7.99023 17.6283Z" fill="#6D28D9"/>
<path d="M8.00977 5.27832C7.58977 5.27832 7.25977 4.93832 7.25977 4.52832V2.52832C7.25977 2.11832 7.59977 1.77832 8.00977 1.77832C8.41977 1.77832 8.75977 2.11832 8.75977 2.52832V4.52832C8.75977 4.93832 8.41977 5.27832 8.00977 5.27832Z" fill="#6D28D9"/>
<path d="M12 5.27832C11.59 5.27832 11.25 4.93832 11.25 4.52832V2.52832C11.25 2.11832 11.59 1.77832 12 1.77832C12.41 1.77832 12.75 2.11832 12.75 2.52832V4.52832C12.75 4.93832 12.41 5.27832 12 5.27832Z" fill="#6D28D9"/>
<path d="M16 5.27832C15.59 5.27832 15.25 4.93832 15.25 4.52832V2.52832C15.25 2.11832 15.59 1.77832 16 1.77832C16.41 1.77832 16.75 2.11832 16.75 2.52832V4.52832C16.75 4.93832 16.41 5.27832 16 5.27832Z" fill="#6D28D9"/>
<path d="M22 9.27832H20C19.59 9.27832 19.25 8.93832 19.25 8.52832C19.25 8.11832 19.59 7.77832 20 7.77832H22C22.41 7.77832 22.75 8.11832 22.75 8.52832C22.75 8.93832 22.42 9.27832 22 9.27832Z" fill="#6D28D9"/>
<path d="M8.00977 23.2783C7.59977 23.2783 7.25977 22.9383 7.25977 22.5283V20.5283C7.25977 20.1183 7.59977 19.7783 8.00977 19.7783C8.41977 19.7783 8.75977 20.1183 8.75977 20.5283V22.5283C8.75977 22.9383 8.41977 23.2783 8.00977 23.2783Z" fill="#6D28D9"/>
<path d="M4 9.27832H2C1.59 9.27832 1.25 8.94832 1.25 8.52832C1.25 8.10832 1.59 7.77832 2 7.77832H4C4.41 7.77832 4.75 8.11832 4.75 8.52832C4.75 8.93832 4.42 9.27832 4 9.27832Z" fill="#6D28D9"/>
<path d="M4 13.2783H2C1.59 13.2783 1.25 12.9383 1.25 12.5283C1.25 12.1183 1.59 11.7783 2 11.7783H4C4.41 11.7783 4.75 12.1183 4.75 12.5283C4.75 12.9383 4.42 13.2783 4 13.2783Z" fill="#6D28D9"/>
<path d="M4 17.2783H2C1.59 17.2783 1.25 16.9383 1.25 16.5283C1.25 16.1183 1.59 15.7783 2 15.7783H4C4.41 15.7783 4.75 16.1183 4.75 16.5283C4.75 16.9383 4.42 17.2783 4 17.2783Z" fill="#6D28D9"/>
<path d="M16.7101 19.8684C15.4201 19.8684 14.3701 18.8184 14.3701 17.5284C14.3701 16.2384 15.4201 15.1884 16.7101 15.1884C18.0001 15.1884 19.0501 16.2384 19.0501 17.5284C19.0401 18.8184 18.0001 19.8684 16.7101 19.8684ZM16.7101 16.6884C16.2501 16.6884 15.8701 17.0684 15.8701 17.5284C15.8701 17.9884 16.2501 18.3684 16.7101 18.3684C17.1701 18.3684 17.5501 17.9884 17.5501 17.5284C17.5401 17.0684 17.1701 16.6884 16.7101 16.6884Z" fill="#6D28D9"/>
<path d="M18.3999 23.2783C17.8399 23.2783 17.2899 22.9883 16.9899 22.4683L16.9199 22.3583C16.8099 22.1683 16.7199 22.1183 16.6999 22.1083C16.6899 22.1083 16.5899 22.1683 16.4799 22.3583L16.4199 22.4583C15.9599 23.2483 14.9499 23.5083 14.1799 23.0483L13.2799 22.5283C12.8699 22.2983 12.5799 21.9183 12.4599 21.4583C12.3399 21.0083 12.3999 20.5283 12.6299 20.1283C12.7399 19.9383 12.7399 19.8283 12.7299 19.8083C12.7199 19.7983 12.6299 19.7483 12.4099 19.7483C11.4399 19.7483 10.6499 18.9583 10.6499 17.9983V17.0683C10.6499 16.0983 11.4399 15.3183 12.3999 15.3183C12.6199 15.3183 12.7099 15.2583 12.7299 15.2483C12.7299 15.2383 12.7299 15.1283 12.6199 14.9383C12.3899 14.5283 12.3199 14.0583 12.4499 13.6083C12.5699 13.1583 12.8599 12.7783 13.2699 12.5383L14.1799 12.0083C14.9399 11.5583 15.9499 11.8183 16.3999 12.5983L16.4599 12.7083C16.5699 12.8983 16.6599 12.9483 16.6799 12.9583C16.6899 12.9583 16.7899 12.8983 16.8999 12.7083L16.9599 12.6083C17.4299 11.8183 18.4299 11.5583 19.1999 12.0183L20.1299 12.5283C20.5399 12.7583 20.8299 13.1383 20.9499 13.5983C21.0699 14.0483 21.0099 14.5283 20.7799 14.9283C20.6699 15.1183 20.6699 15.2283 20.6799 15.2483C20.6899 15.2583 20.7799 15.3083 20.9999 15.3083C21.9699 15.3083 22.7599 16.0983 22.7599 17.0583V17.9883C22.7599 18.9583 21.9699 19.7383 21.0099 19.7383C20.7899 19.7383 20.6999 19.7983 20.6799 19.8083C20.6799 19.8183 20.6799 19.9283 20.7899 20.1183C21.0199 20.5283 21.0899 20.9983 20.9599 21.4483C20.8399 21.8983 20.5499 22.2783 20.1399 22.5183L19.2299 23.0483C18.9599 23.1983 18.6799 23.2783 18.3999 23.2783ZM16.7099 20.6083C17.3099 20.6083 17.8599 20.9683 18.2299 21.6083L18.2899 21.7183C18.3199 21.7683 18.3999 21.7983 18.4599 21.7583L19.3799 21.2283C19.4599 21.1883 19.4899 21.1083 19.4999 21.0683C19.5099 21.0283 19.5199 20.9583 19.4799 20.8783C19.1099 20.2483 19.0799 19.5883 19.3799 19.0683C19.6799 18.5483 20.2699 18.2483 20.9999 18.2483C21.1399 18.2483 21.2599 18.1283 21.2599 17.9983V17.0683C21.2599 16.9283 21.1399 16.8183 21.0099 16.8183C20.2799 16.8183 19.6799 16.5183 19.3899 15.9983C19.0899 15.4783 19.1299 14.8183 19.4899 14.1883C19.5399 14.1083 19.5299 14.0283 19.5099 13.9983C19.4999 13.9583 19.4699 13.8883 19.3899 13.8383L18.4799 13.3083C18.4099 13.2683 18.3299 13.2983 18.2899 13.3583L18.2399 13.4483C17.8699 14.0883 17.3199 14.4483 16.7199 14.4483C16.1199 14.4483 15.5699 14.0883 15.1999 13.4483L15.1399 13.3483C15.1099 13.2883 15.0199 13.2683 14.9699 13.2983L14.0499 13.8283C13.9699 13.8683 13.9399 13.9483 13.9299 13.9883C13.9199 14.0283 13.9099 14.0983 13.9499 14.1783C14.3199 14.8083 14.3499 15.4683 14.0499 15.9883C13.7499 16.5083 13.1599 16.8083 12.4299 16.8083C12.2899 16.8083 12.1699 16.9283 12.1699 17.0583V17.9883C12.1699 18.1283 12.2899 18.2383 12.4199 18.2383C13.1499 18.2383 13.7499 18.5383 14.0399 19.0583C14.3399 19.5783 14.2999 20.2383 13.9399 20.8683C13.8999 20.9483 13.9099 21.0183 13.9199 21.0583C13.9299 21.0983 13.9599 21.1683 14.0399 21.2183L14.9499 21.7483C15.0199 21.7883 15.0999 21.7583 15.1399 21.6983L15.1899 21.5983C15.5499 20.9683 16.1099 20.6083 16.7099 20.6083Z" fill="#6D28D9"/>
</g>
<defs>
<filter id="filter0_i_835_13122" x="0" y="0.52832" width="24" height="25" filterUnits="userSpaceOnUse" color-interpolation-filters="sRGB">
<feFlood flood-opacity="0" result="BackgroundImageFix"/>
<feBlend mode="normal" in="SourceGraphic" in2="BackgroundImageFix" result="shape"/>
<feColorMatrix in="SourceAlpha" type="matrix" values="0 0 0 0 0 0 0 0 0 0 0 0 0 0 0 0 0 0 127 0" result="hardAlpha"/>
<feOffset dy="1"/>
<feGaussianBlur stdDeviation="0.5"/>
<feComposite in2="hardAlpha" operator="arithmetic" k2="-1" k3="1"/>
<feColorMatrix type="matrix" values="0 0 0 0 0 0 0 0 0 0 0 0 0 0 0 0 0 0 0.21 0"/>
<feBlend mode="normal" in2="shape" result="effect1_innerShadow_835_13122"/>
</filter>
</defs>
</svg>
