<svg width="24" height="25" viewBox="0 0 24 25" fill="none" xmlns="http://www.w3.org/2000/svg">
<path d="M17.6191 10.1191H12.3691C11.9591 10.1191 11.6191 9.77914 11.6191 9.36914C11.6191 8.95914 11.9591 8.61914 12.3691 8.61914H17.6191C18.0291 8.61914 18.3691 8.95914 18.3691 9.36914C18.3691 9.77914 18.0391 10.1191 17.6191 10.1191Z" fill="#5B21B6"/>
<path d="M7.12055 10.8803C6.93055 10.8803 6.74055 10.8103 6.59055 10.6603L5.84055 9.91031C5.55055 9.62031 5.55055 9.14031 5.84055 8.85031C6.13055 8.56031 6.61055 8.56031 6.90055 8.85031L7.12055 9.07031L8.84055 7.35031C9.13055 7.06031 9.61055 7.06031 9.90055 7.35031C10.1905 7.64031 10.1905 8.12031 9.90055 8.41031L7.65055 10.6603C7.51055 10.8003 7.32055 10.8803 7.12055 10.8803Z" fill="#5B21B6"/>
<path d="M17.6191 17.1191H12.3691C11.9591 17.1191 11.6191 16.7791 11.6191 16.3691C11.6191 15.9591 11.9591 15.6191 12.3691 15.6191H17.6191C18.0291 15.6191 18.3691 15.9591 18.3691 16.3691C18.3691 16.7791 18.0391 17.1191 17.6191 17.1191Z" fill="#5B21B6"/>
<path d="M7.12055 17.8803C6.93055 17.8803 6.74055 17.8103 6.59055 17.6603L5.84055 16.9103C5.55055 16.6203 5.55055 16.1403 5.84055 15.8503C6.13055 15.5603 6.61055 15.5603 6.90055 15.8503L7.12055 16.0703L8.84055 14.3503C9.13055 14.0603 9.61055 14.0603 9.90055 14.3503C10.1905 14.6403 10.1905 15.1203 9.90055 15.4103L7.65055 17.6603C7.51055 17.8003 7.32055 17.8803 7.12055 17.8803Z" fill="#5B21B6"/>
<path d="M15 23.25H9C3.57 23.25 1.25 20.93 1.25 15.5V9.5C1.25 4.07 3.57 1.75 9 1.75H15C20.43 1.75 22.75 4.07 22.75 9.5V15.5C22.75 20.93 20.43 23.25 15 23.25ZM9 3.25C4.39 3.25 2.75 4.89 2.75 9.5V15.5C2.75 20.11 4.39 21.75 9 21.75H15C19.61 21.75 21.25 20.11 21.25 15.5V9.5C21.25 4.89 19.61 3.25 15 3.25H9Z" fill="#5B21B6"/>
</svg>
