<svg width="23" height="23" viewBox="0 0 23 23" fill="none" xmlns="http://www.w3.org/2000/svg">
<g filter="url(#filter0_i_4253_2906)">
<path d="M10.5263 13.5804L19.6183 22.4605L1.43428 22.4605L10.5263 13.5804ZM20.5741 10.3591L20.5741 21.527L11.4822 12.6469L13.2987 10.8727C13.2641 10.8315 13.2294 10.7902 13.1946 10.7487C12.9485 10.4557 12.6947 10.1532 12.4502 9.83428L0.478518 21.527L0.478516 3.27331C0.478516 3.0303 0.680283 2.83323 0.929091 2.83323L11.8735 2.83323C12.9028 1.28048 14.6908 0.249999 16.7217 0.249999C19.9051 0.249998 22.495 2.77954 22.495 5.88866C22.4951 7.8521 21.5328 9.19758 20.5741 10.3591ZM9.34214 7.33L6.00266 7.33L6.00266 8.5725L7.96987 8.5725C7.70097 9.38285 6.92075 9.97044 6.00266 9.97044C4.8627 9.97044 3.93533 9.06468 3.93533 7.95129C3.93533 6.83791 4.86279 5.93214 6.00266 5.93214C6.46315 5.93214 6.89867 6.07666 7.26229 6.35004L8.03836 5.36551C7.45035 4.92332 6.74638 4.68964 6.00266 4.68964C4.16125 4.68964 2.66308 6.15289 2.66308 7.95138C2.66308 9.74987 4.16116 11.2131 6.00266 11.2131C7.84407 11.2131 9.34223 9.74987 9.34223 7.95138L9.34223 7.33L9.34214 7.33ZM21.1433 5.88866C21.1433 3.50364 19.1638 1.57022 16.7217 1.57022C14.2798 1.57022 12.3003 3.50373 12.3003 5.88867C12.3003 9.47386 16.4511 10.5012 16.4511 14.7724L16.7218 14.7724L16.9925 14.7724C16.9924 10.5013 21.1433 9.47395 21.1433 5.88866ZM16.7217 3.91361C15.7701 3.91361 14.9988 4.66702 14.9988 5.59637C14.9988 6.5258 15.7702 7.27921 16.7217 7.27921C17.6734 7.27921 18.4447 6.52572 18.4447 5.59637C18.4447 4.66702 17.6734 3.91361 16.7217 3.91361Z" fill="#94A3B8"/>
</g>
<defs>
<filter id="filter0_i_4253_2906" x="0.478516" y="0.25" width="22.0166" height="23.2104" filterUnits="userSpaceOnUse" color-interpolation-filters="sRGB">
<feFlood flood-opacity="0" result="BackgroundImageFix"/>
<feBlend mode="normal" in="SourceGraphic" in2="BackgroundImageFix" result="shape"/>
<feColorMatrix in="SourceAlpha" type="matrix" values="0 0 0 0 0 0 0 0 0 0 0 0 0 0 0 0 0 0 127 0" result="hardAlpha"/>
<feOffset dy="1"/>
<feGaussianBlur stdDeviation="1"/>
<feComposite in2="hardAlpha" operator="arithmetic" k2="-1" k3="1"/>
<feColorMatrix type="matrix" values="0 0 0 0 0.351493 0 0 0 0 0.39658 0 0 0 0 0.441667 0 0 0 1 0"/>
<feBlend mode="normal" in2="shape" result="effect1_innerShadow_4253_2906"/>
</filter>
</defs>
</svg>
