<svg width="25" height="24" viewBox="0 0 25 24" fill="none" xmlns="http://www.w3.org/2000/svg">
<path d="M19.8477 8C21.5045 8 22.8477 6.65685 22.8477 5C22.8477 3.34315 21.5045 2 19.8477 2C18.1908 2 16.8477 3.34315 16.8477 5C16.8477 6.65685 18.1908 8 19.8477 8Z" fill="#6D28D9"/>
<path d="M20.6477 9.42C20.6277 9.42 20.6077 9.43 20.5877 9.43C20.4877 9.45 20.3877 9.46 20.2777 9.48C19.8577 9.52 19.4077 9.5 18.9477 9.41C18.8277 9.38 18.7277 9.36 18.6177 9.32C18.2877 9.24 17.9777 9.11 17.6877 8.94C17.5677 8.88 17.4477 8.8 17.3377 8.73C16.8577 8.4 16.4477 7.99 16.1177 7.51C16.0477 7.4 15.9677 7.28 15.9077 7.16C15.7377 6.87 15.6077 6.56 15.5277 6.23C15.4877 6.12 15.4677 6.02 15.4377 5.9C15.3477 5.44 15.3277 4.99 15.3677 4.57C15.3877 4.46 15.3977 4.36 15.4177 4.26C15.4177 4.24 15.4277 4.22 15.4277 4.2C15.5477 3.58 15.0877 3 14.4477 3H8.36766C8.22766 3 8.08766 3.01 7.95766 3.02C7.83766 3.03 7.72766 3.04 7.60766 3.06C7.48766 3.07 7.36766 3.09 7.25766 3.11C4.84766 3.46 3.30766 4.99 2.95766 7.41C2.93766 7.52 2.91766 7.64 2.90766 7.76C2.88766 7.88 2.87766 7.99 2.86766 8.11C2.85766 8.24 2.84766 8.38 2.84766 8.52V16.48C2.84766 16.62 2.85766 16.76 2.86766 16.89C2.87766 17.01 2.88766 17.12 2.90766 17.24C2.91766 17.36 2.93766 17.48 2.95766 17.59C3.30766 20.01 4.84766 21.54 7.25766 21.89C7.36766 21.91 7.48766 21.93 7.60766 21.94C7.72766 21.96 7.83766 21.97 7.95766 21.98C8.08766 21.99 8.22766 22 8.36766 22H16.3277C16.4677 22 16.6077 21.99 16.7377 21.98C16.8577 21.97 16.9677 21.96 17.0877 21.94C17.2077 21.93 17.3277 21.91 17.4377 21.89C19.8477 21.54 21.3877 20.01 21.7377 17.59C21.7577 17.48 21.7777 17.36 21.7877 17.24C21.8077 17.12 21.8177 17.01 21.8277 16.89C21.8377 16.76 21.8477 16.62 21.8477 16.48V10.4C21.8477 9.76 21.2677 9.3 20.6477 9.42ZM7.59766 12.5H12.5977C13.0077 12.5 13.3477 12.84 13.3477 13.25C13.3477 13.66 13.0077 14 12.5977 14H7.59766C7.18766 14 6.84766 13.66 6.84766 13.25C6.84766 12.84 7.18766 12.5 7.59766 12.5ZM16.5977 18H7.59766C7.18766 18 6.84766 17.66 6.84766 17.25C6.84766 16.84 7.18766 16.5 7.59766 16.5H16.5977C17.0077 16.5 17.3477 16.84 17.3477 17.25C17.3477 17.66 17.0077 18 16.5977 18Z" fill="#6D28D9"/>
</svg>
