<svg width="17" height="17" viewBox="0 0 17 17" fill="none" xmlns="http://www.w3.org/2000/svg">
<g filter="url(#filter0_i_1368_7074)">
<path d="M10.8332 7.72144H6.1665C5.89317 7.72144 5.6665 7.49477 5.6665 7.22144C5.6665 6.9481 5.89317 6.72144 6.1665 6.72144H10.8332C11.1065 6.72144 11.3332 6.9481 11.3332 7.22144C11.3332 7.49477 11.1065 7.72144 10.8332 7.72144Z" fill="#6D28D9"/>
<path d="M11.1668 15.1014C10.9402 15.1014 10.7135 15.0348 10.5202 14.9081L7.68016 13.0148H5.16683C2.8735 13.0148 1.3335 11.4748 1.3335 9.18142V5.18142C1.3335 2.88808 2.8735 1.34808 5.16683 1.34808H11.8335C14.1268 1.34808 15.6668 2.88808 15.6668 5.18142V9.18142C15.6668 11.3014 14.3468 12.7814 12.3335 12.9881V13.9348C12.3335 14.3681 12.1002 14.7614 11.7202 14.9614C11.5468 15.0547 11.3535 15.1014 11.1668 15.1014ZM5.16683 2.34141C3.44683 2.34141 2.3335 3.45474 2.3335 5.17474V9.17474C2.3335 10.8947 3.44683 12.0081 5.16683 12.0081H7.8335C7.9335 12.0081 8.02684 12.0347 8.1135 12.0947L11.0802 14.0681C11.1535 14.1148 11.2202 14.0948 11.2535 14.0748C11.2868 14.0548 11.3402 14.0147 11.3402 13.9281V12.5081C11.3402 12.2347 11.5668 12.0081 11.8402 12.0081C13.5602 12.0081 14.6735 10.8947 14.6735 9.17474V5.17474C14.6735 3.45474 13.5602 2.34141 11.8402 2.34141H5.16683Z" fill="#6D28D9"/>
</g>
<defs>
<filter id="filter0_i_1368_7074" x="0.5" y="0.221436" width="16" height="17" filterUnits="userSpaceOnUse" color-interpolation-filters="sRGB">
<feFlood flood-opacity="0" result="BackgroundImageFix"/>
<feBlend mode="normal" in="SourceGraphic" in2="BackgroundImageFix" result="shape"/>
<feColorMatrix in="SourceAlpha" type="matrix" values="0 0 0 0 0 0 0 0 0 0 0 0 0 0 0 0 0 0 127 0" result="hardAlpha"/>
<feOffset dy="1"/>
<feGaussianBlur stdDeviation="0.5"/>
<feComposite in2="hardAlpha" operator="arithmetic" k2="-1" k3="1"/>
<feColorMatrix type="matrix" values="0 0 0 0 0 0 0 0 0 0 0 0 0 0 0 0 0 0 0.25 0"/>
<feBlend mode="normal" in2="shape" result="effect1_innerShadow_1368_7074"/>
</filter>
</defs>
</svg>
