<svg width="24" height="25" viewBox="0 0 24 25" fill="none" xmlns="http://www.w3.org/2000/svg">
<g filter="url(#filter0_i_898_4979)">
<path d="M12 19.771C8.28 19.771 5.25 16.741 5.25 13.021V8.021C5.25 4.301 8.28 1.271 12 1.271C15.72 1.271 18.75 4.301 18.75 8.021V13.021C18.75 16.741 15.72 19.771 12 19.771ZM12 2.771C9.11 2.771 6.75 5.121 6.75 8.021V13.021C6.75 15.921 9.11 18.271 12 18.271C14.89 18.271 17.25 15.921 17.25 13.021V8.021C17.25 5.121 14.89 2.771 12 2.771Z" fill="#6D28D9"/>
<path d="M12 22.771C6.62 22.771 2.25 18.401 2.25 13.021V11.021C2.25 10.611 2.59 10.271 3 10.271C3.41 10.271 3.75 10.611 3.75 11.021V13.021C3.75 17.571 7.45 21.271 12 21.271C16.55 21.271 20.25 17.571 20.25 13.021V11.021C20.25 10.611 20.59 10.271 21 10.271C21.41 10.271 21.75 10.611 21.75 11.021V13.021C21.75 18.401 17.38 22.771 12 22.771Z" fill="#6D28D9"/>
<path d="M14.6099 8.251C14.5299 8.251 14.4399 8.241 14.3499 8.211C12.7399 7.631 10.9699 7.631 9.35988 8.211C8.97988 8.351 8.54988 8.151 8.40988 7.761C8.26988 7.371 8.46988 6.941 8.85988 6.801C10.7999 6.101 12.9299 6.101 14.8699 6.801C15.2599 6.941 15.4599 7.371 15.3199 7.761C15.2099 8.071 14.9199 8.251 14.6099 8.251Z" fill="#6D28D9"/>
<path d="M13.6999 11.251C13.6399 11.251 13.5699 11.241 13.4999 11.221C12.4299 10.931 11.2999 10.931 10.2299 11.221C9.81992 11.331 9.41992 11.091 9.30992 10.691C9.19992 10.291 9.43992 9.88098 9.83992 9.77098C11.1699 9.41098 12.5699 9.41098 13.8999 9.77098C14.2999 9.88098 14.5399 10.291 14.4299 10.691C14.3299 11.041 14.0299 11.251 13.6999 11.251Z" fill="#6D28D9"/>
</g>
<defs>
<filter id="filter0_i_898_4979" x="0" y="0.0209961" width="24" height="25" filterUnits="userSpaceOnUse" color-interpolation-filters="sRGB">
<feFlood flood-opacity="0" result="BackgroundImageFix"/>
<feBlend mode="normal" in="SourceGraphic" in2="BackgroundImageFix" result="shape"/>
<feColorMatrix in="SourceAlpha" type="matrix" values="0 0 0 0 0 0 0 0 0 0 0 0 0 0 0 0 0 0 127 0" result="hardAlpha"/>
<feOffset dy="1"/>
<feGaussianBlur stdDeviation="0.5"/>
<feComposite in2="hardAlpha" operator="arithmetic" k2="-1" k3="1"/>
<feColorMatrix type="matrix" values="0 0 0 0 0.858824 0 0 0 0 0.882353 0 0 0 0 0.937255 0 0 0 0.21 0"/>
<feBlend mode="normal" in2="shape" result="effect1_innerShadow_898_4979"/>
</filter>
</defs>
</svg>
