<svg width="24" height="24" viewBox="0 0 24 24" fill="none" xmlns="http://www.w3.org/2000/svg">
<g filter="url(#filter0_i_8939_6579)">
<path d="M7 17.75H5C2.58 17.75 1.25 16.42 1.25 14V9.99999C1.25 7.57999 2.58 6.24999 5 6.24999H6.43C6.66 6.24999 6.89 6.17999 7.09 6.05999L10.01 4.22999C11.47 3.31999 12.89 3.14999 14.01 3.76999C15.13 4.38999 15.74 5.67999 15.74 7.40999V8.36999C15.74 8.77999 15.4 9.11999 14.99 9.11999C14.58 9.11999 14.24 8.77999 14.24 8.36999V7.40999C14.24 6.26999 13.89 5.41999 13.28 5.08999C12.67 4.74999 11.77 4.89999 10.8 5.50999L7.88 7.32999C7.45 7.60999 6.94 7.74999 6.43 7.74999H5C3.42 7.74999 2.75 8.41999 2.75 9.99999V14C2.75 15.58 3.42 16.25 5 16.25H7C7.41 16.25 7.75 16.59 7.75 17C7.75 17.41 7.41 17.75 7 17.75Z" fill="white"/>
<path d="M12.5496 20.59C11.7596 20.59 10.8896 20.31 10.0196 19.76C9.6696 19.54 9.5596 19.08 9.7796 18.73C9.9996 18.38 10.4596 18.27 10.8096 18.49C11.7796 19.09 12.6796 19.25 13.2896 18.91C13.8996 18.57 14.2496 17.72 14.2496 16.59V12.95C14.2496 12.54 14.5896 12.2 14.9996 12.2C15.4096 12.2 15.7496 12.54 15.7496 12.95V16.59C15.7496 18.31 15.1296 19.61 14.0196 20.23C13.5696 20.47 13.0696 20.59 12.5496 20.59Z" fill="white"/>
<path d="M18.0003 16.75C17.8403 16.75 17.6903 16.7 17.5503 16.6C17.2203 16.35 17.1503 15.88 17.4003 15.55C18.6603 13.87 18.9303 11.64 18.1203 9.71001C17.9603 9.33001 18.1403 8.89001 18.5203 8.73001C18.9003 8.57001 19.3403 8.75001 19.5003 9.13001C20.5203 11.55 20.1703 14.36 18.6003 16.46C18.4503 16.65 18.2303 16.75 18.0003 16.75Z" fill="white"/>
<path d="M19.8304 19.25C19.6704 19.25 19.5204 19.2 19.3804 19.1C19.0504 18.85 18.9804 18.38 19.2304 18.05C21.3704 15.2 21.8404 11.38 20.4604 8.09002C20.3004 7.71002 20.4804 7.27002 20.8604 7.11002C21.2504 6.95002 21.6804 7.13002 21.8404 7.51002C23.4304 11.29 22.8904 15.67 20.4304 18.95C20.2904 19.15 20.0604 19.25 19.8304 19.25Z" fill="white"/>
<path d="M1.99945 22.75C1.80945 22.75 1.61945 22.68 1.46945 22.53C1.17945 22.24 1.17945 21.76 1.46945 21.47L21.4695 1.47C21.7595 1.18 22.2395 1.18 22.5295 1.47C22.8195 1.76 22.8195 2.24 22.5295 2.53L2.52945 22.53C2.37945 22.68 2.18945 22.75 1.99945 22.75Z" fill="white"/>
</g>
<defs>
<filter id="filter0_i_8939_6579" x="0" y="0" width="24" height="25" filterUnits="userSpaceOnUse" color-interpolation-filters="sRGB">
<feFlood flood-opacity="0" result="BackgroundImageFix"/>
<feBlend mode="normal" in="SourceGraphic" in2="BackgroundImageFix" result="shape"/>
<feColorMatrix in="SourceAlpha" type="matrix" values="0 0 0 0 0 0 0 0 0 0 0 0 0 0 0 0 0 0 127 0" result="hardAlpha"/>
<feOffset dy="1"/>
<feGaussianBlur stdDeviation="0.5"/>
<feComposite in2="hardAlpha" operator="arithmetic" k2="-1" k3="1"/>
<feColorMatrix type="matrix" values="0 0 0 0 0 0 0 0 0 0 0 0 0 0 0 0 0 0 0.21 0"/>
<feBlend mode="normal" in2="shape" result="effect1_innerShadow_8939_6579"/>
</filter>
</defs>
</svg>
