<svg width="99" height="98" viewBox="0 0 99 98" fill="none" xmlns="http://www.w3.org/2000/svg">
<path d="M47.9633 97.9266C74.4527 97.9266 95.9266 76.4527 95.9266 49.9633C95.9266 23.4739 74.4527 2 47.9633 2C21.4739 2 0 23.4739 0 49.9633C0 76.4527 21.4739 97.9266 47.9633 97.9266Z" fill="url(#paint0_linear_3649_18443)"/>
<path d="M74.0676 16.7253H25.6447C22.6265 16.7253 20.1797 19.1721 20.1797 22.1904H79.5327C79.5327 19.1721 77.0859 16.7253 74.0676 16.7253Z" fill="#CBD5E1"/>
<path d="M20.1797 22.0426H79.5327V67.2468C79.5327 69.2566 78.7343 71.1841 77.3132 72.6053C75.892 74.0264 73.9645 74.8248 71.9547 74.8248H27.7577C25.7479 74.8248 23.8204 74.0264 22.3992 72.6053C20.9781 71.1841 20.1797 69.2566 20.1797 67.2468V22.0426Z" fill="url(#paint1_linear_3649_18443)"/>
<path d="M69.3285 27.751H30.3996C29.5889 27.751 28.9316 28.4075 28.9316 29.2173C28.9316 30.0272 29.5889 30.6837 30.3996 30.6837H69.3285C70.1393 30.6837 70.7965 30.0272 70.7965 29.2173C70.7965 28.4075 70.1393 27.751 69.3285 27.751Z" fill="url(#paint2_linear_3649_18443)"/>
<path d="M69.3285 40.2104H30.3996C29.5889 40.2104 28.9316 40.867 28.9316 41.6768C28.9316 42.4866 29.5889 43.1432 30.3996 43.1432H69.3285C70.1393 43.1432 70.7965 42.4866 70.7965 41.6768C70.7965 40.867 70.1393 40.2104 69.3285 40.2104Z" fill="url(#paint3_linear_3649_18443)"/>
<path d="M69.3285 52.671H30.3996C29.5889 52.671 28.9316 53.3275 28.9316 54.1374C28.9316 54.9472 29.5889 55.6037 30.3996 55.6037H69.3285C70.1393 55.6037 70.7965 54.9472 70.7965 54.1374C70.7965 53.3275 70.1393 52.671 69.3285 52.671Z" fill="url(#paint4_linear_3649_18443)"/>
<path d="M69.3285 65.1306H30.3996C29.5889 65.1306 28.9316 65.7871 28.9316 66.597C28.9316 67.4068 29.5889 68.0633 30.3996 68.0633H69.3285C70.1393 68.0633 70.7965 67.4068 70.7965 66.597C70.7965 65.7871 70.1393 65.1306 69.3285 65.1306Z" fill="url(#paint5_linear_3649_18443)"/>
<g filter="url(#filter0_d_3649_18443)">
<path d="M30.137 49.9978H9.40789C7.74258 49.9978 6.39258 51.3478 6.39258 53.0131V82.642C6.39258 84.3073 7.74258 85.6573 9.40789 85.6573H30.137C31.8023 85.6573 33.1523 84.3073 33.1523 82.642V53.0131C33.1523 51.3478 31.8023 49.9978 30.137 49.9978Z" fill="url(#paint6_linear_3649_18443)" shape-rendering="crispEdges"/>
</g>
<g filter="url(#filter1_d_3649_18443)">
<path d="M89.1443 3.71802H66.2482C65.1813 3.71802 64.3164 4.58293 64.3164 5.64985V16.4116C64.3164 17.4785 65.1813 18.3434 66.2482 18.3434H89.1443C90.2112 18.3434 91.0761 17.4785 91.0761 16.4116V5.64985C91.0761 4.58293 90.2112 3.71802 89.1443 3.71802Z" fill="url(#paint7_linear_3649_18443)"/>
</g>
<path d="M27.8249 64.8204H11.722C11.1798 64.8204 10.7402 65.26 10.7402 65.8022V65.8054C10.7402 66.3477 11.1798 66.7872 11.722 66.7872H27.8249C28.3671 66.7872 28.8067 66.3477 28.8067 65.8054V65.8022C28.8067 65.26 28.3671 64.8204 27.8249 64.8204Z" fill="url(#paint8_linear_3649_18443)"/>
<path d="M27.8323 78.6609H11.8679C11.3303 78.6609 10.8945 79.0868 10.8945 79.6121V79.6152C10.8945 80.1405 11.3303 80.5663 11.8679 80.5663H27.8323C28.3699 80.5663 28.8057 80.1405 28.8057 79.6152V79.6121C28.8057 79.0868 28.3699 78.6609 27.8323 78.6609Z" fill="url(#paint9_linear_3649_18443)"/>
<path d="M27.8323 71.4192H11.8679C11.3303 71.4192 10.8945 71.8451 10.8945 72.3704V72.3735C10.8945 72.8988 11.3303 73.3246 11.8679 73.3246H27.8323C28.3699 73.3246 28.8057 72.8988 28.8057 72.3735V72.3704C28.8057 71.8451 28.3699 71.4192 27.8323 71.4192Z" fill="url(#paint10_linear_3649_18443)"/>
<path d="M17.6106 54.5728H12.9049C11.8626 54.5728 11.0176 55.4177 11.0176 56.4601V57.766C11.0176 58.8084 11.8626 59.6533 12.9049 59.6533H17.6106C18.6529 59.6533 19.4979 58.8084 19.4979 57.766V56.4601C19.4979 55.4177 18.6529 54.5728 17.6106 54.5728Z" fill="url(#paint11_linear_3649_18443)"/>
<path d="M69.969 13.2498C71.1956 13.2498 72.19 12.2554 72.19 11.0288C72.19 9.80222 71.1956 8.80786 69.969 8.80786C68.7424 8.80786 67.748 9.80222 67.748 11.0288C67.748 12.2554 68.7424 13.2498 69.969 13.2498Z" fill="#CBD5E1"/>
<path d="M77.9065 13.2498C79.1331 13.2498 80.1275 12.2554 80.1275 11.0288C80.1275 9.80222 79.1331 8.80786 77.9065 8.80786C76.6799 8.80786 75.6855 9.80222 75.6855 11.0288C75.6855 12.2554 76.6799 13.2498 77.9065 13.2498Z" fill="#CBD5E1"/>
<path d="M85.844 13.2498C87.0706 13.2498 88.065 12.2554 88.065 11.0288C88.065 9.80222 87.0706 8.80786 85.844 8.80786C84.6174 8.80786 83.623 9.80222 83.623 11.0288C83.623 12.2554 84.6174 13.2498 85.844 13.2498Z" fill="#CBD5E1"/>
<g filter="url(#filter2_f_3649_18443)">
<ellipse cx="62.9315" cy="66.943" rx="13.9804" ry="2.06528" fill="#94A3B8" fill-opacity="0.46"/>
</g>
<path d="M46.7773 80.6609C46.9746 79.8439 48.1367 79.8439 48.334 80.6609L48.9978 83.4109C49.0683 83.7029 49.2963 83.9308 49.5882 84.0013L52.3382 84.6651C53.1552 84.8624 53.1553 86.0246 52.3382 86.2218L49.5882 86.8856C49.2963 86.9561 49.0683 87.1841 48.9978 87.4761L48.334 90.226C48.1367 91.0431 46.9746 91.0431 46.7773 90.226L46.1135 87.4761C46.043 87.1841 45.815 86.9561 45.5231 86.8856L42.7731 86.2218C41.9561 86.0246 41.9561 84.8624 42.7731 84.6651L45.5231 84.0013C45.815 83.9308 46.043 83.7029 46.1135 83.4109L46.7773 80.6609Z" fill="#CBD5E1"/>
<path d="M15.1465 7.49236C15.3437 6.67529 16.5059 6.67529 16.7031 7.49236L17.3669 10.2423C17.4374 10.5343 17.6654 10.7623 17.9574 10.8327L20.7073 11.4966C21.5244 11.6938 21.5244 12.856 20.7073 13.0532L17.9574 13.717C17.6654 13.7875 17.4374 14.0155 17.3669 14.3075L16.7031 17.0574C16.5059 17.8745 15.3437 17.8745 15.1465 17.0574L14.4826 14.3075C14.4122 14.0155 14.1842 13.7875 13.8922 13.717L11.1423 13.0532C10.3252 12.856 10.3252 11.6938 11.1423 11.4966L13.8922 10.8327C14.1842 10.7623 14.4122 10.5343 14.4826 10.2423L15.1465 7.49236Z" fill="#CBD5E1"/>
<path fill-rule="evenodd" clip-rule="evenodd" d="M48.7435 7.93786C49.4805 7.93786 50.078 7.3404 50.078 6.60339C50.078 5.86638 49.4805 5.26892 48.7435 5.26892C48.0065 5.26892 47.4091 5.86638 47.4091 6.60339C47.4091 7.3404 48.0065 7.93786 48.7435 7.93786ZM48.7435 8.93871C50.0333 8.93871 51.0789 7.89315 51.0789 6.60339C51.0789 5.31363 50.0333 4.26807 48.7435 4.26807C47.4538 4.26807 46.4082 5.31363 46.4082 6.60339C46.4082 7.89315 47.4538 8.93871 48.7435 8.93871Z" fill="#CBD5E1"/>
<path d="M90.2395 44.6837C90.1126 44.186 90.572 43.7375 91.0665 43.8765L94.4043 44.8145C94.8988 44.9534 95.0574 45.5756 94.6898 45.9343L92.2086 48.3559C91.841 48.7147 91.2229 48.541 91.096 48.0433L90.2395 44.6837Z" fill="#CBD5E1"/>
<path d="M11.9998 38.9542C12.4977 38.8279 12.9456 39.288 12.806 39.7823L11.8637 43.1188C11.7241 43.6131 11.1018 43.7709 10.7435 43.4029L8.32507 40.9186C7.96679 40.5505 8.14129 39.9326 8.63917 39.8064L11.9998 38.9542Z" fill="#CBD5E1"/>
<path d="M75.6424 85.0655C76.1403 84.9392 76.5882 85.3993 76.4486 85.8936L75.5063 89.2301C75.3667 89.7244 74.7443 89.8823 74.3861 89.5142L71.9677 87.0299C71.6094 86.6619 71.7839 86.044 72.2817 85.9177L75.6424 85.0655Z" fill="#CBD5E1"/>
<path fill-rule="evenodd" clip-rule="evenodd" d="M93.3295 27.3732C94.0665 27.3732 94.6639 26.7757 94.6639 26.0387C94.6639 25.3017 94.0665 24.7042 93.3295 24.7042C92.5925 24.7042 91.995 25.3017 91.995 26.0387C91.995 26.7757 92.5925 27.3732 93.3295 27.3732ZM93.3295 28.374C94.6192 28.374 95.6648 27.3285 95.6648 26.0387C95.6648 24.7489 94.6192 23.7034 93.3295 23.7034C92.0397 23.7034 90.9941 24.7489 90.9941 26.0387C90.9941 27.3285 92.0397 28.374 93.3295 28.374Z" fill="#CBD5E1"/>
<defs>
<filter id="filter0_d_3649_18443" x="1.81951" y="46.9491" width="38.1924" height="47.0921" filterUnits="userSpaceOnUse" color-interpolation-filters="sRGB">
<feFlood flood-opacity="0" result="BackgroundImageFix"/>
<feColorMatrix in="SourceAlpha" type="matrix" values="0 0 0 0 0 0 0 0 0 0 0 0 0 0 0 0 0 0 127 0" result="hardAlpha"/>
<feOffset dx="1.14327" dy="2.66762"/>
<feGaussianBlur stdDeviation="2.85817"/>
<feComposite in2="hardAlpha" operator="out"/>
<feColorMatrix type="matrix" values="0 0 0 0 0.104618 0 0 0 0 0.465612 0 0 0 0 0.545833 0 0 0 0.15 0"/>
<feBlend mode="normal" in2="BackgroundImageFix" result="effect1_dropShadow_3649_18443"/>
<feBlend mode="normal" in="SourceGraphic" in2="effect1_dropShadow_3649_18443" result="shape"/>
</filter>
<filter id="filter1_d_3649_18443" x="61.6488" y="0.288216" width="36.6681" height="24.5337" filterUnits="userSpaceOnUse" color-interpolation-filters="sRGB">
<feFlood flood-opacity="0" result="BackgroundImageFix"/>
<feColorMatrix in="SourceAlpha" type="matrix" values="0 0 0 0 0 0 0 0 0 0 0 0 0 0 0 0 0 0 127 0" result="hardAlpha"/>
<feOffset dx="2.28653" dy="1.52436"/>
<feGaussianBlur stdDeviation="2.47708"/>
<feComposite in2="hardAlpha" operator="out"/>
<feColorMatrix type="matrix" values="0 0 0 0 0.104618 0 0 0 0 0.465612 0 0 0 0 0.545833 0 0 0 0.09 0"/>
<feBlend mode="normal" in2="BackgroundImageFix" result="effect1_dropShadow_3649_18443"/>
<feBlend mode="normal" in="SourceGraphic" in2="effect1_dropShadow_3649_18443" result="shape"/>
</filter>
<filter id="filter2_f_3649_18443" x="41.0078" y="56.9343" width="43.8477" height="20.0174" filterUnits="userSpaceOnUse" color-interpolation-filters="sRGB">
<feFlood flood-opacity="0" result="BackgroundImageFix"/>
<feBlend mode="normal" in="SourceGraphic" in2="BackgroundImageFix" result="shape"/>
<feGaussianBlur stdDeviation="3.9717" result="effect1_foregroundBlur_3649_18443"/>
</filter>
<linearGradient id="paint0_linear_3649_18443" x1="47.5935" y1="-13.618" x2="48.5761" y2="154.822" gradientUnits="userSpaceOnUse">
<stop stop-color="white" stop-opacity="0"/>
<stop offset="1" stop-color="#94A3B8" stop-opacity="0.67"/>
</linearGradient>
<linearGradient id="paint1_linear_3649_18443" x1="18.3976" y1="61.6228" x2="104.143" y2="63.1472" gradientUnits="userSpaceOnUse">
<stop stop-color="white"/>
<stop offset="1" stop-color="#AFB5BE"/>
</linearGradient>
<linearGradient id="paint2_linear_3649_18443" x1="27.161" y1="30.5627" x2="73.2728" y2="30.5627" gradientUnits="userSpaceOnUse">
<stop stop-color="#E2E8F0"/>
<stop offset="1" stop-color="#B4B6B9"/>
</linearGradient>
<linearGradient id="paint3_linear_3649_18443" x1="27.161" y1="43.0222" x2="73.2728" y2="43.0222" gradientUnits="userSpaceOnUse">
<stop stop-color="#E2E8F0"/>
<stop offset="1" stop-color="#B4B6B9"/>
</linearGradient>
<linearGradient id="paint4_linear_3649_18443" x1="27.161" y1="55.4828" x2="73.2728" y2="55.4828" gradientUnits="userSpaceOnUse">
<stop stop-color="#E2E8F0"/>
<stop offset="1" stop-color="#B4B6B9"/>
</linearGradient>
<linearGradient id="paint5_linear_3649_18443" x1="27.161" y1="67.9424" x2="73.2728" y2="67.9424" gradientUnits="userSpaceOnUse">
<stop stop-color="#E2E8F0"/>
<stop offset="1" stop-color="#B4B6B9"/>
</linearGradient>
<linearGradient id="paint6_linear_3649_18443" x1="5.5891" y1="76.738" x2="56.8786" y2="80.9505" gradientUnits="userSpaceOnUse">
<stop stop-color="#D7DDE5" stop-opacity="0.67"/>
<stop offset="0.825" stop-color="#94A3B8"/>
</linearGradient>
<linearGradient id="paint7_linear_3649_18443" x1="63.5129" y1="14.6853" x2="102.152" y2="15.8029" gradientUnits="userSpaceOnUse">
<stop stop-color="white"/>
<stop offset="1" stop-color="#AFB5BE"/>
</linearGradient>
<linearGradient id="paint8_linear_3649_18443" x1="30.9033" y1="66.8459" x2="9.18127" y2="66.8459" gradientUnits="userSpaceOnUse">
<stop stop-color="#B4B9C0"/>
<stop offset="1" stop-color="#94A3B8"/>
</linearGradient>
<linearGradient id="paint9_linear_3649_18443" x1="30.8844" y1="80.6231" x2="9.34896" y2="80.6231" gradientUnits="userSpaceOnUse">
<stop stop-color="#B4B9C0"/>
<stop offset="1" stop-color="#94A3B8"/>
</linearGradient>
<linearGradient id="paint10_linear_3649_18443" x1="30.8844" y1="73.3814" x2="9.34896" y2="73.3814" gradientUnits="userSpaceOnUse">
<stop stop-color="#B4B9C0"/>
<stop offset="1" stop-color="#94A3B8"/>
</linearGradient>
<linearGradient id="paint11_linear_3649_18443" x1="25.3784" y1="59.6045" x2="9.94431" y2="59.6045" gradientUnits="userSpaceOnUse">
<stop offset="0.243799" stop-color="#AFB2B6"/>
<stop offset="1" stop-color="#94A3B8"/>
</linearGradient>
</defs>
</svg>
