<svg width="70" height="67" viewBox="0 0 70 67" fill="none" xmlns="http://www.w3.org/2000/svg">
<path d="M34.9996 67.0023C53.8504 67.0023 69.132 61.0075 69.132 53.6125C69.132 46.2175 53.8504 40.2227 34.9996 40.2227C16.1488 40.2227 0.867188 46.2175 0.867188 53.6125C0.867188 61.0075 16.1488 67.0023 34.9996 67.0023Z" fill="#F9FAFB"/>
<path d="M25.4196 0.998047L27.9177 4.40545L21.0733 47.3212L18.5742 43.9147L25.4196 0.998047Z" fill="#D0D5DD"/>
<path d="M21.0723 47.5291C21.0066 47.5291 20.9445 47.4985 20.9047 47.4439L18.4057 44.0374C18.3723 43.993 18.3594 43.9365 18.3677 43.8809L25.2121 0.96427C25.2251 0.880937 25.2871 0.81427 25.3686 0.794826C25.4501 0.775381 25.5362 0.805937 25.5853 0.874455L28.0844 4.28094C28.1177 4.32538 28.1307 4.38186 28.1223 4.43742L21.2779 47.3541C21.2649 47.4374 21.2029 47.5041 21.1214 47.5235C21.1047 47.5272 21.089 47.5291 21.0723 47.5291ZM18.7927 43.8615L20.9445 46.7957L27.6973 4.45779L25.5455 1.52353L18.7927 43.8615Z" fill="#F9FAFB"/>
<path d="M33.4674 8.15039L35.9655 11.5569L30.2618 47.3208L27.7637 43.9143L33.4674 8.15039Z" fill="#D0D5DD"/>
<path d="M30.2618 47.5286C30.196 47.5286 30.134 47.4981 30.0942 47.4435L27.5951 44.037C27.5618 43.9925 27.5488 43.9361 27.5571 43.8805L33.2608 8.11661C33.2738 8.03328 33.3358 7.96661 33.4173 7.94717C33.4988 7.92772 33.5849 7.95828 33.634 8.0268L36.1331 11.4333C36.1664 11.4777 36.1794 11.5342 36.171 11.5898L30.4673 47.3536C30.4544 47.437 30.3923 47.5037 30.3108 47.5231C30.2942 47.5268 30.2784 47.5286 30.2618 47.5286ZM27.9831 43.8611L30.1349 46.7953L35.747 11.6101L33.5951 8.67587L27.9831 43.8611Z" fill="#F9FAFB"/>
<path d="M41.5186 15.3027L44.0177 18.7092L41.7159 33.1398L39.2168 29.7333L41.5186 15.3027Z" fill="#D0D5DD"/>
<path d="M41.7149 33.3477C41.6492 33.3477 41.5871 33.3171 41.5473 33.2625L39.0482 29.856C39.0149 29.8115 39.0019 29.7551 39.0103 29.6995L41.3121 15.269C41.3251 15.1856 41.3871 15.119 41.4686 15.0995C41.5501 15.0801 41.6362 15.1106 41.6853 15.1791L44.1843 18.5856C44.2177 18.6301 44.2306 18.6865 44.2223 18.7421L41.9204 33.1727C41.9075 33.256 41.8454 33.3227 41.764 33.3421C41.7473 33.3458 41.7306 33.3477 41.7149 33.3477ZM39.4353 29.6801L41.5871 32.6143L43.7973 18.7615L41.6455 15.8273L39.4353 29.6801Z" fill="#F9FAFB"/>
<path d="M49.5765 22.3691L52.0755 25.7756L51.2237 31.1173L48.7246 27.7108L49.5765 22.3691Z" fill="#D0D5DD"/>
<path d="M51.2247 31.3252C51.1589 31.3252 51.0969 31.2946 51.0571 31.24L48.558 27.8335C48.5247 27.7891 48.5117 27.7326 48.52 27.677L49.3719 22.3354C49.3848 22.252 49.4469 22.1854 49.5284 22.1659C49.6098 22.1465 49.696 22.177 49.745 22.2455L52.2441 25.652C52.2774 25.6965 52.2904 25.753 52.2821 25.8085L51.4302 31.1502C51.4173 31.2335 51.3552 31.3002 51.2737 31.3196C51.2571 31.3233 51.2413 31.3252 51.2247 31.3252ZM48.945 27.6576L51.0969 30.5918L51.8571 25.8289L49.7052 22.8946L48.945 27.6576Z" fill="#F9FAFB"/>
<path d="M47.4148 35.9434L49.9129 39.3498L48.6417 47.3221L46.1426 43.9156L47.4148 35.9434Z" fill="#D0D5DD"/>
<path d="M48.6407 47.5299C48.5749 47.5299 48.5129 47.4994 48.4731 47.4448L45.974 44.0383C45.9407 43.9938 45.9277 43.9374 45.936 43.8818L47.2073 35.9096C47.2203 35.8262 47.2823 35.7596 47.3638 35.7401C47.4453 35.7207 47.5314 35.7512 47.5805 35.8198L50.0796 39.2262C50.1129 39.2707 50.1259 39.3272 50.1175 39.3827L48.8462 47.3549C48.8333 47.4383 48.7712 47.5049 48.6898 47.5244C48.6731 47.5281 48.6573 47.5299 48.6407 47.5299ZM46.361 43.8624L48.5129 46.7966L49.6925 39.4031L47.5407 36.4688L46.361 43.8624Z" fill="#F9FAFB"/>
<path d="M25.4181 0.996094L18.5727 43.9128H9.38477L16.2292 0.996094H25.4181Z" fill="#D0D5DD"/>
<path d="M18.5727 44.1224H9.38383C9.32272 44.1224 9.26532 44.0956 9.2255 44.0493C9.18569 44.003 9.16902 43.9418 9.17828 43.8817L16.0227 0.964988C16.0385 0.864062 16.1264 0.789062 16.2283 0.789062H25.4172C25.4783 0.789062 25.5357 0.815914 25.5755 0.86221C25.6153 0.908506 25.632 0.969617 25.6227 1.0298L18.7783 43.9465C18.7625 44.0483 18.6755 44.1224 18.5727 44.1224ZM9.6292 43.7057H18.3959L25.1737 1.20573H16.407L9.6292 43.7057Z" fill="#F9FAFB"/>
<path d="M33.4667 8.15039L27.763 43.9143H18.5723L24.2769 8.15039H33.4667Z" fill="#98A2B3"/>
<path d="M27.7631 44.122H18.5733C18.5122 44.122 18.4548 44.0951 18.415 44.0488C18.3751 44.0025 18.3585 43.9414 18.3677 43.8812L24.0714 8.11733C24.0872 8.01641 24.1751 7.94141 24.277 7.94141H33.4668C33.5279 7.94141 33.5853 7.96826 33.6251 8.01455C33.665 8.06085 33.6816 8.12196 33.6724 8.18215L27.9687 43.946C27.952 44.0479 27.865 44.122 27.7631 44.122ZM18.8168 43.7053H27.5844L33.2214 8.35807H24.4538L18.8168 43.7053Z" fill="#F9FAFB"/>
<path d="M32.3276 15.3047H41.5174L39.2155 29.7352C33.5905 32.5056 29.2192 37.8102 28.1766 43.9158H27.7637L32.3276 15.3047Z" fill="#D0D5DD"/>
<path d="M28.1757 44.1235H27.7627C27.7016 44.1235 27.6442 44.0966 27.6044 44.0503C27.5646 44.004 27.5479 43.9429 27.5572 43.8827L32.1201 15.2716C32.1359 15.1707 32.2238 15.0957 32.3257 15.0957H41.5155C41.5766 15.0957 41.634 15.1226 41.6739 15.1688C41.7137 15.2151 41.7303 15.2763 41.7211 15.3364L39.4192 29.767C39.409 29.8337 39.3664 29.8911 39.3053 29.9207C33.5609 32.7494 29.3748 38.1253 28.3803 43.9494C28.3646 44.0503 28.2776 44.1235 28.1757 44.1235ZM32.5044 15.5124L28.0414 43.492C29.1674 37.7207 33.3405 32.4309 39.0257 29.5957L41.272 15.5124H32.5044Z" fill="#F9FAFB"/>
<path d="M40.1814 52.6009C40.1157 52.5009 40.0509 52.4 39.9907 52.2963C39.9898 52.2944 39.9879 52.2916 39.987 52.2898C39.9277 52.1889 39.8713 52.0852 39.8166 51.9805C39.8018 51.9509 39.7879 51.9213 39.7731 51.8916C39.7305 51.8055 39.6888 51.7185 39.649 51.6296C39.6314 51.5889 39.6138 51.5481 39.5963 51.5074C39.562 51.4259 39.5296 51.3444 39.4981 51.2611C39.4796 51.212 39.4611 51.1629 39.4435 51.1139C39.4324 51.0824 39.4222 51.0509 39.4111 51.0194C39.387 50.9463 39.3638 50.8731 39.3416 50.799C39.3333 50.7722 39.325 50.7453 39.3175 50.7176C39.2898 50.6176 39.2629 50.5176 39.2388 50.4157C39.2342 50.3981 39.2314 50.3796 39.2268 50.362C39.2083 50.2796 39.1907 50.1963 39.175 50.1129C39.1657 50.0657 39.1583 50.0185 39.1509 49.9713C39.1398 49.9074 39.1296 49.8435 39.1213 49.7787C39.1148 49.7305 39.1083 49.6815 39.1027 49.6324C39.0953 49.5676 39.0879 49.5027 39.0824 49.437C39.0777 49.3879 39.074 49.3379 39.0703 49.2889C39.0657 49.2231 39.062 49.1565 39.0592 49.0898C39.0574 49.0398 39.0546 48.9898 39.0537 48.9398C39.0518 48.8713 39.0518 48.8028 39.0518 48.7342C39.0518 48.6852 39.0518 48.6361 39.0527 48.5861C39.0546 48.5148 39.0583 48.4426 39.0611 48.3694C39.0638 48.3222 39.0648 48.2759 39.0685 48.2277C39.074 48.1472 39.0814 48.0666 39.0898 47.9852C39.0935 47.9453 39.0962 47.9055 39.1009 47.8657C39.1148 47.7444 39.1314 47.6222 39.1509 47.5C39.1601 47.4389 39.1712 47.3778 39.1824 47.3176C39.3 46.6713 39.4925 46.0435 39.749 45.4416L37.25 42.0352C36.9925 42.637 36.8009 43.2648 36.6833 43.9111C36.6722 43.9722 36.662 44.0333 36.6518 44.0935C36.6324 44.2157 36.6157 44.3379 36.6018 44.4592C36.5972 44.499 36.5944 44.5389 36.5907 44.5787C36.5824 44.6592 36.575 44.7407 36.5694 44.8213C36.5666 44.8685 36.5648 44.9157 36.562 44.9629C36.5583 45.0352 36.5546 45.1074 36.5537 45.1796C36.5527 45.2296 36.5527 45.2787 36.5527 45.3277C36.5527 45.3963 36.5527 45.4648 36.5546 45.5333C36.5555 45.5833 36.5583 45.6333 36.5601 45.6833C36.5629 45.75 36.5666 45.8157 36.5712 45.8824C36.575 45.9324 36.5787 45.9815 36.5833 46.0315C36.5888 46.0963 36.5963 46.162 36.6037 46.2259C36.6092 46.275 36.6157 46.324 36.6222 46.3722C36.6314 46.437 36.6416 46.5009 36.6518 46.5648C36.6601 46.612 36.6675 46.6592 36.6768 46.7065C36.6805 46.725 36.6833 46.7435 36.6861 46.762C36.699 46.8268 36.7129 46.8907 36.7277 46.9546C36.7314 46.9722 36.7351 46.9907 36.7398 47.0092C36.7638 47.1111 36.7898 47.2111 36.8185 47.3111C36.8259 47.3379 36.8342 47.3648 36.8425 47.3926C36.8648 47.4666 36.887 47.5398 36.912 47.6129C36.9222 47.6444 36.9333 47.6759 36.9444 47.7074C36.9527 47.7315 36.9601 47.7555 36.9685 47.7796C36.9777 47.8046 36.9888 47.8296 36.9981 47.8546C37.0296 47.9379 37.062 48.0194 37.0963 48.1009C37.1138 48.1416 37.1305 48.1824 37.1481 48.2231C37.1879 48.312 37.2296 48.399 37.2722 48.4852C37.2833 48.5083 37.2935 48.5315 37.3046 48.5546C37.3083 48.5611 37.312 48.5676 37.3148 48.574C37.3685 48.6787 37.425 48.7824 37.4851 48.8833C37.4861 48.8852 37.4879 48.8879 37.4888 48.8898C37.55 48.9935 37.6138 49.0944 37.6796 49.1944C37.6833 49.2 37.687 49.2065 37.6907 49.212C37.7444 49.2926 37.8 49.3713 37.8564 49.449L40.3555 52.8555C40.2972 52.7722 40.2388 52.687 40.1814 52.6009Z" fill="#D0D5DD"/>
<path d="M40.3587 53.0646C40.2948 53.0646 40.2309 53.035 40.1902 52.9794L40.1892 52.9785L37.6911 49.573C37.6318 49.4924 37.5744 49.41 37.5198 49.3285L37.5096 49.3128C37.4355 49.2007 37.3707 49.098 37.3114 48.9961C37.3096 48.9933 37.3068 48.9878 37.3059 48.985C37.2494 48.8878 37.192 48.7841 37.1327 48.6702C37.1281 48.6628 37.1244 48.6563 37.1216 48.6498C37.1142 48.6359 37.1077 48.6211 37.1003 48.6054C37.0966 48.597 37.092 48.5878 37.0883 48.5794C37.0392 48.4813 36.9976 48.3933 36.9605 48.3091C36.9429 48.2702 36.9263 48.2304 36.9096 48.1906C36.8716 48.0998 36.8374 48.0146 36.805 47.9294C36.8013 47.9193 36.7976 47.91 36.7939 47.9007C36.7874 47.885 36.7809 47.8683 36.7744 47.8526C36.7689 47.8378 36.7642 47.822 36.7587 47.8072L36.7494 47.7785C36.7383 47.7461 36.7272 47.7137 36.7161 47.6804C36.6911 47.6054 36.6679 47.5294 36.6448 47.4535L36.6364 47.4257C36.6309 47.4072 36.6253 47.3887 36.6198 47.3702C36.5901 47.2637 36.5624 47.1591 36.5392 47.0591L36.5272 47.0035C36.5114 46.9332 36.4966 46.8693 36.4846 46.8054C36.4818 46.7933 36.48 46.7813 36.4781 46.7683L36.4744 46.747C36.467 46.7054 36.4596 46.6637 36.4522 46.6211L36.4485 46.6007C36.4374 46.535 36.4272 46.4693 36.4179 46.4026C36.4114 46.3526 36.405 46.3026 36.3985 46.2517C36.3911 46.185 36.3837 46.1183 36.3772 46.0517C36.3726 46.0007 36.3679 45.9498 36.3642 45.8989C36.3596 45.8313 36.3559 45.7628 36.3531 45.6943C36.3513 45.6433 36.3485 45.5915 36.3476 45.5406C36.3457 45.4702 36.3457 45.3998 36.3457 45.3294V45.2952C36.3457 45.2563 36.3457 45.2165 36.3466 45.1767C36.3485 45.1035 36.3522 45.0285 36.3559 44.9544L36.3577 44.9082C36.3596 44.8748 36.3605 44.8424 36.3633 44.8091C36.3689 44.7267 36.3772 44.6433 36.3855 44.56L36.3892 44.5156C36.3911 44.4896 36.3939 44.4637 36.3966 44.4369C36.4114 44.3081 36.4281 44.1822 36.4476 44.0619C36.4577 43.9989 36.4679 43.9369 36.48 43.8748C36.5985 43.2248 36.7939 42.5785 37.0605 41.9544C37.0902 41.8859 37.154 41.8378 37.2281 41.8294C37.3031 41.8211 37.3753 41.8526 37.4198 41.9128L39.9189 45.3193C39.9624 45.3785 39.9716 45.4563 39.942 45.5239C39.6874 46.1193 39.5013 46.7359 39.3883 47.3554C39.3772 47.4146 39.367 47.4739 39.3577 47.5341C39.3392 47.648 39.3235 47.7683 39.3096 47.8906C39.3068 47.9128 39.305 47.9359 39.3031 47.9582L39.2985 48.0072C39.2911 48.0859 39.2827 48.1646 39.2772 48.2433C39.2753 48.273 39.2735 48.3026 39.2726 48.3332L39.2707 48.3813C39.267 48.4517 39.2633 48.522 39.2624 48.5915C39.2614 48.6285 39.2614 48.6646 39.2614 48.7007V48.735C39.2614 48.8017 39.2614 48.8683 39.2633 48.9341C39.2642 48.9822 39.267 49.0313 39.2689 49.0794C39.2716 49.1443 39.2753 49.2091 39.28 49.273C39.2837 49.3211 39.2874 49.3693 39.292 49.4174C39.2976 49.4813 39.305 49.5443 39.3124 49.6072C39.3179 49.6544 39.3235 49.7017 39.33 49.7489C39.3383 49.8119 39.3485 49.8739 39.3587 49.9359L39.3614 49.9526C39.3679 49.9933 39.3753 50.0331 39.3827 50.0739C39.3985 50.1554 39.4152 50.2359 39.4327 50.3156L39.4439 50.3674C39.4661 50.4619 39.4911 50.5582 39.5198 50.66L39.5429 50.7387C39.5642 50.81 39.5864 50.8813 39.6096 50.9517C39.6198 50.9822 39.63 51.0128 39.6411 51.0433C39.654 51.0813 39.6679 51.1183 39.6827 51.1554L39.6939 51.1859C39.7244 51.2665 39.7559 51.3452 39.7892 51.4239C39.8077 51.4674 39.8235 51.5054 39.8402 51.5424C39.8753 51.622 39.9142 51.7044 39.9605 51.7961L39.98 51.8359C39.9874 51.8517 39.9948 51.8674 40.0031 51.8832C40.0568 51.9878 40.1124 52.0887 40.1679 52.1822C40.1689 52.1841 40.1726 52.1906 40.1735 52.1924C40.2272 52.2841 40.2883 52.3804 40.3559 52.4832C40.4161 52.573 40.4716 52.6535 40.5263 52.7276L40.5281 52.7295C40.5957 52.822 40.5763 52.9526 40.4837 53.0202C40.4439 53.0517 40.4013 53.0646 40.3587 53.0646ZM37.305 42.4628C37.1198 42.9507 36.9809 43.4498 36.8892 43.9507C36.8781 44.01 36.8679 44.0693 36.8587 44.1294C36.8402 44.2433 36.8244 44.3637 36.8105 44.4859C36.8077 44.5082 36.8059 44.5313 36.804 44.5535L36.7994 44.6026C36.792 44.6813 36.7837 44.76 36.7781 44.8387C36.7763 44.8683 36.7744 44.898 36.7735 44.9276L36.7716 44.9757C36.7679 45.0461 36.7642 45.1165 36.7633 45.1859C36.7624 45.223 36.7624 45.2591 36.7624 45.2952V45.3294C36.7624 45.3961 36.7624 45.4628 36.7642 45.5285C36.7651 45.5776 36.7679 45.6257 36.7698 45.6739C36.7726 45.7387 36.7763 45.8026 36.7809 45.8665C36.7846 45.9146 36.7883 45.9628 36.7929 46.0109C36.7985 46.0739 36.805 46.1378 36.8124 46.1998C36.8179 46.247 36.8235 46.2943 36.83 46.3415C36.8383 46.4044 36.8485 46.4665 36.8587 46.5285L36.8624 46.5489C36.8689 46.5878 36.8753 46.6276 36.8827 46.6665L36.892 46.7211C36.904 46.7813 36.917 46.8415 36.9309 46.9007L36.9439 46.9609C36.9661 47.0554 36.9911 47.1535 37.0198 47.2535L37.0429 47.3322C37.0642 47.4044 37.0864 47.4748 37.1096 47.5461C37.1198 47.5767 37.13 47.6072 37.1411 47.6378L37.1531 47.673C37.1568 47.685 37.1605 47.6961 37.1652 47.7081C37.1689 47.7183 37.1735 47.7285 37.1772 47.7396C37.1827 47.7535 37.1883 47.7674 37.1939 47.7813C37.2244 47.8609 37.2559 47.9406 37.2892 48.0202C37.3077 48.0646 37.3235 48.1017 37.3402 48.1387C37.3753 48.2174 37.4142 48.3007 37.4605 48.3924C37.467 48.4054 37.4726 48.4174 37.479 48.4304C37.4837 48.4396 37.4874 48.4498 37.4929 48.4591L37.5022 48.4757C37.5587 48.5841 37.6124 48.6822 37.6679 48.7767C37.6698 48.7795 37.6726 48.785 37.6735 48.7878C37.7272 48.8785 37.7874 48.9748 37.8559 49.0785L37.8652 49.0933C37.9179 49.172 37.9716 49.2489 38.0272 49.3248L39.1364 50.8378L39.1337 50.8285C39.1281 50.8109 39.1226 50.7933 39.1179 50.7748C39.0874 50.6665 39.0605 50.5646 39.0374 50.4637L39.0253 50.4082C39.0059 50.323 38.9883 50.2369 38.9726 50.1507C38.9642 50.1082 38.9568 50.0646 38.9503 50.0211L38.9476 50.0044C38.9364 49.9387 38.9263 49.873 38.917 49.8063C38.9105 49.7563 38.904 49.7063 38.8976 49.6563C38.8892 49.5896 38.8827 49.523 38.8763 49.4554C38.8716 49.4044 38.867 49.3535 38.8642 49.3026C38.8596 49.235 38.8559 49.1665 38.8531 49.098C38.8513 49.047 38.8485 48.9961 38.8476 48.9443C38.8457 48.8739 38.8457 48.8035 38.8457 48.7332V48.6989C38.8457 48.66 38.8457 48.6202 38.8466 48.5804C38.8485 48.5072 38.8522 48.4322 38.8559 48.3582L38.8577 48.3119C38.8596 48.2785 38.8605 48.2461 38.8633 48.2128C38.8689 48.1304 38.8772 48.047 38.8855 47.9646L38.8892 47.9202C38.8911 47.8943 38.8939 47.8683 38.8966 47.8424C38.9114 47.7137 38.9281 47.5878 38.9476 47.4674C38.9577 47.4044 38.9679 47.3424 38.98 47.2804C39.0911 46.6683 39.2707 46.06 39.5142 45.4702L37.305 42.4628Z" fill="#F9FAFB"/>
<path d="M49.5792 22.3701L48.7273 27.7117C48.4153 27.6951 48.0995 27.6867 47.781 27.6867C46.9292 27.6867 46.0819 27.7469 45.2449 27.8645L45.8162 35.9164C46.0329 35.9006 46.2532 35.8923 46.4718 35.8923C46.793 35.8923 47.1069 35.909 47.4143 35.9432L46.143 43.9154H36.9551L37.2542 42.0395C38.4116 39.3312 40.8801 37.1645 43.7532 36.2997L43.1838 28.2682C41.8134 28.6154 40.4838 29.1099 39.2171 29.734L40.3921 22.3691H49.5792V22.3701Z" fill="#D0D5DD"/>
<path d="M46.1421 44.1231H36.9541C36.893 44.1231 36.8356 44.0963 36.7958 44.05C36.756 44.0037 36.7393 43.9426 36.7486 43.8824L37.0477 42.0065C37.0504 41.9898 37.0551 41.9731 37.0616 41.9574C38.2088 39.2731 40.6782 37.0611 43.5328 36.15L42.993 28.5333C41.7375 28.8685 40.4986 29.3352 39.3079 29.9213C39.2384 29.9555 39.1551 29.9481 39.0921 29.9018C39.0291 29.8555 38.9977 29.7787 39.0097 29.7009L40.1847 22.3361C40.2004 22.2352 40.2884 22.1602 40.3903 22.1602H49.5791C49.6403 22.1602 49.6977 22.187 49.7375 22.2333C49.7773 22.2796 49.794 22.3407 49.7847 22.4009L48.9328 27.7426C48.9162 27.8481 48.8236 27.9231 48.7162 27.9176C47.6514 27.8602 46.5504 27.9027 45.4671 28.0426L46.0097 35.6935C46.4856 35.6703 46.9727 35.6833 47.4366 35.7342C47.493 35.7407 47.5449 35.7694 47.5791 35.8148C47.6134 35.8602 47.6282 35.9176 47.619 35.974L46.3477 43.9463C46.3319 44.049 46.2449 44.1231 46.1421 44.1231ZM37.1977 43.7065H45.9643L47.1727 36.1287C46.731 36.0926 46.2708 36.0907 45.831 36.1231C45.7754 36.1268 45.7208 36.1092 45.6791 36.0731C45.6375 36.037 45.6116 35.9852 45.6078 35.9305L45.0366 27.8787C45.0291 27.7694 45.1069 27.6731 45.2153 27.6574C46.3245 27.5027 47.4495 27.4472 48.5495 27.4944L49.3338 22.5777H40.5671L39.4828 29.374C40.6653 28.8194 41.8903 28.3805 43.1301 28.0666C43.1903 28.0518 43.2532 28.0639 43.3032 28.1C43.3532 28.1361 43.3847 28.1926 43.3893 28.2537L43.9588 36.2852C43.9653 36.3824 43.9041 36.4713 43.8106 36.499C41.0125 37.3407 38.5791 39.4852 37.4532 42.0972L37.1977 43.7065Z" fill="#F9FAFB"/>
<path d="M18.5727 43.9141H9.38477L11.8829 47.3205H21.0718H30.2616L27.7635 43.9141H18.5727Z" fill="#D0D5DD"/>
<path d="M30.2616 47.5282H11.8829C11.8162 47.5282 11.7542 47.4967 11.7153 47.443L9.21619 44.0366C9.16989 43.9736 9.16249 43.8893 9.1986 43.819C9.23378 43.7486 9.306 43.7051 9.38471 43.7051H27.7634C27.8301 43.7051 27.8921 43.7366 27.931 43.7903L30.4301 47.1967C30.4764 47.2597 30.4838 47.344 30.4477 47.4143C30.4125 47.4847 30.3403 47.5282 30.2616 47.5282ZM11.9884 47.1116H29.8504L27.6569 44.1217H9.79582L11.9884 47.1116Z" fill="#F9FAFB"/>
<path d="M46.1411 43.9141H36.9531L39.4513 47.3205H48.6402L46.1411 43.9141Z" fill="#D0D5DD"/>
<path d="M48.6401 47.5282H39.4512C39.3845 47.5282 39.3225 47.4967 39.2836 47.443L36.7845 44.0366C36.7383 43.9736 36.7308 43.8893 36.767 43.819C36.8021 43.7486 36.8744 43.7051 36.9531 43.7051H46.142C46.2086 43.7051 46.2707 43.7366 46.3095 43.7903L48.8086 47.1967C48.8549 47.2597 48.8623 47.344 48.8262 47.4143C48.7901 47.4847 48.7188 47.5282 48.6401 47.5282ZM39.5568 47.1116H48.229L46.0355 44.1217H37.3633L39.5568 47.1116Z" fill="#F9FAFB"/>
<path d="M60.3001 34.1741C60.376 34.2954 60.451 34.4185 60.5232 34.5426C60.5436 34.5778 60.563 34.6129 60.5834 34.6481C60.6353 34.7389 60.6862 34.8287 60.7353 34.9204C60.7593 34.9648 60.7834 35.0102 60.8075 35.0555C60.8501 35.137 60.8918 35.2185 60.9334 35.3009C60.9612 35.3574 60.989 35.4129 61.0168 35.4694C61.0556 35.55 61.0936 35.6305 61.1306 35.712C61.1556 35.7676 61.1816 35.8231 61.2066 35.8787C61.2445 35.9648 61.2806 36.0509 61.3168 36.138C61.339 36.1907 61.3612 36.2426 61.3825 36.2954C61.4232 36.3963 61.4612 36.4981 61.5001 36.6009C61.5149 36.6407 61.5306 36.6787 61.5445 36.7185C61.5612 36.7639 61.576 36.8102 61.5918 36.8555C61.6316 36.9685 61.6705 37.0815 61.7075 37.1954C61.7269 37.2565 61.7445 37.3176 61.764 37.3787C61.7945 37.4787 61.8251 37.5778 61.8538 37.6787C61.8723 37.7454 61.8899 37.8139 61.9084 37.8815C61.9343 37.9778 61.9593 38.0741 61.9825 38.1722C61.9992 38.2426 62.0158 38.3139 62.0316 38.3842C62.0529 38.4805 62.0742 38.5759 62.0936 38.6731C62.1103 38.7565 62.1269 38.8398 62.1427 38.9241C62.1547 38.987 62.1658 39.05 62.1769 39.1129C62.1927 39.2065 62.2075 39.3018 62.2214 39.3963C62.2306 39.4565 62.2399 39.5167 62.2482 39.5778C62.2621 39.6824 62.2751 39.788 62.2871 39.8935C62.2927 39.9444 62.3001 39.9963 62.3047 40.0472C62.3214 40.2046 62.3353 40.3629 62.3464 40.5213L64.8455 43.9278C64.8343 43.7685 64.8195 43.6102 64.8038 43.4537C64.7982 43.4018 64.7918 43.3509 64.7862 43.3C64.7742 43.1944 64.7621 43.0889 64.7473 42.9842C64.739 42.9241 64.7297 42.8639 64.7205 42.8037C64.7066 42.7083 64.6918 42.6139 64.676 42.5194C64.6649 42.4565 64.6538 42.3935 64.6418 42.3305C64.6325 42.2796 64.6242 42.2278 64.614 42.1768C64.6075 42.1444 64.5992 42.112 64.5927 42.0796C64.5732 41.9833 64.5519 41.887 64.5306 41.7907C64.5149 41.7194 64.4992 41.6491 64.4816 41.5787C64.4584 41.4815 64.4325 41.3852 64.4075 41.288C64.3899 41.2204 64.3723 41.1528 64.3529 41.0852C64.3242 40.9842 64.2945 40.8852 64.264 40.7852C64.2455 40.7241 64.2269 40.662 64.2075 40.6009C64.1705 40.487 64.1316 40.3741 64.0918 40.262C64.0779 40.2213 64.0649 40.1805 64.0501 40.1398C64.0482 40.1342 64.0464 40.1296 64.0445 40.125C64.0306 40.0852 64.0149 40.0472 64.0001 40.0074C63.9621 39.9046 63.9232 39.8028 63.8825 39.7018C63.8612 39.6491 63.839 39.5981 63.8177 39.5463C63.7816 39.4592 63.7445 39.3722 63.7066 39.2861C63.6816 39.2305 63.6566 39.175 63.6306 39.1194C63.5936 39.0379 63.5556 38.9574 63.5168 38.8768C63.4899 38.8204 63.4612 38.7639 63.4334 38.7083C63.4131 38.6676 63.3936 38.6268 63.3732 38.5861C63.3519 38.5444 63.3297 38.5037 63.3075 38.462C63.2834 38.4167 63.2603 38.3713 63.2353 38.3268C63.1862 38.2352 63.1353 38.1444 63.0834 38.0546C63.063 38.0194 63.0436 37.9833 63.0232 37.9491C62.951 37.825 62.8769 37.7018 62.8001 37.5805C62.788 37.5611 62.7751 37.5426 62.7631 37.5231C62.7093 37.4389 62.6556 37.3546 62.6001 37.2722C62.5908 37.2592 62.5816 37.2463 62.5723 37.2333C62.4732 37.087 62.3732 36.9417 62.2686 36.7991L59.7695 33.3926C59.8742 33.5352 59.9751 33.6796 60.0732 33.8268C60.138 33.9231 60.201 34.0194 60.2631 34.1176C60.2742 34.1361 60.2871 34.1546 60.3001 34.1741Z" fill="#D0D5DD"/>
<path d="M64.8424 44.1386C64.7776 44.1386 64.7147 44.1081 64.6748 44.0534L62.1758 40.647C62.1526 40.6155 62.1387 40.5775 62.136 40.5386C62.1248 40.3886 62.1119 40.2359 62.0943 40.071C62.0915 40.0405 62.0878 40.0109 62.0841 39.9803L62.0767 39.9192C62.0647 39.8155 62.0526 39.7118 62.0387 39.6081C62.0332 39.5655 62.0267 39.5238 62.0202 39.4822L62.0119 39.4294C61.998 39.3359 61.9832 39.2433 61.9674 39.1507C61.9573 39.0896 61.9461 39.0284 61.9341 38.9673C61.9184 38.8812 61.9026 38.7988 61.886 38.7164C61.8665 38.621 61.8461 38.5266 61.8248 38.4321L61.8221 38.4192C61.8073 38.3534 61.7924 38.2886 61.7767 38.2229C61.7535 38.1266 61.7286 38.0322 61.7036 37.9368L61.6897 37.8831C61.6767 37.8349 61.6637 37.7859 61.6508 37.7377C61.623 37.6386 61.5924 37.5405 61.5628 37.4414L61.5434 37.3757C61.5313 37.3368 61.5202 37.2979 61.5082 37.2599C61.4721 37.1479 61.4332 37.0359 61.3943 36.9247L61.3739 36.8646C61.3656 36.8396 61.3573 36.8146 61.348 36.7905C61.3397 36.7683 61.3313 36.747 61.323 36.7257L61.3036 36.6747C61.2656 36.5738 61.2276 36.4738 61.1878 36.3738C61.1739 36.3405 61.16 36.3062 61.1461 36.2729L61.1239 36.2192C61.0887 36.134 61.0526 36.0479 61.0156 35.9636C60.9961 35.9201 60.9767 35.8766 60.9563 35.8331L60.9406 35.7997C60.9035 35.7192 60.8665 35.6396 60.8285 35.5609C60.8017 35.5053 60.7739 35.4497 60.7471 35.3951C60.7063 35.3146 60.6656 35.234 60.623 35.1534C60.5998 35.109 60.5767 35.0646 60.5526 35.0201C60.5035 34.9303 60.4535 34.8405 60.4026 34.7516L60.3786 34.7099C60.3665 34.6896 60.3554 34.6683 60.3434 34.6479C60.2674 34.5183 60.1961 34.3997 60.1239 34.2849L60.0869 34.2284C60.0258 34.1322 59.9628 34.0368 59.8998 33.9423C59.7924 33.7831 59.6952 33.6433 59.6008 33.5155C59.5332 33.4229 59.5526 33.2923 59.6452 33.2238C59.7378 33.1562 59.8684 33.1757 59.9369 33.2683L62.436 36.6747C62.5341 36.8081 62.635 36.9525 62.7443 37.1155L62.7545 37.1294C62.761 37.1377 62.7665 37.146 62.7721 37.1553C62.8286 37.2396 62.8832 37.3247 62.9378 37.4109L62.9758 37.4701C63.0498 37.5877 63.1258 37.7136 63.2017 37.8442C63.2147 37.8664 63.2276 37.8886 63.2397 37.9118L63.2628 37.9525C63.3156 38.0442 63.3665 38.1359 63.4174 38.2294C63.4424 38.2747 63.4665 38.321 63.4906 38.3664L63.5156 38.4136C63.5295 38.4396 63.5434 38.4655 63.5573 38.4914C63.5702 38.5164 63.5823 38.5414 63.5943 38.5664L63.6184 38.6155C63.6471 38.672 63.6748 38.7294 63.7026 38.7868C63.7424 38.8683 63.7804 38.9507 63.8184 39.034L63.835 39.0692C63.8554 39.1136 63.8758 39.1581 63.8952 39.2025C63.9341 39.2905 63.9711 39.3784 64.0082 39.4673L64.0295 39.5183C64.0443 39.5544 64.06 39.5896 64.0739 39.6257C64.1156 39.7284 64.1545 39.8321 64.1934 39.9368L64.211 39.984C64.2202 40.0081 64.2295 40.0322 64.2387 40.0562L64.2443 40.071C64.2536 40.0951 64.261 40.1201 64.2693 40.1442L64.2869 40.1951C64.3267 40.309 64.3665 40.4238 64.4036 40.5396C64.4165 40.5803 64.4295 40.622 64.4415 40.6627L64.461 40.7266C64.4915 40.8275 64.523 40.9284 64.5517 41.0312C64.5665 41.0821 64.5795 41.134 64.5934 41.1859L64.6073 41.2368C64.6332 41.3349 64.6591 41.4331 64.6832 41.5312C64.6998 41.5979 64.7147 41.6655 64.7295 41.7331L64.7323 41.747C64.7545 41.8442 64.7758 41.9414 64.7952 42.0396L64.8045 42.0803C64.8091 42.0997 64.8128 42.1192 64.8165 42.1386C64.823 42.1701 64.8286 42.2016 64.8341 42.2331L64.8452 42.2942C64.8573 42.3599 64.8693 42.4229 64.8795 42.4859C64.8961 42.5812 64.911 42.6775 64.9248 42.7738L64.9332 42.8266C64.9397 42.8701 64.9461 42.9136 64.9526 42.9571C64.9674 43.0636 64.9795 43.1701 64.9924 43.2775L64.9989 43.334C65.0026 43.3673 65.0073 43.3997 65.01 43.4331C65.0276 43.6025 65.0415 43.7599 65.0526 43.9146C65.0591 44.0071 65.0035 44.0933 64.9165 44.1247C64.8906 44.134 64.8665 44.1386 64.8424 44.1386ZM62.5471 40.4479L64.56 43.1923C64.5526 43.1322 64.5452 43.0729 64.5369 43.0136C64.5313 42.972 64.5248 42.9303 64.5184 42.8886L64.51 42.8349C64.4961 42.7414 64.4813 42.6479 64.4656 42.5553C64.4554 42.4942 64.4434 42.4331 64.4323 42.371L64.4202 42.3034C64.4156 42.2747 64.41 42.246 64.4045 42.2183C64.4017 42.2025 64.398 42.1868 64.3943 42.171C64.3906 42.1544 64.3869 42.1386 64.3841 42.122C64.3647 42.0266 64.3443 41.9322 64.323 41.8377L64.3202 41.8238C64.3054 41.7581 64.2906 41.6933 64.2748 41.6284C64.2517 41.5321 64.2267 41.4377 64.2017 41.3423L64.1878 41.2905C64.1748 41.2414 64.1619 41.1923 64.148 41.1433C64.1202 41.0442 64.0906 40.946 64.06 40.8479L64.0397 40.7812C64.0286 40.7423 64.0165 40.7044 64.0045 40.6664C63.9684 40.5544 63.9295 40.4433 63.8906 40.3321C63.8841 40.3127 63.8776 40.2933 63.8711 40.2747C63.8647 40.2534 63.8573 40.2331 63.8498 40.2118L63.8443 40.1979C63.836 40.1747 63.8276 40.1534 63.8193 40.1321L63.7998 40.0812C63.7619 39.9803 63.7239 39.8794 63.6841 39.7803C63.6702 39.746 63.6563 39.7127 63.6424 39.6794L63.6202 39.6275C63.5841 39.5414 63.5489 39.4562 63.511 39.371C63.4924 39.3284 63.4721 39.2859 63.4526 39.2433L63.436 39.2071C63.3989 39.1275 63.3619 39.047 63.3239 38.9683C63.2971 38.9127 63.2693 38.8571 63.2424 38.8025L63.2165 38.7497C63.2054 38.7275 63.1943 38.7044 63.1832 38.6831C63.1711 38.659 63.1582 38.6359 63.1461 38.6118L63.1193 38.5609C63.0961 38.5164 63.073 38.472 63.0489 38.4275C62.9998 38.3377 62.9498 38.2479 62.8989 38.159L62.8748 38.1164C62.8637 38.096 62.8517 38.0757 62.8397 38.0553C62.7656 37.9284 62.6915 37.8062 62.6202 37.6923L62.5832 37.6359C62.5304 37.5534 62.4776 37.4701 62.423 37.3886L62.3961 37.3507C62.2887 37.1914 62.1915 37.0516 62.0971 36.9229L61.561 36.1923C61.5647 36.2016 61.5684 36.2109 61.5721 36.2201C61.6128 36.3229 61.6526 36.4266 61.6915 36.5303L61.7091 36.5775C61.7184 36.6016 61.7276 36.6257 61.7369 36.6507C61.7471 36.6784 61.7563 36.7062 61.7656 36.734L61.785 36.7896C61.8248 36.9044 61.8656 37.0192 61.9026 37.1349C61.9156 37.1757 61.9286 37.2173 61.9406 37.2581L61.96 37.321C61.9906 37.422 62.0221 37.5238 62.0508 37.6257C62.0647 37.6766 62.0786 37.7275 62.0915 37.7784L62.1054 37.8312C62.1313 37.9294 62.1573 38.0275 62.1813 38.1257C62.198 38.1933 62.2128 38.2609 62.2286 38.3284L62.2313 38.3414C62.2535 38.4386 62.2748 38.5359 62.2943 38.634C62.3119 38.7183 62.3276 38.8034 62.3434 38.8886C62.3554 38.9553 62.3674 39.0173 62.3776 39.0803C62.3943 39.1757 62.4091 39.272 62.423 39.3673L62.4304 39.4192C62.4369 39.4627 62.4434 39.5072 62.4498 39.5516C62.4647 39.6581 62.4767 39.7646 62.4887 39.871L62.4952 39.9294C62.4989 39.9618 62.5036 39.9951 62.5063 40.0275C62.5248 40.1747 62.5369 40.3127 62.5471 40.4479Z" fill="#F9FAFB"/>
<path d="M62.3421 40.5234L64.8411 43.9308L56.2569 45.854L53.7578 42.4475L62.3421 40.5234Z" fill="#D0D5DD"/>
<path d="M56.2578 46.0623C56.1921 46.0623 56.13 46.0317 56.0902 45.9771L53.5911 42.5706C53.5495 42.5141 53.5393 42.4401 53.5643 42.3743C53.5893 42.3086 53.6448 42.2595 53.7133 42.2438L62.2976 40.3197C62.3791 40.3012 62.4624 40.3327 62.5115 40.3993L65.0106 43.8058C65.0522 43.8623 65.0624 43.9364 65.0374 44.0021C65.0124 44.0678 64.9569 44.1169 64.8883 44.1327L56.3041 46.0567C56.2874 46.0614 56.2726 46.0623 56.2578 46.0623ZM54.1152 42.5808L56.3448 45.6206L64.4856 43.7965L62.2559 40.7567L54.1152 42.5808Z" fill="#F9FAFB"/>
<path d="M41.7876 52.0488L44.2857 55.4553L40.8487 63.3923L38.3496 59.9849L41.7876 52.0488Z" fill="#D0D5DD"/>
<path d="M40.8496 63.6014C40.7838 63.6014 40.7209 63.5699 40.682 63.5162L38.1829 60.1098C38.1394 60.0505 38.1301 59.9718 38.1598 59.9033L41.5977 51.9672C41.6274 51.8986 41.6913 51.8514 41.7653 51.8431C41.8394 51.8348 41.9126 51.8672 41.957 51.9273L44.4561 55.3338C44.4996 55.3931 44.5088 55.4718 44.4792 55.5403L41.0413 63.4764C41.0116 63.5449 40.9477 63.5922 40.8737 63.6005C40.8644 63.6005 40.857 63.6014 40.8496 63.6014ZM38.5894 59.9588L40.8024 62.9764L44.0487 55.4829L41.8357 52.4653L38.5894 59.9588Z" fill="#F9FAFB"/>
<path d="M33.0557 58.2092L30.5566 54.8027C32.3853 57.2963 35.0826 59.137 38.3511 59.9879L40.8502 63.3944C37.5807 62.5444 34.8844 60.7027 33.0557 58.2092Z" fill="#D0D5DD"/>
<path d="M40.8499 63.6029C40.8323 63.6029 40.8147 63.601 40.7971 63.5964C37.5231 62.7436 34.7879 60.9242 32.887 58.3325L30.3879 54.926C30.3203 54.8334 30.3397 54.7029 30.4323 54.6344C30.5249 54.5659 30.6555 54.5862 30.724 54.6788C32.5675 57.1918 35.2221 58.9575 38.4027 59.7862C38.449 59.7983 38.4897 59.826 38.5184 59.8649L41.0175 63.2714C41.0694 63.3427 41.0712 63.439 41.0221 63.5112C40.9823 63.5696 40.9175 63.6029 40.8499 63.6029ZM32.6999 57.3723L33.2231 58.0853C34.9536 60.4446 37.3999 62.1455 40.324 63.0297L38.2268 60.1696C36.137 59.6159 34.2694 58.6658 32.6999 57.3723Z" fill="#F9FAFB"/>
<mask id="mask0_11407_15391" style="mask-type:luminance" maskUnits="userSpaceOnUse" x="30" y="54" width="11" height="10">
<mask id="mask1_11407_15391" style="mask-type:luminance" maskUnits="userSpaceOnUse" x="30" y="54" width="11" height="10">
<path d="M33.0557 58.2092L30.5566 54.8027C32.3853 57.2963 35.0826 59.137 38.3511 59.9879L40.8502 63.3944C37.5807 62.5444 34.8844 60.7027 33.0557 58.2092Z" fill="white"/>
</mask>
<g mask="url(#mask1_11407_15391)">
<path d="M40.8499 63.6029C40.8323 63.6029 40.8147 63.601 40.7971 63.5964C37.5231 62.7436 34.7879 60.9242 32.887 58.3325L30.3879 54.926C30.3203 54.8334 30.3397 54.7029 30.4323 54.6344C30.5249 54.5659 30.6555 54.5862 30.724 54.6788C32.5675 57.1918 35.2221 58.9575 38.4027 59.7862C38.449 59.7983 38.4897 59.826 38.5184 59.8649L41.0175 63.2714C41.0694 63.3427 41.0712 63.439 41.0221 63.5112C40.9823 63.5696 40.9175 63.6029 40.8499 63.6029ZM32.6999 57.3723L33.2231 58.0853C34.9536 60.4446 37.3999 62.1455 40.324 63.0297L38.2268 60.1696C36.1369 59.6159 34.2694 58.6658 32.6999 57.3723Z" fill="white"/>
</g>
</mask>
<g mask="url(#mask0_11407_15391)">
<path d="M38.3511 59.9879L40.8502 63.3944C37.5816 62.5435 34.8844 60.7027 33.0557 58.2092L30.5566 54.8027C32.3853 57.2963 35.0826 59.137 38.3511 59.9879Z" fill="#D0D5DD"/>
<path d="M40.8499 63.6029C40.8323 63.6029 40.8147 63.601 40.7971 63.5964C37.5231 62.7436 34.7879 60.9242 32.887 58.3325L30.3879 54.926C30.3203 54.8334 30.3397 54.7029 30.4323 54.6344C30.5249 54.5659 30.6555 54.5862 30.724 54.6788C32.5675 57.1918 35.2221 58.9575 38.4027 59.7862C38.449 59.7983 38.4897 59.826 38.5184 59.8649L41.0175 63.2714C41.0694 63.3427 41.0712 63.439 41.0221 63.5112C40.9823 63.5696 40.9175 63.6029 40.8499 63.6029ZM32.6999 57.3723L33.2231 58.0853C34.9536 60.4446 37.3999 62.1455 40.324 63.0297L38.2268 60.1696C36.1369 59.6159 34.2694 58.6658 32.6999 57.3723Z" fill="#F9FAFB"/>
</g>
<path d="M62.3516 42.4746C62.322 43.0089 62.2646 43.5487 62.1775 44.0978C60.7322 53.1598 51.9396 60.5079 42.5442 60.5079C41.7738 60.5079 41.0248 60.4589 40.2988 60.3635L43.7914 52.3033H43.8525C48.434 52.3033 52.7275 48.8089 53.609 44.4339L62.3516 42.4746Z" fill="#D0D5DD"/>
<path d="M42.544 60.7169C41.7708 60.7169 41.006 60.6679 40.2708 60.5706C40.206 60.5623 40.1486 60.5234 40.1171 60.4669C40.0847 60.4105 40.081 60.341 40.1069 60.2818L43.5995 52.2216C43.6329 52.1456 43.7079 52.0956 43.7903 52.0956H43.8514C48.3375 52.0956 52.5329 48.7123 53.4032 44.3938C53.4199 44.3132 53.4819 44.2493 53.5616 44.2318L62.3042 42.2725C62.368 42.2586 62.4347 42.2743 62.4847 42.3169C62.5347 42.3595 62.5616 42.4225 62.5579 42.4873C62.5282 43.0299 62.469 43.5827 62.381 44.1318C60.9245 53.2762 52.0245 60.7169 42.544 60.7169ZM40.5995 60.191C41.2319 60.2632 41.8847 60.3003 42.543 60.3003C51.8282 60.3003 60.543 53.0169 61.9708 44.0651C62.0412 43.6234 62.093 43.179 62.1255 42.7392L53.7847 44.6086C52.8236 49.0271 48.5301 52.4743 43.9273 52.5123L40.5995 60.191Z" fill="#F9FAFB"/>
<path d="M63.5906 51.3542C63.6424 51.2283 63.6924 51.1005 63.7415 50.9737C63.7563 50.9348 63.7712 50.8968 63.786 50.8579C63.8471 50.6959 63.9054 50.5329 63.961 50.3691C63.973 50.3329 63.985 50.2959 63.9971 50.2598C64.0415 50.1283 64.0832 49.9968 64.1249 49.8644C64.1406 49.8144 64.1554 49.7644 64.1702 49.7144C64.2128 49.5728 64.2536 49.4311 64.2915 49.2885C64.2989 49.2616 64.3073 49.2339 64.3137 49.207C64.3582 49.0394 64.3999 48.87 64.4397 48.7005C64.4499 48.6561 64.46 48.6107 64.4702 48.5653C64.4999 48.4348 64.5276 48.3033 64.5545 48.1718C64.5647 48.1218 64.5749 48.0728 64.5841 48.0228C64.6174 47.8505 64.648 47.6783 64.6758 47.5042C64.7628 46.9561 64.8211 46.4153 64.8499 45.8811L62.3508 42.4746C62.3211 43.0089 62.2637 43.5487 62.1767 44.0978C62.1489 44.2709 62.1174 44.4441 62.085 44.6163C62.0758 44.6663 62.0656 44.7153 62.0554 44.7653C62.0286 44.8968 62.0008 45.0283 61.9711 45.1589C61.961 45.2042 61.9517 45.2487 61.9406 45.294C61.9008 45.4635 61.8591 45.632 61.8147 45.8005C61.8073 45.8274 61.7999 45.8542 61.7924 45.882C61.7536 46.0246 61.7128 46.1663 61.6711 46.3079C61.6563 46.3579 61.6406 46.4079 61.6258 46.4579C61.585 46.5903 61.5424 46.7218 61.498 46.8533C61.486 46.8894 61.4739 46.9265 61.4619 46.9626C61.4054 47.1265 61.3471 47.2894 61.2869 47.4515C61.2721 47.4903 61.2573 47.5283 61.2424 47.5672C61.1934 47.695 61.1434 47.8218 61.0915 47.9478C61.0721 47.9959 61.0517 48.0441 61.0323 48.0922C60.973 48.2329 60.9128 48.3737 60.8499 48.5126C60.8406 48.5329 60.8323 48.5533 60.823 48.5737C60.7508 48.7339 60.6749 48.8922 60.598 49.0505C60.5767 49.0931 60.5554 49.1357 60.5341 49.1792C60.473 49.3015 60.411 49.4228 60.348 49.5441C60.3258 49.5857 60.3045 49.6283 60.2813 49.67C60.1989 49.8246 60.1137 49.9792 60.0267 50.132C60.0147 50.1524 60.0026 50.1728 59.9915 50.1931C59.9147 50.3274 59.836 50.4598 59.7554 50.5922C59.7249 50.6422 59.6943 50.6922 59.6637 50.7413C59.6165 50.8181 59.5684 50.8941 59.5202 50.97C59.486 51.0237 59.4517 51.0765 59.4174 51.1302C59.3674 51.207 59.3165 51.2829 59.2656 51.3598C59.2313 51.4107 59.1971 51.4616 59.1628 51.5126C59.1082 51.5922 59.0526 51.6718 58.9961 51.7505C58.9637 51.7959 58.9313 51.8422 58.8989 51.8876C58.8313 51.982 58.7619 52.0755 58.6924 52.169C58.6712 52.1968 58.6508 52.2255 58.6295 52.2533C58.4554 52.4839 58.2758 52.7116 58.0915 52.9357C58.0897 52.9376 58.0887 52.9394 58.0869 52.9413C57.9017 53.1663 57.711 53.3876 57.5156 53.6052C57.511 53.6098 57.5073 53.6144 57.5026 53.6191C57.3202 53.8218 57.135 54.0209 56.9443 54.2163C56.9415 54.2191 56.9387 54.2228 56.936 54.2255C56.748 54.419 56.5554 54.6079 56.36 54.7941C56.3499 54.8033 56.3406 54.8126 56.3304 54.8228C56.1443 54.9996 55.9545 55.1718 55.761 55.3422C55.7434 55.3579 55.7258 55.3737 55.7082 55.3894C55.5202 55.5542 55.3286 55.7144 55.135 55.8728C55.1119 55.8922 55.0878 55.9116 55.0647 55.9302C54.8693 56.0876 54.6712 56.2422 54.4702 56.3931C54.4443 56.4126 54.4174 56.4329 54.3915 56.4524C54.1915 56.6015 53.9887 56.7459 53.7841 56.8876C53.7563 56.907 53.7276 56.9265 53.6999 56.9459C53.4823 57.095 53.2619 57.2394 53.0387 57.3802C53.0119 57.3968 52.986 57.4135 52.9591 57.4302C52.7341 57.5709 52.5054 57.707 52.2749 57.8394C52.2434 57.857 52.2128 57.8755 52.1823 57.8931C52.0924 57.944 52.0026 57.9931 51.9119 58.0431C51.8665 58.0681 51.8202 58.094 51.7749 58.1181C51.6489 58.1857 51.5212 58.2524 51.3943 58.3181C51.3841 58.3237 51.3739 58.3292 51.3637 58.3348C51.2258 58.4052 51.086 58.4737 50.9471 58.5413C50.9036 58.5626 50.86 58.582 50.8156 58.6033C50.7193 58.6487 50.6221 58.694 50.5249 58.7385C50.4823 58.7579 50.4387 58.7765 50.3962 58.7959C50.2693 58.8524 50.1424 58.9079 50.0147 58.9616C49.9674 58.982 49.9202 59.0015 49.873 59.0209C49.71 59.0885 49.5462 59.1542 49.3804 59.2181C49.3786 59.219 49.3767 59.22 49.3749 59.22C49.2082 59.2839 49.0406 59.345 48.8721 59.4042C48.8239 59.4209 48.7767 59.4376 48.7286 59.4542C48.598 59.4996 48.4665 59.5431 48.335 59.5857C48.2934 59.5987 48.2517 59.6126 48.21 59.6265C48.011 59.6894 47.811 59.7487 47.6091 59.8042C47.5684 59.8153 47.5267 59.8265 47.485 59.8385C47.2786 59.895 47.0721 59.9487 46.8637 59.9978C46.8508 60.0005 46.8378 60.0033 46.8258 60.0061C46.6249 60.0533 46.4221 60.0968 46.2202 60.1376C46.1832 60.145 46.1452 60.1533 46.1082 60.1607C45.9026 60.2005 45.6971 60.2376 45.4906 60.2709C45.4489 60.2774 45.4082 60.2839 45.3665 60.2903C45.1536 60.3237 44.9397 60.3542 44.7258 60.3792C44.7184 60.3802 44.711 60.3811 44.7036 60.382C44.4943 60.407 44.2832 60.4274 44.073 60.445C44.0332 60.4487 43.9934 60.4524 43.9536 60.4552C43.7443 60.4718 43.535 60.4839 43.3249 60.4931C43.2841 60.495 43.2424 60.4959 43.2017 60.4978C42.9832 60.5061 42.7656 60.5107 42.5462 60.5107C41.7758 60.5107 41.0267 60.4616 40.3008 60.3663L42.7999 63.7727C43.5267 63.869 44.2749 63.9172 45.0452 63.9172C45.2637 63.9172 45.4823 63.9116 45.7008 63.9042C45.7415 63.9024 45.7832 63.9015 45.8239 63.8996C46.0341 63.8903 46.2434 63.8783 46.4526 63.8616C46.4924 63.8589 46.5323 63.8552 46.5721 63.8515C46.7832 63.8339 46.9934 63.8135 47.2026 63.7885C47.21 63.7876 47.2174 63.7866 47.2249 63.7857C47.4387 63.7598 47.6526 63.7292 47.8647 63.6968C47.9063 63.6903 47.948 63.6839 47.9897 63.6774C48.1961 63.644 48.4017 63.607 48.6063 63.5672C48.6443 63.5598 48.6813 63.5515 48.7193 63.544C48.9211 63.5033 49.123 63.4598 49.3239 63.4126C49.3369 63.4098 49.3508 63.407 49.3637 63.4033C49.5712 63.3542 49.7786 63.2996 49.9841 63.244C50.0258 63.2329 50.0665 63.2218 50.1082 63.2098C50.3091 63.1533 50.5091 63.094 50.7082 63.032C50.7202 63.0283 50.7332 63.0246 50.7452 63.0209C50.7749 63.0116 50.8045 63.0005 50.835 62.9913C50.9665 62.9487 51.0971 62.9052 51.2276 62.8607C51.2758 62.844 51.3239 62.8274 51.3721 62.8107C51.5406 62.7515 51.7082 62.6903 51.8749 62.6265C51.8776 62.6255 51.8804 62.6246 51.8832 62.6237C52.0471 62.5607 52.21 62.495 52.373 62.4274C52.4202 62.4079 52.4684 62.3876 52.5156 62.3672C52.6424 62.3135 52.7693 62.2589 52.8952 62.2024C52.9239 62.1894 52.9526 62.1783 52.9804 62.1653C52.9952 62.1589 53.01 62.1515 53.0249 62.144C53.1211 62.1005 53.2174 62.0552 53.3128 62.0098C53.3573 61.9885 53.4017 61.9681 53.4461 61.9468C53.586 61.8792 53.7249 61.8107 53.8628 61.7403C53.873 61.7348 53.8832 61.7292 53.8934 61.7246C54.0211 61.6589 54.148 61.5931 54.2749 61.5246C54.3211 61.4996 54.3665 61.4746 54.4119 61.4496C54.5026 61.4005 54.5924 61.3505 54.6823 61.2996C54.698 61.2903 54.7137 61.2829 54.7286 61.2737C54.7443 61.2644 54.7591 61.2552 54.7749 61.2459C55.0054 61.1135 55.2332 60.9774 55.4582 60.8366C55.485 60.82 55.5119 60.8024 55.5387 60.7857C55.7619 60.645 55.9823 60.5005 56.1989 60.3524C56.211 60.344 56.223 60.3366 56.235 60.3292C56.2517 60.3181 56.2674 60.3052 56.2841 60.294C56.4887 60.1524 56.6915 60.0079 56.8915 59.8589C56.9184 59.8394 56.9443 59.819 56.9702 59.7996C57.1712 59.6487 57.3693 59.495 57.5647 59.3366C57.573 59.3302 57.5823 59.3228 57.5915 59.3163C57.6063 59.3042 57.6202 59.2913 57.636 59.2792C57.8295 59.1209 58.0211 58.9607 58.2091 58.7959C58.2267 58.7802 58.2443 58.7644 58.2619 58.7487C58.4545 58.5792 58.6443 58.4061 58.8304 58.2302C58.8332 58.2274 58.836 58.2246 58.8397 58.2218C58.8471 58.2153 58.8536 58.2079 58.861 58.2015C59.0563 58.0153 59.2489 57.8265 59.4369 57.6329C59.4397 57.6302 59.4424 57.6265 59.4462 57.6237C59.636 57.4283 59.8221 57.2292 60.0045 57.0274C60.0073 57.0237 60.011 57.0209 60.0137 57.0172C60.0147 57.0163 60.0156 57.0144 60.0165 57.0135C60.2119 56.7959 60.4026 56.5746 60.5878 56.3496C60.5897 56.3478 60.5906 56.3459 60.5924 56.344C60.7767 56.12 60.9563 55.8931 61.1304 55.6616C61.1323 55.6598 61.1341 55.6579 61.135 55.6552C61.1545 55.6292 61.173 55.6033 61.1924 55.5774C61.2619 55.4839 61.3313 55.3903 61.3999 55.295C61.4323 55.2496 61.4637 55.2042 61.4961 55.1589C61.5526 55.0792 61.6082 54.9996 61.6637 54.919C61.698 54.869 61.7323 54.8181 61.7665 54.7672C61.8174 54.6913 61.8684 54.6144 61.9193 54.5376C61.9536 54.4848 61.9878 54.4311 62.0221 54.3774C62.0702 54.3015 62.1184 54.2255 62.1656 54.1496C62.1841 54.12 62.2026 54.0913 62.2202 54.0626C62.2332 54.0422 62.2443 54.0209 62.2573 54.0005C62.3378 53.8681 62.4165 53.7357 62.4934 53.6015C62.5054 53.5811 62.5174 53.5607 62.5286 53.5403C62.6156 53.3876 62.6999 53.2339 62.7832 53.0783C62.8054 53.0366 62.8276 52.994 62.8499 52.9524C62.9128 52.8311 62.9749 52.7098 63.036 52.5876C63.0573 52.545 63.0786 52.5024 63.0999 52.4589C63.1767 52.3005 63.2517 52.1422 63.3249 51.982C63.3267 51.9783 63.3286 51.9746 63.3304 51.9709C63.3378 51.9542 63.3443 51.9376 63.3517 51.9209C63.4147 51.7811 63.4749 51.6413 63.5341 51.5005C63.5517 51.4505 63.5712 51.4024 63.5906 51.3542Z" fill="#D0D5DD"/>
<path d="M45.043 64.1225C44.2698 64.1225 43.505 64.0734 42.7698 63.9762C42.7134 63.9688 42.6624 63.9382 42.6291 63.8929L40.13 60.4864C40.081 60.4188 40.0763 60.329 40.1189 60.2567C40.1615 60.1845 40.243 60.1456 40.3254 60.1567C41.043 60.2512 41.7902 60.2993 42.5439 60.2993C42.7384 60.2993 42.9439 60.2956 43.1921 60.2864L43.3143 60.2817C43.5217 60.2725 43.731 60.2604 43.9356 60.2447L44.0541 60.2345C44.2828 60.2151 44.4865 60.1947 44.6782 60.1725C44.6791 60.1725 44.6884 60.1716 44.6893 60.1716L44.7004 60.1706C44.8902 60.1475 45.0976 60.1188 45.3337 60.0827L45.456 60.0632C45.6606 60.0299 45.8661 59.9938 46.0671 59.954L46.1782 59.9317C46.3939 59.8882 46.5902 59.8456 46.7773 59.8012L46.8152 59.7929C47.0032 59.7484 47.2041 59.6966 47.4291 59.6354L47.5513 59.6021C47.755 59.5456 47.955 59.4854 48.1458 59.4262L48.2698 59.3864C48.4004 59.3447 48.53 59.3012 48.6587 59.2567L48.668 59.254C48.7124 59.2391 48.7569 59.2234 48.8013 59.2077C48.9921 59.1401 49.1504 59.0817 49.2995 59.0253C49.4523 58.9669 49.6115 58.903 49.7921 58.828C49.8356 58.8104 49.8782 58.7919 49.9217 58.7734L49.9319 58.7688C50.0587 58.7151 50.1847 58.6604 50.3097 58.6049L50.356 58.5845C50.3828 58.5725 50.4106 58.5604 50.4374 58.5484C50.5337 58.5049 50.63 58.4595 50.7254 58.4141L50.78 58.3882C50.805 58.3762 50.83 58.3651 50.855 58.353C50.993 58.2864 51.131 58.2188 51.268 58.1484L51.2985 58.1327C51.4254 58.0679 51.5513 58.0021 51.6763 57.9345C51.705 57.9188 51.7337 57.903 51.7624 57.8873L51.8124 57.8595C51.9023 57.8104 51.9911 57.7614 52.08 57.7114L52.1717 57.6586C52.4041 57.5253 52.6319 57.3892 52.8495 57.253L52.9291 57.203C53.1523 57.0623 53.3717 56.9179 53.5837 56.7734L53.6671 56.716C53.8754 56.5716 54.0782 56.4271 54.2689 56.2854L54.3476 56.2262C54.5513 56.0734 54.7495 55.9188 54.9365 55.7679L55.006 55.7104C55.2106 55.5438 55.3967 55.3873 55.5735 55.2317L55.6263 55.1845C55.8282 55.0067 56.0124 54.8392 56.1893 54.6706L56.218 54.6429C56.418 54.453 56.6097 54.2632 56.7884 54.0799L56.9467 54.216L56.7976 54.0706C56.9837 53.879 57.1698 53.6799 57.3504 53.4799C57.3513 53.479 57.3569 53.4725 57.3578 53.4716C57.556 53.2503 57.7467 53.0299 57.9291 52.8086C58.1143 52.5836 58.293 52.3567 58.4652 52.128L58.5272 52.0447C58.5958 51.9521 58.6643 51.8595 58.7319 51.766C58.7532 51.7373 58.7735 51.7077 58.7939 51.678L58.8282 51.6299C58.8837 51.5512 58.9384 51.4734 58.993 51.3938C59.0208 51.354 59.0476 51.3132 59.0745 51.2725L59.0948 51.2429C59.1458 51.1669 59.1958 51.0919 59.2458 51.016C59.28 50.9632 59.3134 50.9104 59.3476 50.8577C59.3958 50.7827 59.443 50.7067 59.4902 50.6317C59.5208 50.5827 59.5513 50.5336 59.581 50.4836C59.6606 50.353 59.7384 50.2216 59.8143 50.0892L59.8495 50.029C59.931 49.8864 60.0134 49.7364 60.1013 49.5725L60.1671 49.4475C60.23 49.328 60.2911 49.2077 60.3513 49.0873L60.4143 48.9604C60.4967 48.7919 60.5689 48.6373 60.6365 48.4892L60.6634 48.429C60.7254 48.291 60.7856 48.1521 60.8439 48.0132C60.8634 47.966 60.8828 47.9188 60.9022 47.8706C60.9532 47.7456 61.0032 47.6206 61.0513 47.4938L61.0689 47.4475C61.0772 47.4253 61.0865 47.4021 61.0948 47.3799C61.155 47.2197 61.2134 47.0567 61.268 46.8966L61.3041 46.7882C61.3476 46.6586 61.3893 46.528 61.43 46.3966C61.4448 46.3475 61.4606 46.2975 61.4754 46.2484C61.5171 46.1086 61.5578 45.9679 61.5958 45.8271L61.618 45.7466C61.6606 45.5873 61.7013 45.4243 61.743 45.2466C61.7495 45.2179 61.756 45.1892 61.7624 45.1605L61.7726 45.1132C61.8013 44.9845 61.8291 44.8549 61.856 44.7243L61.8624 44.6938C61.8698 44.6549 61.8782 44.616 61.8856 44.5771C61.9226 44.3854 61.9522 44.2188 61.9763 44.0651C62.0615 43.5308 62.1189 42.9919 62.1485 42.4642C62.1532 42.3762 62.2124 42.3012 62.2967 42.2762C62.381 42.2512 62.4717 42.2817 62.5245 42.353L65.0235 45.7595C65.0522 45.7984 65.0661 45.8456 65.0634 45.8938C65.0337 46.4364 64.9745 46.9901 64.8865 47.5382C64.8615 47.6956 64.831 47.8669 64.7939 48.0623C64.7865 48.1012 64.7782 48.1401 64.7708 48.179L64.7643 48.2123C64.7374 48.3456 64.7087 48.478 64.6791 48.6104L64.6689 48.6567C64.6624 48.6864 64.656 48.7169 64.6485 48.7466C64.606 48.929 64.5643 49.0966 64.5208 49.2595L64.4976 49.3419C64.4587 49.4864 64.4171 49.6299 64.3745 49.7734C64.3597 49.8243 64.3439 49.8743 64.3282 49.9253C64.2865 50.0595 64.2439 50.1929 64.1995 50.3253L64.1624 50.4364C64.106 50.6003 64.0467 50.7669 63.9847 50.9317C63.9754 50.9558 63.9661 50.9799 63.9569 51.004L63.9393 51.0484C63.8902 51.1771 63.8393 51.3058 63.7865 51.4336C63.7671 51.4827 63.7467 51.5308 63.7263 51.579C63.6661 51.7216 63.605 51.8632 63.5421 52.0049L63.5198 52.0558C63.5189 52.0577 63.5161 52.0651 63.5152 52.066C63.4458 52.2188 63.3717 52.3771 63.2874 52.5493L63.2226 52.679C63.1615 52.8021 63.0985 52.9253 63.0347 53.0475L62.968 53.1753C62.8782 53.3438 62.7939 53.4966 62.7106 53.6419L62.6745 53.703C62.5967 53.8382 62.5171 53.9725 62.4365 54.1058L62.3995 54.1688C62.3893 54.1854 62.3782 54.203 62.368 54.2197L62.3448 54.2567C62.2967 54.3336 62.2485 54.4104 62.1995 54.4873C62.1652 54.541 62.13 54.5956 62.0948 54.6493C62.0439 54.7271 61.993 54.804 61.9411 54.8817L61.9161 54.9188C61.8902 54.9577 61.8634 54.9966 61.8374 55.0354C61.7819 55.116 61.7254 55.1966 61.668 55.2771L61.6347 55.3243C61.6134 55.3549 61.5921 55.3845 61.5708 55.4142C61.5022 55.5095 61.4319 55.6049 61.3615 55.6993L61.3032 55.778C61.3013 55.7799 61.2976 55.7854 61.2958 55.7873C61.1217 56.0169 60.9393 56.2493 60.755 56.4734C60.7541 56.4753 60.7485 56.4817 60.7476 56.4827C60.5661 56.704 60.3717 56.929 60.1735 57.1493L60.1606 57.1641C59.9772 57.3688 59.7874 57.5716 59.5976 57.7669L59.5884 57.7762C59.405 57.9642 59.2097 58.1577 59.0069 58.3503L58.9856 58.3716C58.9847 58.3725 58.9782 58.379 58.9763 58.3799C58.7967 58.5503 58.6087 58.7216 58.4022 58.904L58.3485 58.9512C58.1671 59.1095 57.9726 59.2743 57.7698 59.4391L57.6976 59.4984C57.5078 59.6521 57.306 59.8095 57.0976 59.9651L57.018 60.0253C56.8226 60.1706 56.6161 60.3188 56.405 60.4641L56.3856 60.478C56.3754 60.4854 56.3652 60.4929 56.355 60.4993C56.3467 60.5049 56.3393 60.5104 56.331 60.5151L56.3189 60.5234C56.106 60.6688 55.8819 60.816 55.6522 60.9614L55.5708 61.0132C55.3495 61.1521 55.1171 61.291 54.88 61.4262L54.8615 61.4373C54.8523 61.4429 54.843 61.4484 54.8328 61.454L54.7856 61.4799C54.6948 61.5317 54.6041 61.5817 54.5124 61.6317L54.4624 61.6595C54.4328 61.6762 54.4041 61.6919 54.3745 61.7077C54.2467 61.7762 54.1189 61.8438 53.9893 61.9095L53.9587 61.9262C53.8189 61.9975 53.6791 62.0669 53.5374 62.1345C53.5097 62.1484 53.481 62.1614 53.4522 62.1753L53.4023 62.1984C53.306 62.2438 53.2087 62.2901 53.1115 62.3336L53.0661 62.3549C53.0495 62.3623 53.0328 62.3697 53.0161 62.3771L52.98 62.3929C52.8532 62.4493 52.7254 62.5049 52.5967 62.5595L52.5606 62.5743C52.5245 62.5891 52.4884 62.6049 52.4522 62.6197C52.2652 62.6975 52.1078 62.7604 51.9578 62.8179C51.7967 62.8799 51.63 62.941 51.4421 63.0067C51.3985 63.0225 51.355 63.0373 51.3106 63.0521L51.2958 63.0577C51.1643 63.103 51.0319 63.1466 50.8995 63.1901L50.8606 63.203C50.843 63.2086 50.8263 63.2151 50.8087 63.2206L50.7708 63.2317C50.5773 63.2929 50.3735 63.353 50.1643 63.4114L50.0384 63.4456C49.8078 63.5086 49.6023 63.5614 49.4115 63.6067L49.3717 63.616C49.1791 63.6614 48.9791 63.7049 48.7606 63.7493L48.6458 63.7725C48.4448 63.8123 48.2347 63.8493 48.0226 63.8836L47.8967 63.903C47.6569 63.9401 47.4458 63.9697 47.2495 63.9929L47.2319 63.9947C47.031 64.0188 46.8226 64.0391 46.5893 64.0586L46.468 64.0688C46.2587 64.0854 46.0448 64.0975 45.8319 64.1067L45.7069 64.1114C45.4541 64.1188 45.2439 64.1225 45.043 64.1225ZM42.9124 63.5743C43.6032 63.6614 44.3189 63.7058 45.043 63.7058C45.2384 63.7058 45.4439 63.7021 45.6911 63.6929L45.8134 63.6882C46.0208 63.679 46.23 63.6669 46.4347 63.6512L46.5532 63.641C46.7819 63.6216 46.9856 63.6012 47.1773 63.579C47.1782 63.579 47.1865 63.578 47.1874 63.578L47.1985 63.5771C47.3902 63.554 47.5967 63.5253 47.8319 63.4891L47.955 63.4697C48.1634 63.4364 48.3689 63.3993 48.5652 63.3604L48.6772 63.3373C48.8911 63.2938 49.0874 63.2512 49.2745 63.2077L49.3143 63.1984C49.4995 63.154 49.7004 63.103 49.9272 63.041L50.0504 63.0077C50.255 62.9503 50.4541 62.891 50.6439 62.8317L50.68 62.8206C50.6948 62.816 50.7097 62.8114 50.7235 62.8058L50.7689 62.791C50.8985 62.7493 51.0282 62.7058 51.1569 62.6614L51.1726 62.6558C51.2152 62.641 51.2578 62.6271 51.3004 62.6114C51.4856 62.5466 51.6476 62.4864 51.7976 62.429C51.9522 62.3697 52.106 62.3077 52.2902 62.2317L52.431 62.1725C52.5569 62.1197 52.6819 62.0651 52.8069 62.0095L52.8495 61.991C52.8634 61.9845 52.8772 61.979 52.8921 61.9725L52.9374 61.9512C53.0319 61.9077 53.1272 61.8632 53.2217 61.8188L53.2735 61.7947C53.3004 61.7817 53.3272 61.7697 53.3541 61.7567C53.493 61.6901 53.63 61.6225 53.7671 61.5521L53.7976 61.5354C53.9235 61.4706 54.0495 61.4049 54.1745 61.3373C54.2023 61.3225 54.231 61.3067 54.2587 61.291L54.3106 61.2623C54.4004 61.2132 54.4893 61.1642 54.5782 61.1142L54.6421 61.078C54.6513 61.0725 54.6606 61.0669 54.6708 61.0614C54.9023 60.928 55.13 60.7919 55.3476 60.6567L55.4272 60.6067C55.6522 60.4651 55.8726 60.3206 56.081 60.1771L56.1652 60.1188C56.3726 59.9753 56.5745 59.8308 56.7671 59.6882L56.8448 59.629C57.0485 59.4762 57.2467 59.3216 57.4337 59.1706L57.5032 59.1132C57.7022 58.9512 57.893 58.7901 58.0708 58.6345L58.1235 58.5882C58.3263 58.4095 58.5106 58.2419 58.6865 58.0743C58.6874 58.0734 58.693 58.0688 58.6948 58.0669L58.7161 58.0456C58.9152 57.8567 59.1069 57.6669 59.2865 57.4827L59.2976 57.4716C59.4819 57.2817 59.668 57.0836 59.8476 56.8827C59.8495 56.8808 59.8541 56.8753 59.856 56.8734C60.0541 56.6521 60.2448 56.4317 60.4263 56.2104C60.6115 55.9854 60.7911 55.7586 60.9634 55.5299C60.9643 55.528 60.968 55.5243 60.9689 55.5225L61.0245 55.4466C61.0939 55.354 61.1624 55.2614 61.2291 55.1679C61.2495 55.1391 61.2698 55.1104 61.2902 55.0817L61.3245 55.0327C61.38 54.954 61.4356 54.8753 61.4902 54.7956C61.5161 54.7577 61.5411 54.7197 61.5671 54.6827L61.5921 54.6456C61.643 54.5697 61.693 54.4947 61.743 54.4179C61.7773 54.3651 61.8115 54.3123 61.8448 54.2595C61.893 54.1845 61.9402 54.1095 61.9865 54.0336L62.0772 53.8854C62.156 53.7549 62.2337 53.6234 62.3106 53.491L62.3458 53.4308C62.4263 53.2891 62.5087 53.1392 62.5976 52.9743L62.6634 52.8493C62.7263 52.7299 62.7874 52.6095 62.8476 52.4892L62.9106 52.3623C62.993 52.1938 63.0652 52.0391 63.1328 51.891C63.1337 51.8891 63.1365 51.8827 63.1374 51.8808L63.1597 51.8308C63.2217 51.6929 63.2819 51.554 63.3402 51.4151C63.3597 51.3679 63.3791 51.3206 63.3985 51.2725C63.4495 51.1475 63.4995 51.0225 63.5476 50.8966L63.5652 50.8503C63.5735 50.828 63.5828 50.8049 63.5911 50.7827C63.6513 50.6225 63.7097 50.4595 63.7643 50.2993L63.8004 50.191C63.8439 50.0614 63.8856 49.9308 63.9263 49.7993C63.9411 49.7503 63.9569 49.7003 63.9717 49.6512C64.0134 49.5114 64.0532 49.3716 64.0921 49.2308L64.1143 49.1503C64.1569 48.9919 64.1976 48.828 64.2393 48.6503L64.2689 48.5169C64.2976 48.3882 64.3254 48.2586 64.3523 48.128L64.3587 48.0938C64.3661 48.0558 64.3735 48.0188 64.381 47.9808C64.418 47.7901 64.4476 47.6225 64.4717 47.4688C64.5532 46.9595 64.6097 46.4466 64.6393 45.9419L62.5189 43.0512C62.4865 43.4095 62.4411 43.7697 62.3837 44.1271C62.3587 44.2845 62.3282 44.4558 62.2911 44.6512C62.2837 44.691 62.2754 44.7317 62.2671 44.7725L62.2615 44.8021C62.2347 44.9354 62.206 45.0679 62.1763 45.2003L62.1661 45.2466C62.1597 45.2771 62.1522 45.3067 62.1458 45.3373C62.1032 45.5188 62.0615 45.6864 62.018 45.8503L61.9948 45.9327C61.956 46.0771 61.9143 46.2206 61.8717 46.3642C61.8569 46.4151 61.8411 46.4651 61.8254 46.516C61.7837 46.6503 61.7411 46.7836 61.6967 46.9169L61.6597 47.028C61.6032 47.1919 61.5439 47.3586 61.4819 47.5234C61.4726 47.5475 61.4634 47.5716 61.4541 47.5956L61.4365 47.6401C61.3874 47.7688 61.3365 47.8975 61.2837 48.0253C61.2643 48.0743 61.2439 48.1225 61.2235 48.1706C61.1634 48.3132 61.1022 48.4549 61.0393 48.5966L61.0124 48.6586C60.943 48.8104 60.8689 48.9688 60.7847 49.141L60.7198 49.2706C60.6587 49.3938 60.5958 49.5169 60.5319 49.6392L60.5115 49.678C60.4958 49.7077 60.48 49.7373 60.4643 49.7669C60.3745 49.9345 60.2902 50.0873 60.2069 50.2336L60.1708 50.2947C60.093 50.4299 60.0134 50.5642 59.9328 50.6984C59.9023 50.7493 59.8708 50.7993 59.8402 50.8493C59.7921 50.9262 59.7439 51.004 59.6948 51.0808C59.6606 51.1345 59.6254 51.1882 59.5911 51.2419C59.5402 51.3197 59.4893 51.3966 59.4374 51.4734L59.418 51.503C59.3902 51.5447 59.3624 51.5864 59.3337 51.628C59.2782 51.7086 59.2217 51.7882 59.1652 51.8688L59.1319 51.916C59.1106 51.9466 59.0893 51.9771 59.0671 52.0077C58.9985 52.103 58.9282 52.1975 58.8578 52.2919L58.7948 52.3771C58.6189 52.6104 58.4365 52.8419 58.2513 53.066C58.2504 53.0669 58.2448 53.0734 58.2439 53.0743C58.0606 53.2966 57.8661 53.5225 57.6689 53.7419L57.6597 53.7521C57.4726 53.9604 57.2828 54.1632 57.093 54.3586C57.093 54.3586 57.0847 54.3679 57.0837 54.3679C56.9013 54.5549 56.706 54.7484 56.5022 54.9419L56.4726 54.9706C56.2921 55.1419 56.1041 55.3132 55.8985 55.4947L55.8448 55.5419C55.6634 55.7003 55.4745 55.8604 55.2661 56.0299L55.1948 56.0882C55.0041 56.2419 54.8022 56.3993 54.5939 56.5558L54.5143 56.616C54.3198 56.7604 54.1134 56.9086 53.9013 57.0558L53.8161 57.1151C53.6004 57.2623 53.3763 57.4104 53.1485 57.553L53.068 57.604C52.8467 57.7429 52.6143 57.8817 52.3772 58.0179L52.2837 58.0716C52.193 58.1225 52.1022 58.1734 52.0106 58.2234L51.9624 58.2503C51.9319 58.2669 51.9022 58.2836 51.8717 58.3003C51.7439 58.3688 51.6161 58.4364 51.4865 58.5021L51.455 58.5188C51.3152 58.5901 51.1754 58.6595 51.0337 58.7271C51.0069 58.7401 50.981 58.7521 50.9541 58.7651L50.9013 58.7901C50.8032 58.8364 50.706 58.8827 50.6078 58.9271C50.58 58.9401 50.5513 58.9521 50.5226 58.9651L50.4772 58.9854C50.3495 59.0429 50.2208 59.0984 50.0921 59.153L50.0819 59.1577C50.0374 59.1762 49.9939 59.1947 49.9495 59.2132C49.7652 59.2891 49.6023 59.3549 49.4523 59.4123C49.2948 59.4725 49.1337 59.5317 48.9384 59.6003C48.893 59.616 48.8476 59.6317 48.8023 59.6475L48.7958 59.6484C48.6643 59.6938 48.531 59.7382 48.3985 59.7808L48.2726 59.8216C48.0772 59.8827 47.8726 59.9438 47.6652 60.0012L47.5402 60.0354C47.3106 60.0984 47.106 60.1512 46.9124 60.1966L46.8735 60.2049C46.6819 60.2503 46.481 60.2938 46.2615 60.3382L46.1485 60.3614C45.943 60.4012 45.7337 60.4392 45.5235 60.4725L45.3985 60.4919C45.1578 60.529 44.9458 60.5586 44.7504 60.5817L44.7328 60.5836C44.5319 60.6077 44.3235 60.628 44.0902 60.6475L43.9689 60.6577C43.7597 60.6743 43.5458 60.6864 43.3328 60.6956L43.2078 60.7003C42.955 60.7095 42.7448 60.7132 42.5448 60.7132C41.9384 60.7132 41.3365 60.6827 40.7504 60.6225L42.9124 63.5743Z" fill="#F9FAFB"/>
<path d="M43.1821 28.2695L43.7516 36.301C40.8784 37.1658 38.4099 39.3325 37.2525 42.0408C36.9951 42.6418 36.8034 43.2705 36.6858 43.9168C36.6747 43.9779 36.6645 44.039 36.6543 44.0992C36.0432 47.9288 38.2516 51.1492 41.7886 52.0529L38.3506 59.989C31.3136 58.1575 26.9275 51.7371 28.146 44.0992C28.1553 44.038 28.1655 43.9769 28.1766 43.9168C29.2192 37.8112 33.5895 32.5066 39.2155 29.7362C40.4812 29.1112 41.8118 28.6168 43.1821 28.2695Z" fill="#D0D5DD"/>
<path d="M38.3497 60.1954C38.3321 60.1954 38.3145 60.1936 38.2969 60.189C30.9877 58.2862 26.7284 51.6556 27.9386 44.0649C27.9488 44.0028 27.959 43.9417 27.9692 43.8797C28.9858 37.926 33.259 32.4343 39.121 29.5473C40.4136 28.9103 41.7627 28.4121 43.1293 28.0667C43.1895 28.0519 43.2525 28.064 43.3025 28.1001C43.3525 28.1362 43.384 28.1927 43.3886 28.2538L43.958 36.2853C43.9645 36.3825 43.9034 36.4714 43.8099 36.4991C41.0034 37.3436 38.5636 39.4982 37.4423 42.1214C37.1877 42.7167 37.0016 43.3334 36.8886 43.9528C36.8775 44.0121 36.8673 44.0714 36.8581 44.1315C36.2766 47.7788 38.3247 50.9529 41.8386 51.8501C41.8979 51.8649 41.9469 51.9056 41.9738 51.9603C42.0006 52.0149 42.0025 52.0788 41.9775 52.1353L38.5395 60.0714C38.5071 60.1482 38.4312 60.1954 38.3497 60.1954ZM42.9905 28.5334C41.7349 28.8686 40.496 29.3353 39.3053 29.9214C33.5608 32.7501 29.3747 38.126 28.3803 43.9501C28.3701 44.0103 28.3599 44.0704 28.3506 44.1306C27.1849 51.4417 31.2414 57.8343 38.2303 59.7399L41.5006 52.189C37.9136 51.1566 35.8432 47.851 36.4469 44.0649C36.4571 44.0028 36.4673 43.9399 36.4793 43.8778C36.5979 43.2278 36.7932 42.5815 37.0599 41.9575C38.2071 39.2732 40.6766 37.0612 43.5312 36.1501L42.9905 28.5334Z" fill="#F9FAFB"/>
<path d="M52.4635 38.7463L54.9626 42.1528C53.8413 40.6241 52.0663 39.5852 49.9117 39.35C49.6052 39.3167 49.2904 39.2991 48.9691 39.2991C48.7506 39.2991 48.5302 39.3065 48.3135 39.3231L45.8145 35.9167C46.0311 35.9009 46.2515 35.8926 46.47 35.8926C46.7913 35.8926 47.1052 35.9092 47.4126 35.9435C49.5672 36.1787 51.3422 37.2167 52.4635 38.7463Z" fill="#D0D5DD"/>
<path d="M54.9623 42.3603C54.8984 42.3603 54.8346 42.3307 54.7938 42.2751L54.7929 42.2742C53.6707 40.7446 51.929 39.7797 49.8883 39.5566C49.3809 39.501 48.842 39.4927 48.3281 39.5307C48.2568 39.5353 48.1873 39.5038 48.1447 39.4464L45.6457 36.0399C45.6012 35.9788 45.5929 35.8983 45.6244 35.8297C45.6559 35.7612 45.7225 35.7149 45.7984 35.7094C46.3373 35.6705 46.9012 35.6788 47.4336 35.7372C49.592 35.9723 51.4373 36.9973 52.6299 38.6233L55.129 42.0297C55.1966 42.1223 55.1772 42.2529 55.0846 42.3214C55.0484 42.3473 55.0049 42.3603 54.9623 42.3603ZM48.9688 39.0899C49.2938 39.0899 49.6188 39.1075 49.9336 39.1418C51.2244 39.2825 52.4031 39.7057 53.3975 40.3714L52.2947 38.8677C51.1725 37.3372 49.4299 36.3714 47.3892 36.1492C47.0059 36.1075 46.6059 36.0918 46.2105 36.1038L48.4133 39.1066C48.5975 39.0955 48.7836 39.0899 48.9688 39.0899Z" fill="#F9FAFB"/>
<mask id="mask2_11407_15391" style="mask-type:luminance" maskUnits="userSpaceOnUse" x="45" y="35" width="10" height="8">
<mask id="mask3_11407_15391" style="mask-type:luminance" maskUnits="userSpaceOnUse" x="45" y="35" width="10" height="8">
<path d="M52.4635 38.7463L54.9626 42.1528C53.8413 40.6241 52.0663 39.5852 49.9117 39.35C49.6052 39.3167 49.2904 39.2991 48.9691 39.2991C48.7506 39.2991 48.5302 39.3065 48.3135 39.3231L45.8145 35.9167C46.0311 35.9009 46.2515 35.8926 46.47 35.8926C46.7913 35.8926 47.1052 35.9092 47.4126 35.9435C49.5672 36.1787 51.3422 37.2167 52.4635 38.7463Z" fill="white"/>
</mask>
<g mask="url(#mask3_11407_15391)">
<path d="M54.9623 42.3603C54.8984 42.3603 54.8346 42.3307 54.7938 42.2751L54.7929 42.2742C53.6707 40.7446 51.929 39.7797 49.8883 39.5566C49.3809 39.501 48.842 39.4927 48.3281 39.5307C48.2568 39.5353 48.1873 39.5038 48.1447 39.4464L45.6457 36.0399C45.6012 35.9788 45.5929 35.8983 45.6244 35.8297C45.6559 35.7612 45.7225 35.7149 45.7984 35.7094C46.3373 35.6705 46.9012 35.6788 47.4336 35.7372C49.592 35.9723 51.4373 36.9973 52.6299 38.6233L55.129 42.0297C55.1966 42.1223 55.1772 42.2529 55.0846 42.3214C55.0484 42.3473 55.0049 42.3603 54.9623 42.3603ZM48.9688 39.0899C49.2938 39.0899 49.6188 39.1075 49.9336 39.1418C51.2244 39.2825 52.4031 39.7057 53.3975 40.3714L52.2947 38.8677C51.1725 37.3372 49.4299 36.3714 47.3892 36.1492C47.0059 36.1075 46.6059 36.0918 46.2105 36.1038L48.4133 39.1066C48.5975 39.0955 48.7836 39.0899 48.9688 39.0899Z" fill="white"/>
</g>
</mask>
<g mask="url(#mask2_11407_15391)">
<path d="M52.4635 38.7463L54.9626 42.1528C53.8413 40.6241 52.0663 39.5852 49.9117 39.35C49.6052 39.3167 49.2904 39.2991 48.9691 39.2991C48.7506 39.2991 48.5302 39.3065 48.3135 39.3231L45.8145 35.9167C46.0311 35.9009 46.2515 35.8926 46.47 35.8926C46.7913 35.8926 47.1052 35.9092 47.4126 35.9435C49.5672 36.1787 51.3422 37.2167 52.4635 38.7463Z" fill="#D0D5DD"/>
<path d="M54.9623 42.3603C54.8984 42.3603 54.8346 42.3307 54.7938 42.2751L54.7929 42.2742C53.6707 40.7446 51.929 39.7797 49.8883 39.5566C49.3809 39.501 48.842 39.4927 48.3281 39.5307C48.2568 39.5353 48.1873 39.5038 48.1447 39.4464L45.6457 36.0399C45.6012 35.9788 45.5929 35.8983 45.6244 35.8297C45.6559 35.7612 45.7225 35.7149 45.7984 35.7094C46.3373 35.6705 46.9012 35.6788 47.4336 35.7372C49.592 35.9723 51.4373 36.9973 52.6299 38.6233L55.129 42.0297C55.1966 42.1223 55.1772 42.2529 55.0846 42.3214C55.0484 42.3473 55.0049 42.3603 54.9623 42.3603ZM48.9688 39.0899C49.2938 39.0899 49.6188 39.1075 49.9336 39.1418C51.2244 39.2825 52.4031 39.7057 53.3975 40.3714L52.2947 38.8677C51.1725 37.3372 49.4299 36.3714 47.3892 36.1492C47.0059 36.1075 46.6059 36.0918 46.2105 36.1038L48.4133 39.1066C48.5975 39.0955 48.7836 39.0899 48.9688 39.0899Z" fill="#F9FAFB"/>
</g>
<path d="M47.7783 27.6855C48.0968 27.6855 48.4126 27.6939 48.7246 27.7105C56.3589 28.1189 61.8422 33.4652 62.3422 40.5226L53.7579 42.4467C53.5801 38.9985 51.0311 36.3365 47.4116 35.942C47.1052 35.9087 46.7903 35.8911 46.469 35.8911C46.2505 35.8911 46.0301 35.8985 45.8135 35.9152L45.2422 27.8633C46.0792 27.7457 46.9264 27.6855 47.7783 27.6855Z" fill="#98A2B3"/>
<path d="M53.7588 42.6557C53.7134 42.6557 53.669 42.6409 53.6329 42.6132C53.5838 42.5761 53.5542 42.5196 53.5505 42.4576C53.3755 39.0669 50.8995 36.5317 47.3903 36.1493C46.8829 36.0937 46.344 36.0854 45.8301 36.1233C45.7745 36.127 45.7199 36.1095 45.6782 36.0733C45.6366 36.0372 45.6106 35.9854 45.6069 35.9308L45.0356 27.8789C45.0282 27.7696 45.106 27.6733 45.2143 27.6576C46.3866 27.4937 47.5819 27.4419 48.7366 27.5039C56.356 27.9122 62.0375 33.2604 62.5505 40.5095C62.5579 40.6122 62.4884 40.7048 62.3884 40.727L53.8042 42.6511C53.7893 42.6539 53.7736 42.6557 53.7588 42.6557ZM46.4708 35.6835C46.7958 35.6835 47.1208 35.7011 47.4356 35.7354C49.2542 35.9335 50.8412 36.6845 52.0255 37.9048C53.1495 39.0632 53.8116 40.5409 53.9495 42.1909L62.1208 40.3595C61.5421 33.4169 56.0542 28.3122 48.7134 27.9187C47.6486 27.8613 46.5477 27.9039 45.4643 28.0437L46.0069 35.6946C46.1616 35.6872 46.3162 35.6835 46.4708 35.6835Z" fill="#F9FAFB"/>
<path d="M64.1007 4.86202C63.2414 3.88239 61.9877 3.39258 60.6553 3.39258C59.3238 3.39258 57.9136 3.88239 56.7414 4.86202C55.5683 5.84258 54.8553 7.12776 54.6497 8.41202C54.4442 9.69721 54.7479 10.9815 55.6072 11.9611C56.4673 12.9417 57.7201 13.4305 59.0516 13.4305C60.384 13.4305 61.7951 12.9398 62.9683 11.9592C64.1405 10.9796 64.8534 9.69536 65.0581 8.4111C65.2636 7.12684 64.9609 5.84258 64.1007 4.86202Z" fill="#F9FAFB"/>
<path d="M59.0209 7.4707C59.2246 7.4707 59.4172 7.5457 59.5505 7.6957C59.8135 7.9957 59.7357 8.48181 59.3774 8.78089C59.1968 8.93089 58.9802 9.00589 58.7765 9.00589C58.5727 9.00589 58.3811 8.93089 58.2496 8.78089C57.9866 8.48089 58.0644 7.99478 58.4227 7.6957C58.6015 7.5457 58.8163 7.4707 59.0209 7.4707Z" fill="#F9FAFB"/>
<path d="M57.6726 5.70898C58.0698 5.70898 58.4429 5.85528 58.6994 6.14695C59.2115 6.73028 59.0605 7.67658 58.3624 8.25991C58.0124 8.5525 57.592 8.6988 57.1948 8.6988C56.7985 8.6988 56.4253 8.5525 56.1689 8.26084C55.6568 7.6775 55.8078 6.73028 56.5059 6.14602C56.8559 5.85435 57.2753 5.70898 57.6726 5.70898Z" fill="#F9FAFB"/>
<path d="M66.1238 3.17027C68.4117 5.77675 68.0321 9.84249 65.4062 12.7388L65.2386 12.548C65.033 12.3147 64.7339 12.198 64.4163 12.198C64.0988 12.198 63.7626 12.3147 63.483 12.548C62.9247 13.0166 62.8034 13.773 63.2126 14.2416L63.3802 14.4323C61.896 15.3601 60.2469 15.8249 58.6719 15.8249C56.7052 15.8249 54.8534 15.1008 53.583 13.6527C51.0423 10.7564 51.7904 6.06379 55.2552 3.16842C56.9858 1.72119 59.0673 0.998047 61.0339 0.998047C63.0015 0.998047 64.8534 1.72212 66.1238 3.17027ZM62.9682 11.9592C64.1404 10.9795 64.8534 9.69527 65.058 8.41101C65.2626 7.12675 64.9599 5.84249 64.0997 4.86194C63.2404 3.88231 61.9867 3.39249 60.6543 3.39249C59.3219 3.39249 57.9126 3.88231 56.7404 4.86194C55.5673 5.84249 54.8543 7.12768 54.6488 8.41194C54.4432 9.69712 54.7469 10.9814 55.6062 11.961C56.4663 12.9416 57.7191 13.4305 59.0506 13.4305C60.3839 13.4314 61.795 12.9406 62.9682 11.9592Z" fill="#D0D5DD"/>
<path d="M64.4181 12.1992C64.7357 12.1992 65.0348 12.3159 65.2404 12.5492L65.4079 12.74L68.8394 16.6529C69.2487 17.1196 69.1283 17.8779 68.57 18.3446C68.2913 18.5779 67.9542 18.6946 67.6376 18.6946C67.32 18.6946 67.0209 18.5779 66.8163 18.3446L63.3829 14.4335L63.2154 14.2427C62.8061 13.7742 62.9265 13.0177 63.4857 12.5492C63.7644 12.3159 64.1005 12.1992 64.4181 12.1992Z" fill="#D0D5DD"/>
</svg>
