<svg width="24" height="25" viewBox="0 0 24 25" fill="none" xmlns="http://www.w3.org/2000/svg">
<g filter="url(#filter0_i_9739_55284)">
<path d="M3.92914 17.1291C3.73914 17.1291 3.54914 17.0591 3.39914 16.9091C3.10914 16.6191 3.10914 16.1391 3.39914 15.8491L15.3491 3.89914C15.6391 3.60914 16.1191 3.60914 16.4091 3.89914C16.6991 4.18914 16.6991 4.66914 16.4091 4.95914L4.45914 16.9191C4.31914 17.0591 4.11914 17.1291 3.92914 17.1291Z" fill="#5B21B6"/>
<path d="M11.0991 19.5295C10.9091 19.5295 10.7191 19.4595 10.5691 19.3095C10.2791 19.0195 10.2791 18.5395 10.5691 18.2495L11.7691 17.0495C12.0591 16.7595 12.5391 16.7595 12.8291 17.0495C13.1191 17.3395 13.1191 17.8195 12.8291 18.1095L11.6291 19.3095C11.4891 19.4495 11.2991 19.5295 11.0991 19.5295Z" fill="#5B21B6"/>
<path d="M13.7905 16.8406C13.6005 16.8406 13.4105 16.7706 13.2605 16.6206C12.9705 16.3306 12.9705 15.8506 13.2605 15.5606L15.6505 13.1706C15.9405 12.8806 16.4205 12.8806 16.7105 13.1706C17.0005 13.4606 17.0005 13.9406 16.7105 14.2306L14.3205 16.6206C14.1805 16.7606 13.9805 16.8406 13.7905 16.8406Z" fill="#5B21B6"/>
<path d="M11.1009 23.2509C10.1209 23.2509 9.14089 22.6509 7.95089 21.4609L3.04089 16.5509C0.650891 14.1609 0.660891 12.6209 3.07089 10.2109L9.71089 3.57089C12.1209 1.16089 13.6609 1.15089 16.0509 3.54089L20.9609 8.45089C23.3509 10.8409 23.3409 12.3809 20.9309 14.7909L14.2909 21.4309C13.0809 22.6409 12.0909 23.2509 11.1009 23.2509ZM12.9009 3.25089C12.3809 3.25089 11.7209 3.68089 10.7709 4.63089L4.13089 11.2709C3.18089 12.2209 2.75089 12.8809 2.75089 13.3909C2.75089 13.9109 3.15089 14.5409 4.10089 15.4909L9.01089 20.4009C9.96089 21.3509 10.5809 21.7509 11.1009 21.7509C11.1009 21.7509 11.1009 21.7509 11.1109 21.7509C11.6309 21.7509 12.2809 21.3209 13.2309 20.3709L19.8709 13.7309C20.8209 12.7809 21.2509 12.1209 21.2509 11.6109C21.2509 11.0909 20.8509 10.4609 19.9009 9.51089L14.9909 4.60089C14.0509 3.65089 13.4209 3.25089 12.9009 3.25089Z" fill="#5B21B6"/>
<path d="M22 23.25H2C1.59 23.25 1.25 22.91 1.25 22.5C1.25 22.09 1.59 21.75 2 21.75H22C22.41 21.75 22.75 22.09 22.75 22.5C22.75 22.91 22.41 23.25 22 23.25Z" fill="#5B21B6"/>
</g>
<defs>
<filter id="filter0_i_9739_55284" x="0" y="0.5" width="24" height="25" filterUnits="userSpaceOnUse" color-interpolation-filters="sRGB">
<feFlood flood-opacity="0" result="BackgroundImageFix"/>
<feBlend mode="normal" in="SourceGraphic" in2="BackgroundImageFix" result="shape"/>
<feColorMatrix in="SourceAlpha" type="matrix" values="0 0 0 0 0 0 0 0 0 0 0 0 0 0 0 0 0 0 127 0" result="hardAlpha"/>
<feOffset dy="1"/>
<feGaussianBlur stdDeviation="0.5"/>
<feComposite in2="hardAlpha" operator="arithmetic" k2="-1" k3="1"/>
<feColorMatrix type="matrix" values="0 0 0 0 0.858824 0 0 0 0 0.882353 0 0 0 0 0.937255 0 0 0 0.21 0"/>
<feBlend mode="normal" in2="shape" result="effect1_innerShadow_9739_55284"/>
</filter>
</defs>
</svg>
