<svg width="24" height="25" viewBox="0 0 24 25" fill="none" xmlns="http://www.w3.org/2000/svg">
<path d="M13 12.3999H7C6.59 12.3999 6.25 12.0599 6.25 11.6499C6.25 11.2399 6.59 10.8999 7 10.8999H13C13.41 10.8999 13.75 11.2399 13.75 11.6499C13.75 12.0599 13.41 12.3999 13 12.3999Z" fill="#94A3B8"/>
<path d="M2 12.3998C1.59 12.3998 1.25 12.0598 1.25 11.6498V7.02985C1.25 4.57985 3.24 2.58984 5.69 2.58984H11.31C13.88 2.58984 15.75 4.29984 15.75 6.64984C15.75 7.05984 15.41 7.39984 15 7.39984C14.59 7.39984 14.25 7.05984 14.25 6.64984C14.25 4.88984 12.72 4.08984 11.31 4.08984H5.69C4.07 4.08984 2.75 5.40985 2.75 7.02985V11.6498C2.75 12.0698 2.41 12.3998 2 12.3998Z" fill="#94A3B8"/>
<path d="M16 22.3999H6C3.38 22.3999 1.25 20.2699 1.25 17.6499V10.6499C1.25 8.0299 3.38 5.8999 6 5.8999H16C18.62 5.8999 20.75 8.0299 20.75 10.6499V12.0999C20.75 12.5099 20.41 12.8499 20 12.8499H18.92C18.57 12.8499 18.25 12.9798 18.02 13.2198L18.01 13.2299C17.68 13.5599 17.55 14.0198 17.67 14.4698C17.82 15.0298 18.41 15.4399 19.07 15.4399H20C20.41 15.4399 20.75 15.7799 20.75 16.1899V17.6399C20.75 20.2699 18.62 22.3999 16 22.3999ZM6 7.3999C4.21 7.3999 2.75 8.8599 2.75 10.6499V17.6499C2.75 19.4399 4.21 20.8999 6 20.8999H16C17.79 20.8999 19.25 19.4399 19.25 17.6499V16.9499H19.07C17.72 16.9499 16.55 16.0999 16.22 14.8699C15.96 13.8999 16.24 12.8699 16.95 12.1699C17.47 11.6399 18.17 11.3499 18.92 11.3499H19.25V10.6499C19.25 8.8599 17.79 7.3999 16 7.3999H6Z" fill="#94A3B8"/>
<path d="M20.9699 16.9501H19.0399C17.5299 16.9501 16.2499 15.8301 16.1299 14.3901C16.0499 13.5601 16.3499 12.7501 16.9499 12.1601C17.4499 11.6401 18.1599 11.3501 18.9099 11.3501H20.9599C21.9399 11.3501 22.7399 12.1401 22.7399 13.1201V15.1801C22.7499 16.1601 21.9499 16.9501 20.9699 16.9501ZM18.9199 12.8501C18.5699 12.8501 18.2499 12.9801 18.0199 13.2201C17.7299 13.5001 17.5899 13.8801 17.6299 14.2601C17.6799 14.9201 18.3199 15.4501 19.0399 15.4501H20.9699C21.1199 15.4501 21.2499 15.3301 21.2499 15.1801V13.1201C21.2499 12.9701 21.1199 12.8501 20.9699 12.8501H18.9199Z" fill="#94A3B8"/>
</svg>
