<svg width="20" height="24" viewBox="0 0 20 24" fill="none" xmlns="http://www.w3.org/2000/svg">
<path d="M18.9062 6.60378V20.625C18.9028 21.2002 18.671 21.7505 18.2619 22.1549C17.8528 22.5592 17.2999 22.7845 16.7247 22.7813H3.27531C2.70012 22.7845 2.14718 22.5592 1.73808 22.1549C1.32899 21.7505 1.09722 21.2002 1.09375 20.625V3.37503C1.09722 2.79984 1.32899 2.24957 1.73808 1.84522C2.14718 1.44087 2.70012 1.21554 3.27531 1.21878H13.4584C14.0357 1.21803 14.5899 1.4451 15.0006 1.85066L18.2678 5.07941C18.4698 5.27859 18.6303 5.51591 18.7399 5.77758C18.8495 6.03926 18.906 6.32009 18.9062 6.60378Z" fill="#001E36"/>
<path d="M5.31327 12.8625V5.57156C5.31171 5.56144 5.31253 5.55109 5.31569 5.54134C5.31884 5.53159 5.32423 5.52272 5.33143 5.51543C5.33863 5.50814 5.34743 5.50263 5.35714 5.49936C5.36685 5.49608 5.37719 5.49513 5.38733 5.49656C5.92077 5.4825 6.55171 5.4375 7.37577 5.4375C8.34608 5.4375 9.05671 5.64281 9.51046 6.08531C9.73084 6.29678 9.90488 6.55172 10.0216 6.83397C10.1382 7.11623 10.195 7.41965 10.1883 7.725C10.1883 8.53188 9.90702 9.13187 9.34452 9.525C8.78202 9.91812 8.07577 10.1147 7.22577 10.1147L6.62577 10.125V12.8522C6.62577 12.9094 6.60233 12.9375 6.54608 12.9375H5.39765C5.3414 12.9375 5.31327 12.9122 5.31327 12.8625ZM6.62577 6.4875V9.11906C6.84658 9.10171 7.06823 9.09764 7.28952 9.10687C7.76015 9.10687 8.14139 9.00156 8.43327 8.79094C8.72514 8.58031 8.87108 8.23656 8.87108 7.75969C8.87108 7.33906 8.74264 7.01406 8.48577 6.78469C8.22889 6.55531 7.8589 6.44031 7.37577 6.43969H7.02327C6.90796 6.43969 6.81233 6.44531 6.74202 6.44531C6.67171 6.44531 6.61827 6.45 6.62577 6.48375V6.4875ZM14.6883 11.2134C14.695 11.4399 14.6503 11.6649 14.5575 11.8716C14.4648 12.0783 14.3265 12.2613 14.153 12.4069C14.1211 12.4378 14.0873 12.4669 14.0517 12.4959C13.683 12.7903 13.1845 12.9375 12.5564 12.9375C11.9283 12.9375 11.4139 12.8231 11.0133 12.5944C10.9917 12.5863 10.9736 12.5711 10.9618 12.5513C10.9501 12.5316 10.9454 12.5084 10.9486 12.4856V11.4862C10.9475 11.4749 10.9494 11.4634 10.9542 11.4531C10.959 11.4427 10.9664 11.4338 10.9758 11.4272C10.983 11.422 10.9919 11.4197 11.0008 11.4207C11.0096 11.4217 11.0178 11.4261 11.0236 11.4328C11.45 11.7638 11.9735 11.945 12.5133 11.9484C12.7131 11.961 12.9123 11.9147 13.0861 11.8153C13.1461 11.7788 13.1957 11.7275 13.23 11.6662C13.2643 11.6049 13.2822 11.5359 13.282 11.4656C13.2835 11.3943 13.2699 11.3234 13.2421 11.2576C13.2143 11.1919 13.173 11.1327 13.1208 11.0841C13.0139 10.9797 12.8033 10.8669 12.4889 10.7456C11.917 10.5231 11.5189 10.2847 11.2945 10.0303C11.0601 9.77534 10.9326 9.44006 10.9383 9.09375C10.9386 8.877 10.9856 8.66287 11.0762 8.46597C11.1668 8.26906 11.2988 8.09403 11.4633 7.95281C11.8008 7.65094 12.2792 7.5 12.8986 7.5C13.478 7.5 13.9448 7.57875 14.2598 7.73719C14.2955 7.75781 14.3133 7.80469 14.3133 7.87594V8.7675C14.3133 8.85375 14.2814 8.87531 14.2195 8.83219C13.8382 8.5898 13.3963 8.45983 12.9445 8.45719C12.6945 8.45719 12.5108 8.50375 12.3933 8.59687C12.3395 8.63438 12.2954 8.68411 12.2646 8.74196C12.2338 8.79982 12.2172 8.86415 12.2161 8.92969C12.2161 8.99359 12.2294 9.05678 12.2552 9.11523C12.281 9.17367 12.3188 9.22607 12.3661 9.26906C12.4655 9.36594 12.6761 9.47844 12.998 9.60656C13.5605 9.82406 13.963 10.0522 14.2055 10.2909L14.212 10.2975C14.4567 10.5234 14.6883 10.8366 14.6883 11.2134Z" fill="#31A8FF"/>
<path d="M6.06348 20.0269V16.7334C6.06348 16.71 6.0738 16.6978 6.09348 16.6978C6.31098 16.6909 6.61598 16.6875 7.00848 16.6875C7.45473 16.6875 7.78473 16.7906 7.99567 16.9959C8.0996 17.0954 8.18156 17.2155 8.23629 17.3486C8.29103 17.4816 8.31732 17.6246 8.31348 17.7684C8.31348 18.1434 8.18411 18.4247 7.92536 18.6122C7.6362 18.809 7.29142 18.9076 6.94192 18.8934H6.62598V20.0306C6.62598 20.0541 6.61286 20.0662 6.58567 20.0662H6.09911C6.09391 20.067 6.0886 20.0665 6.08365 20.0647C6.0787 20.063 6.07427 20.06 6.07074 20.0561C6.06721 20.0522 6.0647 20.0475 6.06344 20.0424C6.06217 20.0373 6.06219 20.032 6.06348 20.0269ZM6.62598 17.1619V18.4153C6.72536 18.4228 6.82379 18.4256 6.97286 18.4256C7.15889 18.4337 7.34251 18.3811 7.49598 18.2756C7.63098 18.1756 7.69848 18.01 7.69848 17.7787C7.7034 17.6934 7.68986 17.6081 7.6588 17.5285C7.62774 17.4489 7.57988 17.3769 7.51848 17.3175C7.37517 17.2009 7.1928 17.1432 7.00848 17.1562C6.82848 17.1562 6.71973 17.1562 6.62598 17.1619ZM9.67005 20.0625C9.37286 20.0718 9.07822 20.005 8.81411 19.8684C8.80362 19.8604 8.79537 19.8498 8.79012 19.8376C8.78487 19.8255 8.7828 19.8122 8.78411 19.7991V19.3125C8.78411 19.2797 8.79723 19.2731 8.82442 19.2928C9.07424 19.4763 9.37511 19.5773 9.68505 19.5816C9.83175 19.5933 9.97794 19.5535 10.0985 19.4691C10.1403 19.4352 10.174 19.3923 10.1969 19.3436C10.2198 19.2949 10.2313 19.2416 10.2307 19.1878C10.232 19.1392 10.2237 19.0907 10.2062 19.0453C10.1886 19 10.1622 18.9585 10.1285 18.9234C10.0157 18.8184 9.88398 18.7357 9.74036 18.6797L9.55286 18.5906C9.33152 18.4984 9.13451 18.3563 8.97723 18.1753C8.85812 18.0176 8.79777 17.8233 8.80661 17.6259C8.8043 17.4999 8.82905 17.3749 8.87918 17.2592C8.92932 17.1436 9.00367 17.0401 9.09723 16.9556C9.29036 16.78 9.56567 16.6922 9.92317 16.6922C10.1695 16.681 10.4151 16.7285 10.6394 16.8309C10.6591 16.8384 10.6694 16.8581 10.6694 16.8909V17.3428C10.6697 17.3471 10.6689 17.3514 10.6671 17.3554C10.6653 17.3593 10.6625 17.3627 10.6591 17.3653C10.6525 17.3709 10.6422 17.3653 10.6291 17.3653C10.414 17.2268 10.1631 17.1541 9.90723 17.1562C9.76533 17.1434 9.62411 17.1872 9.51442 17.2781C9.47693 17.3116 9.44669 17.3524 9.42557 17.3981C9.40445 17.4437 9.39289 17.4932 9.39161 17.5434C9.39024 17.6462 9.42584 17.746 9.49192 17.8247C9.60213 17.9292 9.73133 18.0116 9.87255 18.0675L10.0732 18.1613C10.3663 18.2969 10.5682 18.44 10.6788 18.5906C10.8086 18.7767 10.8649 19.0043 10.8366 19.2294C10.8084 19.4545 10.6977 19.6611 10.526 19.8094C10.316 19.9781 10.0307 20.0625 9.67005 20.0625ZM11.3135 20.0062V16.7381C11.3121 16.7288 11.3145 16.7193 11.3202 16.7118C11.3258 16.7042 11.3342 16.6992 11.3435 16.6978C11.7054 16.6913 12.026 16.6875 12.3072 16.6875C12.8397 16.6875 13.2447 16.8384 13.526 17.1394C13.8072 17.4403 13.9422 17.8378 13.9422 18.3291C13.9461 18.5666 13.9097 18.8031 13.8344 19.0284C13.7749 19.2105 13.681 19.3795 13.5579 19.5262C13.4443 19.6547 13.3084 19.7614 13.1566 19.8412C13.0119 19.9205 12.8566 19.9786 12.6954 20.0137C12.5394 20.0468 12.3804 20.0631 12.221 20.0625C11.906 20.0625 11.6154 20.0625 11.3472 20.0522C11.3238 20.0522 11.3135 20.0372 11.3135 20.0062ZM11.876 17.1562V19.5938C12.0325 19.6003 12.1394 19.6041 12.251 19.6041C12.3948 19.6119 12.5386 19.5889 12.6727 19.5367C12.8069 19.4845 12.9284 19.4042 13.0291 19.3013C13.2166 19.1 13.3104 18.7822 13.3104 18.3478C13.3104 17.9422 13.2225 17.6416 13.0469 17.4459C12.9531 17.3466 12.8387 17.2689 12.7118 17.2184C12.5848 17.1678 12.4483 17.1457 12.3119 17.1534C12.1066 17.1497 11.9791 17.1562 11.876 17.1562Z" fill="white"/>
<path d="M13.5681 1.68751C13.7405 1.68719 13.9113 1.72098 14.0706 1.78695C14.2299 1.85292 14.3745 1.94976 14.4963 2.07188L17.8656 5.43751C17.9877 5.55921 18.0846 5.70387 18.1506 5.86316C18.2165 6.02245 18.2503 6.19322 18.25 6.36563V21C18.25 21.3481 18.1117 21.6819 17.8656 21.9281C17.6194 22.1742 17.2856 22.3125 16.9375 22.3125H3.0625C2.7144 22.3125 2.38056 22.1742 2.13442 21.9281C1.88828 21.6819 1.75 21.3481 1.75 21V3.00001C1.75 2.65191 1.88828 2.31807 2.13442 2.07193C2.38056 1.82579 2.7144 1.68751 3.0625 1.68751H13.5681ZM13.5681 0.750007H3.0625C2.46576 0.750007 1.89347 0.98706 1.47151 1.40902C1.04955 1.83097 0.8125 2.40327 0.8125 3.00001V21C0.8125 21.5967 1.04955 22.169 1.47151 22.591C1.89347 23.013 2.46576 23.25 3.0625 23.25H16.9375C17.5342 23.25 18.1065 23.013 18.5285 22.591C18.9504 22.169 19.1875 21.5967 19.1875 21V6.36938C19.1882 6.07364 19.1306 5.78065 19.018 5.50718C18.9054 5.23371 18.74 4.98512 18.5312 4.77563L15.1562 1.40626C14.9468 1.19749 14.6982 1.03208 14.4247 0.919474C14.1512 0.806869 13.8582 0.749282 13.5625 0.750007H13.5681Z" fill="#31A8FF"/>
</svg>
