<svg width="24" height="24" viewBox="0 0 24 24" fill="none" xmlns="http://www.w3.org/2000/svg">
<g clip-path="url(#clip0_9098_5373)">
<path d="M17.5 5.50195C17.2239 5.50195 17 5.72583 17 6.00197V9.00197C17 9.27811 17.2239 9.50198 17.5 9.50198H20.5C20.7762 9.50198 21 9.27811 21 9.00197C21 7.06898 19.433 5.50195 17.5 5.50195Z" fill="#FF5722"/>
<path d="M17.5007 10.5022C16.6722 10.5022 16.0007 9.83063 16.0007 9.00221V6.55322C14.0913 6.82482 12.7636 8.59285 13.0352 10.5022C13.3068 12.4116 15.0749 13.7392 16.9842 13.4676C18.5223 13.2488 19.7308 12.0403 19.9496 10.5022H17.5007Z" fill="#FF5722"/>
<path d="M13.812 0.609987C13.7535 0.562416 13.6849 0.528711 13.6115 0.511396C13.5381 0.494081 13.4617 0.493604 13.388 0.510002L0.388053 3.51C0.276996 3.53553 0.177987 3.59822 0.107421 3.68769C0.0368546 3.77716 -0.00103657 3.88805 2.15761e-05 4.002V21.002C6.59045e-05 21.1214 0.0428383 21.2369 0.120603 21.3275C0.198368 21.4181 0.30599 21.4779 0.424006 21.496L13.424 23.496C13.6969 23.538 13.9522 23.3508 13.9942 23.0779C13.998 23.0528 14 23.0274 14 23.0021V1.002C14.0002 0.926721 13.9834 0.852364 13.9509 0.784483C13.9183 0.716602 13.8709 0.656951 13.812 0.609987Z" fill="#FF5722"/>
<path d="M23.5 21.5019H13.5C13.2239 21.5019 13 21.2781 13 21.0019C13 20.7258 13.2239 20.5019 13.5 20.5019H23V3.50194H13.5C13.2239 3.50194 13 3.27806 13 3.00192C13 2.72578 13.2239 2.50195 13.5 2.50195H23.5C23.7761 2.50195 24 2.72583 24 3.00197V21.002C24 21.2781 23.7762 21.5019 23.5 21.5019Z" fill="#FF5722"/>
<path d="M20.5 18.502H13.5C13.2239 18.502 13 18.2781 13 18.002C13 17.7258 13.2239 17.502 13.5 17.502H20.5C20.7761 17.502 21 17.7258 21 18.002C21 18.2782 20.7762 18.502 20.5 18.502ZM20.5 15.502H13.5C13.2239 15.502 13 15.2781 13 15.002C13 14.7258 13.2239 14.502 13.5 14.502H20.5C20.7761 14.502 21 14.7258 21 15.002C21 15.2782 20.7762 15.502 20.5 15.502Z" fill="#FF5722"/>
<path d="M4.50002 16.502C4.22388 16.502 4 16.2781 4 16.002V8.00197C4 7.72583 4.22388 7.50195 4.50002 7.50195H6.50003C7.88073 7.50195 9.00002 8.62123 9.00002 10.0019V11.0019C9.00002 12.3826 7.88073 13.5019 6.50003 13.5019H5.00003V16.0019C5.00003 16.2781 4.7762 16.502 4.50002 16.502ZM5.00003 12.502H6.50003C7.32845 12.502 8.00003 11.8304 8.00003 11.002V10.002C8.00003 9.17356 7.32845 8.50198 6.50003 8.50198H5.00003V12.502Z" fill="#FAFAFA"/>
</g>
<defs>
<clipPath id="clip0_9098_5373">
<rect width="24" height="24" fill="white"/>
</clipPath>
</defs>
</svg>
