<svg width="24" height="25" viewBox="0 0 24 25" fill="none" xmlns="http://www.w3.org/2000/svg">
<path d="M11.9998 23.2508C11.7598 23.2508 11.5199 23.2208 11.2899 23.1508C6.09986 21.7208 2.33984 16.8708 2.33984 11.6108V7.22076C2.33984 6.10076 3.14985 4.89081 4.18985 4.46081L9.75986 2.18078C11.2099 1.59078 12.7998 1.59078 14.2398 2.18078L19.8098 4.46081C20.8498 4.89081 21.6599 6.10076 21.6599 7.22076V11.6108C21.6599 16.8608 17.8898 21.7108 12.7098 23.1508C12.4798 23.2208 12.2398 23.2508 11.9998 23.2508ZM11.9998 3.25079C11.4298 3.25079 10.8698 3.36081 10.3298 3.58081L4.75986 5.86077C4.27986 6.06077 3.83984 6.71077 3.83984 7.23077V11.6208C3.83984 16.2108 7.13985 20.4508 11.6898 21.7108C11.8898 21.7708 12.1098 21.7708 12.3098 21.7108C16.8598 20.4508 20.1599 16.2108 20.1599 11.6208V7.23077C20.1599 6.71077 19.7198 6.06077 19.2398 5.86077L13.6699 3.58081C13.1299 3.36081 12.5698 3.25079 11.9998 3.25079Z" fill="#5B21B6"/>
<path d="M12 13.75C10.48 13.75 9.25 12.52 9.25 11C9.25 9.48 10.48 8.25 12 8.25C13.52 8.25 14.75 9.48 14.75 11C14.75 12.52 13.52 13.75 12 13.75ZM12 9.75C11.31 9.75 10.75 10.31 10.75 11C10.75 11.69 11.31 12.25 12 12.25C12.69 12.25 13.25 11.69 13.25 11C13.25 10.31 12.69 9.75 12 9.75Z" fill="#5B21B6"/>
<path d="M12 16.75C11.59 16.75 11.25 16.41 11.25 16V13C11.25 12.59 11.59 12.25 12 12.25C12.41 12.25 12.75 12.59 12.75 13V16C12.75 16.41 12.41 16.75 12 16.75Z" fill="#5B21B6"/>
</svg>
