<svg width="25" height="24" viewBox="0 0 25 24" fill="none" xmlns="http://www.w3.org/2000/svg">
<g filter="url(#filter0_i_1054_6298)">
<g filter="url(#filter1_i_1054_6298)">
<path d="M21.5002 6.72998C21.4802 6.72998 21.4502 6.72998 21.4202 6.72998C16.1302 6.19998 10.8502 5.99998 5.62016 6.52998L3.58016 6.72998C3.16016 6.76998 2.79016 6.46998 2.75016 6.04998C2.71016 5.62998 3.01016 5.26998 3.42016 5.22998L5.46016 5.02998C10.7802 4.48998 16.1702 4.69998 21.5702 5.22998C21.9802 5.26998 22.2802 5.63998 22.2402 6.04998C22.2102 6.43998 21.8802 6.72998 21.5002 6.72998Z" fill="#6432C9"/>
<path d="M8.99977 5.72C8.95977 5.72 8.91977 5.72 8.86977 5.71C8.46977 5.64 8.18977 5.25 8.25977 4.85L8.47977 3.54C8.63977 2.58 8.85977 1.25 11.1898 1.25H13.8098C16.1498 1.25 16.3698 2.63 16.5198 3.55L16.7398 4.85C16.8098 5.26 16.5298 5.65 16.1298 5.71C15.7198 5.78 15.3298 5.5 15.2698 5.1L15.0498 3.8C14.9098 2.93 14.8798 2.76 13.8198 2.76H11.1998C10.1398 2.76 10.1198 2.9 9.96977 3.79L9.73977 5.09C9.67977 5.46 9.35977 5.72 8.99977 5.72Z" fill="#6432C9"/>
<path d="M15.7099 22.75H9.2899C5.7999 22.75 5.6599 20.82 5.5499 19.26L4.8999 9.19001C4.8699 8.78001 5.1899 8.42001 5.5999 8.39001C6.0199 8.37001 6.3699 8.68001 6.3999 9.09001L7.0499 19.16C7.1599 20.68 7.1999 21.25 9.2899 21.25H15.7099C17.8099 21.25 17.8499 20.68 17.9499 19.16L18.5999 9.09001C18.6299 8.68001 18.9899 8.37001 19.3999 8.39001C19.8099 8.42001 20.1299 8.77001 20.0999 9.19001L19.4499 19.26C19.3399 20.82 19.1999 22.75 15.7099 22.75Z" fill="#6432C9"/>
<path d="M14.1601 17.25H10.8301C10.4201 17.25 10.0801 16.91 10.0801 16.5C10.0801 16.09 10.4201 15.75 10.8301 15.75H14.1601C14.5701 15.75 14.9101 16.09 14.9101 16.5C14.9101 16.91 14.5701 17.25 14.1601 17.25Z" fill="#6432C9"/>
<path d="M15 13.25H10C9.59 13.25 9.25 12.91 9.25 12.5C9.25 12.09 9.59 11.75 10 11.75H15C15.41 11.75 15.75 12.09 15.75 12.5C15.75 12.91 15.41 13.25 15 13.25Z" fill="#6432C9"/>
</g>
</g>
<defs>
<filter id="filter0_i_1054_6298" x="0.5" y="0" width="24" height="25" filterUnits="userSpaceOnUse" color-interpolation-filters="sRGB">
<feFlood flood-opacity="0" result="BackgroundImageFix"/>
<feBlend mode="normal" in="SourceGraphic" in2="BackgroundImageFix" result="shape"/>
<feColorMatrix in="SourceAlpha" type="matrix" values="0 0 0 0 0 0 0 0 0 0 0 0 0 0 0 0 0 0 127 0" result="hardAlpha"/>
<feOffset dy="1"/>
<feGaussianBlur stdDeviation="0.5"/>
<feComposite in2="hardAlpha" operator="arithmetic" k2="-1" k3="1"/>
<feColorMatrix type="matrix" values="0 0 0 0 0 0 0 0 0 0 0 0 0 0 0 0 0 0 0.21 0"/>
<feBlend mode="normal" in2="shape" result="effect1_innerShadow_1054_6298"/>
</filter>
<filter id="filter1_i_1054_6298" x="0.5" y="0" width="24" height="25" filterUnits="userSpaceOnUse" color-interpolation-filters="sRGB">
<feFlood flood-opacity="0" result="BackgroundImageFix"/>
<feBlend mode="normal" in="SourceGraphic" in2="BackgroundImageFix" result="shape"/>
<feColorMatrix in="SourceAlpha" type="matrix" values="0 0 0 0 0 0 0 0 0 0 0 0 0 0 0 0 0 0 127 0" result="hardAlpha"/>
<feOffset dy="1"/>
<feGaussianBlur stdDeviation="0.5"/>
<feComposite in2="hardAlpha" operator="arithmetic" k2="-1" k3="1"/>
<feColorMatrix type="matrix" values="0 0 0 0 0 0 0 0 0 0 0 0 0 0 0 0 0 0 0.21 0"/>
<feBlend mode="normal" in2="shape" result="effect1_innerShadow_1054_6298"/>
</filter>
</defs>
</svg>
