<svg width="24" height="25" viewBox="0 0 24 25" fill="none" xmlns="http://www.w3.org/2000/svg">
<g filter="url(#filter0_i_9739_55332)">
<path d="M15.9707 23.25H7.9707C4.5507 23.25 3.2207 21.92 3.2207 18.5V10.5C3.2207 10.09 3.5607 9.75 3.9707 9.75H19.9707C20.3807 9.75 20.7207 10.09 20.7207 10.5V18.5C20.7207 21.92 19.3907 23.25 15.9707 23.25ZM4.7207 11.25V18.5C4.7207 21.08 5.3907 21.75 7.9707 21.75H15.9707C18.5507 21.75 19.2207 21.08 19.2207 18.5V11.25H4.7207Z" fill="#5B21B6"/>
<path d="M19.5 11.25H4.5C2.75 11.25 1.75 10.25 1.75 8.5V7.5C1.75 5.75 2.75 4.75 4.5 4.75H19.5C21.2 4.75 22.25 5.8 22.25 7.5V8.5C22.25 10.2 21.2 11.25 19.5 11.25ZM4.5 6.25C3.59 6.25 3.25 6.59 3.25 7.5V8.5C3.25 9.41 3.59 9.75 4.5 9.75H19.5C20.38 9.75 20.75 9.38 20.75 8.5V7.5C20.75 6.62 20.38 6.25 19.5 6.25H4.5Z" fill="#5B21B6"/>
<path d="M11.6391 6.25086H6.11912C5.90912 6.25086 5.70912 6.16086 5.56912 6.01086C4.95912 5.34086 4.97912 4.31086 5.61912 3.67086L7.03912 2.25086C7.69912 1.59086 8.78912 1.59086 9.44912 2.25086L12.1691 4.97086C12.3791 5.18086 12.4491 5.51086 12.3291 5.79086C12.2191 6.07086 11.9491 6.25086 11.6391 6.25086ZM6.66912 4.75086H9.83912L8.38912 3.31086C8.30912 3.23086 8.17912 3.23086 8.09912 3.31086L6.67912 4.73086C6.67912 4.74086 6.66912 4.74086 6.66912 4.75086Z" fill="#5B21B6"/>
<path d="M17.8701 6.25086H12.3501C12.0501 6.25086 11.7701 6.07086 11.6601 5.79086C11.5401 5.51086 11.6101 5.19086 11.8201 4.97086L14.5401 2.25086C15.2001 1.59086 16.2901 1.59086 16.9501 2.25086L18.3701 3.67086C19.0101 4.31086 19.0401 5.34086 18.4201 6.01086C18.2801 6.16086 18.0801 6.25086 17.8701 6.25086ZM14.1701 4.75086H17.3401C17.3301 4.74086 17.3301 4.74086 17.3201 4.73086L15.9001 3.31086C15.8201 3.23086 15.6901 3.23086 15.6101 3.31086L14.1701 4.75086Z" fill="#5B21B6"/>
<path d="M9.93945 17.4C9.65945 17.4 9.36945 17.33 9.10945 17.19C8.53945 16.88 8.18945 16.29 8.18945 15.65V10.5C8.18945 10.09 8.52945 9.75 8.93945 9.75H14.9795C15.3895 9.75 15.7295 10.09 15.7295 10.5V15.63C15.7295 16.28 15.3795 16.87 14.8095 17.17C14.2395 17.48 13.5495 17.44 13.0095 17.08L12.1195 16.48C12.0395 16.42 11.9295 16.42 11.8395 16.48L10.8995 17.1C10.6095 17.3 10.2695 17.4 9.93945 17.4ZM9.68945 11.25V15.64C9.68945 15.77 9.76945 15.83 9.81945 15.86C9.86945 15.89 9.96945 15.92 10.0795 15.85L11.0195 15.23C11.6095 14.84 12.3695 14.84 12.9495 15.23L13.8395 15.83C13.9495 15.9 14.0495 15.87 14.0995 15.84C14.1495 15.81 14.2295 15.75 14.2295 15.62V11.24H9.68945V11.25Z" fill="#5B21B6"/>
</g>
<defs>
<filter id="filter0_i_9739_55332" x="0" y="0.5" width="24" height="25" filterUnits="userSpaceOnUse" color-interpolation-filters="sRGB">
<feFlood flood-opacity="0" result="BackgroundImageFix"/>
<feBlend mode="normal" in="SourceGraphic" in2="BackgroundImageFix" result="shape"/>
<feColorMatrix in="SourceAlpha" type="matrix" values="0 0 0 0 0 0 0 0 0 0 0 0 0 0 0 0 0 0 127 0" result="hardAlpha"/>
<feOffset dy="1"/>
<feGaussianBlur stdDeviation="0.5"/>
<feComposite in2="hardAlpha" operator="arithmetic" k2="-1" k3="1"/>
<feColorMatrix type="matrix" values="0 0 0 0 0.858824 0 0 0 0 0.882353 0 0 0 0 0.937255 0 0 0 0.21 0"/>
<feBlend mode="normal" in2="shape" result="effect1_innerShadow_9739_55332"/>
</filter>
</defs>
</svg>
