<svg width="24" height="25" viewBox="0 0 24 25" fill="none" xmlns="http://www.w3.org/2000/svg">
<path d="M11.9998 23.2498C11.7598 23.2498 11.5199 23.2198 11.2899 23.1498C6.09986 21.7198 2.33984 16.8698 2.33984 11.6098V7.21978C2.33984 6.09978 3.14985 4.88983 4.18985 4.45983L9.75986 2.1798C11.2099 1.5898 12.7998 1.5898 14.2398 2.1798L19.8098 4.45983C20.8498 4.88983 21.6599 6.09978 21.6599 7.21978V11.6098C21.6599 16.8598 17.8898 21.7098 12.7098 23.1498C12.4798 23.2198 12.2398 23.2498 11.9998 23.2498ZM11.9998 3.24981C11.4298 3.24981 10.8698 3.35983 10.3298 3.57983L4.75986 5.8598C4.27986 6.0598 3.83984 6.70979 3.83984 7.22979V11.6198C3.83984 16.2098 7.13985 20.4498 11.6898 21.7098C11.8898 21.7698 12.1098 21.7698 12.3098 21.7098C16.8598 20.4498 20.1599 16.2098 20.1599 11.6198V7.22979C20.1599 6.70979 19.7198 6.0598 19.2398 5.8598L13.6699 3.57983C13.1299 3.35983 12.5698 3.24981 11.9998 3.24981Z" fill="#94A3B8"/>
</svg>
