<svg width="24" height="25" viewBox="0 0 24 25" fill="none" xmlns="http://www.w3.org/2000/svg">
<path d="M15 23.25H9C3.57 23.25 1.25 20.93 1.25 15.5V9.5C1.25 4.07 3.57 1.75 9 1.75H15C20.43 1.75 22.75 4.07 22.75 9.5V15.5C22.75 20.93 20.43 23.25 15 23.25ZM9 3.25C4.39 3.25 2.75 4.89 2.75 9.5V15.5C2.75 20.11 4.39 21.75 9 21.75H15C19.61 21.75 21.25 20.11 21.25 15.5V9.5C21.25 4.89 19.61 3.25 15 3.25H9Z" fill="#94A3B8"/>
<path d="M8.68 15.8299C8.26 15.8299 7.87 15.7299 7.53 15.5399C6.7 15.0699 6.25 14.1399 6.25 12.9199V2.93994C6.25 2.52994 6.59 2.18994 7 2.18994C7.41 2.18994 7.75 2.52994 7.75 2.93994V12.9199C7.75 13.5699 7.94 14.0499 8.27 14.2299C8.62 14.4299 9.16 14.3299 9.75 13.9799L11.07 13.1899C11.61 12.8699 12.38 12.8699 12.92 13.1899L14.24 13.9799C14.84 14.3399 15.38 14.4299 15.72 14.2299C16.05 14.0399 16.24 13.5599 16.24 12.9199V2.93994C16.24 2.52994 16.58 2.18994 16.99 2.18994C17.4 2.18994 17.74 2.52994 17.74 2.93994V12.9199C17.74 14.1399 17.29 15.0699 16.46 15.5399C15.63 16.0099 14.54 15.9099 13.47 15.2699L12.15 14.4799C12.09 14.4399 11.9 14.4399 11.84 14.4799L10.52 15.2699C9.9 15.6399 9.26 15.8299 8.68 15.8299Z" fill="#94A3B8"/>
<path d="M15 23.25H9C3.57 23.25 1.25 20.93 1.25 15.5V9.5C1.25 4.07 3.57 1.75 9 1.75H15C20.43 1.75 22.75 4.07 22.75 9.5V15.5C22.75 20.93 20.43 23.25 15 23.25ZM9 3.25C4.39 3.25 2.75 4.89 2.75 9.5V15.5C2.75 20.11 4.39 21.75 9 21.75H15C19.61 21.75 21.25 20.11 21.25 15.5V9.5C21.25 4.89 19.61 3.25 15 3.25H9Z" fill="#94A3B8"/>
<path d="M8.68 15.8299C8.26 15.8299 7.87 15.7299 7.53 15.5399C6.7 15.0699 6.25 14.1399 6.25 12.9199V2.93994C6.25 2.52994 6.59 2.18994 7 2.18994C7.41 2.18994 7.75 2.52994 7.75 2.93994V12.9199C7.75 13.5699 7.94 14.0499 8.27 14.2299C8.62 14.4299 9.16 14.3299 9.75 13.9799L11.07 13.1899C11.61 12.8699 12.38 12.8699 12.92 13.1899L14.24 13.9799C14.84 14.3399 15.38 14.4299 15.72 14.2299C16.05 14.0399 16.24 13.5599 16.24 12.9199V2.93994C16.24 2.52994 16.58 2.18994 16.99 2.18994C17.4 2.18994 17.74 2.52994 17.74 2.93994V12.9199C17.74 14.1399 17.29 15.0699 16.46 15.5399C15.63 16.0099 14.54 15.9099 13.47 15.2699L12.15 14.4799C12.09 14.4399 11.9 14.4399 11.84 14.4799L10.52 15.2699C9.9 15.6399 9.26 15.8299 8.68 15.8299Z" fill="#94A3B8"/>
</svg>
