<svg width="24" height="25" viewBox="0 0 24 25" fill="none" xmlns="http://www.w3.org/2000/svg">
<path d="M20.6201 13.5699C20.2401 13.5699 19.9201 13.2799 19.8701 12.8999C19.6301 10.6399 18.4101 8.58986 16.5301 7.28986C16.1901 7.04986 16.1101 6.58986 16.3401 6.24986C16.5801 5.90986 17.0501 5.82986 17.3801 6.05986C19.6201 7.60986 21.0601 10.0499 21.3501 12.7399C21.3901 13.1499 21.1001 13.5199 20.6801 13.5699C20.6701 13.5699 20.6401 13.5699 20.6201 13.5699Z" fill="#94A3B8"/>
<path d="M3.48991 13.6198C3.45991 13.6198 3.43991 13.6198 3.40991 13.6198C2.99991 13.5698 2.69991 13.1998 2.73991 12.7898C3.00991 10.0998 4.43991 7.66977 6.64991 6.09977C6.98991 5.85977 7.45991 5.93977 7.69991 6.27977C7.93991 6.61977 7.85991 7.08977 7.51991 7.32977C5.65991 8.63977 4.45991 10.6898 4.22991 12.9498C4.19991 13.3298 3.86991 13.6198 3.48991 13.6198Z" fill="#94A3B8"/>
<path d="M12.06 23.11C10.58 23.11 9.16997 22.77 7.84997 22.11C7.47997 21.92 7.32997 21.47 7.51997 21.1C7.70997 20.73 8.15997 20.58 8.52997 20.77C10.69 21.86 13.29 21.88 15.47 20.83C15.84 20.65 16.29 20.81 16.47 21.18C16.65 21.55 16.49 22 16.12 22.18C14.84 22.8 13.48 23.11 12.06 23.11Z" fill="#94A3B8"/>
<path d="M12.0598 8.93988C10.1098 8.93988 8.52979 7.35988 8.52979 5.40988C8.52979 3.45988 10.1098 1.87988 12.0598 1.87988C14.0098 1.87988 15.5898 3.45988 15.5898 5.40988C15.5898 7.35988 13.9998 8.93988 12.0598 8.93988ZM12.0598 3.38988C10.9398 3.38988 10.0298 4.29988 10.0298 5.41988C10.0298 6.53988 10.9398 7.44988 12.0598 7.44988C13.1798 7.44988 14.0898 6.53988 14.0898 5.41988C14.0898 4.29988 13.1698 3.38988 12.0598 3.38988Z" fill="#94A3B8"/>
<path d="M4.8298 21.1699C2.8798 21.1699 1.2998 19.5899 1.2998 17.6399C1.2998 15.6999 2.8798 14.1099 4.8298 14.1099C6.7798 14.1099 8.3598 15.6899 8.3598 17.6399C8.3598 19.5799 6.7798 21.1699 4.8298 21.1699ZM4.8298 15.6099C3.7098 15.6099 2.7998 16.5199 2.7998 17.6399C2.7998 18.7599 3.7098 19.6699 4.8298 19.6699C5.9498 19.6699 6.85981 18.7599 6.85981 17.6399C6.85981 16.5199 5.9498 15.6099 4.8298 15.6099Z" fill="#94A3B8"/>
<path d="M19.1701 21.1699C17.2201 21.1699 15.6401 19.5899 15.6401 17.6399C15.6401 15.6999 17.2201 14.1099 19.1701 14.1099C21.1201 14.1099 22.7001 15.6899 22.7001 17.6399C22.6901 19.5799 21.1101 21.1699 19.1701 21.1699ZM19.1701 15.6099C18.0501 15.6099 17.1401 16.5199 17.1401 17.6399C17.1401 18.7599 18.0501 19.6699 19.1701 19.6699C20.2901 19.6699 21.2001 18.7599 21.2001 17.6399C21.1901 16.5199 20.2901 15.6099 19.1701 15.6099Z" fill="#94A3B8"/>
</svg>
