<svg width="25" height="24" viewBox="0 0 25 24" fill="none" xmlns="http://www.w3.org/2000/svg">
<g filter="url(#filter0_i_8916_5636)">
<g filter="url(#filter1_i_8916_5636)">
<path d="M21.1196 13.0701C20.7396 13.0701 20.4196 12.7801 20.3696 12.4001C20.1296 10.1401 18.9096 8.0901 17.0296 6.7901C16.6896 6.5501 16.6096 6.0901 16.8396 5.7501C17.0796 5.4101 17.5496 5.3301 17.8796 5.5601C20.1196 7.1101 21.5596 9.5501 21.8496 12.2401C21.8896 12.6501 21.5996 13.0201 21.1796 13.0701C21.1696 13.0701 21.1396 13.0701 21.1196 13.0701Z" fill="#374151"/>
<path d="M3.98991 13.12C3.95991 13.12 3.93991 13.12 3.90991 13.12C3.49991 13.07 3.19991 12.7 3.23991 12.29C3.50991 9.60001 4.93991 7.17001 7.14991 5.60001C7.48991 5.36001 7.95991 5.44001 8.19991 5.78001C8.43991 6.12001 8.35991 6.59001 8.01991 6.83001C6.15991 8.14001 4.95991 10.19 4.72991 12.45C4.69991 12.83 4.36991 13.12 3.98991 13.12Z" fill="#374151"/>
<path d="M12.56 22.61C11.08 22.61 9.66997 22.27 8.34997 21.61C7.97997 21.42 7.82997 20.97 8.01997 20.6C8.20997 20.23 8.65997 20.08 9.02997 20.27C11.19 21.36 13.79 21.38 15.97 20.33C16.34 20.15 16.79 20.31 16.97 20.68C17.15 21.05 16.99 21.5 16.62 21.68C15.34 22.3 13.98 22.61 12.56 22.61Z" fill="#374151"/>
<path d="M12.5593 8.43988C10.6093 8.43988 9.0293 6.85988 9.0293 4.90988C9.0293 2.95988 10.6093 1.37988 12.5593 1.37988C14.5093 1.37988 16.0893 2.95988 16.0893 4.90988C16.0893 6.85988 14.4993 8.43988 12.5593 8.43988ZM12.5593 2.88988C11.4393 2.88988 10.5293 3.79988 10.5293 4.91988C10.5293 6.03988 11.4393 6.94988 12.5593 6.94988C13.6793 6.94988 14.5893 6.03988 14.5893 4.91988C14.5893 3.79988 13.6693 2.88988 12.5593 2.88988Z" fill="#374151"/>
<path d="M5.33078 20.6701C3.38078 20.6701 1.80078 19.0901 1.80078 17.1401C1.80078 15.2001 3.38078 13.6101 5.33078 13.6101C7.28078 13.6101 8.86078 15.1901 8.86078 17.1401C8.86078 19.0801 7.28078 20.6701 5.33078 20.6701ZM5.33078 15.1101C4.21078 15.1101 3.30078 16.0201 3.30078 17.1401C3.30078 18.2601 4.21078 19.1701 5.33078 19.1701C6.45078 19.1701 7.36078 18.2601 7.36078 17.1401C7.36078 16.0201 6.45078 15.1101 5.33078 15.1101Z" fill="#374151"/>
<path d="M19.6706 20.6701C17.7206 20.6701 16.1406 19.0901 16.1406 17.1401C16.1406 15.2001 17.7206 13.6101 19.6706 13.6101C21.6206 13.6101 23.2006 15.1901 23.2006 17.1401C23.1906 19.0801 21.6106 20.6701 19.6706 20.6701ZM19.6706 15.1101C18.5506 15.1101 17.6406 16.0201 17.6406 17.1401C17.6406 18.2601 18.5506 19.1701 19.6706 19.1701C20.7906 19.1701 21.7006 18.2601 21.7006 17.1401C21.6906 16.0201 20.7906 15.1101 19.6706 15.1101Z" fill="#374151"/>
</g>
</g>
<defs>
<filter id="filter0_i_8916_5636" x="0.5" y="0" width="24" height="25" filterUnits="userSpaceOnUse" color-interpolation-filters="sRGB">
<feFlood flood-opacity="0" result="BackgroundImageFix"/>
<feBlend mode="normal" in="SourceGraphic" in2="BackgroundImageFix" result="shape"/>
<feColorMatrix in="SourceAlpha" type="matrix" values="0 0 0 0 0 0 0 0 0 0 0 0 0 0 0 0 0 0 127 0" result="hardAlpha"/>
<feOffset dy="1"/>
<feGaussianBlur stdDeviation="0.5"/>
<feComposite in2="hardAlpha" operator="arithmetic" k2="-1" k3="1"/>
<feColorMatrix type="matrix" values="0 0 0 0 0 0 0 0 0 0 0 0 0 0 0 0 0 0 0.25 0"/>
<feBlend mode="normal" in2="shape" result="effect1_innerShadow_8916_5636"/>
</filter>
<filter id="filter1_i_8916_5636" x="1.80078" y="1.37988" width="21.4004" height="22.23" filterUnits="userSpaceOnUse" color-interpolation-filters="sRGB">
<feFlood flood-opacity="0" result="BackgroundImageFix"/>
<feBlend mode="normal" in="SourceGraphic" in2="BackgroundImageFix" result="shape"/>
<feColorMatrix in="SourceAlpha" type="matrix" values="0 0 0 0 0 0 0 0 0 0 0 0 0 0 0 0 0 0 127 0" result="hardAlpha"/>
<feOffset dy="1"/>
<feGaussianBlur stdDeviation="0.5"/>
<feComposite in2="hardAlpha" operator="arithmetic" k2="-1" k3="1"/>
<feColorMatrix type="matrix" values="0 0 0 0 0 0 0 0 0 0 0 0 0 0 0 0 0 0 0.25 0"/>
<feBlend mode="normal" in2="shape" result="effect1_innerShadow_8916_5636"/>
</filter>
</defs>
</svg>
