<svg width="25" height="24" viewBox="0 0 25 24" fill="none" xmlns="http://www.w3.org/2000/svg">
<path d="M20.5447 12.7296C20.1747 12.7296 19.8647 12.4496 19.8247 12.0796C19.5847 9.87958 18.4047 7.89958 16.5847 6.63958C16.2547 6.40958 16.1747 5.95958 16.4047 5.62958C16.6347 5.29958 17.0847 5.21958 17.4147 5.44958C19.5847 6.95958 20.9847 9.31958 21.2747 11.9296C21.3147 12.3296 21.0247 12.6896 20.6247 12.7296C20.5947 12.7296 20.5747 12.7296 20.5447 12.7296Z" fill="#5B21B6"/>
<path d="M3.92291 12.7792C3.90291 12.7792 3.87291 12.7792 3.85291 12.7792C3.45291 12.7392 3.16291 12.3792 3.20291 11.9792C3.47291 9.36922 4.85291 7.00922 7.00291 5.48922C7.32291 5.25922 7.78291 5.33922 8.01291 5.65922C8.24291 5.98922 8.16291 6.43922 7.84291 6.66922C6.04291 7.94922 4.87291 9.92922 4.65291 12.1192C4.61291 12.4992 4.29291 12.7792 3.92291 12.7792Z" fill="#5B21B6"/>
<path d="M16.1722 21.1003C14.9422 21.6903 13.6222 21.9903 12.2422 21.9903C10.8022 21.9903 9.43223 21.6703 8.15223 21.0203C7.79223 20.8503 7.65223 20.4103 7.83223 20.0503C8.00223 19.6903 8.44223 19.5503 8.80223 19.7203C9.43223 20.0403 10.1022 20.2603 10.7822 20.3903C11.7022 20.5703 12.6422 20.5803 13.5622 20.4203C14.2422 20.3003 14.9122 20.0903 15.5322 19.7903C15.9022 19.6203 16.3422 19.7603 16.5022 20.1303C16.6822 20.4903 16.5422 20.9303 16.1722 21.1003Z" fill="#5B21B6"/>
<path d="M12.2341 2.00977C10.6841 2.00977 9.41406 3.26977 9.41406 4.82977C9.41406 6.38977 10.6741 7.64977 12.2341 7.64977C13.7941 7.64977 15.0541 6.38977 15.0541 4.82977C15.0541 3.26977 13.7941 2.00977 12.2341 2.00977Z" fill="#5B21B6"/>
<path d="M5.23406 13.8691C3.68406 13.8691 2.41406 15.1291 2.41406 16.6891C2.41406 18.2491 3.67406 19.5091 5.23406 19.5091C6.79406 19.5091 8.05406 18.2491 8.05406 16.6891C8.05406 15.1291 6.78406 13.8691 5.23406 13.8691Z" fill="#5B21B6"/>
<path d="M19.1325 13.8691C17.5825 13.8691 16.3125 15.1291 16.3125 16.6891C16.3125 18.2491 17.5725 19.5091 19.1325 19.5091C20.6925 19.5091 21.9525 18.2491 21.9525 16.6891C21.9525 15.1291 20.6925 13.8691 19.1325 13.8691Z" fill="#5B21B6"/>
</svg>
