<svg width="24" height="25" viewBox="0 0 24 25" fill="none" xmlns="http://www.w3.org/2000/svg">
<g filter="url(#filter0_i_826_11570)">
<path d="M20.6201 13.5983C20.2401 13.5983 19.9201 13.3083 19.8701 12.9283C19.6301 10.6683 18.4101 8.6183 16.5301 7.3183C16.1901 7.0783 16.1101 6.6183 16.3401 6.2783C16.5801 5.9383 17.0501 5.8583 17.3801 6.0883C19.6201 7.6383 21.0601 10.0783 21.3501 12.7683C21.3901 13.1783 21.1001 13.5483 20.6801 13.5983C20.6701 13.5983 20.6401 13.5983 20.6201 13.5983Z" fill="#6D28D9"/>
<path d="M3.48991 13.6483C3.45991 13.6483 3.43991 13.6483 3.40991 13.6483C2.99991 13.5983 2.69991 13.2283 2.73991 12.8183C3.00991 10.1283 4.43991 7.69833 6.64991 6.12833C6.98991 5.88833 7.45991 5.96833 7.69991 6.30833C7.93991 6.64833 7.85991 7.11833 7.51991 7.35833C5.65991 8.66833 4.45991 10.7183 4.22991 12.9783C4.19991 13.3583 3.86991 13.6483 3.48991 13.6483Z" fill="#6D28D9"/>
<path d="M12.06 23.1383C10.58 23.1383 9.16997 22.7983 7.84997 22.1383C7.47997 21.9483 7.32997 21.4983 7.51997 21.1283C7.70997 20.7583 8.15997 20.6083 8.52997 20.7983C10.69 21.8883 13.29 21.9083 15.47 20.8583C15.84 20.6783 16.29 20.8383 16.47 21.2083C16.65 21.5783 16.49 22.0283 16.12 22.2083C14.84 22.8283 13.48 23.1383 12.06 23.1383Z" fill="#6D28D9"/>
<path d="M12.0598 8.96832C10.1098 8.96832 8.52979 7.38832 8.52979 5.43832C8.52979 3.48832 10.1098 1.90833 12.0598 1.90833C14.0098 1.90833 15.5898 3.48832 15.5898 5.43832C15.5898 7.38832 13.9998 8.96832 12.0598 8.96832ZM12.0598 3.41833C10.9398 3.41833 10.0298 4.32833 10.0298 5.44833C10.0298 6.56833 10.9398 7.47832 12.0598 7.47832C13.1798 7.47832 14.0898 6.56833 14.0898 5.44833C14.0898 4.32833 13.1698 3.41833 12.0598 3.41833Z" fill="#6D28D9"/>
<path d="M4.8298 21.1983C2.8798 21.1983 1.2998 19.6183 1.2998 17.6683C1.2998 15.7283 2.8798 14.1383 4.8298 14.1383C6.7798 14.1383 8.3598 15.7183 8.3598 17.6683C8.3598 19.6083 6.7798 21.1983 4.8298 21.1983ZM4.8298 15.6383C3.7098 15.6383 2.7998 16.5483 2.7998 17.6683C2.7998 18.7883 3.7098 19.6983 4.8298 19.6983C5.9498 19.6983 6.85981 18.7883 6.85981 17.6683C6.85981 16.5483 5.9498 15.6383 4.8298 15.6383Z" fill="#6D28D9"/>
<path d="M19.1701 21.1983C17.2201 21.1983 15.6401 19.6183 15.6401 17.6683C15.6401 15.7283 17.2201 14.1383 19.1701 14.1383C21.1201 14.1383 22.7001 15.7183 22.7001 17.6683C22.6901 19.6083 21.1101 21.1983 19.1701 21.1983ZM19.1701 15.6383C18.0501 15.6383 17.1401 16.5483 17.1401 17.6683C17.1401 18.7883 18.0501 19.6983 19.1701 19.6983C20.2901 19.6983 21.2001 18.7883 21.2001 17.6683C21.1901 16.5483 20.2901 15.6383 19.1701 15.6383Z" fill="#6D28D9"/>
</g>
<defs>
<filter id="filter0_i_826_11570" x="0" y="0.52832" width="24" height="25" filterUnits="userSpaceOnUse" color-interpolation-filters="sRGB">
<feFlood flood-opacity="0" result="BackgroundImageFix"/>
<feBlend mode="normal" in="SourceGraphic" in2="BackgroundImageFix" result="shape"/>
<feColorMatrix in="SourceAlpha" type="matrix" values="0 0 0 0 0 0 0 0 0 0 0 0 0 0 0 0 0 0 127 0" result="hardAlpha"/>
<feOffset dy="1"/>
<feGaussianBlur stdDeviation="0.5"/>
<feComposite in2="hardAlpha" operator="arithmetic" k2="-1" k3="1"/>
<feColorMatrix type="matrix" values="0 0 0 0 0 0 0 0 0 0 0 0 0 0 0 0 0 0 0.21 0"/>
<feBlend mode="normal" in2="shape" result="effect1_innerShadow_826_11570"/>
</filter>
</defs>
</svg>
