<svg width="24" height="25" viewBox="0 0 24 25" fill="none" xmlns="http://www.w3.org/2000/svg">
<path d="M12 23.2498C11.3 23.2498 10.59 22.9797 10.06 22.4497L8.35001 20.7598C7.92001 20.3398 7.35999 20.1097 6.75999 20.1097H6C3.93 20.1097 2.25 18.4398 2.25 16.3898V5.47974C2.25 3.42974 3.93 1.75977 6 1.75977H18C20.07 1.75977 21.75 3.42974 21.75 5.47974V16.3898C21.75 18.4398 20.07 20.1097 18 20.1097H17.24C16.64 20.1097 16.07 20.3398 15.65 20.7598L13.94 22.4497C13.41 22.9797 12.7 23.2498 12 23.2498ZM6 3.24976C4.76 3.24976 3.75 4.24973 3.75 5.46973V16.3798C3.75 17.6098 4.76 18.5997 6 18.5997H6.75999C7.75999 18.5997 8.7 18.9897 9.41 19.6897L11.12 21.3798C11.61 21.8598 12.4 21.8598 12.89 21.3798L14.6 19.6897C15.31 18.9897 16.25 18.5997 17.25 18.5997H18C19.24 18.5997 20.25 17.5998 20.25 16.3798V5.46973C20.25 4.23973 19.24 3.24976 18 3.24976H6Z" fill="#5B21B6"/>
<path d="M10.3802 15.011H7.70023C7.26023 15.011 6.85023 14.8009 6.59023 14.4409C6.34023 14.1009 6.28022 13.681 6.40022 13.281C6.75022 12.211 7.61022 11.631 8.37022 11.111C9.17022 10.571 9.62022 10.231 9.62022 9.651C9.62022 9.131 9.20022 8.71094 8.68022 8.71094C8.16022 8.71094 7.74023 9.131 7.74023 9.651C7.74023 10.061 7.40023 10.401 6.99023 10.401C6.58023 10.401 6.24023 10.061 6.24023 9.651C6.24023 8.311 7.33022 7.21094 8.68022 7.21094C10.0302 7.21094 11.1202 8.301 11.1202 9.651C11.1202 11.061 10.0602 11.781 9.21024 12.361C8.68024 12.721 8.18022 13.061 7.93022 13.511H10.3702C10.7802 13.511 11.1202 13.851 11.1202 14.261C11.1202 14.671 10.7902 15.011 10.3802 15.011Z" fill="#5B21B6"/>
<path d="M16.0389 15.0109C15.6289 15.0109 15.2889 14.6709 15.2889 14.2609V13.5709H13.3289C13.3289 13.5709 13.3289 13.5709 13.3189 13.5709C12.8289 13.5709 12.3789 13.3109 12.1289 12.8909C11.8789 12.4609 11.8789 11.9309 12.1289 11.5109C12.8089 10.3409 13.5989 9.01089 14.3189 7.85089C14.6389 7.34089 15.2489 7.11093 15.8189 7.27093C16.3889 7.44093 16.7889 7.96097 16.7789 8.56097V12.0809H16.9989C17.4089 12.0809 17.7489 12.4209 17.7489 12.8309C17.7489 13.2409 17.4089 13.5809 16.9989 13.5809H16.7889V14.2709C16.7889 14.6809 16.4589 15.0109 16.0389 15.0109ZM15.2889 9.14093C14.6989 10.1009 14.0889 11.1309 13.5389 12.0709H15.2889V9.14093Z" fill="#5B21B6"/>
</svg>
