<svg width="24" height="25" viewBox="0 0 24 25" fill="none" xmlns="http://www.w3.org/2000/svg">
<path d="M8 22.8194C7.72 22.8194 7.42998 22.7494 7.16998 22.6094C6.59998 22.3094 6.25 21.7094 6.25 21.0694V19.6495C3.23 19.3395 1.25 17.1194 1.25 13.9394V7.93945C1.25 4.49945 3.56 2.18945 7 2.18945H17C20.44 2.18945 22.75 4.49945 22.75 7.93945V13.9394C22.75 17.3794 20.44 19.6894 17 19.6894H13.23L8.96997 22.5295C8.67997 22.7195 8.34 22.8194 8 22.8194ZM7 3.67944C4.42 3.67944 2.75 5.34944 2.75 7.92944V13.9295C2.75 16.5095 4.42 18.1795 7 18.1795C7.41 18.1795 7.75 18.5195 7.75 18.9295V21.0595C7.75 21.1895 7.83 21.2495 7.88 21.2795C7.93001 21.3095 8.03001 21.3395 8.14001 21.2695L12.59 18.3095C12.71 18.2295 12.86 18.1795 13.01 18.1795H17.01C19.59 18.1795 21.26 16.5095 21.26 13.9295V7.92944C21.26 5.34944 19.59 3.67944 17.01 3.67944H7Z" fill="#94A3B8"/>
<path d="M11.9998 12.6104C11.5898 12.6104 11.2498 12.2704 11.2498 11.8604V11.6504C11.2498 10.4904 12.0998 9.92038 12.4198 9.70038C12.7898 9.45038 12.9098 9.28039 12.9098 9.02039C12.9098 8.52039 12.4998 8.11035 11.9998 8.11035C11.4998 8.11035 11.0898 8.52039 11.0898 9.02039C11.0898 9.43039 10.7498 9.77039 10.3398 9.77039C9.92984 9.77039 9.58984 9.43039 9.58984 9.02039C9.58984 7.69039 10.6698 6.61035 11.9998 6.61035C13.3298 6.61035 14.4098 7.69039 14.4098 9.02039C14.4098 10.1604 13.5698 10.7304 13.2598 10.9404C12.8698 11.2004 12.7498 11.3704 12.7498 11.6504V11.8604C12.7498 12.2804 12.4098 12.6104 11.9998 12.6104Z" fill="#94A3B8"/>
<path d="M12 15.0996C11.58 15.0996 11.25 14.7596 11.25 14.3496C11.25 13.9396 11.59 13.5996 12 13.5996C12.41 13.5996 12.75 13.9396 12.75 14.3496C12.75 14.7596 12.42 15.0996 12 15.0996Z" fill="#94A3B8"/>
</svg>
