<svg width="24" height="25" viewBox="0 0 24 25" fill="none" xmlns="http://www.w3.org/2000/svg">
<path d="M12.0004 23.2595C10.9104 23.2595 9.83039 22.9395 8.98039 22.3095L4.68039 19.0995C3.54039 18.2495 2.65039 16.4695 2.65039 15.0595V7.61945C2.65039 6.07945 3.78039 4.43945 5.23039 3.89945L10.2204 2.02945C11.2104 1.65945 12.7704 1.65945 13.7604 2.02945L18.7504 3.89945C20.2004 4.43945 21.3304 6.07945 21.3304 7.61945V15.0495C21.3304 16.4695 20.4404 18.2395 19.3004 19.0895L15.0004 22.2995C14.1704 22.9395 13.0904 23.2595 12.0004 23.2595ZM10.7504 3.43945L5.76039 5.30945C4.91039 5.62945 4.16039 6.70945 4.16039 7.62945V15.0595C4.16039 16.0095 4.83039 17.3395 5.58039 17.8995L9.88039 21.1095C11.0304 21.9695 12.9704 21.9695 14.1304 21.1095L18.4304 17.8995C19.1904 17.3295 19.8504 16.0095 19.8504 15.0595V7.61945C19.8504 6.70945 19.1004 5.62945 18.2504 5.29945L13.2604 3.42945C12.5804 3.18945 11.4204 3.18945 10.7504 3.43945Z" fill="#5B21B6"/>
<path d="M10.6602 14.7291C10.4702 14.7291 10.2802 14.6591 10.1302 14.5091L8.52023 12.8991C8.23023 12.6091 8.23023 12.1291 8.52023 11.8391C8.81023 11.5491 9.29023 11.5491 9.58023 11.8391L10.6602 12.9191L14.4302 9.14914C14.7202 8.85914 15.2002 8.85914 15.4902 9.14914C15.7802 9.43914 15.7802 9.91914 15.4902 10.2091L11.1902 14.5091C11.0402 14.6591 10.8502 14.7291 10.6602 14.7291Z" fill="#5B21B6"/>
</svg>
