<svg width="57" height="57" viewBox="0 0 57 57" fill="none" xmlns="http://www.w3.org/2000/svg">
<path d="M28.5013 53.3327C14.6646 53.3327 3.41797 42.086 3.41797 28.2493C3.41797 14.4127 14.6646 3.16602 28.5013 3.16602C42.338 3.16602 53.5846 14.4127 53.5846 28.2493C53.5846 42.086 42.338 53.3327 28.5013 53.3327ZM28.5013 6.66602C16.6013 6.66602 6.91797 16.3493 6.91797 28.2493C6.91797 40.1493 16.6013 49.8327 28.5013 49.8327C40.4013 49.8327 50.0846 40.1493 50.0846 28.2493C50.0846 16.3493 40.4013 6.66602 28.5013 6.66602Z" fill="#16A34A"/>
<path d="M25.1873 36.6031C24.7207 36.6031 24.2773 36.4164 23.9507 36.0897L17.3473 29.4864C16.6707 28.8097 16.6707 27.6897 17.3473 27.0131C18.024 26.3364 19.144 26.3364 19.8207 27.0131L25.1873 32.3797L37.1807 20.3864C37.8573 19.7097 38.9773 19.7097 39.654 20.3864C40.3307 21.0631 40.3307 22.1831 39.654 22.8597L26.424 36.0897C26.0973 36.4164 25.654 36.6031 25.1873 36.6031Z" fill="#16A34A"/>
</svg>
