<svg width="24" height="25" viewBox="0 0 24 25" fill="none" xmlns="http://www.w3.org/2000/svg">
<path d="M12 22.7603C6.07 22.7603 1.25 17.9403 1.25 12.0103C1.25 6.08025 6.07 1.26025 12 1.26025C17.93 1.26025 22.75 6.08025 22.75 12.0103C22.75 17.9403 17.93 22.7603 12 22.7603ZM12 2.76025C6.9 2.76025 2.75 6.91025 2.75 12.0103C2.75 17.1103 6.9 21.2603 12 21.2603C17.1 21.2603 21.25 17.1103 21.25 12.0103C21.25 6.91025 17.1 2.76025 12 2.76025Z" fill="#6D28D9"/>
<path d="M10.5804 15.5904C10.3804 15.5904 10.1904 15.5104 10.0504 15.3704L7.22043 12.5404C6.93043 12.2504 6.93043 11.7704 7.22043 11.4804C7.51043 11.1904 7.99043 11.1904 8.28043 11.4804L10.5804 13.7804L15.7204 8.64035C16.0104 8.35035 16.4904 8.35035 16.7804 8.64035C17.0704 8.93035 17.0704 9.41035 16.7804 9.70035L11.1104 15.3704C10.9704 15.5104 10.7804 15.5904 10.5804 15.5904Z" fill="#6D28D9"/>
</svg>
