<svg width="28" height="28" viewBox="0 0 28 28" fill="none" xmlns="http://www.w3.org/2000/svg">
<path d="M17.2532 22.6567C17.1248 22.6567 16.9849 22.6217 16.8682 22.5634C16.4365 22.3417 16.2615 21.8167 16.4715 21.385L18.9682 16.4034C19.1199 16.1117 19.4232 15.925 19.7498 15.925C20.0765 15.925 20.3799 16.1117 20.5315 16.415L23.0282 21.3967C23.2499 21.8284 23.0749 22.3533 22.6315 22.575C22.1999 22.7967 21.6749 22.6217 21.4532 22.1784L19.7498 18.76L18.0465 22.1784C17.8832 22.4817 17.5682 22.6567 17.2532 22.6567Z" fill="#5B21B6"/>
<path d="M21.7942 21.7699H17.6875C17.2092 21.7699 16.8125 21.3732 16.8125 20.8949C16.8125 20.4166 17.2092 20.0199 17.6875 20.0199H21.7942C22.2725 20.0199 22.6692 20.4166 22.6692 20.8949C22.6692 21.3732 22.2842 21.7699 21.7942 21.7699Z" fill="#5B21B6"/>
<path d="M19.7392 26.5417C15.9942 26.5417 12.9375 23.4967 12.9375 19.74C12.9375 15.9834 15.9825 12.9384 19.7392 12.9384C23.4842 12.9384 26.5408 15.9834 26.5408 19.74C26.5408 23.4967 23.4958 26.5417 19.7392 26.5417ZM19.7392 14.7C16.9508 14.7 14.6875 16.9634 14.6875 19.7517C14.6875 22.54 16.9508 24.8034 19.7392 24.8034C22.5158 24.8034 24.7908 22.54 24.7908 19.7517C24.7908 16.9634 22.5275 14.7 19.7392 14.7Z" fill="#5B21B6"/>
<path d="M5.6687 14.8167C4.3737 14.8167 3.34703 14.455 2.6237 13.755C1.8537 13.0083 1.45703 11.8767 1.45703 10.4183V5.84501C1.45703 3.01001 3.02037 1.44666 5.85537 1.44666H10.4287C11.887 1.44666 13.007 1.83166 13.7654 2.61332C14.5004 3.37166 14.862 4.46837 14.827 5.86837V10.4183C14.862 11.8417 14.5004 12.9617 13.742 13.72C12.9837 14.4783 11.8637 14.8283 10.417 14.805H5.86703C5.78536 14.8167 5.72703 14.8167 5.6687 14.8167ZM5.85537 3.20833C3.97704 3.20833 3.20703 3.97836 3.20703 5.85669V10.43C3.20703 11.3983 3.41702 12.0983 3.83702 12.5066C4.24536 12.9033 4.8987 13.0783 5.82037 13.0667H10.417C11.397 13.09 12.0737 12.8917 12.482 12.4833C12.8904 12.075 13.077 11.3867 13.0537 10.4417V5.84501C13.077 4.91168 12.8904 4.24664 12.4937 3.83831C12.0854 3.41831 11.3854 3.20833 10.417 3.20833H5.85537V3.20833Z" fill="#5B21B6"/>
<path d="M10.5023 7.69983H5.76563C5.28729 7.69983 4.89062 7.30316 4.89062 6.82483C4.89062 6.3465 5.28729 5.94983 5.76563 5.94983H10.5023C10.9806 5.94983 11.3773 6.3465 11.3773 6.82483C11.3773 7.30316 10.9923 7.69983 10.5023 7.69983Z" fill="#5B21B6"/>
<path d="M8.14453 7.69988C7.6662 7.69988 7.26953 7.30321 7.26953 6.82488V6.03156C7.26953 5.55322 7.6662 5.15656 8.14453 5.15656C8.62286 5.15656 9.01953 5.55322 9.01953 6.03156V6.82488C9.01953 7.30321 8.62286 7.69988 8.14453 7.69988Z" fill="#5B21B6"/>
<path d="M5.76563 11.3866C5.28729 11.3866 4.89062 10.9899 4.89062 10.5116C4.89062 10.0333 5.28729 9.63661 5.76563 9.63661C7.24729 9.63661 8.44896 8.37663 8.44896 6.81329C8.44896 6.33496 8.84563 5.93829 9.32396 5.93829C9.8023 5.93829 10.199 6.33496 10.199 6.81329C10.199 9.33329 8.21563 11.3866 5.76563 11.3866Z" fill="#5B21B6"/>
<path d="M10.5141 11.3866C9.42911 11.3866 8.39078 10.8383 7.65578 9.86997C7.36412 9.48497 7.44579 8.93658 7.83079 8.64491C8.21579 8.35325 8.76411 8.43494 9.05578 8.81994C9.45245 9.35661 9.97745 9.6483 10.5141 9.6483C10.9924 9.6483 11.3891 10.045 11.3891 10.5233C11.3891 11.0016 10.9924 11.3866 10.5141 11.3866Z" fill="#5B21B6"/>
<path d="M10.4987 26.5417C5.51703 26.5417 1.45703 22.4817 1.45703 17.5C1.45703 17.0217 1.8537 16.625 2.33203 16.625C2.81036 16.625 3.20703 17.0217 3.20703 17.5C3.20703 20.9533 5.61037 23.8467 8.84203 24.605L8.52703 24.08C8.28203 23.66 8.41037 23.1233 8.83037 22.8783C9.23871 22.6333 9.78704 22.7617 10.032 23.1817L11.257 25.2233C11.4204 25.4917 11.4204 25.83 11.2687 26.0983C11.1054 26.3667 10.8137 26.5417 10.4987 26.5417Z" fill="#5B21B6"/>
<path d="M25.6662 11.375C25.1879 11.375 24.7912 10.9783 24.7912 10.5C24.7912 7.04665 22.3879 4.15328 19.1562 3.39495L19.4712 3.91996C19.7162 4.33996 19.5878 4.87666 19.1678 5.12166C18.7595 5.36666 18.2112 5.23832 17.9662 4.81832L16.7412 2.77665C16.5779 2.50832 16.5778 2.16999 16.7295 1.90165C16.8812 1.62165 17.1729 1.45831 17.4879 1.45831C22.4695 1.45831 26.5295 5.51831 26.5295 10.5C26.5412 10.9783 26.1445 11.375 25.6662 11.375Z" fill="#5B21B6"/>
</svg>
