<svg width="25" height="24" viewBox="0 0 25 24" fill="none" xmlns="http://www.w3.org/2000/svg">
<path d="M21.2502 6.72998C21.2302 6.72998 21.2002 6.72998 21.1702 6.72998C15.8802 6.19998 10.6002 5.99998 5.37016 6.52998L3.33016 6.72998C2.91016 6.76998 2.54016 6.46998 2.50016 6.04998C2.46016 5.62998 2.76016 5.26998 3.17016 5.22998L5.21016 5.02998C10.5302 4.48998 15.9202 4.69998 21.3202 5.22998C21.7302 5.26998 22.0302 5.63998 21.9902 6.04998C21.9602 6.43998 21.6302 6.72998 21.2502 6.72998Z" fill="#6D28D9"/>
<path d="M8.74977 5.72C8.70977 5.72 8.66977 5.72 8.61977 5.71C8.21977 5.64 7.93977 5.25 8.00977 4.85L8.22977 3.54C8.38977 2.58 8.60977 1.25 10.9398 1.25H13.5598C15.8998 1.25 16.1198 2.63 16.2698 3.55L16.4898 4.85C16.5598 5.26 16.2798 5.65 15.8798 5.71C15.4698 5.78 15.0798 5.5 15.0198 5.1L14.7998 3.8C14.6598 2.93 14.6298 2.76 13.5698 2.76H10.9498C9.88977 2.76 9.86977 2.9 9.71977 3.79L9.48977 5.09C9.42977 5.46 9.10977 5.72 8.74977 5.72Z" fill="#6D28D9"/>
<path d="M15.4599 22.7501H9.0399C5.5499 22.7501 5.4099 20.8201 5.2999 19.2601L4.6499 9.19007C4.6199 8.78007 4.9399 8.42008 5.3499 8.39008C5.7699 8.37008 6.1199 8.68008 6.1499 9.09008L6.7999 19.1601C6.9099 20.6801 6.9499 21.2501 9.0399 21.2501H15.4599C17.5599 21.2501 17.5999 20.6801 17.6999 19.1601L18.3499 9.09008C18.3799 8.68008 18.7399 8.37008 19.1499 8.39008C19.5599 8.42008 19.8799 8.77007 19.8499 9.19007L19.1999 19.2601C19.0899 20.8201 18.9499 22.7501 15.4599 22.7501Z" fill="#6D28D9"/>
<path d="M13.9101 17.25H10.5801C10.1701 17.25 9.83008 16.91 9.83008 16.5C9.83008 16.09 10.1701 15.75 10.5801 15.75H13.9101C14.3201 15.75 14.6601 16.09 14.6601 16.5C14.6601 16.91 14.3201 17.25 13.9101 17.25Z" fill="#6D28D9"/>
<path d="M14.75 13.25H9.75C9.34 13.25 9 12.91 9 12.5C9 12.09 9.34 11.75 9.75 11.75H14.75C15.16 11.75 15.5 12.09 15.5 12.5C15.5 12.91 15.16 13.25 14.75 13.25Z" fill="#6D28D9"/>
</svg>
