<svg width="21" height="21" viewBox="0 0 21 21" fill="none" xmlns="http://www.w3.org/2000/svg">
<g filter="url(#filter0_i_869_3961)">
<path d="M18.1973 5.97204C18.1807 5.97204 18.1557 5.97204 18.1307 5.97204C13.7223 5.53038 9.32232 5.36371 4.96398 5.80538L3.26398 5.97204C2.91398 6.00538 2.60565 5.75538 2.57232 5.40538C2.53898 5.05538 2.78898 4.75538 3.13065 4.72204L4.83065 4.55538C9.26398 4.10538 13.7557 4.28038 18.2557 4.72204C18.5973 4.75538 18.8473 5.06371 18.814 5.40538C18.789 5.73038 18.514 5.97204 18.1973 5.97204Z" fill="#94A3B8"/>
<path d="M7.78065 5.1304C7.74731 5.1304 7.71398 5.1304 7.67231 5.12206C7.33898 5.06373 7.10565 4.73873 7.16398 4.4054L7.34731 3.31373C7.48065 2.51373 7.66398 1.4054 9.60565 1.4054H11.789C13.739 1.4054 13.9223 2.5554 14.0473 3.32206L14.2306 4.4054C14.289 4.74706 14.0556 5.07206 13.7223 5.12206C13.3806 5.1804 13.0556 4.94706 13.0056 4.61373L12.8223 3.5304C12.7056 2.8054 12.6806 2.66373 11.7973 2.66373H9.61398C8.73065 2.66373 8.71398 2.7804 8.58898 3.52206L8.39731 4.6054C8.34731 4.91373 8.08065 5.1304 7.78065 5.1304Z" fill="#94A3B8"/>
<path d="M13.3723 19.322H8.02226C5.11393 19.322 4.99726 17.7137 4.9056 16.4137L4.36393 8.02204C4.33893 7.68038 4.6056 7.38038 4.94726 7.35538C5.29726 7.33871 5.58893 7.59704 5.61393 7.93871L6.1556 16.3304C6.24726 17.597 6.2806 18.072 8.02226 18.072H13.3723C15.1223 18.072 15.1556 17.597 15.2389 16.3304L15.7806 7.93871C15.8056 7.59704 16.1056 7.33871 16.4473 7.35538C16.7889 7.38038 17.0556 7.67204 17.0306 8.02204L16.4889 16.4137C16.3973 17.7137 16.2806 19.322 13.3723 19.322Z" fill="#94A3B8"/>
<path d="M12.0807 14.7387H9.30566C8.964 14.7387 8.68066 14.4554 8.68066 14.1137C8.68066 13.772 8.964 13.4887 9.30566 13.4887H12.0807C12.4223 13.4887 12.7057 13.772 12.7057 14.1137C12.7057 14.4554 12.4223 14.7387 12.0807 14.7387Z" fill="#94A3B8"/>
<path d="M12.7807 11.4054H8.61401C8.27235 11.4054 7.98901 11.1221 7.98901 10.7804C7.98901 10.4387 8.27235 10.1554 8.61401 10.1554H12.7807C13.1223 10.1554 13.4057 10.4387 13.4057 10.7804C13.4057 11.1221 13.1223 11.4054 12.7807 11.4054Z" fill="#94A3B8"/>
</g>
<defs>
<filter id="filter0_i_869_3961" x="0.697266" y="0.363708" width="20" height="21" filterUnits="userSpaceOnUse" color-interpolation-filters="sRGB">
<feFlood flood-opacity="0" result="BackgroundImageFix"/>
<feBlend mode="normal" in="SourceGraphic" in2="BackgroundImageFix" result="shape"/>
<feColorMatrix in="SourceAlpha" type="matrix" values="0 0 0 0 0 0 0 0 0 0 0 0 0 0 0 0 0 0 127 0" result="hardAlpha"/>
<feOffset dy="1"/>
<feGaussianBlur stdDeviation="1"/>
<feComposite in2="hardAlpha" operator="arithmetic" k2="-1" k3="1"/>
<feColorMatrix type="matrix" values="0 0 0 0 0.352941 0 0 0 0 0.396078 0 0 0 0 0.443137 0 0 0 1 0"/>
<feBlend mode="normal" in2="shape" result="effect1_innerShadow_869_3961"/>
</filter>
</defs>
</svg>
