<svg width="24" height="25" viewBox="0 0 24 25" fill="none" xmlns="http://www.w3.org/2000/svg">
<g filter="url(#filter0_i_10084_29178)">
<path d="M15 23.25H9C3.57 23.25 1.25 20.93 1.25 15.5V9.5C1.25 4.07 3.57 1.75 9 1.75H15C20.43 1.75 22.75 4.07 22.75 9.5V15.5C22.75 20.93 20.43 23.25 15 23.25ZM9 3.25C4.39 3.25 2.75 4.89 2.75 9.5V15.5C2.75 20.11 4.39 21.75 9 21.75H15C19.61 21.75 21.25 20.11 21.25 15.5V9.5C21.25 4.89 19.61 3.25 15 3.25H9Z" fill="#5B21B6"/>
<path d="M21.4795 8.35938H2.51953C2.10953 8.35938 1.76953 8.01937 1.76953 7.60938C1.76953 7.19938 2.09953 6.85938 2.51953 6.85938H21.4795C21.8895 6.85938 22.2295 7.19938 22.2295 7.60938C22.2295 8.01937 21.8995 8.35938 21.4795 8.35938Z" fill="#5B21B6"/>
<path d="M8.51953 8.21937C8.10953 8.21937 7.76953 7.87937 7.76953 7.46937V2.60937C7.76953 2.19937 8.10953 1.85938 8.51953 1.85938C8.92953 1.85938 9.26953 2.19937 9.26953 2.60937V7.46937C9.26953 7.87937 8.92953 8.21937 8.51953 8.21937Z" fill="#5B21B6"/>
<path d="M15.4805 7.76937C15.0705 7.76937 14.7305 7.42937 14.7305 7.01937V2.60937C14.7305 2.19937 15.0705 1.85938 15.4805 1.85938C15.8905 1.85938 16.2305 2.19937 16.2305 2.60937V7.01937C16.2305 7.43937 15.9005 7.76937 15.4805 7.76937Z" fill="#5B21B6"/>
<path d="M11.09 18.6193C10.73 18.6193 10.39 18.5293 10.08 18.3593C9.4 17.9593 9 17.1593 9 16.1493V13.7493C9 12.7393 9.4 11.9293 10.09 11.5293C10.78 11.1293 11.68 11.1893 12.55 11.6993L14.63 12.8993C15.5 13.3993 16.01 14.1493 16.01 14.9493C16.01 15.7493 15.5 16.4993 14.62 16.9993L12.54 18.1993C12.06 18.4793 11.56 18.6193 11.09 18.6193ZM11.1 12.7693C11 12.7693 10.91 12.7893 10.84 12.8293C10.63 12.9493 10.5 13.2893 10.5 13.7493V16.1493C10.5 16.5993 10.63 16.9393 10.84 17.0693C11.05 17.1893 11.41 17.1293 11.8 16.8993L13.88 15.6993C14.27 15.4693 14.51 15.1893 14.51 14.9493C14.51 14.7093 14.28 14.4293 13.88 14.1993L11.8 12.9993C11.54 12.8493 11.29 12.7693 11.1 12.7693Z" fill="#5B21B6"/>
</g>
<defs>
<filter id="filter0_i_10084_29178" x="0" y="0.5" width="24" height="25" filterUnits="userSpaceOnUse" color-interpolation-filters="sRGB">
<feFlood flood-opacity="0" result="BackgroundImageFix"/>
<feBlend mode="normal" in="SourceGraphic" in2="BackgroundImageFix" result="shape"/>
<feColorMatrix in="SourceAlpha" type="matrix" values="0 0 0 0 0 0 0 0 0 0 0 0 0 0 0 0 0 0 127 0" result="hardAlpha"/>
<feOffset dy="1"/>
<feGaussianBlur stdDeviation="0.5"/>
<feComposite in2="hardAlpha" operator="arithmetic" k2="-1" k3="1"/>
<feColorMatrix type="matrix" values="0 0 0 0 0.858824 0 0 0 0 0.882353 0 0 0 0 0.937255 0 0 0 0.21 0"/>
<feBlend mode="normal" in2="shape" result="effect1_innerShadow_10084_29178"/>
</filter>
</defs>
</svg>
