<svg width="24" height="25" viewBox="0 0 24 25" fill="none" xmlns="http://www.w3.org/2000/svg">
<path d="M12 12.75C8.83 12.75 6.25 10.17 6.25 7C6.25 3.83 8.83 1.25 12 1.25C15.17 1.25 17.75 3.83 17.75 7C17.75 10.17 15.17 12.75 12 12.75ZM12 2.75C9.66 2.75 7.75 4.66 7.75 7C7.75 9.34 9.66 11.25 12 11.25C14.34 11.25 16.25 9.34 16.25 7C16.25 4.66 14.34 2.75 12 2.75Z" fill="#5B21B6"/>
<path d="M22.637 20.1652C22.637 22.0811 21.082 23.636 19.1661 23.636C17.2502 23.636 16.0806 21.7062 16.0806 21.7062M16.0806 21.7062H17.6494M16.0806 21.7062V23.4416M15.6953 20.1652C15.6953 18.2493 17.2364 16.6943 19.1661 16.6943C21.4812 16.6943 22.637 18.6241 22.637 18.6241M22.637 18.6241V16.8887M22.637 18.6241H21.0959" stroke="#5B21B6" stroke-linecap="round" stroke-linejoin="round"/>
<path d="M3.41016 22.75C3.00016 22.75 2.66016 22.41 2.66016 22C2.66016 17.73 6.85018 14.25 12.0002 14.25C13.0902 14.25 14.1702 14.41 15.1802 14.71C15.5802 14.83 15.8002 15.25 15.6802 15.64C15.5602 16.04 15.1402 16.26 14.7502 16.14C13.8702 15.88 12.9502 15.74 12.0002 15.74C7.68018 15.74 4.16016 18.54 4.16016 21.99C4.16016 22.41 3.82016 22.75 3.41016 22.75Z" fill="#5B21B6"/>
</svg>
