<svg width="24" height="25" viewBox="0 0 24 25" fill="none" xmlns="http://www.w3.org/2000/svg">
<path d="M15 23.2783H9C3.57 23.2783 1.25 20.9583 1.25 15.5283V9.52832C1.25 4.09832 3.57 1.77832 9 1.77832H15C20.43 1.77832 22.75 4.09832 22.75 9.52832V15.5283C22.75 20.9583 20.43 23.2783 15 23.2783ZM9 3.27832C4.39 3.27832 2.75 4.91832 2.75 9.52832V15.5283C2.75 20.1383 4.39 21.7783 9 21.7783H15C19.61 21.7783 21.25 20.1383 21.25 15.5283V9.52832C21.25 4.91832 19.61 3.27832 15 3.27832H9Z" fill="#6D28D9"/>
<path d="M21.48 8.38831H2.52002C2.11002 8.38831 1.77002 8.04831 1.77002 7.63831C1.77002 7.22831 2.10002 6.88831 2.52002 6.88831H21.48C21.89 6.88831 22.23 7.22831 22.23 7.63831C22.23 8.04831 21.9 8.38831 21.48 8.38831Z" fill="#6D28D9"/>
<path d="M8.52002 8.24831C8.11002 8.24831 7.77002 7.90831 7.77002 7.49831V2.63831C7.77002 2.22831 8.11002 1.88831 8.52002 1.88831C8.93002 1.88831 9.27002 2.22831 9.27002 2.63831V7.49831C9.27002 7.90831 8.93002 8.24831 8.52002 8.24831Z" fill="#6D28D9"/>
<path d="M15.48 7.79831C15.07 7.79831 14.73 7.45831 14.73 7.04831V2.63831C14.73 2.22831 15.07 1.88831 15.48 1.88831C15.89 1.88831 16.23 2.22831 16.23 2.63831V7.04831C16.23 7.46831 15.9 7.79831 15.48 7.79831Z" fill="#6D28D9"/>
<path d="M11.09 18.6483C10.73 18.6483 10.39 18.5583 10.08 18.3883C9.4 17.9883 9 17.1883 9 16.1783V13.7783C9 12.7683 9.4 11.9583 10.09 11.5583C10.78 11.1583 11.68 11.2183 12.55 11.7283L14.63 12.9283C15.5 13.4283 16.01 14.1783 16.01 14.9783C16.01 15.7783 15.5 16.5283 14.62 17.0283L12.54 18.2283C12.06 18.5083 11.56 18.6483 11.09 18.6483ZM11.1 12.7983C11 12.7983 10.91 12.8183 10.84 12.8583C10.63 12.9783 10.5 13.3183 10.5 13.7783V16.1783C10.5 16.6283 10.63 16.9683 10.84 17.0983C11.05 17.2183 11.41 17.1583 11.8 16.9283L13.88 15.7283C14.27 15.4983 14.51 15.2183 14.51 14.9783C14.51 14.7383 14.28 14.4583 13.88 14.2283L11.8 13.0283C11.54 12.8783 11.29 12.7983 11.1 12.7983Z" fill="#6D28D9"/>
</svg>
