<svg width="24" height="24" viewBox="0 0 24 24" fill="none" xmlns="http://www.w3.org/2000/svg">
<g clip-path="url(#clip0_9098_5381)">
<path d="M13.812 0.609987C13.7535 0.562416 13.6849 0.528711 13.6115 0.511396C13.5381 0.494081 13.4617 0.493604 13.388 0.510002L0.388053 3.51C0.276996 3.53553 0.177987 3.59822 0.107421 3.68769C0.0368546 3.77716 -0.00103657 3.88805 2.15761e-05 4.002V21.002C6.59045e-05 21.1214 0.0428383 21.2369 0.120603 21.3275C0.198368 21.4181 0.30599 21.4779 0.424006 21.496L13.424 23.496C13.6969 23.538 13.9522 23.3508 13.9942 23.0779C13.998 23.0528 14 23.0274 14 23.0021V1.002C14.0002 0.926721 13.9834 0.852364 13.9509 0.784483C13.9183 0.716602 13.8709 0.656951 13.812 0.609987Z" fill="#1565C0"/>
<path d="M23.5 21.5019H13.5C13.2239 21.5019 13 21.2781 13 21.0019C13 20.7258 13.2239 20.5019 13.5 20.5019H23V3.50194H13.5C13.2239 3.50194 13 3.27806 13 3.00192C13 2.72578 13.2239 2.50195 13.5 2.50195H23.5C23.7761 2.50195 24 2.72583 24 3.00197V21.002C24 21.2781 23.7762 21.5019 23.5 21.5019Z" fill="#1565C0"/>
<path d="M8.50079 16.502C8.39234 16.5019 8.28688 16.4665 8.20029 16.4012C8.11371 16.3359 8.05071 16.2442 8.02079 16.14L6.50077 10.8219L4.98076 16.14C4.87097 16.4053 4.56685 16.5315 4.30144 16.4217C4.23827 16.3955 4.18087 16.3572 4.13253 16.3089C4.08419 16.2605 4.04586 16.2031 4.01972 16.14L2.01976 9.13997C1.93604 8.87682 2.08154 8.59566 2.34469 8.51194C2.60785 8.42822 2.88901 8.57372 2.97272 8.83688C2.97568 8.84616 2.97835 8.85554 2.98079 8.86496L4.50076 14.1819L6.02077 8.86397C6.13055 8.59862 6.43468 8.47247 6.70008 8.58226C6.76326 8.60839 6.82066 8.64672 6.869 8.69506C6.91734 8.7434 6.95567 8.8008 6.9818 8.86397L8.50079 14.182L10.0208 8.86501C10.0928 8.60185 10.3644 8.44683 10.6276 8.51879L10.6388 8.52197C10.9041 8.59801 11.0576 8.87462 10.9818 9.13997L8.98177 16.14C8.9518 16.2444 8.88864 16.3361 8.80186 16.4015C8.71509 16.4668 8.6094 16.5021 8.50079 16.502Z" fill="#FAFAFA"/>
<path d="M21.5 6.50198H13.5C13.2239 6.50198 13 6.27811 13 6.00197C13 5.72583 13.2239 5.50195 13.5 5.50195H21.5C21.7762 5.50195 22 5.72583 22 6.00197C22 6.27816 21.7762 6.50198 21.5 6.50198ZM21.5 9.50198H13.5C13.2239 9.50198 13 9.27811 13 9.00197C13 8.72583 13.2239 8.50195 13.5 8.50195H21.5C21.7762 8.50195 22 8.72583 22 9.00197C22 9.27811 21.7762 9.50198 21.5 9.50198ZM21.5 12.502H13.5C13.2239 12.502 13 12.2781 13 12.002C13 11.7258 13.2239 11.502 13.5 11.502H21.5C21.7762 11.502 22 11.7258 22 12.002C22 12.2782 21.7762 12.502 21.5 12.502ZM21.5 15.502H13.5C13.2239 15.502 13 15.2781 13 15.002C13 14.7258 13.2239 14.502 13.5 14.502H21.5C21.7762 14.502 22 14.7258 22 15.002C22 15.2782 21.7762 15.502 21.5 15.502ZM21.5 18.502H13.5C13.2239 18.502 13 18.2781 13 18.002C13 17.7258 13.2239 17.502 13.5 17.502H21.5C21.7762 17.502 22 17.7258 22 18.002C22 18.2782 21.7762 18.502 21.5 18.502Z" fill="#1565C0"/>
</g>
<defs>
<clipPath id="clip0_9098_5381">
<rect width="24" height="24" fill="white"/>
</clipPath>
</defs>
</svg>
