<svg width="24" height="25" viewBox="0 0 24 25" fill="none" xmlns="http://www.w3.org/2000/svg">
<g filter="url(#filter0_i_9739_55380)">
<path d="M15 23.25H9C3.57 23.25 1.25 20.93 1.25 15.5V9.5C1.25 4.07 3.57 1.75 9 1.75H15C20.43 1.75 22.75 4.07 22.75 9.5V15.5C22.75 20.93 20.43 23.25 15 23.25ZM9 3.25C4.39 3.25 2.75 4.89 2.75 9.5V15.5C2.75 20.11 4.39 21.75 9 21.75H15C19.61 21.75 21.25 20.11 21.25 15.5V9.5C21.25 4.89 19.61 3.25 15 3.25H9Z" fill="#5B21B6"/>
<path d="M8.68 15.8295C8.26 15.8295 7.87 15.7295 7.53 15.5395C6.7 15.0695 6.25 14.1395 6.25 12.9195V2.93945C6.25 2.52945 6.59 2.18945 7 2.18945C7.41 2.18945 7.75 2.52945 7.75 2.93945V12.9195C7.75 13.5695 7.94 14.0495 8.27 14.2295C8.62 14.4295 9.16 14.3295 9.75 13.9795L11.07 13.1895C11.61 12.8695 12.38 12.8695 12.92 13.1895L14.24 13.9795C14.84 14.3395 15.38 14.4295 15.72 14.2295C16.05 14.0395 16.24 13.5595 16.24 12.9195V2.93945C16.24 2.52945 16.58 2.18945 16.99 2.18945C17.4 2.18945 17.74 2.52945 17.74 2.93945V12.9195C17.74 14.1395 17.29 15.0695 16.46 15.5395C15.63 16.0095 14.54 15.9095 13.47 15.2695L12.15 14.4795C12.09 14.4395 11.9 14.4395 11.84 14.4795L10.52 15.2695C9.9 15.6395 9.26 15.8295 8.68 15.8295Z" fill="#5B21B6"/>
<path d="M15 23.25H9C3.57 23.25 1.25 20.93 1.25 15.5V9.5C1.25 4.07 3.57 1.75 9 1.75H15C20.43 1.75 22.75 4.07 22.75 9.5V15.5C22.75 20.93 20.43 23.25 15 23.25ZM9 3.25C4.39 3.25 2.75 4.89 2.75 9.5V15.5C2.75 20.11 4.39 21.75 9 21.75H15C19.61 21.75 21.25 20.11 21.25 15.5V9.5C21.25 4.89 19.61 3.25 15 3.25H9Z" fill="#5B21B6"/>
<path d="M8.68 15.8295C8.26 15.8295 7.87 15.7295 7.53 15.5395C6.7 15.0695 6.25 14.1395 6.25 12.9195V2.93945C6.25 2.52945 6.59 2.18945 7 2.18945C7.41 2.18945 7.75 2.52945 7.75 2.93945V12.9195C7.75 13.5695 7.94 14.0495 8.27 14.2295C8.62 14.4295 9.16 14.3295 9.75 13.9795L11.07 13.1895C11.61 12.8695 12.38 12.8695 12.92 13.1895L14.24 13.9795C14.84 14.3395 15.38 14.4295 15.72 14.2295C16.05 14.0395 16.24 13.5595 16.24 12.9195V2.93945C16.24 2.52945 16.58 2.18945 16.99 2.18945C17.4 2.18945 17.74 2.52945 17.74 2.93945V12.9195C17.74 14.1395 17.29 15.0695 16.46 15.5395C15.63 16.0095 14.54 15.9095 13.47 15.2695L12.15 14.4795C12.09 14.4395 11.9 14.4395 11.84 14.4795L10.52 15.2695C9.9 15.6395 9.26 15.8295 8.68 15.8295Z" fill="#5B21B6"/>
</g>
<defs>
<filter id="filter0_i_9739_55380" x="0" y="0.5" width="24" height="25" filterUnits="userSpaceOnUse" color-interpolation-filters="sRGB">
<feFlood flood-opacity="0" result="BackgroundImageFix"/>
<feBlend mode="normal" in="SourceGraphic" in2="BackgroundImageFix" result="shape"/>
<feColorMatrix in="SourceAlpha" type="matrix" values="0 0 0 0 0 0 0 0 0 0 0 0 0 0 0 0 0 0 127 0" result="hardAlpha"/>
<feOffset dy="1"/>
<feGaussianBlur stdDeviation="0.5"/>
<feComposite in2="hardAlpha" operator="arithmetic" k2="-1" k3="1"/>
<feColorMatrix type="matrix" values="0 0 0 0 0.858824 0 0 0 0 0.882353 0 0 0 0 0.937255 0 0 0 0.21 0"/>
<feBlend mode="normal" in2="shape" result="effect1_innerShadow_9739_55380"/>
</filter>
</defs>
</svg>
