<svg width="26" height="19" viewBox="0 0 26 19" fill="none" xmlns="http://www.w3.org/2000/svg">
<path d="M24.8352 3.56202C24.6936 3.03864 24.4173 2.56149 24.0339 2.17811C23.6505 1.79473 23.1733 1.51848 22.65 1.37687C20.7338 0.85437 13.0225 0.85437 13.0225 0.85437C13.0225 0.85437 5.31089 0.870226 3.395 1.39273C2.87164 1.53435 2.39451 1.81061 2.01113 2.194C1.62775 2.57738 1.35149 3.05451 1.20986 3.57787C0.630275 6.98244 0.405418 12.1699 1.22572 15.4381C1.36734 15.9614 1.6436 16.4386 2.02699 16.8219C2.41037 17.2053 2.8875 17.4816 3.41086 17.6232C5.3269 18.1457 13.0383 18.1457 13.0383 18.1457C13.0383 18.1457 20.7498 18.1457 22.6658 17.6232C23.1892 17.4816 23.6663 17.2053 24.0497 16.8219C24.4331 16.4386 24.7093 15.9614 24.851 15.4381C25.4621 12.0288 25.6506 6.84457 24.8351 3.56217" fill="#FF0000"/>
<path d="M10.5686 13.2051L16.9658 9.49982L10.5686 5.79443V13.2051Z" fill="white"/>
</svg>
