<svg width="25" height="25" viewBox="0 0 25 25" fill="none" xmlns="http://www.w3.org/2000/svg">
<g clip-path="url(#clip0_85_8436)">
<mask id="path-1-outside-1_85_8436" maskUnits="userSpaceOnUse" x="1.01636" y="0.394409" width="23" height="25" fill="black">
<rect fill="white" x="1.01636" y="0.394409" width="23" height="25"/>
<path d="M11.5133 1.15904C10.6555 1.29572 9.85863 1.59641 9.10863 2.07479C8.59769 2.3937 7.79613 3.16366 7.45394 3.66026C7.17738 4.06118 6.84925 4.71268 6.72269 5.10905L6.643 5.36874L5.09144 5.3824L3.53988 5.39607L3.20238 5.55097C2.82738 5.71954 2.42894 6.08402 2.2555 6.41205C2.01175 6.88131 2.01644 6.70819 2.01644 12.5398C2.01644 18.5946 2.00238 18.3395 2.33988 18.8498C2.65394 19.319 3.17894 19.6471 3.76488 19.7291C3.92425 19.7519 4.98363 19.7701 6.12269 19.7701H8.18988L8.30238 19.8885C8.36332 19.9523 9.13207 20.9273 10.0086 22.0617C11.8461 24.4354 11.8039 24.3944 12.418 24.3944C12.8118 24.3944 13.0508 24.3032 13.2711 24.0663C13.3414 23.998 14.0633 23.0686 14.8836 22.0025C15.7039 20.9364 16.4352 19.9979 16.5149 19.9159L16.6602 19.7701H18.7227C19.8618 19.7701 20.9211 19.7473 21.0852 19.7245C21.9289 19.6061 22.5993 18.9956 22.7774 18.1846C22.8149 18.016 22.8289 16.3349 22.8289 12.5352C22.8289 6.62618 22.8383 6.86309 22.5618 6.36193C22.318 5.93367 21.7696 5.53275 21.2727 5.41885C21.1602 5.39607 20.4243 5.37329 19.6368 5.37329H18.2071L18.1227 5.10905C18.0008 4.72635 17.6727 4.07029 17.4243 3.71037C16.5289 2.41193 15.1789 1.52807 13.5946 1.20005C13.0977 1.09982 12.0289 1.07704 11.5133 1.15904ZM13.0696 1.91077C16.3414 2.3117 18.4321 5.60109 17.3164 8.60801C17.0493 9.34152 16.7164 9.84723 16.0649 10.5124C15.493 11.0956 15.2352 11.4373 14.9774 11.9339C14.6024 12.6628 14.4852 13.1321 14.443 14.0296L14.4149 14.6902H12.4227H10.4305L10.4024 14.0524C10.3696 13.3644 10.3039 13.0227 10.0836 12.4396C9.82113 11.7334 9.48832 11.2459 8.75238 10.4851C8.218 9.92468 7.93207 9.52376 7.67894 8.97249C6.82582 7.08633 7.2055 4.93136 8.65863 3.45979C9.12738 2.97686 9.52582 2.68984 10.1024 2.41193C11.0586 1.95178 12.0383 1.78776 13.0696 1.91077ZM6.43675 6.68085C6.3805 7.9064 6.74613 9.15928 7.45863 10.1889C7.58519 10.3712 7.90394 10.7402 8.16644 11.009C8.95394 11.82 9.34769 12.5079 9.53519 13.4054C9.59613 13.6788 9.61019 14.066 9.61019 15.246C9.61019 16.4488 9.62425 16.7996 9.6805 17.0137C9.80707 17.4876 10.1352 17.8611 10.5805 18.0479L10.8289 18.1527V18.4352C10.8289 18.663 10.8477 18.7404 10.9368 18.8316C11.0961 19.0047 11.3352 19.0092 11.5086 18.8361C11.6071 18.745 11.6258 18.6812 11.6258 18.4489V18.1755H12.4227H13.2196V18.4489C13.2196 18.6812 13.2383 18.745 13.3368 18.8361C13.5102 19.0092 13.7493 19.0047 13.9133 18.8316C13.9977 18.7404 14.0164 18.663 14.0164 18.4352V18.1527L14.2274 18.0707C14.6258 17.9067 14.968 17.5696 15.1274 17.1686C15.193 16.9955 15.2118 16.7039 15.2352 15.1914C15.2633 13.4282 15.268 13.41 15.3899 13.0136C15.6336 12.2437 15.9336 11.779 16.6602 11.0272C17.3868 10.28 17.7758 9.68322 18.0852 8.83581C18.3289 8.15242 18.3946 7.75605 18.3993 6.90865V6.1478H19.7352C21.0383 6.1478 21.0758 6.15236 21.3055 6.25715C21.4368 6.31182 21.6196 6.44394 21.7133 6.54873C22.0508 6.90865 22.0321 6.59884 22.0321 12.5671C22.0321 16.0752 22.0133 17.9841 21.9852 18.0935C21.8961 18.4033 21.6571 18.6858 21.3571 18.8361L21.0758 18.9728L18.7555 18.9956L16.4305 19.0183L16.2149 19.1414C16.0368 19.2461 15.7321 19.6106 14.3493 21.4011C13.1914 22.9 12.6618 23.5561 12.568 23.5971C12.2774 23.711 12.2821 23.7201 10.5055 21.4148C9.10394 19.6061 8.79457 19.2279 8.62113 19.1322L8.41488 19.0183L6.09457 18.9956L3.77425 18.9728L3.50238 18.8407C3.17425 18.6858 2.93519 18.3942 2.86019 18.0616C2.82269 17.9021 2.81332 16.221 2.82269 12.4122L2.83675 6.99065L2.93988 6.80842C3.07113 6.56695 3.3055 6.35738 3.56332 6.24348C3.76019 6.15692 3.868 6.1478 5.11957 6.1478H6.46019L6.43675 6.68085ZM14.4336 16.1117C14.4289 16.9044 14.3633 17.1003 14.0164 17.3053C13.8571 17.3964 13.8008 17.401 12.4274 17.401C11.0821 17.401 10.9977 17.3964 10.8336 17.3053C10.7399 17.2552 10.6086 17.1413 10.5477 17.0502C10.4399 16.8953 10.4305 16.8406 10.4164 16.1846L10.3977 15.4875H12.418H14.4383L14.4336 16.1117Z"/>
</mask>
<path d="M11.5133 1.15904C10.6555 1.29572 9.85863 1.59641 9.10863 2.07479C8.59769 2.3937 7.79613 3.16366 7.45394 3.66026C7.17738 4.06118 6.84925 4.71268 6.72269 5.10905L6.643 5.36874L5.09144 5.3824L3.53988 5.39607L3.20238 5.55097C2.82738 5.71954 2.42894 6.08402 2.2555 6.41205C2.01175 6.88131 2.01644 6.70819 2.01644 12.5398C2.01644 18.5946 2.00238 18.3395 2.33988 18.8498C2.65394 19.319 3.17894 19.6471 3.76488 19.7291C3.92425 19.7519 4.98363 19.7701 6.12269 19.7701H8.18988L8.30238 19.8885C8.36332 19.9523 9.13207 20.9273 10.0086 22.0617C11.8461 24.4354 11.8039 24.3944 12.418 24.3944C12.8118 24.3944 13.0508 24.3032 13.2711 24.0663C13.3414 23.998 14.0633 23.0686 14.8836 22.0025C15.7039 20.9364 16.4352 19.9979 16.5149 19.9159L16.6602 19.7701H18.7227C19.8618 19.7701 20.9211 19.7473 21.0852 19.7245C21.9289 19.6061 22.5993 18.9956 22.7774 18.1846C22.8149 18.016 22.8289 16.3349 22.8289 12.5352C22.8289 6.62618 22.8383 6.86309 22.5618 6.36193C22.318 5.93367 21.7696 5.53275 21.2727 5.41885C21.1602 5.39607 20.4243 5.37329 19.6368 5.37329H18.2071L18.1227 5.10905C18.0008 4.72635 17.6727 4.07029 17.4243 3.71037C16.5289 2.41193 15.1789 1.52807 13.5946 1.20005C13.0977 1.09982 12.0289 1.07704 11.5133 1.15904ZM13.0696 1.91077C16.3414 2.3117 18.4321 5.60109 17.3164 8.60801C17.0493 9.34152 16.7164 9.84723 16.0649 10.5124C15.493 11.0956 15.2352 11.4373 14.9774 11.9339C14.6024 12.6628 14.4852 13.1321 14.443 14.0296L14.4149 14.6902H12.4227H10.4305L10.4024 14.0524C10.3696 13.3644 10.3039 13.0227 10.0836 12.4396C9.82113 11.7334 9.48832 11.2459 8.75238 10.4851C8.218 9.92468 7.93207 9.52376 7.67894 8.97249C6.82582 7.08633 7.2055 4.93136 8.65863 3.45979C9.12738 2.97686 9.52582 2.68984 10.1024 2.41193C11.0586 1.95178 12.0383 1.78776 13.0696 1.91077ZM6.43675 6.68085C6.3805 7.9064 6.74613 9.15928 7.45863 10.1889C7.58519 10.3712 7.90394 10.7402 8.16644 11.009C8.95394 11.82 9.34769 12.5079 9.53519 13.4054C9.59613 13.6788 9.61019 14.066 9.61019 15.246C9.61019 16.4488 9.62425 16.7996 9.6805 17.0137C9.80707 17.4876 10.1352 17.8611 10.5805 18.0479L10.8289 18.1527V18.4352C10.8289 18.663 10.8477 18.7404 10.9368 18.8316C11.0961 19.0047 11.3352 19.0092 11.5086 18.8361C11.6071 18.745 11.6258 18.6812 11.6258 18.4489V18.1755H12.4227H13.2196V18.4489C13.2196 18.6812 13.2383 18.745 13.3368 18.8361C13.5102 19.0092 13.7493 19.0047 13.9133 18.8316C13.9977 18.7404 14.0164 18.663 14.0164 18.4352V18.1527L14.2274 18.0707C14.6258 17.9067 14.968 17.5696 15.1274 17.1686C15.193 16.9955 15.2118 16.7039 15.2352 15.1914C15.2633 13.4282 15.268 13.41 15.3899 13.0136C15.6336 12.2437 15.9336 11.779 16.6602 11.0272C17.3868 10.28 17.7758 9.68322 18.0852 8.83581C18.3289 8.15242 18.3946 7.75605 18.3993 6.90865V6.1478H19.7352C21.0383 6.1478 21.0758 6.15236 21.3055 6.25715C21.4368 6.31182 21.6196 6.44394 21.7133 6.54873C22.0508 6.90865 22.0321 6.59884 22.0321 12.5671C22.0321 16.0752 22.0133 17.9841 21.9852 18.0935C21.8961 18.4033 21.6571 18.6858 21.3571 18.8361L21.0758 18.9728L18.7555 18.9956L16.4305 19.0183L16.2149 19.1414C16.0368 19.2461 15.7321 19.6106 14.3493 21.4011C13.1914 22.9 12.6618 23.5561 12.568 23.5971C12.2774 23.711 12.2821 23.7201 10.5055 21.4148C9.10394 19.6061 8.79457 19.2279 8.62113 19.1322L8.41488 19.0183L6.09457 18.9956L3.77425 18.9728L3.50238 18.8407C3.17425 18.6858 2.93519 18.3942 2.86019 18.0616C2.82269 17.9021 2.81332 16.221 2.82269 12.4122L2.83675 6.99065L2.93988 6.80842C3.07113 6.56695 3.3055 6.35738 3.56332 6.24348C3.76019 6.15692 3.868 6.1478 5.11957 6.1478H6.46019L6.43675 6.68085ZM14.4336 16.1117C14.4289 16.9044 14.3633 17.1003 14.0164 17.3053C13.8571 17.3964 13.8008 17.401 12.4274 17.401C11.0821 17.401 10.9977 17.3964 10.8336 17.3053C10.7399 17.2552 10.6086 17.1413 10.5477 17.0502C10.4399 16.8953 10.4305 16.8406 10.4164 16.1846L10.3977 15.4875H12.418H14.4383L14.4336 16.1117Z" fill="white" fill-opacity="0.86"/>
<path d="M11.5133 1.15904C10.6555 1.29572 9.85863 1.59641 9.10863 2.07479C8.59769 2.3937 7.79613 3.16366 7.45394 3.66026C7.17738 4.06118 6.84925 4.71268 6.72269 5.10905L6.643 5.36874L5.09144 5.3824L3.53988 5.39607L3.20238 5.55097C2.82738 5.71954 2.42894 6.08402 2.2555 6.41205C2.01175 6.88131 2.01644 6.70819 2.01644 12.5398C2.01644 18.5946 2.00238 18.3395 2.33988 18.8498C2.65394 19.319 3.17894 19.6471 3.76488 19.7291C3.92425 19.7519 4.98363 19.7701 6.12269 19.7701H8.18988L8.30238 19.8885C8.36332 19.9523 9.13207 20.9273 10.0086 22.0617C11.8461 24.4354 11.8039 24.3944 12.418 24.3944C12.8118 24.3944 13.0508 24.3032 13.2711 24.0663C13.3414 23.998 14.0633 23.0686 14.8836 22.0025C15.7039 20.9364 16.4352 19.9979 16.5149 19.9159L16.6602 19.7701H18.7227C19.8618 19.7701 20.9211 19.7473 21.0852 19.7245C21.9289 19.6061 22.5993 18.9956 22.7774 18.1846C22.8149 18.016 22.8289 16.3349 22.8289 12.5352C22.8289 6.62618 22.8383 6.86309 22.5618 6.36193C22.318 5.93367 21.7696 5.53275 21.2727 5.41885C21.1602 5.39607 20.4243 5.37329 19.6368 5.37329H18.2071L18.1227 5.10905C18.0008 4.72635 17.6727 4.07029 17.4243 3.71037C16.5289 2.41193 15.1789 1.52807 13.5946 1.20005C13.0977 1.09982 12.0289 1.07704 11.5133 1.15904ZM13.0696 1.91077C16.3414 2.3117 18.4321 5.60109 17.3164 8.60801C17.0493 9.34152 16.7164 9.84723 16.0649 10.5124C15.493 11.0956 15.2352 11.4373 14.9774 11.9339C14.6024 12.6628 14.4852 13.1321 14.443 14.0296L14.4149 14.6902H12.4227H10.4305L10.4024 14.0524C10.3696 13.3644 10.3039 13.0227 10.0836 12.4396C9.82113 11.7334 9.48832 11.2459 8.75238 10.4851C8.218 9.92468 7.93207 9.52376 7.67894 8.97249C6.82582 7.08633 7.2055 4.93136 8.65863 3.45979C9.12738 2.97686 9.52582 2.68984 10.1024 2.41193C11.0586 1.95178 12.0383 1.78776 13.0696 1.91077ZM6.43675 6.68085C6.3805 7.9064 6.74613 9.15928 7.45863 10.1889C7.58519 10.3712 7.90394 10.7402 8.16644 11.009C8.95394 11.82 9.34769 12.5079 9.53519 13.4054C9.59613 13.6788 9.61019 14.066 9.61019 15.246C9.61019 16.4488 9.62425 16.7996 9.6805 17.0137C9.80707 17.4876 10.1352 17.8611 10.5805 18.0479L10.8289 18.1527V18.4352C10.8289 18.663 10.8477 18.7404 10.9368 18.8316C11.0961 19.0047 11.3352 19.0092 11.5086 18.8361C11.6071 18.745 11.6258 18.6812 11.6258 18.4489V18.1755H12.4227H13.2196V18.4489C13.2196 18.6812 13.2383 18.745 13.3368 18.8361C13.5102 19.0092 13.7493 19.0047 13.9133 18.8316C13.9977 18.7404 14.0164 18.663 14.0164 18.4352V18.1527L14.2274 18.0707C14.6258 17.9067 14.968 17.5696 15.1274 17.1686C15.193 16.9955 15.2118 16.7039 15.2352 15.1914C15.2633 13.4282 15.268 13.41 15.3899 13.0136C15.6336 12.2437 15.9336 11.779 16.6602 11.0272C17.3868 10.28 17.7758 9.68322 18.0852 8.83581C18.3289 8.15242 18.3946 7.75605 18.3993 6.90865V6.1478H19.7352C21.0383 6.1478 21.0758 6.15236 21.3055 6.25715C21.4368 6.31182 21.6196 6.44394 21.7133 6.54873C22.0508 6.90865 22.0321 6.59884 22.0321 12.5671C22.0321 16.0752 22.0133 17.9841 21.9852 18.0935C21.8961 18.4033 21.6571 18.6858 21.3571 18.8361L21.0758 18.9728L18.7555 18.9956L16.4305 19.0183L16.2149 19.1414C16.0368 19.2461 15.7321 19.6106 14.3493 21.4011C13.1914 22.9 12.6618 23.5561 12.568 23.5971C12.2774 23.711 12.2821 23.7201 10.5055 21.4148C9.10394 19.6061 8.79457 19.2279 8.62113 19.1322L8.41488 19.0183L6.09457 18.9956L3.77425 18.9728L3.50238 18.8407C3.17425 18.6858 2.93519 18.3942 2.86019 18.0616C2.82269 17.9021 2.81332 16.221 2.82269 12.4122L2.83675 6.99065L2.93988 6.80842C3.07113 6.56695 3.3055 6.35738 3.56332 6.24348C3.76019 6.15692 3.868 6.1478 5.11957 6.1478H6.46019L6.43675 6.68085ZM14.4336 16.1117C14.4289 16.9044 14.3633 17.1003 14.0164 17.3053C13.8571 17.3964 13.8008 17.401 12.4274 17.401C11.0821 17.401 10.9977 17.3964 10.8336 17.3053C10.7399 17.2552 10.6086 17.1413 10.5477 17.0502C10.4399 16.8953 10.4305 16.8406 10.4164 16.1846L10.3977 15.4875H12.418H14.4383L14.4336 16.1117Z" stroke="white" stroke-opacity="0.86" stroke-width="0.4" mask="url(#path-1-outside-1_85_8436)"/>
<path d="M10.4304 2.83417C9.52574 3.33573 8.84606 4.10448 8.56012 4.96229C8.38199 5.49667 8.39606 5.70292 8.63043 5.8201C8.93512 5.97948 9.13199 5.83885 9.27731 5.35135C9.32887 5.16854 9.45074 4.88729 9.54918 4.72792C9.76949 4.3576 10.3367 3.80917 10.7304 3.59354C11.1242 3.37323 11.2039 3.28417 11.2039 3.07323C11.2039 2.93729 11.1757 2.87635 11.082 2.80135C10.9132 2.6701 10.7117 2.67948 10.4304 2.83417Z" fill="white" fill-opacity="0.86"/>
<path d="M10.3819 2.74671L10.3822 2.74654C10.5297 2.66545 10.6657 2.61697 10.7935 2.61065C10.9249 2.60416 11.0408 2.64263 11.1434 2.72242L11.1434 2.72241L11.1445 2.72327C11.1977 2.76584 11.2414 2.81163 11.2693 2.87335C11.2965 2.93385 11.3039 2.99959 11.3039 3.07323C11.3039 3.19578 11.2793 3.29747 11.1889 3.39708C11.1072 3.48708 10.9745 3.57154 10.7793 3.68081L10.7785 3.68125C10.5925 3.7831 10.3595 3.96747 10.1441 4.17477C9.92864 4.38215 9.73882 4.60475 9.63512 4.77904L9.63513 4.77905L9.63426 4.78046C9.54096 4.93153 9.42272 5.20416 9.37355 5.3785L9.37356 5.3785L9.37314 5.37992C9.29953 5.62687 9.20634 5.81248 9.07218 5.90937C8.92488 6.01576 8.756 5.99842 8.58488 5.90913C8.5166 5.87487 8.45748 5.83068 8.4141 5.76984C8.37015 5.70821 8.34732 5.63648 8.3409 5.55555C8.32858 5.40014 8.37631 5.19748 8.46525 4.93067C8.76036 4.04535 9.45906 3.25836 10.3819 2.74671Z" stroke="white" stroke-opacity="0.86" stroke-width="0.2"/>
<path d="M3.75093 7.20289C3.54 7.41383 3.615 7.75602 3.89625 7.85445C4.11656 7.92945 5.17125 7.92008 5.36812 7.84039C5.565 7.75602 5.64468 7.61539 5.60718 7.40914C5.55562 7.13727 5.46187 7.10914 4.60875 7.10914C3.91031 7.10914 3.83531 7.11852 3.75093 7.20289Z" fill="white" fill-opacity="0.86"/>
<path d="M3.86402 7.94912L3.86402 7.94912L3.86321 7.94884C3.51095 7.82555 3.41828 7.39412 3.68022 7.13218C3.70693 7.10547 3.73777 7.08005 3.78303 7.0607C3.8258 7.04241 3.87596 7.0319 3.93858 7.02498C4.06197 7.01134 4.26189 7.00914 4.60875 7.00914C4.822 7.00914 4.99022 7.01088 5.12272 7.01792C5.25407 7.0249 5.35719 7.03734 5.43732 7.06142C5.52034 7.08636 5.58495 7.12569 5.6306 7.18921C5.67347 7.24887 5.69208 7.32009 5.70544 7.39051L5.70557 7.39125C5.72729 7.51072 5.71685 7.62235 5.66289 7.71915C5.60922 7.81545 5.51961 7.88426 5.40751 7.9323L5.40752 7.93232L5.40564 7.93309C5.37012 7.94746 5.32287 7.9577 5.27326 7.96568C5.22182 7.97395 5.16093 7.98082 5.09443 7.9864C4.96132 7.99758 4.80157 8.00394 4.6419 8.00543C4.48221 8.00691 4.32107 8.00351 4.18516 7.9949C4.05366 7.98657 3.93352 7.97278 3.86402 7.94912Z" stroke="white" stroke-opacity="0.86" stroke-width="0.2"/>
<path d="M19.3367 7.22631C19.1867 7.37162 19.1867 7.57787 19.332 7.75131C19.4445 7.88256 19.4492 7.88256 20.0914 7.90131C20.8555 7.92006 21.0617 7.87319 21.1695 7.66694C21.2539 7.49819 21.2258 7.33412 21.0945 7.20287C21.0102 7.1185 20.9352 7.10912 20.2274 7.10912C19.4633 7.10912 19.4492 7.10912 19.3367 7.22631Z" fill="white" fill-opacity="0.86"/>
<path d="M19.2561 7.81639L19.2561 7.81639L19.2554 7.81553C19.1703 7.71395 19.1229 7.59672 19.1236 7.47762C19.1244 7.35807 19.1738 7.24558 19.2658 7.15581C19.2929 7.12754 19.3238 7.09582 19.3666 7.07156C19.4112 7.04629 19.4615 7.03281 19.5249 7.0246C19.6444 7.00912 19.8437 7.00912 20.2106 7.00912L20.2274 7.00912C20.5789 7.00912 20.7811 7.01132 20.9056 7.02495C20.9688 7.03186 21.0192 7.04235 21.0621 7.06061C21.1076 7.07997 21.1385 7.10543 21.1652 7.13216C21.2433 7.21025 21.2948 7.30244 21.3116 7.40464C21.3284 7.50689 21.3091 7.61133 21.259 7.71166L21.259 7.71166L21.2582 7.71326C21.2254 7.77586 21.1828 7.83066 21.1211 7.87463C21.0604 7.91791 20.9868 7.94672 20.898 7.96618C20.7239 8.0043 20.4696 8.01062 20.089 8.00128L20.0885 8.00127C20.0812 8.00106 20.074 8.00085 20.0669 8.00064C19.7651 7.99184 19.5973 7.98694 19.4938 7.96663C19.4365 7.95536 19.3908 7.93816 19.3498 7.9089C19.3128 7.8825 19.2841 7.84904 19.2581 7.81872C19.2574 7.81794 19.2568 7.81716 19.2561 7.81639Z" stroke="white" stroke-opacity="0.86" stroke-width="0.2"/>
<path d="M5.83667 12.7435C5.78511 12.7717 5.27417 13.1748 4.7023 13.6295C3.87261 14.2998 3.66167 14.492 3.63355 14.6045C3.60074 14.7638 3.65699 14.8998 3.80699 15.0029C4.03667 15.1623 4.11636 15.1201 5.24605 14.2201C6.50699 13.217 6.58199 13.1185 6.28667 12.8232C6.14136 12.6826 5.99136 12.6545 5.83667 12.7435Z" fill="white" fill-opacity="0.86"/>
<path d="M4.63946 13.5517L4.63945 13.5517L4.64006 13.5512C4.92604 13.3238 5.19697 13.1092 5.40293 12.9478C5.50587 12.8672 5.59285 12.7996 5.65747 12.7504C5.68974 12.7258 5.7168 12.7054 5.73766 12.6902C5.75551 12.6772 5.77415 12.6639 5.78746 12.6565C5.8816 12.6024 5.98129 12.5806 6.08288 12.5988C6.18304 12.6168 6.27405 12.6718 6.35622 12.7514L6.35623 12.7513L6.35738 12.7525C6.43008 12.8252 6.50175 12.9052 6.52359 13.0033C6.54754 13.1108 6.50757 13.2122 6.43011 13.316C6.35329 13.419 6.22758 13.5406 6.04742 13.6959C5.86597 13.8523 5.62337 14.0477 5.30831 14.2983C4.74745 14.7452 4.43638 14.9882 4.23675 15.0966C4.13527 15.1518 4.04798 15.1807 3.96225 15.1741C3.87629 15.1675 3.80929 15.1262 3.75015 15.0852C3.6631 15.0253 3.59746 14.9518 3.55984 14.8643C3.52198 14.7762 3.51565 14.6812 3.5356 14.5843L3.53552 14.5843L3.53653 14.5802C3.54888 14.5308 3.57824 14.484 3.61871 14.4351C3.65984 14.3855 3.71879 14.3263 3.79995 14.2523C3.96249 14.104 4.22499 13.8865 4.63946 13.5517Z" stroke="white" stroke-opacity="0.86" stroke-width="0.2"/>
<path d="M18.5586 12.8232C18.4133 12.9685 18.3899 13.0857 18.4742 13.2591C18.5024 13.3201 19.0086 13.7513 19.5992 14.2201C20.4055 14.8623 20.7102 15.0779 20.8039 15.0779C21.0617 15.0779 21.268 14.8248 21.2071 14.581C21.1836 14.4966 20.8508 14.2013 20.1383 13.6294C19.5664 13.1701 19.0555 12.7716 18.9992 12.7435C18.8352 12.6544 18.7039 12.6779 18.5586 12.8232Z" fill="white" fill-opacity="0.86"/>
<path d="M21.3034 14.5542L21.3034 14.5542C21.2954 14.5255 21.2786 14.4996 21.2641 14.48C21.2481 14.4583 21.2275 14.4344 21.2032 14.4086C21.1546 14.357 21.086 14.292 20.9976 14.2133C20.8204 14.0557 20.5574 13.8376 20.2009 13.5515L21.3034 14.5542ZM21.3034 14.5542L21.3041 14.5568M21.3034 14.5542L21.3041 14.5568M21.3041 14.5568C21.3818 14.8677 21.1226 15.1779 20.8039 15.1779C20.7749 15.1779 20.7468 15.1699 20.7229 15.1609C20.6979 15.1514 20.6705 15.138 20.6409 15.1215C20.5818 15.0886 20.5062 15.0391 20.4108 14.9713C20.2197 14.8354 19.9401 14.6194 19.537 14.2983C19.241 14.0634 18.9659 13.8377 18.7609 13.6627C18.6585 13.5753 18.5729 13.5 18.5108 13.4423C18.4798 13.4136 18.4538 13.3884 18.4341 13.3677C18.4243 13.3574 18.4152 13.3474 18.4075 13.338C18.4013 13.3303 18.3908 13.3169 18.3835 13.301L18.4742 13.2591L18.3843 13.3029M21.3041 14.5568L18.3843 13.3029M18.3843 13.3029C18.3369 13.2055 18.313 13.1099 18.3322 13.0115M18.3843 13.3029L18.3322 13.0115M18.3322 13.0115C18.3511 12.9144 18.4088 12.8316 18.4879 12.7525M18.3322 13.0115L18.4879 12.7525M18.4879 12.7525C18.5685 12.6719 18.6552 12.6149 18.7542 12.597C18.8543 12.579 18.9511 12.6038 19.0459 12.6551L18.4879 12.7525Z" stroke="white" stroke-opacity="0.86" stroke-width="0.2"/>
<path d="M3.75081 1.20289C3.61019 1.34352 3.58675 1.50758 3.68519 1.67164C3.78362 1.82164 5.71956 3.39196 5.89769 3.45758C6.24456 3.58883 6.57737 3.13414 6.343 2.85289C6.29612 2.79664 5.79456 2.38414 5.22737 1.92946C4.30394 1.19821 4.17737 1.10914 4.02269 1.10914C3.9055 1.10914 3.81175 1.14196 3.75081 1.20289Z" fill="white" fill-opacity="0.86"/>
<path d="M5.86271 3.55126C5.84058 3.54304 5.81465 3.52773 5.79119 3.51292C5.76516 3.49649 5.73363 3.47509 5.69786 3.44986C5.62621 3.39931 5.53447 3.33114 5.43002 3.25143C5.22093 3.09188 4.95838 2.88412 4.69866 2.674C4.43892 2.46386 4.1814 2.25086 3.9824 2.08077C3.88297 1.99578 3.7976 1.92104 3.73368 1.86251C3.70177 1.83329 3.67456 1.80752 3.65336 1.78618C3.63424 1.76693 3.61401 1.74544 3.60158 1.72651L3.60151 1.72655L3.59944 1.72309C3.54056 1.62497 3.51447 1.52009 3.52933 1.41454C3.54412 1.30947 3.59798 1.21431 3.6801 1.13218C3.76542 1.04686 3.88817 1.00914 4.02269 1.00914C4.13095 1.00914 4.22212 1.04567 4.39316 1.16251C4.56319 1.27866 4.829 1.48643 5.28945 1.85106L5.28946 1.85106L5.28992 1.85143C5.57375 2.07896 5.84134 2.29609 6.04399 2.46349C6.14527 2.54716 6.23065 2.61867 6.29384 2.67297C6.3254 2.70009 6.35184 2.72327 6.37213 2.74172C6.39058 2.75849 6.40879 2.77564 6.41982 2.78888C6.5743 2.97425 6.53538 3.21055 6.41891 3.36912C6.30243 3.5277 6.08848 3.63646 5.86271 3.55126ZM5.86271 3.55126C5.86284 3.55132 5.86298 3.55137 5.86312 3.55142L5.89769 3.45758M5.86271 3.55126C5.86257 3.55121 5.86243 3.55116 5.8623 3.55111L5.89769 3.45758M5.89769 3.45758C6.24456 3.58883 6.57737 3.13414 6.343 2.85289C6.29612 2.79664 5.79456 2.38414 5.22737 1.92946C4.30394 1.19821 4.17737 1.10914 4.02269 1.10914C3.9055 1.10914 3.81175 1.14196 3.75081 1.20289C3.61019 1.34352 3.58675 1.50758 3.68519 1.67164C3.78362 1.82164 5.71956 3.39196 5.89769 3.45758Z" stroke="white" stroke-opacity="0.86" stroke-width="0.2"/>
<path d="M19.5946 1.95757C19.0133 2.42163 18.5118 2.83882 18.4836 2.88101C18.2727 3.14819 18.6196 3.58413 18.9477 3.45757C19.1258 3.39194 21.0618 1.82163 21.1602 1.67163C21.3196 1.40913 21.1414 1.10913 20.8274 1.10913C20.668 1.10913 20.5414 1.19819 19.5946 1.95757Z" fill="white" fill-opacity="0.86"/>
<path d="M18.9477 3.45757L18.9837 3.55087C18.7669 3.6345 18.555 3.52871 18.4355 3.37946C18.3168 3.23128 18.2613 3.00337 18.4036 2.82099C18.4105 2.81161 18.4183 2.80349 18.4228 2.7989C18.4297 2.79184 18.4381 2.78379 18.4474 2.7751C18.4662 2.75763 18.4913 2.73521 18.5217 2.70876C18.5826 2.65575 18.6667 2.58459 18.7677 2.5006C18.9699 2.33252 19.2411 2.11181 19.5321 1.87949C20.0042 1.50086 20.2759 1.286 20.4495 1.16626C20.6245 1.04561 20.7168 1.00913 20.8274 1.00913C21.0176 1.00913 21.1744 1.101 21.2574 1.24098C21.3406 1.38148 21.344 1.56165 21.2457 1.72353L21.2457 1.72356L21.2438 1.7265C21.2314 1.74543 21.2111 1.76692 21.192 1.78617C21.1708 1.8075 21.1436 1.83328 21.1117 1.8625C21.0478 1.92103 20.9624 1.99577 20.863 2.08075C20.664 2.25085 20.4065 2.46385 20.1467 2.67398C19.887 2.88411 19.6244 3.09187 19.4154 3.25142C19.3109 3.33113 19.2192 3.3993 19.1475 3.44985C19.1118 3.47508 19.0802 3.49648 19.0542 3.51291C19.0306 3.52781 19.0045 3.54322 18.9823 3.5514L18.9477 3.45757ZM18.9477 3.45757C18.6196 3.58413 18.2727 3.14819 18.4836 2.88101M18.9477 3.45757C19.1258 3.39194 21.0618 1.82163 21.1602 1.67163L18.4836 2.88101M18.4836 2.88101C18.5118 2.83882 19.0133 2.42163 19.5946 1.95757L18.4836 2.88101Z" stroke="white" stroke-opacity="0.86" stroke-width="0.2"/>
</g>
<defs>
<clipPath id="clip0_85_8436">
<rect width="24" height="24" fill="white" transform="translate(0.422607 0.687256)"/>
</clipPath>
</defs>
</svg>
