<svg width="25" height="25" viewBox="0 0 25 25" fill="none" xmlns="http://www.w3.org/2000/svg">
<g clip-path="url(#clip0_494_4196)">
<path d="M12.8438 15.4952C14.5006 15.4952 15.8438 14.1521 15.8438 12.4952C15.8438 10.8384 14.5006 9.49524 12.8438 9.49524C11.1869 9.49524 9.84375 10.8384 9.84375 12.4952C9.84375 14.1521 11.1869 15.4952 12.8438 15.4952Z" stroke="#0CBC84" stroke-width="2" stroke-linecap="round" stroke-linejoin="round"/>
<path d="M20.2437 15.4952C20.1106 15.7969 20.0709 16.1314 20.1297 16.4558C20.1886 16.7802 20.3432 17.0796 20.5737 17.3152L20.6338 17.3752C20.8197 17.561 20.9672 17.7816 21.0679 18.0244C21.1685 18.2672 21.2203 18.5274 21.2203 18.7902C21.2203 19.0531 21.1685 19.3133 21.0679 19.5561C20.9672 19.7989 20.8197 20.0195 20.6338 20.2052C20.448 20.3912 20.2274 20.5387 19.9846 20.6394C19.7418 20.74 19.4816 20.7918 19.2188 20.7918C18.9559 20.7918 18.6957 20.74 18.4529 20.6394C18.2101 20.5387 17.9895 20.3912 17.8037 20.2052L17.7437 20.1452C17.5081 19.9147 17.2087 19.7601 16.8843 19.7012C16.5599 19.6424 16.2254 19.6821 15.9237 19.8152C15.628 19.942 15.3757 20.1525 15.1981 20.4208C15.0204 20.6891 14.925 21.0035 14.9237 21.3252V21.4952C14.9237 22.0257 14.713 22.5344 14.338 22.9095C13.9629 23.2845 13.4542 23.4952 12.9237 23.4952C12.3933 23.4952 11.8846 23.2845 11.5095 22.9095C11.1345 22.5344 10.9237 22.0257 10.9237 21.4952V21.4052C10.916 21.0742 10.8089 20.7532 10.6163 20.4839C10.4237 20.2146 10.1545 20.0095 9.84375 19.8952C9.54213 19.7621 9.20756 19.7224 8.88316 19.7812C8.55877 19.8401 8.25943 19.9947 8.02375 20.2252L7.96375 20.2852C7.778 20.4712 7.55743 20.6187 7.31463 20.7194C7.07183 20.82 6.81158 20.8718 6.54875 20.8718C6.28592 20.8718 6.02567 20.82 5.78287 20.7194C5.54007 20.6187 5.3195 20.4712 5.13375 20.2852C4.9478 20.0995 4.80028 19.8789 4.69963 19.6361C4.59898 19.3933 4.54718 19.1331 4.54718 18.8702C4.54718 18.6074 4.59898 18.3472 4.69963 18.1044C4.80028 17.8616 4.9478 17.641 5.13375 17.4552L5.19375 17.3952C5.42429 17.1596 5.57894 16.8602 5.63775 16.5358C5.69657 16.2114 5.65687 15.8769 5.52375 15.5752C5.39699 15.2795 5.18651 15.0272 4.91822 14.8495C4.64993 14.6719 4.33554 14.5765 4.01375 14.5752H3.84375C3.31332 14.5752 2.80461 14.3645 2.42954 13.9895C2.05446 13.6144 1.84375 13.1057 1.84375 12.5752C1.84375 12.0448 2.05446 11.5361 2.42954 11.161C2.80461 10.786 3.31332 10.5752 3.84375 10.5752H3.93375C4.26474 10.5675 4.58575 10.4604 4.85505 10.2677C5.12434 10.0751 5.32947 9.80597 5.44375 9.49524C5.57687 9.19362 5.61657 8.85905 5.55775 8.53465C5.49894 8.21026 5.34429 7.91092 5.11375 7.67524L5.05375 7.61524C4.8678 7.42949 4.72028 7.20892 4.61963 6.96612C4.51898 6.72332 4.46718 6.46307 4.46718 6.20024C4.46718 5.93741 4.51898 5.67715 4.61963 5.43436C4.72028 5.19156 4.8678 4.97099 5.05375 4.78524C5.2395 4.59929 5.46007 4.45177 5.70287 4.35112C5.94567 4.25047 6.20592 4.19867 6.46875 4.19867C6.73158 4.19867 6.99183 4.25047 7.23463 4.35112C7.47743 4.45177 7.698 4.59929 7.88375 4.78524L7.94375 4.84524C8.17943 5.07578 8.47877 5.23042 8.80316 5.28924C9.12756 5.34806 9.46213 5.30835 9.76375 5.17524H9.84375C10.1395 5.04848 10.3918 4.83799 10.5694 4.5697C10.7471 4.30141 10.8425 3.98703 10.8438 3.66524V3.49524C10.8438 2.96481 11.0545 2.4561 11.4295 2.08103C11.8046 1.70595 12.3133 1.49524 12.8438 1.49524C13.3742 1.49524 13.8829 1.70595 14.258 2.08103C14.633 2.4561 14.8438 2.96481 14.8438 3.49524V3.58524C14.845 3.90703 14.9404 4.22141 15.1181 4.4897C15.2957 4.758 15.548 4.96848 15.8438 5.09524C16.1454 5.22835 16.4799 5.26806 16.8043 5.20924C17.1287 5.15042 17.4281 4.99578 17.6637 4.76524L17.7237 4.70524C17.9095 4.51929 18.1301 4.37177 18.3729 4.27112C18.6157 4.17047 18.8759 4.11867 19.1388 4.11867C19.4016 4.11867 19.6618 4.17047 19.9046 4.27112C20.1474 4.37177 20.368 4.51929 20.5537 4.70524C20.7397 4.89099 20.8872 5.11156 20.9879 5.35436C21.0885 5.59715 21.1403 5.85741 21.1403 6.12024C21.1403 6.38307 21.0885 6.64332 20.9879 6.88612C20.8872 7.12892 20.7397 7.34949 20.5537 7.53524L20.4937 7.59524C20.2632 7.83092 20.1086 8.13026 20.0497 8.45465C19.9909 8.77905 20.0306 9.11362 20.1637 9.41524V9.49524C20.2905 9.79101 20.501 10.0433 20.7693 10.2209C21.0376 10.3986 21.352 10.494 21.6737 10.4952H21.8438C22.3742 10.4952 22.8829 10.706 23.258 11.081C23.633 11.4561 23.8438 11.9648 23.8438 12.4952C23.8438 13.0257 23.633 13.5344 23.258 13.9095C22.8829 14.2845 22.3742 14.4952 21.8438 14.4952H21.7537C21.432 14.4965 21.1176 14.5919 20.8493 14.7695C20.581 14.9472 20.3705 15.1995 20.2437 15.4952V15.4952Z" stroke="#0CBC84" stroke-width="2" stroke-linecap="round" stroke-linejoin="round"/>
</g>
<defs>
<clipPath id="clip0_494_4196">
<rect width="24" height="24" fill="white" transform="translate(0.84375 0.495239)"/>
</clipPath>
</defs>
</svg>
