<svg width="35" height="16" viewBox="0 0 35 16" fill="none" xmlns="http://www.w3.org/2000/svg">
<path d="M7.63965 3.74162C7.57904 3.20374 7.32904 2.78708 6.88965 2.49162C6.45025 2.19238 5.89722 2.04276 5.23056 2.04276C4.75328 2.04276 4.34041 2.11852 3.99192 2.27003C3.64344 2.41776 3.3726 2.6223 3.17942 2.88367C2.99003 3.14124 2.89533 3.4348 2.89533 3.76435C2.89533 4.04086 2.95972 4.2795 3.08851 4.48026C3.22109 4.68102 3.39344 4.84958 3.60556 4.98594C3.82147 5.11852 4.05253 5.23026 4.29874 5.32117C4.54495 5.40829 4.78169 5.48026 5.00897 5.53708L6.14533 5.83253C6.51654 5.92344 6.89722 6.04655 7.28738 6.20185C7.67753 6.35715 8.03927 6.5617 8.3726 6.81549C8.70594 7.06927 8.97488 7.38367 9.17942 7.75867C9.38775 8.13367 9.49192 8.58253 9.49192 9.10526C9.49192 9.76435 9.32147 10.3496 8.98056 10.8609C8.64344 11.3723 8.15291 11.7757 7.50897 12.0712C6.86882 12.3666 6.09419 12.5143 5.1851 12.5143C4.31389 12.5143 3.5601 12.3761 2.92374 12.0996C2.28738 11.8231 1.78927 11.431 1.42942 10.9234C1.06957 10.4121 0.870709 9.80602 0.83283 9.10526H2.59419C2.62828 9.52571 2.76465 9.87609 3.00328 10.1564C3.24571 10.4329 3.55442 10.6393 3.92942 10.7757C4.30821 10.9083 4.72298 10.9746 5.17374 10.9746C5.66995 10.9746 6.11124 10.8969 6.4976 10.7416C6.88775 10.5825 7.19457 10.3628 7.41806 10.0825C7.64154 9.79844 7.75328 9.467 7.75328 9.08821C7.75328 8.74352 7.6548 8.46132 7.45783 8.24162C7.26465 8.02192 7.00139 7.84011 6.66806 7.69617C6.33851 7.55223 5.96541 7.42533 5.54874 7.31549L4.17374 6.94049C3.24192 6.6867 2.50328 6.31359 1.95783 5.82117C1.41616 5.32874 1.14533 4.67723 1.14533 3.86662C1.14533 3.19617 1.32715 2.61094 1.69078 2.11094C2.05442 1.61094 2.54685 1.22268 3.16806 0.946167C3.78927 0.665864 4.49003 0.525712 5.27033 0.525712C6.05821 0.525712 6.75328 0.66397 7.35556 0.940485C7.96162 1.217 8.43889 1.59768 8.78738 2.08253C9.13586 2.56359 9.31768 3.11662 9.33283 3.74162H7.63965ZM15.5274 3.59389V4.95753H10.7604V3.59389H15.5274ZM12.0388 1.50299H13.7377V9.75867C13.7377 10.0882 13.7869 10.3363 13.8854 10.503C13.9839 10.6659 14.1108 10.7776 14.2661 10.8382C14.4252 10.895 14.5975 10.9234 14.7831 10.9234C14.9195 10.9234 15.0388 10.914 15.1411 10.895C15.2433 10.8761 15.3229 10.8609 15.3797 10.8496L15.6865 12.253C15.588 12.2909 15.4479 12.3287 15.2661 12.3666C15.0843 12.4083 14.857 12.431 14.5843 12.4348C14.1373 12.4424 13.7206 12.3628 13.3343 12.1962C12.9479 12.0295 12.6354 11.7719 12.3968 11.4234C12.1581 11.075 12.0388 10.6375 12.0388 10.1109V1.50299ZM20.9891 12.4973C20.1709 12.4973 19.4569 12.3098 18.847 11.9348C18.2372 11.5598 17.7637 11.0352 17.4266 10.3609C17.0895 9.6867 16.9209 8.89882 16.9209 7.9973C16.9209 7.092 17.0895 6.30033 17.4266 5.6223C17.7637 4.94427 18.2372 4.41776 18.847 4.04276C19.4569 3.66776 20.1709 3.48026 20.9891 3.48026C21.8073 3.48026 22.5213 3.66776 23.1311 4.04276C23.741 4.41776 24.2145 4.94427 24.5516 5.6223C24.8887 6.30033 25.0573 7.092 25.0573 7.9973C25.0573 8.89882 24.8887 9.6867 24.5516 10.3609C24.2145 11.0352 23.741 11.5598 23.1311 11.9348C22.5213 12.3098 21.8073 12.4973 20.9891 12.4973ZM20.9948 11.0712C21.5251 11.0712 21.9645 10.931 22.3129 10.6507C22.6614 10.3704 22.919 9.9973 23.0857 9.53139C23.2561 9.06549 23.3414 8.55223 23.3414 7.99162C23.3414 7.4348 23.2561 6.92344 23.0857 6.45753C22.919 5.98783 22.6614 5.61094 22.3129 5.32685C21.9645 5.04276 21.5251 4.90071 20.9948 4.90071C20.4607 4.90071 20.0175 5.04276 19.6652 5.32685C19.3167 5.61094 19.0573 5.98783 18.8868 6.45753C18.7201 6.92344 18.6368 7.4348 18.6368 7.99162C18.6368 8.55223 18.7201 9.06549 18.8868 9.53139C19.0573 9.9973 19.3167 10.3704 19.6652 10.6507C20.0175 10.931 20.4607 11.0712 20.9948 11.0712ZM26.9536 15.5939V3.59389H28.6127V5.00867H28.7547C28.8532 4.82685 28.9952 4.61662 29.1808 4.37799C29.3664 4.13935 29.624 3.93102 29.9536 3.75299C30.2831 3.57117 30.7187 3.48026 31.2604 3.48026C31.9649 3.48026 32.5937 3.65829 33.1468 4.01435C33.6998 4.37041 34.1335 4.88367 34.4479 5.55412C34.7661 6.22458 34.9252 7.03139 34.9252 7.97458C34.9252 8.91776 34.768 9.72647 34.4536 10.4007C34.1392 11.0712 33.7074 11.5882 33.1581 11.9518C32.6089 12.3117 31.982 12.4916 31.2774 12.4916C30.7471 12.4916 30.3134 12.4026 29.9763 12.2246C29.643 12.0465 29.3816 11.8382 29.1922 11.5996C29.0028 11.3609 28.857 11.1488 28.7547 10.9632H28.6524V15.5939H26.9536ZM28.6183 7.95753C28.6183 8.57117 28.7074 9.10905 28.8854 9.57117C29.0634 10.0333 29.321 10.395 29.6581 10.6564C29.9952 10.914 30.4081 11.0428 30.8968 11.0428C31.4043 11.0428 31.8286 10.9083 32.1695 10.6393C32.5104 10.3666 32.768 9.9973 32.9422 9.53139C33.1202 9.06549 33.2093 8.54086 33.2093 7.95753C33.2093 7.38177 33.1221 6.86473 32.9479 6.40639C32.7774 5.94806 32.5199 5.58632 32.1752 5.32117C31.8343 5.05602 31.4081 4.92344 30.8968 4.92344C30.4043 4.92344 29.9877 5.05033 29.6468 5.30412C29.3096 5.55791 29.0539 5.91208 28.8797 6.36662C28.7055 6.82117 28.6183 7.35147 28.6183 7.95753Z" fill="white"/>
</svg>
