<svg width="17" height="17" viewBox="0 0 17 17" fill="none" xmlns="http://www.w3.org/2000/svg">
<g clip-path="url(#clip0_849_2643)">
<path d="M14.9148 1.39697H1.75351C1.3027 1.39697 0.937256 1.76242 0.937256 2.21322V15.3745C0.937256 15.8253 1.3027 16.1907 1.75351 16.1907H14.9148C15.3656 16.1907 15.731 15.8253 15.731 15.3745V2.21322C15.731 1.76242 15.3656 1.39697 14.9148 1.39697Z" fill="#3D5A98"/>
<path d="M11.1434 16.1893V10.4606H13.0659L13.3534 8.22809H11.1434V6.80309C11.1434 6.15684 11.3234 5.71559 12.2496 5.71559H13.4321V3.71559C12.8595 3.65592 12.2841 3.62754 11.7084 3.63059C10.0059 3.63059 8.83339 4.66809 8.83339 6.58184V8.22809H6.91089V10.4606H8.83339V16.1893H11.1434Z" fill="white"/>
</g>
<defs>
<clipPath id="clip0_849_2643">
<rect width="16" height="16" fill="white" transform="translate(0.333496 0.793213)"/>
</clipPath>
</defs>
</svg>
