<svg width="24" height="17" viewBox="0 0 24 17" fill="none" xmlns="http://www.w3.org/2000/svg">
<path d="M22.6756 3.29865C22.5445 2.81436 22.2889 2.37285 21.9341 2.01809C21.5793 1.66334 21.1378 1.40772 20.6535 1.27669C18.8804 0.793213 11.745 0.793213 11.745 0.793213C11.745 0.793213 4.60935 0.807885 2.83654 1.29137C2.35226 1.42242 1.91077 1.67804 1.55602 2.0328C1.20126 2.38755 0.945635 2.82904 0.814586 3.31332C0.278286 6.46363 0.0702212 11.2636 0.829258 14.2878C0.960308 14.7721 1.21594 15.2135 1.57069 15.5683C1.92544 15.9231 2.36694 16.1787 2.85121 16.3097C4.62416 16.7932 11.7597 16.7932 11.7597 16.7932C11.7597 16.7932 18.8952 16.7932 20.6682 16.3097C21.1525 16.1787 21.594 15.9231 21.9487 15.5683C22.3035 15.2135 22.5591 14.7721 22.6901 14.2878C23.2556 11.1331 23.43 6.33605 22.6755 3.29879" fill="#FF0000"/>
<path d="M9.47388 12.2217L15.3933 8.79316L9.47388 5.3645V12.2217Z" fill="white"/>
</svg>
