<svg width="10" height="9" viewBox="0 0 10 9" fill="none" xmlns="http://www.w3.org/2000/svg">
<rect x="0.5" width="9" height="9" rx="4.5" fill="#5B21B6"/>
<path d="M7.37165 5.90902C7.28277 6.11341 7.17758 6.30154 7.0557 6.47451C6.88956 6.7103 6.75353 6.87352 6.6487 6.96416C6.48619 7.11293 6.31207 7.18912 6.12562 7.19346C5.99177 7.19346 5.83035 7.15554 5.64245 7.07863C5.45393 7.00207 5.28068 6.96416 5.12227 6.96416C4.95614 6.96416 4.77796 7.00207 4.58737 7.07863C4.39649 7.15554 4.24273 7.19562 4.12516 7.1996C3.94637 7.20718 3.76815 7.12882 3.59026 6.96416C3.47672 6.86558 3.33471 6.69658 3.16458 6.45717C2.98205 6.20152 2.83198 5.90505 2.71442 5.56706C2.58851 5.20199 2.52539 4.84847 2.52539 4.50622C2.52539 4.11418 2.61049 3.77604 2.78094 3.49269C2.9149 3.26508 3.09312 3.08555 3.31617 2.95374C3.53922 2.82194 3.78023 2.75478 4.03977 2.75048C4.18179 2.75048 4.36802 2.79421 4.59945 2.88015C4.83023 2.96638 4.97841 3.01011 5.04338 3.01011C5.09195 3.01011 5.25656 2.95898 5.53562 2.85704C5.79951 2.76251 6.02224 2.72336 6.2047 2.73878C6.69912 2.7785 7.07057 2.97252 7.3176 3.32207C6.87541 3.58877 6.65668 3.96233 6.66103 4.44155C6.66502 4.81482 6.80105 5.12544 7.06839 5.37207C7.18955 5.48654 7.32485 5.57501 7.47539 5.63784C7.44274 5.73208 7.40828 5.82236 7.37165 5.90902ZM6.23771 1.46713C6.23771 1.7597 6.13034 2.03287 5.91632 2.28571C5.65804 2.58629 5.34565 2.75998 5.00688 2.73257C5.00257 2.69747 5.00006 2.66053 5.00006 2.62171C5.00006 2.34085 5.12289 2.04027 5.34101 1.7945C5.4499 1.67007 5.5884 1.5666 5.75635 1.48407C5.92394 1.40276 6.08245 1.3578 6.23154 1.3501C6.2359 1.38921 6.23771 1.42832 6.23771 1.46713V1.46713Z" fill="white"/>
</svg>
