<svg width="10" height="10" viewBox="0 0 10 10" fill="none" xmlns="http://www.w3.org/2000/svg">
<path d="M4.58221 6.09576L3.89106 6.78822C3.74536 6.9342 3.51373 6.9342 3.36429 6.79196C3.32319 6.75079 3.2821 6.71336 3.241 6.67219C2.8562 6.28291 2.50876 5.87492 2.19867 5.44822C1.89232 5.02151 1.64575 4.59481 1.46642 4.17184C1.29083 3.74514 1.20117 3.33715 1.20117 2.94787C1.20117 2.69335 1.246 2.45005 1.33567 2.22547C1.42533 1.99714 1.5673 1.78753 1.7653 1.60038C2.0044 1.36457 2.26592 1.24854 2.54238 1.24854C2.64699 1.24854 2.75159 1.27099 2.84499 1.31591C2.94213 1.36083 3.02805 1.4282 3.0953 1.52552L3.96204 2.74949C4.02929 2.84307 4.07786 2.92916 4.11148 3.0115C4.1451 3.09011 4.16378 3.16871 4.16378 3.23983C4.16378 3.32966 4.13763 3.41949 4.08533 3.50558C4.03676 3.59167 3.96578 3.68151 3.87612 3.77134L3.59218 4.06704C3.55109 4.10821 3.53241 4.15687 3.53241 4.21676C3.53241 4.2467 3.53614 4.2729 3.54362 4.30285C3.55482 4.33279 3.56603 4.35525 3.5735 4.37771C3.64075 4.50123 3.75656 4.66218 3.92095 4.85682C4.08906 5.05146 4.26839 5.24984 4.46266 5.44822C4.50002 5.48565 4.54111 5.52308 4.57847 5.56051C4.72791 5.70649 4.73165 5.94604 4.58221 6.09576Z" fill="#5B21B6"/>
<path d="M8.66239 7.36113C8.66239 7.46594 8.64371 7.57448 8.60635 7.67929C8.59514 7.70923 8.58394 7.73918 8.56899 7.76912C8.50548 7.90387 8.42329 8.03113 8.31495 8.15091C8.13189 8.35304 7.93014 8.49901 7.70225 8.59259C7.69851 8.59259 7.69478 8.59633 7.69104 8.59633C7.47062 8.68616 7.23152 8.73482 6.97374 8.73482C6.59267 8.73482 6.18545 8.64499 5.75582 8.46158C5.32618 8.27817 4.89655 8.03113 4.47065 7.72046C4.32495 7.61192 4.17925 7.50337 4.04102 7.38733L5.26267 6.16336C5.36728 6.24197 5.46068 6.30185 5.53913 6.34303C5.55781 6.35051 5.58023 6.36174 5.60638 6.37297C5.63627 6.3842 5.66616 6.38794 5.69978 6.38794C5.76329 6.38794 5.81186 6.36549 5.85295 6.32431L6.13689 6.04358C6.23028 5.95001 6.31995 5.87889 6.40587 5.83397C6.4918 5.78157 6.57773 5.75537 6.67113 5.75537C6.74211 5.75537 6.81683 5.77034 6.89902 5.80403C6.98121 5.83772 7.06714 5.88638 7.16054 5.95001L8.39714 6.82962C8.49427 6.897 8.56152 6.9756 8.60262 7.06917C8.63997 7.16275 8.66239 7.25633 8.66239 7.36113Z" fill="#5B21B6"/>
</svg>
