<svg width="10" height="10" viewBox="0 0 10 10" fill="none" xmlns="http://www.w3.org/2000/svg">
<path d="M3.73043 8.59168C3.71922 8.59168 3.70428 8.59918 3.69307 8.59918C2.96829 8.23918 2.37801 7.64293 2.01562 6.91543C2.01562 6.90418 2.0231 6.88918 2.0231 6.87793C2.47888 7.01293 2.94961 7.11418 3.41661 7.19293C3.4988 7.66543 3.59593 8.13418 3.73043 8.59168Z" fill="#5B21B6"/>
<path d="M8.6962 6.91918C8.32634 7.66543 7.70991 8.26918 6.95898 8.63293C7.10095 8.15668 7.2205 7.67668 7.29896 7.19293C7.76969 7.11418 8.23294 7.01293 8.68873 6.87793C8.68499 6.89293 8.6962 6.90793 8.6962 6.91918Z" fill="#5B21B6"/>
<path d="M8.72609 3.64094C8.25536 3.49844 7.78089 3.38219 7.29896 3.29969C7.2205 2.81594 7.10469 2.33594 6.95898 1.86719C7.73233 2.23844 8.35623 2.86469 8.72609 3.64094Z" fill="#5B21B6"/>
<path d="M3.73102 1.90871C3.59652 2.36621 3.49939 2.83121 3.42093 3.30371C2.939 3.37871 2.46079 3.49871 1.98633 3.64121C2.34872 2.88746 2.9502 2.26871 3.69366 1.89746C3.70487 1.89746 3.71981 1.90871 3.73102 1.90871Z" fill="#5B21B6"/>
<path d="M6.65848 3.22174C5.79174 3.12424 4.91752 3.12424 4.05078 3.22174C4.14418 2.70799 4.26373 2.19424 4.43185 1.69924C4.43932 1.66924 4.43558 1.64674 4.43932 1.61674C4.73446 1.54549 5.03707 1.50049 5.35463 1.50049C5.66845 1.50049 5.9748 1.54549 6.2662 1.61674C6.26994 1.64674 6.26994 1.66924 6.27741 1.69924C6.44553 2.19799 6.56508 2.70799 6.65848 3.22174Z" fill="#5B21B6"/>
<path d="M3.33394 6.55891C2.81838 6.46516 2.31029 6.34516 1.81715 6.17641C1.78726 6.16891 1.76484 6.17266 1.73496 6.16891C1.66397 5.87266 1.61914 5.56891 1.61914 5.25016C1.61914 4.93516 1.66397 4.62766 1.73496 4.33516C1.76484 4.33141 1.78726 4.33141 1.81715 4.32391C2.31403 4.15891 2.81838 4.03516 3.33394 3.94141C3.24054 4.81141 3.24054 5.68891 3.33394 6.55891Z" fill="#5B21B6"/>
<path d="M9.09176 5.25016C9.09176 5.56891 9.04692 5.87266 8.97594 6.16891C8.94605 6.17266 8.92364 6.16891 8.89375 6.17641C8.39687 6.34141 7.88878 6.46516 7.37695 6.55891C7.47409 5.68891 7.47409 4.81141 7.37695 3.94141C7.88878 4.03516 8.4006 4.15516 8.89375 4.32391C8.92364 4.33141 8.94605 4.33516 8.97594 4.33516C9.04692 4.63141 9.09176 4.93516 9.09176 5.25016Z" fill="#5B21B6"/>
<path d="M6.65848 7.27881C6.56508 7.79631 6.44553 8.30631 6.27741 8.80131C6.26994 8.83131 6.26994 8.85381 6.2662 8.88381C5.9748 8.95506 5.66845 9.00006 5.35463 9.00006C5.03707 9.00006 4.73446 8.95506 4.43932 8.88381C4.43558 8.85381 4.43932 8.83131 4.43185 8.80131C4.26747 8.30256 4.14418 7.79631 4.05078 7.27881C4.48415 7.32756 4.91752 7.36131 5.35463 7.36131C5.79174 7.36131 6.22884 7.32756 6.65848 7.27881Z" fill="#5B21B6"/>
<path d="M6.76167 6.66125C5.82728 6.77958 4.88414 6.77958 3.94975 6.66125C3.83186 5.72334 3.83186 4.77666 3.94975 3.83875C4.88414 3.72042 5.82728 3.72042 6.76167 3.83875C6.87956 4.77666 6.87956 5.72334 6.76167 6.66125Z" fill="#5B21B6"/>
</svg>
