<svg width="8" height="8" viewBox="0 0 8 8" fill="none" xmlns="http://www.w3.org/2000/svg">
<path d="M6.11921 0.625H1.44926C0.882892 0.625 0.421875 1.08775 0.421875 1.65625V6.34375C0.421875 6.91225 0.882892 7.375 1.44926 7.375H6.11921C6.68558 7.375 7.14659 6.91225 7.14659 6.34375V1.65625C7.14659 1.08775 6.68558 0.625 6.11921 0.625ZM2.66345 5.875C2.66345 5.97869 2.57995 6.0625 2.47665 6.0625H1.91626C1.81296 6.0625 1.72946 5.97869 1.72946 5.875V3.4375C1.72946 3.33381 1.81296 3.25 1.91626 3.25H2.47665C2.57995 3.25 2.66345 3.33381 2.66345 3.4375V5.875ZM2.19645 2.875C1.93849 2.875 1.72946 2.66519 1.72946 2.40625C1.72946 2.14731 1.93849 1.9375 2.19645 1.9375C2.45442 1.9375 2.66345 2.14731 2.66345 2.40625C2.66345 2.66519 2.45442 2.875 2.19645 2.875ZM5.83901 5.875C5.83901 5.97869 5.75551 6.0625 5.65221 6.0625H5.09182C4.98852 6.0625 4.90502 5.97869 4.90502 5.875V4.46875C4.90502 4.21019 4.69562 4 4.43803 4C4.18043 4 3.97103 4.21019 3.97103 4.46875V5.875C3.97103 5.97869 3.88753 6.0625 3.78423 6.0625H3.22384C3.12054 6.0625 3.03704 5.97869 3.03704 5.875V3.4375C3.03704 3.33381 3.12054 3.25 3.22384 3.25H3.78423C3.88753 3.25 3.97103 3.33381 3.97103 3.4375V3.53894C4.1696 3.35987 4.43093 3.25 4.71822 3.25C5.33634 3.25 5.83901 3.75456 5.83901 4.375V5.875Z" fill="#5B21B6"/>
</svg>
