<svg width="10" height="10" viewBox="0 0 10 10" fill="none" xmlns="http://www.w3.org/2000/svg">
<path d="M7.12932 1.4375H3.39337C2.27258 1.4375 1.52539 2 1.52539 3.3125V5.9375C1.52539 7.25 2.27258 7.8125 3.39337 7.8125H7.12932C8.25011 7.8125 8.9973 7.25 8.9973 5.9375V3.3125C8.9973 2 8.25011 1.4375 7.12932 1.4375ZM7.30491 3.72125L6.13556 4.65875C5.88899 4.8575 5.57516 4.955 5.26134 4.955C4.94752 4.955 4.62997 4.8575 4.38713 4.65875L3.21778 3.72125C3.09823 3.62375 3.07955 3.44375 3.17295 3.32375C3.27008 3.20375 3.44567 3.18125 3.56522 3.27875L4.73458 4.21625C5.01851 4.445 5.50045 4.445 5.78438 4.21625L6.95373 3.27875C7.07328 3.18125 7.25261 3.2 7.34601 3.32375C7.44314 3.44375 7.42446 3.62375 7.30491 3.72125Z" fill="#5B21B6"/>
</svg>
