<svg width="41" height="41" viewBox="0 0 41 41" fill="none" xmlns="http://www.w3.org/2000/svg">
<g clip-path="url(#clip0_3577_11124)">
<path d="M39.1251 17.0167L32.6751 10.5001C32.5202 10.3439 32.3359 10.2199 32.1328 10.1353C31.9297 10.0506 31.7118 10.0071 31.4918 10.0071C31.2718 10.0071 31.0539 10.0506 30.8508 10.1353C30.6477 10.2199 30.4634 10.3439 30.3085 10.5001C29.998 10.8123 29.8238 11.2348 29.8238 11.6751C29.8238 12.1154 29.998 12.5378 30.3085 12.8501L36.2418 18.8334H2.25846C1.81644 18.8334 1.39251 19.009 1.07995 19.3216C0.767392 19.6341 0.591797 20.0581 0.591797 20.5001H0.591797C0.591797 20.9421 0.767392 21.366 1.07995 21.6786C1.39251 21.9911 1.81644 22.1667 2.25846 22.1667H36.3418L30.3085 28.1834C30.1523 28.3384 30.0283 28.5227 29.9436 28.7258C29.859 28.9289 29.8155 29.1467 29.8155 29.3667C29.8155 29.5868 29.859 29.8046 29.9436 30.0077C30.0283 30.2108 30.1523 30.3951 30.3085 30.5501C30.4634 30.7063 30.6477 30.8303 30.8508 30.9149C31.0539 30.9995 31.2718 31.0431 31.4918 31.0431C31.7118 31.0431 31.9297 30.9995 32.1328 30.9149C32.3359 30.8303 32.5202 30.7063 32.6751 30.5501L39.1251 24.0834C40.0615 23.1459 40.5874 21.8751 40.5874 20.5501C40.5874 19.2251 40.0615 17.9542 39.1251 17.0167Z" fill="#9CA3AF"/>
</g>
<defs>
<clipPath id="clip0_3577_11124">
<rect width="40" height="40" fill="white" transform="translate(0.591797 0.5)"/>
</clipPath>
</defs>
</svg>
