<svg width="20" height="20" viewBox="0 0 20 20" fill="none" xmlns="http://www.w3.org/2000/svg">
<path d="M7.4987 8.95833C6.23203 8.95833 5.20703 7.93333 5.20703 6.66667C5.20703 5.4 6.23203 4.375 7.4987 4.375C8.76536 4.375 9.79036 5.4 9.79036 6.66667C9.79036 7.93333 8.76536 8.95833 7.4987 8.95833ZM7.4987 5.625C6.9237 5.625 6.45703 6.09167 6.45703 6.66667C6.45703 7.24167 6.9237 7.70833 7.4987 7.70833C8.0737 7.70833 8.54036 7.24167 8.54036 6.66667C8.54036 6.09167 8.0737 5.625 7.4987 5.625Z" fill="#94A3B8"/>
<path d="M12.5013 18.9584H7.5013C2.9763 18.9584 1.04297 17.0251 1.04297 12.5001V7.50008C1.04297 2.97508 2.9763 1.04175 7.5013 1.04175H10.8346C11.1763 1.04175 11.4596 1.32508 11.4596 1.66675C11.4596 2.00841 11.1763 2.29175 10.8346 2.29175H7.5013C3.65964 2.29175 2.29297 3.65841 2.29297 7.50008V12.5001C2.29297 16.3417 3.65964 17.7084 7.5013 17.7084H12.5013C16.343 17.7084 17.7096 16.3417 17.7096 12.5001V8.33341C17.7096 7.99175 17.993 7.70841 18.3346 7.70841C18.6763 7.70841 18.9596 7.99175 18.9596 8.33341V12.5001C18.9596 17.0251 17.0263 18.9584 12.5013 18.9584Z" fill="#94A3B8"/>
<path d="M13.0597 8.12511C12.7347 8.12511 12.4347 8.00845 12.218 7.78345C11.9597 7.52511 11.8347 7.14178 11.893 6.75011L12.0597 5.59178C12.1014 5.30011 12.2764 4.94178 12.493 4.73344L15.518 1.70845C16.7264 0.500112 17.7764 1.19178 18.293 1.70845C18.7847 2.20011 19.0097 2.71678 18.9597 3.25011C18.918 3.67511 18.7014 4.08345 18.293 4.48345L15.268 7.50845C15.0597 7.71678 14.7014 7.89178 14.4097 7.94178L13.2514 8.10844C13.1847 8.12511 13.118 8.12511 13.0597 8.12511ZM16.393 2.60011L13.368 5.62511C13.343 5.65011 13.3014 5.74178 13.293 5.78345L13.1347 6.86678L14.2264 6.71678C14.2597 6.70845 14.3514 6.66678 14.3847 6.63345L17.4097 3.60845C17.593 3.42511 17.7014 3.25845 17.7097 3.13345C17.7264 2.95845 17.5514 2.74178 17.4097 2.60011C16.9764 2.16678 16.7764 2.21678 16.393 2.60011Z" fill="#94A3B8"/>
<path d="M17.4169 5.1083C17.3586 5.1083 17.3002 5.09997 17.2502 5.0833C16.1336 4.76663 15.2419 3.87497 14.9252 2.7583C14.8336 2.42497 15.0252 2.0833 15.3586 1.99163C15.6919 1.89997 16.0336 2.09163 16.1252 2.42497C16.3252 3.12497 16.8836 3.69163 17.5919 3.89163C17.9252 3.9833 18.1169 4.3333 18.0252 4.6583C17.9336 4.92497 17.6836 5.1083 17.4169 5.1083Z" fill="#94A3B8"/>
<path d="M2.22443 16.4166C2.02443 16.4166 1.82443 16.3166 1.70776 16.1416C1.5161 15.8582 1.5911 15.4666 1.87443 15.2749L5.98276 12.5166C6.88276 11.9166 8.12443 11.9832 8.9411 12.6749L9.2161 12.9166C9.63276 13.2749 10.3411 13.2749 10.7494 12.9166L14.2161 9.94155C15.0994 9.18322 16.4911 9.18322 17.3828 9.94155L18.7411 11.1082C18.9994 11.3332 19.0328 11.7249 18.8078 11.9916C18.5828 12.2499 18.1911 12.2832 17.9244 12.0582L16.5661 10.8916C16.1494 10.5332 15.4411 10.5332 15.0328 10.8916L11.5661 13.8666C10.6828 14.6249 9.2911 14.6249 8.39943 13.8666L8.12443 13.6249C7.7411 13.2999 7.10776 13.2666 6.68276 13.5582L2.58276 16.3166C2.4661 16.3832 2.3411 16.4166 2.22443 16.4166Z" fill="#94A3B8"/>
</svg>
