<svg width="16" height="18" viewBox="0 0 16 18" fill="none" xmlns="http://www.w3.org/2000/svg">
<path d="M15.1836 6.25033C14.3169 2.39199 10.9503 0.666992 8.00028 0.666992C8.00028 0.666992 8.00028 0.666992 7.99195 0.666992C5.05028 0.666992 1.69195 2.39199 0.816947 6.24199C-0.166386 10.542 2.46695 14.1837 4.85028 16.4837C5.73361 17.3337 6.86695 17.7587 8.00028 17.7587C9.13361 17.7587 10.2669 17.3337 11.1419 16.4837C13.5253 14.1837 16.1586 10.5503 15.1836 6.25033ZM10.2919 8.79199H5.70861C5.36695 8.79199 5.08361 8.50866 5.08361 8.16699C5.08361 7.82533 5.36695 7.54199 5.70861 7.54199H10.2919C10.6336 7.54199 10.9169 7.82533 10.9169 8.16699C10.9169 8.50866 10.6336 8.79199 10.2919 8.79199Z" fill="#06B6D4"/>
</svg>
