<svg width="25" height="24" viewBox="0 0 25 24" fill="none" xmlns="http://www.w3.org/2000/svg">
<g filter="url(#filter0_i_1334_3789)">
<path d="M4.21484 18.75C3.80484 18.75 3.46484 18.41 3.46484 18V7C3.46484 2.59 4.80484 1.25 9.21484 1.25H16.2148C20.6248 1.25 21.9648 2.59 21.9648 7V17C21.9648 17.16 21.9648 17.31 21.9548 17.47C21.9248 17.88 21.5548 18.2 21.1548 18.17C20.7448 18.14 20.4248 17.78 20.4548 17.37C20.4648 17.25 20.4648 17.12 20.4648 17V7C20.4648 3.43 19.7948 2.75 16.2148 2.75H9.21484C5.63484 2.75 4.96484 3.43 4.96484 7V18C4.96484 18.41 4.62484 18.75 4.21484 18.75Z" fill="#6D28D9"/>
<path d="M17.7148 22.75H7.71484C5.37484 22.75 3.46484 20.84 3.46484 18.5V17.85C3.46484 15.86 5.08484 14.25 7.06484 14.25H21.2148C21.6248 14.25 21.9648 14.59 21.9648 15V18.5C21.9648 20.84 20.0548 22.75 17.7148 22.75ZM7.06484 15.75C5.90484 15.75 4.96484 16.69 4.96484 17.85V18.5C4.96484 20.02 6.19484 21.25 7.71484 21.25H17.7148C19.2348 21.25 20.4648 20.02 20.4648 18.5V15.75H7.06484Z" fill="#6D28D9"/>
<path d="M16.7148 7.75H8.71484C8.30484 7.75 7.96484 7.41 7.96484 7C7.96484 6.59 8.30484 6.25 8.71484 6.25H16.7148C17.1248 6.25 17.4648 6.59 17.4648 7C17.4648 7.41 17.1248 7.75 16.7148 7.75Z" fill="#6D28D9"/>
<path d="M13.7148 11.25H8.71484C8.30484 11.25 7.96484 10.91 7.96484 10.5C7.96484 10.09 8.30484 9.75 8.71484 9.75H13.7148C14.1248 9.75 14.4648 10.09 14.4648 10.5C14.4648 10.91 14.1248 11.25 13.7148 11.25Z" fill="#6D28D9"/>
</g>
<defs>
<filter id="filter0_i_1334_3789" x="0.714844" y="0" width="24" height="25" filterUnits="userSpaceOnUse" color-interpolation-filters="sRGB">
<feFlood flood-opacity="0" result="BackgroundImageFix"/>
<feBlend mode="normal" in="SourceGraphic" in2="BackgroundImageFix" result="shape"/>
<feColorMatrix in="SourceAlpha" type="matrix" values="0 0 0 0 0 0 0 0 0 0 0 0 0 0 0 0 0 0 127 0" result="hardAlpha"/>
<feOffset dy="1"/>
<feGaussianBlur stdDeviation="0.5"/>
<feComposite in2="hardAlpha" operator="arithmetic" k2="-1" k3="1"/>
<feColorMatrix type="matrix" values="0 0 0 0 0 0 0 0 0 0 0 0 0 0 0 0 0 0 0.42 0"/>
<feBlend mode="normal" in2="shape" result="effect1_innerShadow_1334_3789"/>
</filter>
</defs>
</svg>
