<svg width="24" height="25" viewBox="0 0 24 25" fill="none" xmlns="http://www.w3.org/2000/svg">
<g filter="url(#filter0_i_1369_7319)">
<path d="M2 10.25C1.59 10.25 1.25 9.91 1.25 9.5V7C1.25 4.1 3.61 1.75 6.5 1.75H9C9.41 1.75 9.75 2.09 9.75 2.5C9.75 2.91 9.41 3.25 9 3.25H6.5C4.43 3.25 2.75 4.93 2.75 7V9.5C2.75 9.91 2.41 10.25 2 10.25Z" fill="#6D28D9"/>
<path d="M22 10.25C21.59 10.25 21.25 9.91 21.25 9.5V7C21.25 4.93 19.57 3.25 17.5 3.25H15C14.59 3.25 14.25 2.91 14.25 2.5C14.25 2.09 14.59 1.75 15 1.75H17.5C20.39 1.75 22.75 4.1 22.75 7V9.5C22.75 9.91 22.41 10.25 22 10.25Z" fill="#6D28D9"/>
<path d="M17.5 23.25H16C15.59 23.25 15.25 22.91 15.25 22.5C15.25 22.09 15.59 21.75 16 21.75H17.5C19.57 21.75 21.25 20.07 21.25 18V16.5C21.25 16.09 21.59 15.75 22 15.75C22.41 15.75 22.75 16.09 22.75 16.5V18C22.75 20.9 20.39 23.25 17.5 23.25Z" fill="#6D28D9"/>
<path d="M9 23.25H6.5C3.61 23.25 1.25 20.9 1.25 18V15.5C1.25 15.09 1.59 14.75 2 14.75C2.41 14.75 2.75 15.09 2.75 15.5V18C2.75 20.07 4.43 21.75 6.5 21.75H9C9.41 21.75 9.75 22.09 9.75 22.5C9.75 22.91 9.41 23.25 9 23.25Z" fill="#6D28D9"/>
<path d="M9 11.75H7C5.59 11.75 4.75 10.91 4.75 9.5V7.5C4.75 6.09 5.59 5.25 7 5.25H9C10.41 5.25 11.25 6.09 11.25 7.5V9.5C11.25 10.91 10.41 11.75 9 11.75ZM7 6.75C6.41 6.75 6.25 6.91 6.25 7.5V9.5C6.25 10.09 6.41 10.25 7 10.25H9C9.59 10.25 9.75 10.09 9.75 9.5V7.5C9.75 6.91 9.59 6.75 9 6.75H7Z" fill="#6D28D9"/>
<path d="M17 11.75H15C13.59 11.75 12.75 10.91 12.75 9.5V7.5C12.75 6.09 13.59 5.25 15 5.25H17C18.41 5.25 19.25 6.09 19.25 7.5V9.5C19.25 10.91 18.41 11.75 17 11.75ZM15 6.75C14.41 6.75 14.25 6.91 14.25 7.5V9.5C14.25 10.09 14.41 10.25 15 10.25H17C17.59 10.25 17.75 10.09 17.75 9.5V7.5C17.75 6.91 17.59 6.75 17 6.75H15Z" fill="#6D28D9"/>
<path d="M9 19.75H7C5.59 19.75 4.75 18.91 4.75 17.5V15.5C4.75 14.09 5.59 13.25 7 13.25H9C10.41 13.25 11.25 14.09 11.25 15.5V17.5C11.25 18.91 10.41 19.75 9 19.75ZM7 14.75C6.41 14.75 6.25 14.91 6.25 15.5V17.5C6.25 18.09 6.41 18.25 7 18.25H9C9.59 18.25 9.75 18.09 9.75 17.5V15.5C9.75 14.91 9.59 14.75 9 14.75H7Z" fill="#6D28D9"/>
<path d="M17 19.75H15C13.59 19.75 12.75 18.91 12.75 17.5V15.5C12.75 14.09 13.59 13.25 15 13.25H17C18.41 13.25 19.25 14.09 19.25 15.5V17.5C19.25 18.91 18.41 19.75 17 19.75ZM15 14.75C14.41 14.75 14.25 14.91 14.25 15.5V17.5C14.25 18.09 14.41 18.25 15 18.25H17C17.59 18.25 17.75 18.09 17.75 17.5V15.5C17.75 14.91 17.59 14.75 17 14.75H15Z" fill="#6D28D9"/>
</g>
<defs>
<filter id="filter0_i_1369_7319" x="0" y="0.5" width="24" height="25" filterUnits="userSpaceOnUse" color-interpolation-filters="sRGB">
<feFlood flood-opacity="0" result="BackgroundImageFix"/>
<feBlend mode="normal" in="SourceGraphic" in2="BackgroundImageFix" result="shape"/>
<feColorMatrix in="SourceAlpha" type="matrix" values="0 0 0 0 0 0 0 0 0 0 0 0 0 0 0 0 0 0 127 0" result="hardAlpha"/>
<feOffset dy="1"/>
<feGaussianBlur stdDeviation="0.5"/>
<feComposite in2="hardAlpha" operator="arithmetic" k2="-1" k3="1"/>
<feColorMatrix type="matrix" values="0 0 0 0 0 0 0 0 0 0 0 0 0 0 0 0 0 0 0.25 0"/>
<feBlend mode="normal" in2="shape" result="effect1_innerShadow_1369_7319"/>
</filter>
</defs>
</svg>
