<svg width="25" height="25" viewBox="0 0 25 25" fill="none" xmlns="http://www.w3.org/2000/svg">
<g filter="url(#filter0_i_1000_4356)">
<path d="M12.5 16.25C10.43 16.25 8.75 14.57 8.75 12.5C8.75 10.43 10.43 8.75 12.5 8.75C14.57 8.75 16.25 10.43 16.25 12.5C16.25 14.57 14.57 16.25 12.5 16.25ZM12.5 10.25C11.26 10.25 10.25 11.26 10.25 12.5C10.25 13.74 11.26 14.75 12.5 14.75C13.74 14.75 14.75 13.74 14.75 12.5C14.75 11.26 13.74 10.25 12.5 10.25Z" fill="#7E22CE"/>
<path d="M15.71 22.69C15.5 22.69 15.29 22.66 15.08 22.61C14.46 22.44 13.94 22.05 13.61 21.5L13.49 21.3C12.9 20.28 12.09 20.28 11.5 21.3L11.39 21.49C11.06 22.05 10.54 22.45 9.92 22.61C9.29 22.78 8.64 22.69 8.09 22.36L6.37 21.37C5.76 21.02 5.32 20.45 5.13 19.76C4.95 19.07 5.04 18.36 5.39 17.75C5.68 17.24 5.76 16.78 5.59 16.49C5.42 16.2 4.99 16.03 4.4 16.03C2.94 16.03 1.75 14.84 1.75 13.38V11.62C1.75 10.16 2.94 8.96998 4.4 8.96998C4.99 8.96998 5.42 8.79998 5.59 8.50998C5.76 8.21998 5.69 7.75998 5.39 7.24998C5.04 6.63998 4.95 5.91998 5.13 5.23998C5.31 4.54998 5.75 3.97998 6.37 3.62998L8.1 2.63998C9.23 1.96998 10.72 2.35998 11.4 3.50998L11.52 3.70998C12.11 4.72998 12.92 4.72998 13.51 3.70998L13.62 3.51998C14.3 2.35998 15.79 1.96998 16.93 2.64998L18.65 3.63998C19.26 3.98998 19.7 4.55998 19.89 5.24998C20.07 5.93998 19.98 6.64998 19.63 7.25998C19.34 7.76998 19.26 8.22998 19.43 8.51998C19.6 8.80998 20.03 8.97998 20.62 8.97998C22.08 8.97998 23.27 10.17 23.27 11.63V13.39C23.27 14.85 22.08 16.04 20.62 16.04C20.03 16.04 19.6 16.21 19.43 16.5C19.26 16.79 19.33 17.25 19.63 17.76C19.98 18.37 20.08 19.09 19.89 19.77C19.71 20.46 19.27 21.03 18.65 21.38L16.92 22.37C16.54 22.58 16.13 22.69 15.71 22.69ZM12.5 18.99C13.39 18.99 14.22 19.55 14.79 20.54L14.9 20.73C15.02 20.94 15.22 21.09 15.46 21.15C15.7 21.21 15.94 21.18 16.14 21.06L17.87 20.06C18.13 19.91 18.33 19.66 18.41 19.36C18.49 19.06 18.45 18.75 18.3 18.49C17.73 17.51 17.66 16.5 18.1 15.73C18.54 14.96 19.45 14.52 20.59 14.52C21.23 14.52 21.74 14.01 21.74 13.37V11.61C21.74 10.98 21.23 10.46 20.59 10.46C19.45 10.46 18.54 10.02 18.1 9.24998C17.66 8.47998 17.73 7.46998 18.3 6.48998C18.45 6.22998 18.49 5.91998 18.41 5.61998C18.33 5.31998 18.14 5.07998 17.88 4.91998L16.15 3.92998C15.72 3.66998 15.15 3.81998 14.89 4.25998L14.78 4.44998C14.21 5.43998 13.38 5.99998 12.49 5.99998C11.6 5.99998 10.77 5.43998 10.2 4.44998L10.09 4.24998C9.84 3.82998 9.28 3.67998 8.85 3.92998L7.12 4.92998C6.86 5.07998 6.66 5.32998 6.58 5.62998C6.5 5.92998 6.54 6.23998 6.69 6.49998C7.26 7.47998 7.33 8.48998 6.89 9.25998C6.45 10.03 5.54 10.47 4.4 10.47C3.76 10.47 3.25 10.98 3.25 11.62V13.38C3.25 14.01 3.76 14.53 4.4 14.53C5.54 14.53 6.45 14.97 6.89 15.74C7.33 16.51 7.26 17.52 6.69 18.5C6.54 18.76 6.5 19.07 6.58 19.37C6.66 19.67 6.85 19.91 7.11 20.07L8.84 21.06C9.05 21.19 9.3 21.22 9.53 21.16C9.77 21.1 9.97 20.94 10.1 20.73L10.21 20.54C10.78 19.56 11.61 18.99 12.5 18.99Z" fill="#7E22CE"/>
</g>
<defs>
<filter id="filter0_i_1000_4356" x="0.5" y="0.5" width="24" height="25" filterUnits="userSpaceOnUse" color-interpolation-filters="sRGB">
<feFlood flood-opacity="0" result="BackgroundImageFix"/>
<feBlend mode="normal" in="SourceGraphic" in2="BackgroundImageFix" result="shape"/>
<feColorMatrix in="SourceAlpha" type="matrix" values="0 0 0 0 0 0 0 0 0 0 0 0 0 0 0 0 0 0 127 0" result="hardAlpha"/>
<feOffset dy="1"/>
<feGaussianBlur stdDeviation="0.5"/>
<feComposite in2="hardAlpha" operator="arithmetic" k2="-1" k3="1"/>
<feColorMatrix type="matrix" values="0 0 0 0 0 0 0 0 0 0 0 0 0 0 0 0 0 0 0.42 0"/>
<feBlend mode="normal" in2="shape" result="effect1_innerShadow_1000_4356"/>
</filter>
</defs>
</svg>
