<svg width="25" height="25" viewBox="0 0 25 25" fill="none" xmlns="http://www.w3.org/2000/svg">
<g filter="url(#filter0_i_1000_4087)">
<path d="M7.37988 19.4C6.96988 19.4 6.62988 19.06 6.62988 18.65V16.58C6.62988 16.17 6.96988 15.83 7.37988 15.83C7.78988 15.83 8.12988 16.17 8.12988 16.58V18.65C8.12988 19.07 7.78988 19.4 7.37988 19.4Z" fill="#6D28D9"/>
<path d="M12.5 19.4C12.09 19.4 11.75 19.06 11.75 18.65V14.5C11.75 14.09 12.09 13.75 12.5 13.75C12.91 13.75 13.25 14.09 13.25 14.5V18.65C13.25 19.07 12.91 19.4 12.5 19.4Z" fill="#6D28D9"/>
<path d="M17.6201 19.4C17.2101 19.4 16.8701 19.06 16.8701 18.65V12.43C16.8701 12.02 17.2101 11.68 17.6201 11.68C18.0301 11.68 18.3701 12.02 18.3701 12.43V18.65C18.3701 19.07 18.0401 19.4 17.6201 19.4Z" fill="#6D28D9"/>
<path d="M7.38007 13.68C7.04007 13.68 6.74007 13.45 6.65007 13.11C6.55007 12.71 6.79007 12.3 7.20007 12.2C10.8801 11.28 14.1201 9.26998 16.5901 6.39998L17.0501 5.85998C17.3201 5.54998 17.7901 5.50998 18.1101 5.77998C18.4201 6.04998 18.4601 6.51998 18.1901 6.83998L17.7301 7.37998C15.0601 10.5 11.5401 12.67 7.56007 13.66C7.50007 13.68 7.44007 13.68 7.38007 13.68Z" fill="#6D28D9"/>
<path d="M17.6199 10.02C17.2099 10.02 16.8699 9.67998 16.8699 9.26998V7.09998H14.6899C14.2799 7.09998 13.9399 6.75998 13.9399 6.34998C13.9399 5.93998 14.2799 5.59998 14.6899 5.59998H17.6199C18.0299 5.59998 18.3699 5.93998 18.3699 6.34998V9.27998C18.3699 9.68998 18.0399 10.02 17.6199 10.02Z" fill="#6D28D9"/>
<path d="M15.5 23.25H9.5C4.07 23.25 1.75 20.93 1.75 15.5V9.5C1.75 4.07 4.07 1.75 9.5 1.75H15.5C20.93 1.75 23.25 4.07 23.25 9.5V15.5C23.25 20.93 20.93 23.25 15.5 23.25ZM9.5 3.25C4.89 3.25 3.25 4.89 3.25 9.5V15.5C3.25 20.11 4.89 21.75 9.5 21.75H15.5C20.11 21.75 21.75 20.11 21.75 15.5V9.5C21.75 4.89 20.11 3.25 15.5 3.25H9.5Z" fill="#6D28D9"/>
</g>
<defs>
<filter id="filter0_i_1000_4087" x="0.5" y="0.5" width="24" height="25" filterUnits="userSpaceOnUse" color-interpolation-filters="sRGB">
<feFlood flood-opacity="0" result="BackgroundImageFix"/>
<feBlend mode="normal" in="SourceGraphic" in2="BackgroundImageFix" result="shape"/>
<feColorMatrix in="SourceAlpha" type="matrix" values="0 0 0 0 0 0 0 0 0 0 0 0 0 0 0 0 0 0 127 0" result="hardAlpha"/>
<feOffset dy="1"/>
<feGaussianBlur stdDeviation="0.5"/>
<feComposite in2="hardAlpha" operator="arithmetic" k2="-1" k3="1"/>
<feColorMatrix type="matrix" values="0 0 0 0 0 0 0 0 0 0 0 0 0 0 0 0 0 0 0.42 0"/>
<feBlend mode="normal" in2="shape" result="effect1_innerShadow_1000_4087"/>
</filter>
</defs>
</svg>
