<svg width="25" height="25" viewBox="0 0 25 25" fill="none" xmlns="http://www.w3.org/2000/svg">
<g clip-path="url(#clip0_4242_37794)">
<path d="M10.0328 4.2742C10.7211 4.11308 11.4259 4.03254 12.1328 4.0342C19.1328 4.0342 23.1328 12.0342 23.1328 12.0342C22.5258 13.1698 21.8019 14.2389 20.9728 15.2242M14.2528 14.1542C13.9782 14.449 13.647 14.6854 13.279 14.8493C12.911 15.0133 12.5137 15.1015 12.1109 15.1086C11.7081 15.1157 11.308 15.0416 10.9344 14.8907C10.5609 14.7398 10.2215 14.5152 9.93666 14.2304C9.65178 13.9455 9.42721 13.6061 9.27632 13.2326C9.12544 12.859 9.05134 12.4589 9.05845 12.0561C9.06555 11.6533 9.15372 11.256 9.31769 10.8881C9.48166 10.5201 9.71807 10.1889 10.0128 9.91421M18.0728 17.9742C16.3634 19.2772 14.2819 19.9991 12.1328 20.0342C5.13281 20.0342 1.13281 12.0342 1.13281 12.0342C2.3767 9.7161 4.10195 7.69081 6.19281 6.0942L18.0728 17.9742Z" stroke="#3C3744" stroke-width="1.5" stroke-linecap="round" stroke-linejoin="round"/>
<path d="M1.13281 1.03418L23.1328 23.0342" stroke="#3C3744" stroke-width="1.5" stroke-linecap="round" stroke-linejoin="round"/>
</g>
<defs>
<clipPath id="clip0_4242_37794">
<rect width="24" height="24" fill="white" transform="translate(0.132812 0.0341797)"/>
</clipPath>
</defs>
</svg>
