<svg width="18" height="19" viewBox="0 0 18 19" fill="none" xmlns="http://www.w3.org/2000/svg">
<path d="M17.7825 1.16038C17.6813 1.05964 17.5534 0.989884 17.4139 0.959326C17.2744 0.928768 17.1291 0.938675 16.995 0.987881L0.495001 6.98788C0.352702 7.04186 0.230191 7.13784 0.143739 7.2631C0.0572872 7.38835 0.0109863 7.53694 0.0109863 7.68913C0.0109863 7.84132 0.0572872 7.98991 0.143739 8.11517C0.230191 8.24042 0.352702 8.33641 0.495001 8.39038L6.9375 10.9629L11.6925 6.19288L12.75 7.25038L7.9725 12.0279L10.5525 18.4704C10.6081 18.6099 10.7043 18.7296 10.8286 18.8138C10.953 18.8981 11.0998 18.943 11.25 18.9429C11.4016 18.9398 11.5486 18.8908 11.6718 18.8024C11.795 18.7141 11.8885 18.5905 11.94 18.4479L17.94 1.94788C17.9911 1.81519 18.0034 1.6707 17.9755 1.53127C17.9477 1.39184 17.8807 1.26321 17.7825 1.16038Z" fill="#0CBC84"/>
</svg>
