<svg width="49" height="49" viewBox="0 0 49 49" fill="none" xmlns="http://www.w3.org/2000/svg">
<path d="M24.8442 48.4714C30.3967 48.4715 35.7774 46.5463 40.0696 43.0239C44.3618 39.5015 47.2999 34.5997 48.3832 29.1539C49.4665 23.708 48.6281 18.0551 46.0107 13.1581C43.3933 8.26121 39.1589 4.42337 34.0291 2.29845C28.8993 0.173524 23.1914 -0.106963 17.8779 1.50479C12.5645 3.11655 7.97425 6.52081 4.88939 11.1375C1.80452 15.7543 0.415876 21.2978 0.960062 26.8236C1.50425 32.3494 3.9476 37.5156 7.87378 41.4419C12.3746 45.9428 18.479 48.4713 24.8442 48.4714Z" fill="#0CBC84"/>
<g clip-path="url(#clip0_85_8925)">
<mask id="path-2-outside-1_85_8925" maskUnits="userSpaceOnUse" x="13.0164" y="12.3944" width="23" height="25" fill="black">
<rect fill="white" x="13.0164" y="12.3944" width="23" height="25"/>
<path d="M23.5133 13.159C22.6555 13.2957 21.8586 13.5964 21.1086 14.0748C20.5977 14.3937 19.7961 15.1637 19.4539 15.6603C19.1774 16.0612 18.8493 16.7127 18.7227 17.109L18.643 17.3687L17.0914 17.3824L15.5399 17.3961L15.2024 17.551C14.8274 17.7195 14.4289 18.084 14.2555 18.412C14.0118 18.8813 14.0164 18.7082 14.0164 24.5398C14.0164 30.5946 14.0024 30.3395 14.3399 30.8498C14.6539 31.319 15.1789 31.6471 15.7649 31.7291C15.9243 31.7519 16.9836 31.7701 18.1227 31.7701H20.1899L20.3024 31.8885C20.3633 31.9523 21.1321 32.9273 22.0086 34.0617C23.8461 36.4354 23.8039 36.3944 24.418 36.3944C24.8118 36.3944 25.0508 36.3032 25.2711 36.0663C25.3414 35.998 26.0633 35.0686 26.8836 34.0025C27.7039 32.9364 28.4352 31.9979 28.5149 31.9159L28.6602 31.7701H30.7227C31.8618 31.7701 32.9211 31.7473 33.0852 31.7245C33.9289 31.6061 34.5993 30.9956 34.7774 30.1846C34.8149 30.016 34.8289 28.3349 34.8289 24.5352C34.8289 18.6262 34.8383 18.8631 34.5618 18.3619C34.318 17.9337 33.7696 17.5328 33.2727 17.4189C33.1602 17.3961 32.4243 17.3733 31.6368 17.3733H30.2071L30.1227 17.109C30.0008 16.7263 29.6727 16.0703 29.4243 15.7104C28.5289 14.4119 27.1789 13.5281 25.5946 13.2C25.0977 13.0998 24.0289 13.077 23.5133 13.159ZM25.0696 13.9108C28.3414 14.3117 30.4321 17.6011 29.3164 20.608C29.0493 21.3415 28.7164 21.8472 28.0649 22.5124C27.493 23.0956 27.2352 23.4373 26.9774 23.9339C26.6024 24.6628 26.4852 25.1321 26.443 26.0296L26.4149 26.6902H24.4227H22.4305L22.4024 26.0524C22.3696 25.3644 22.3039 25.0227 22.0836 24.4396C21.8211 23.7334 21.4883 23.2459 20.7524 22.4851C20.218 21.9247 19.9321 21.5238 19.6789 20.9725C18.8258 19.0863 19.2055 16.9314 20.6586 15.4598C21.1274 14.9769 21.5258 14.6898 22.1024 14.4119C23.0586 13.9518 24.0383 13.7878 25.0696 13.9108ZM18.4368 18.6808C18.3805 19.9064 18.7461 21.1593 19.4586 22.1889C19.5852 22.3712 19.9039 22.7402 20.1664 23.009C20.9539 23.82 21.3477 24.5079 21.5352 25.4054C21.5961 25.6788 21.6102 26.066 21.6102 27.246C21.6102 28.4488 21.6243 28.7996 21.6805 29.0137C21.8071 29.4876 22.1352 29.8611 22.5805 30.0479L22.8289 30.1527V30.4352C22.8289 30.663 22.8477 30.7404 22.9368 30.8316C23.0961 31.0047 23.3352 31.0092 23.5086 30.8361C23.6071 30.745 23.6258 30.6812 23.6258 30.4489V30.1755H24.4227H25.2196V30.4489C25.2196 30.6812 25.2383 30.745 25.3368 30.8361C25.5102 31.0092 25.7493 31.0047 25.9133 30.8316C25.9977 30.7404 26.0164 30.663 26.0164 30.4352V30.1527L26.2274 30.0707C26.6258 29.9067 26.968 29.5696 27.1274 29.1686C27.193 28.9955 27.2118 28.7039 27.2352 27.1914C27.2633 25.4282 27.268 25.41 27.3899 25.0136C27.6336 24.2437 27.9336 23.779 28.6602 23.0272C29.3868 22.28 29.7758 21.6832 30.0852 20.8358C30.3289 20.1524 30.3946 19.7561 30.3993 18.9086V18.1478H31.7352C33.0383 18.1478 33.0758 18.1524 33.3055 18.2571C33.4368 18.3118 33.6196 18.4439 33.7133 18.5487C34.0508 18.9086 34.0321 18.5988 34.0321 24.5671C34.0321 28.0752 34.0133 29.9841 33.9852 30.0935C33.8961 30.4033 33.6571 30.6858 33.3571 30.8361L33.0758 30.9728L30.7555 30.9956L28.4305 31.0183L28.2149 31.1414C28.0368 31.2461 27.7321 31.6106 26.3493 33.4011C25.1914 34.9 24.6618 35.5561 24.568 35.5971C24.2774 35.711 24.2821 35.7201 22.5055 33.4148C21.1039 31.6061 20.7946 31.2279 20.6211 31.1322L20.4149 31.0183L18.0946 30.9956L15.7743 30.9728L15.5024 30.8407C15.1743 30.6858 14.9352 30.3942 14.8602 30.0616C14.8227 29.9021 14.8133 28.221 14.8227 24.4122L14.8368 18.9907L14.9399 18.8084C15.0711 18.567 15.3055 18.3574 15.5633 18.2435C15.7602 18.1569 15.868 18.1478 17.1196 18.1478H18.4602L18.4368 18.6808ZM26.4336 28.1117C26.4289 28.9044 26.3633 29.1003 26.0164 29.3053C25.8571 29.3964 25.8008 29.401 24.4274 29.401C23.0821 29.401 22.9977 29.3964 22.8336 29.3053C22.7399 29.2552 22.6086 29.1413 22.5477 29.0502C22.4399 28.8953 22.4305 28.8406 22.4164 28.1846L22.3977 27.4875H24.418H26.4383L26.4336 28.1117Z"/>
</mask>
<path d="M23.5133 13.159C22.6555 13.2957 21.8586 13.5964 21.1086 14.0748C20.5977 14.3937 19.7961 15.1637 19.4539 15.6603C19.1774 16.0612 18.8493 16.7127 18.7227 17.109L18.643 17.3687L17.0914 17.3824L15.5399 17.3961L15.2024 17.551C14.8274 17.7195 14.4289 18.084 14.2555 18.412C14.0118 18.8813 14.0164 18.7082 14.0164 24.5398C14.0164 30.5946 14.0024 30.3395 14.3399 30.8498C14.6539 31.319 15.1789 31.6471 15.7649 31.7291C15.9243 31.7519 16.9836 31.7701 18.1227 31.7701H20.1899L20.3024 31.8885C20.3633 31.9523 21.1321 32.9273 22.0086 34.0617C23.8461 36.4354 23.8039 36.3944 24.418 36.3944C24.8118 36.3944 25.0508 36.3032 25.2711 36.0663C25.3414 35.998 26.0633 35.0686 26.8836 34.0025C27.7039 32.9364 28.4352 31.9979 28.5149 31.9159L28.6602 31.7701H30.7227C31.8618 31.7701 32.9211 31.7473 33.0852 31.7245C33.9289 31.6061 34.5993 30.9956 34.7774 30.1846C34.8149 30.016 34.8289 28.3349 34.8289 24.5352C34.8289 18.6262 34.8383 18.8631 34.5618 18.3619C34.318 17.9337 33.7696 17.5328 33.2727 17.4189C33.1602 17.3961 32.4243 17.3733 31.6368 17.3733H30.2071L30.1227 17.109C30.0008 16.7263 29.6727 16.0703 29.4243 15.7104C28.5289 14.4119 27.1789 13.5281 25.5946 13.2C25.0977 13.0998 24.0289 13.077 23.5133 13.159ZM25.0696 13.9108C28.3414 14.3117 30.4321 17.6011 29.3164 20.608C29.0493 21.3415 28.7164 21.8472 28.0649 22.5124C27.493 23.0956 27.2352 23.4373 26.9774 23.9339C26.6024 24.6628 26.4852 25.1321 26.443 26.0296L26.4149 26.6902H24.4227H22.4305L22.4024 26.0524C22.3696 25.3644 22.3039 25.0227 22.0836 24.4396C21.8211 23.7334 21.4883 23.2459 20.7524 22.4851C20.218 21.9247 19.9321 21.5238 19.6789 20.9725C18.8258 19.0863 19.2055 16.9314 20.6586 15.4598C21.1274 14.9769 21.5258 14.6898 22.1024 14.4119C23.0586 13.9518 24.0383 13.7878 25.0696 13.9108ZM18.4368 18.6808C18.3805 19.9064 18.7461 21.1593 19.4586 22.1889C19.5852 22.3712 19.9039 22.7402 20.1664 23.009C20.9539 23.82 21.3477 24.5079 21.5352 25.4054C21.5961 25.6788 21.6102 26.066 21.6102 27.246C21.6102 28.4488 21.6243 28.7996 21.6805 29.0137C21.8071 29.4876 22.1352 29.8611 22.5805 30.0479L22.8289 30.1527V30.4352C22.8289 30.663 22.8477 30.7404 22.9368 30.8316C23.0961 31.0047 23.3352 31.0092 23.5086 30.8361C23.6071 30.745 23.6258 30.6812 23.6258 30.4489V30.1755H24.4227H25.2196V30.4489C25.2196 30.6812 25.2383 30.745 25.3368 30.8361C25.5102 31.0092 25.7493 31.0047 25.9133 30.8316C25.9977 30.7404 26.0164 30.663 26.0164 30.4352V30.1527L26.2274 30.0707C26.6258 29.9067 26.968 29.5696 27.1274 29.1686C27.193 28.9955 27.2118 28.7039 27.2352 27.1914C27.2633 25.4282 27.268 25.41 27.3899 25.0136C27.6336 24.2437 27.9336 23.779 28.6602 23.0272C29.3868 22.28 29.7758 21.6832 30.0852 20.8358C30.3289 20.1524 30.3946 19.7561 30.3993 18.9086V18.1478H31.7352C33.0383 18.1478 33.0758 18.1524 33.3055 18.2571C33.4368 18.3118 33.6196 18.4439 33.7133 18.5487C34.0508 18.9086 34.0321 18.5988 34.0321 24.5671C34.0321 28.0752 34.0133 29.9841 33.9852 30.0935C33.8961 30.4033 33.6571 30.6858 33.3571 30.8361L33.0758 30.9728L30.7555 30.9956L28.4305 31.0183L28.2149 31.1414C28.0368 31.2461 27.7321 31.6106 26.3493 33.4011C25.1914 34.9 24.6618 35.5561 24.568 35.5971C24.2774 35.711 24.2821 35.7201 22.5055 33.4148C21.1039 31.6061 20.7946 31.2279 20.6211 31.1322L20.4149 31.0183L18.0946 30.9956L15.7743 30.9728L15.5024 30.8407C15.1743 30.6858 14.9352 30.3942 14.8602 30.0616C14.8227 29.9021 14.8133 28.221 14.8227 24.4122L14.8368 18.9907L14.9399 18.8084C15.0711 18.567 15.3055 18.3574 15.5633 18.2435C15.7602 18.1569 15.868 18.1478 17.1196 18.1478H18.4602L18.4368 18.6808ZM26.4336 28.1117C26.4289 28.9044 26.3633 29.1003 26.0164 29.3053C25.8571 29.3964 25.8008 29.401 24.4274 29.401C23.0821 29.401 22.9977 29.3964 22.8336 29.3053C22.7399 29.2552 22.6086 29.1413 22.5477 29.0502C22.4399 28.8953 22.4305 28.8406 22.4164 28.1846L22.3977 27.4875H24.418H26.4383L26.4336 28.1117Z" fill="white" fill-opacity="0.86"/>
<path d="M23.5133 13.159C22.6555 13.2957 21.8586 13.5964 21.1086 14.0748C20.5977 14.3937 19.7961 15.1637 19.4539 15.6603C19.1774 16.0612 18.8493 16.7127 18.7227 17.109L18.643 17.3687L17.0914 17.3824L15.5399 17.3961L15.2024 17.551C14.8274 17.7195 14.4289 18.084 14.2555 18.412C14.0118 18.8813 14.0164 18.7082 14.0164 24.5398C14.0164 30.5946 14.0024 30.3395 14.3399 30.8498C14.6539 31.319 15.1789 31.6471 15.7649 31.7291C15.9243 31.7519 16.9836 31.7701 18.1227 31.7701H20.1899L20.3024 31.8885C20.3633 31.9523 21.1321 32.9273 22.0086 34.0617C23.8461 36.4354 23.8039 36.3944 24.418 36.3944C24.8118 36.3944 25.0508 36.3032 25.2711 36.0663C25.3414 35.998 26.0633 35.0686 26.8836 34.0025C27.7039 32.9364 28.4352 31.9979 28.5149 31.9159L28.6602 31.7701H30.7227C31.8618 31.7701 32.9211 31.7473 33.0852 31.7245C33.9289 31.6061 34.5993 30.9956 34.7774 30.1846C34.8149 30.016 34.8289 28.3349 34.8289 24.5352C34.8289 18.6262 34.8383 18.8631 34.5618 18.3619C34.318 17.9337 33.7696 17.5328 33.2727 17.4189C33.1602 17.3961 32.4243 17.3733 31.6368 17.3733H30.2071L30.1227 17.109C30.0008 16.7263 29.6727 16.0703 29.4243 15.7104C28.5289 14.4119 27.1789 13.5281 25.5946 13.2C25.0977 13.0998 24.0289 13.077 23.5133 13.159ZM25.0696 13.9108C28.3414 14.3117 30.4321 17.6011 29.3164 20.608C29.0493 21.3415 28.7164 21.8472 28.0649 22.5124C27.493 23.0956 27.2352 23.4373 26.9774 23.9339C26.6024 24.6628 26.4852 25.1321 26.443 26.0296L26.4149 26.6902H24.4227H22.4305L22.4024 26.0524C22.3696 25.3644 22.3039 25.0227 22.0836 24.4396C21.8211 23.7334 21.4883 23.2459 20.7524 22.4851C20.218 21.9247 19.9321 21.5238 19.6789 20.9725C18.8258 19.0863 19.2055 16.9314 20.6586 15.4598C21.1274 14.9769 21.5258 14.6898 22.1024 14.4119C23.0586 13.9518 24.0383 13.7878 25.0696 13.9108ZM18.4368 18.6808C18.3805 19.9064 18.7461 21.1593 19.4586 22.1889C19.5852 22.3712 19.9039 22.7402 20.1664 23.009C20.9539 23.82 21.3477 24.5079 21.5352 25.4054C21.5961 25.6788 21.6102 26.066 21.6102 27.246C21.6102 28.4488 21.6243 28.7996 21.6805 29.0137C21.8071 29.4876 22.1352 29.8611 22.5805 30.0479L22.8289 30.1527V30.4352C22.8289 30.663 22.8477 30.7404 22.9368 30.8316C23.0961 31.0047 23.3352 31.0092 23.5086 30.8361C23.6071 30.745 23.6258 30.6812 23.6258 30.4489V30.1755H24.4227H25.2196V30.4489C25.2196 30.6812 25.2383 30.745 25.3368 30.8361C25.5102 31.0092 25.7493 31.0047 25.9133 30.8316C25.9977 30.7404 26.0164 30.663 26.0164 30.4352V30.1527L26.2274 30.0707C26.6258 29.9067 26.968 29.5696 27.1274 29.1686C27.193 28.9955 27.2118 28.7039 27.2352 27.1914C27.2633 25.4282 27.268 25.41 27.3899 25.0136C27.6336 24.2437 27.9336 23.779 28.6602 23.0272C29.3868 22.28 29.7758 21.6832 30.0852 20.8358C30.3289 20.1524 30.3946 19.7561 30.3993 18.9086V18.1478H31.7352C33.0383 18.1478 33.0758 18.1524 33.3055 18.2571C33.4368 18.3118 33.6196 18.4439 33.7133 18.5487C34.0508 18.9086 34.0321 18.5988 34.0321 24.5671C34.0321 28.0752 34.0133 29.9841 33.9852 30.0935C33.8961 30.4033 33.6571 30.6858 33.3571 30.8361L33.0758 30.9728L30.7555 30.9956L28.4305 31.0183L28.2149 31.1414C28.0368 31.2461 27.7321 31.6106 26.3493 33.4011C25.1914 34.9 24.6618 35.5561 24.568 35.5971C24.2774 35.711 24.2821 35.7201 22.5055 33.4148C21.1039 31.6061 20.7946 31.2279 20.6211 31.1322L20.4149 31.0183L18.0946 30.9956L15.7743 30.9728L15.5024 30.8407C15.1743 30.6858 14.9352 30.3942 14.8602 30.0616C14.8227 29.9021 14.8133 28.221 14.8227 24.4122L14.8368 18.9907L14.9399 18.8084C15.0711 18.567 15.3055 18.3574 15.5633 18.2435C15.7602 18.1569 15.868 18.1478 17.1196 18.1478H18.4602L18.4368 18.6808ZM26.4336 28.1117C26.4289 28.9044 26.3633 29.1003 26.0164 29.3053C25.8571 29.3964 25.8008 29.401 24.4274 29.401C23.0821 29.401 22.9977 29.3964 22.8336 29.3053C22.7399 29.2552 22.6086 29.1413 22.5477 29.0502C22.4399 28.8953 22.4305 28.8406 22.4164 28.1846L22.3977 27.4875H24.418H26.4383L26.4336 28.1117Z" stroke="white" stroke-opacity="0.86" stroke-width="0.4" mask="url(#path-2-outside-1_85_8925)"/>
<path d="M22.4304 14.8341C21.5257 15.3357 20.8461 16.1044 20.5601 16.9622C20.382 17.4966 20.3961 17.7029 20.6304 17.82C20.9351 17.9794 21.132 17.8388 21.2773 17.3513C21.3289 17.1685 21.4507 16.8872 21.5492 16.7279C21.7695 16.3575 22.3367 15.8091 22.7304 15.5935C23.1242 15.3732 23.2039 15.2841 23.2039 15.0732C23.2039 14.9372 23.1757 14.8763 23.082 14.8013C22.9132 14.67 22.7117 14.6794 22.4304 14.8341Z" fill="white" fill-opacity="0.86"/>
<path d="M22.3819 14.7466L22.3822 14.7465C22.5297 14.6654 22.6657 14.6169 22.7935 14.6106C22.9249 14.6041 23.0408 14.6426 23.1434 14.7224L23.1434 14.7223L23.1445 14.7232C23.1977 14.7658 23.2414 14.8116 23.2693 14.8733C23.2965 14.9338 23.3039 14.9995 23.3039 15.0732C23.3039 15.1957 23.2793 15.2974 23.1889 15.397C23.1072 15.487 22.9745 15.5715 22.7793 15.6807L22.7785 15.6812C22.5925 15.783 22.3595 15.9674 22.1441 16.1747C21.9286 16.3821 21.7388 16.6047 21.6351 16.779L21.6351 16.779L21.6343 16.7804C21.541 16.9315 21.4227 17.2041 21.3736 17.3784L21.3736 17.3784L21.3731 17.3799C21.2995 17.6268 21.2063 17.8124 21.0722 17.9093C20.9249 18.0157 20.756 17.9984 20.5849 17.9091C20.5166 17.8748 20.4575 17.8306 20.4141 17.7698C20.3701 17.7081 20.3473 17.6364 20.3409 17.5555C20.3286 17.4001 20.3763 17.1974 20.4652 16.9306C20.7604 16.0453 21.4591 15.2583 22.3819 14.7466Z" stroke="white" stroke-opacity="0.86" stroke-width="0.2"/>
<path d="M15.7509 19.2029C15.54 19.4138 15.615 19.756 15.8962 19.8545C16.1166 19.9295 17.1712 19.9201 17.3681 19.8404C17.565 19.756 17.6447 19.6154 17.6072 19.4091C17.5556 19.1373 17.4619 19.1091 16.6087 19.1091C15.9103 19.1091 15.8353 19.1185 15.7509 19.2029Z" fill="white" fill-opacity="0.86"/>
<path d="M15.864 19.9491L15.864 19.9491L15.8632 19.9488C15.5109 19.8255 15.4183 19.3941 15.6802 19.1322C15.7069 19.1055 15.7378 19.08 15.783 19.0607C15.8258 19.0424 15.876 19.0319 15.9386 19.025C16.062 19.0113 16.2619 19.0091 16.6087 19.0091C16.822 19.0091 16.9902 19.0109 17.1227 19.0179C17.2541 19.0249 17.3572 19.0373 17.4373 19.0614C17.5203 19.0864 17.585 19.1257 17.6306 19.1892C17.6735 19.2489 17.6921 19.3201 17.7054 19.3905L17.7056 19.3913C17.7273 19.5107 17.7168 19.6224 17.6629 19.7192C17.6092 19.8155 17.5196 19.8843 17.4075 19.9323L17.4075 19.9323L17.4056 19.9331C17.3701 19.9475 17.3229 19.9577 17.2733 19.9657C17.2218 19.974 17.1609 19.9808 17.0944 19.9864C16.9613 19.9976 16.8016 20.0039 16.6419 20.0054C16.4822 20.0069 16.3211 20.0035 16.1852 19.9949C16.0537 19.9866 15.9335 19.9728 15.864 19.9491Z" stroke="white" stroke-opacity="0.86" stroke-width="0.2"/>
<path d="M31.3367 19.2264C31.1867 19.3717 31.1867 19.5779 31.332 19.7514C31.4445 19.8826 31.4492 19.8826 32.0914 19.9014C32.8555 19.9201 33.0617 19.8732 33.1695 19.667C33.2539 19.4982 33.2258 19.3342 33.0945 19.2029C33.0102 19.1186 32.9352 19.1092 32.2274 19.1092C31.4633 19.1092 31.4492 19.1092 31.3367 19.2264Z" fill="white" fill-opacity="0.86"/>
<path d="M31.2561 19.8165L31.2561 19.8165L31.2554 19.8156C31.1703 19.714 31.1229 19.5968 31.1236 19.4777C31.1244 19.3581 31.1738 19.2456 31.2658 19.1559C31.2929 19.1276 31.3238 19.0959 31.3666 19.0716C31.4112 19.0464 31.4615 19.0329 31.5249 19.0247C31.6444 19.0092 31.8437 19.0092 32.2106 19.0092L32.2274 19.0092C32.5789 19.0092 32.7811 19.0114 32.9056 19.025C32.9688 19.0319 33.0192 19.0424 33.0621 19.0607C33.1076 19.08 33.1385 19.1055 33.1652 19.1322C33.2433 19.2103 33.2948 19.3025 33.3116 19.4047C33.3284 19.507 33.3091 19.6114 33.259 19.7117L33.259 19.7117L33.2582 19.7133C33.2254 19.7759 33.1828 19.8307 33.1211 19.8747C33.0604 19.918 32.9868 19.9468 32.898 19.9662C32.7239 20.0044 32.4696 20.0107 32.089 20.0013L32.0885 20.0013C32.0812 20.0011 32.074 20.0009 32.0669 20.0007C31.7651 19.9919 31.5973 19.987 31.4938 19.9667C31.4365 19.9554 31.3908 19.9382 31.3498 19.909C31.3128 19.8826 31.2841 19.8491 31.2581 19.8188C31.2574 19.818 31.2568 19.8172 31.2561 19.8165Z" stroke="white" stroke-opacity="0.86" stroke-width="0.2"/>
<path d="M17.8367 24.7435C17.7851 24.7716 17.2742 25.1747 16.7023 25.6294C15.8726 26.2997 15.6617 26.4919 15.6335 26.6044C15.6007 26.7638 15.657 26.8997 15.807 27.0028C16.0367 27.1622 16.1164 27.12 17.246 26.22C18.507 25.2169 18.582 25.1185 18.2867 24.8232C18.1414 24.6825 17.9914 24.6544 17.8367 24.7435Z" fill="white" fill-opacity="0.86"/>
<path d="M16.6395 25.5516L16.6395 25.5516L16.6401 25.5511C16.926 25.3238 17.197 25.1091 17.4029 24.9478C17.5059 24.8671 17.5929 24.7995 17.6575 24.7503C17.6897 24.7257 17.7168 24.7054 17.7377 24.6902C17.7555 24.6771 17.7742 24.6639 17.7875 24.6564C17.8816 24.6024 17.9813 24.5805 18.0829 24.5988C18.183 24.6168 18.274 24.6718 18.3562 24.7513L18.3562 24.7513L18.3574 24.7524C18.4301 24.8251 18.5017 24.9051 18.5236 25.0032C18.5475 25.1108 18.5076 25.2121 18.4301 25.316C18.3533 25.4189 18.2276 25.5406 18.0474 25.6959C17.866 25.8522 17.6234 26.0476 17.3083 26.2983C16.7474 26.7451 16.4364 26.9881 16.2368 27.0966C16.1353 27.1517 16.048 27.1806 15.9622 27.174C15.8763 27.1675 15.8093 27.1261 15.7502 27.0851C15.6631 27.0252 15.5975 26.9517 15.5598 26.8642C15.522 26.7761 15.5157 26.6811 15.5356 26.5842L15.5355 26.5842L15.5365 26.5802C15.5489 26.5308 15.5782 26.484 15.6187 26.4351C15.6598 26.3854 15.7188 26.3262 15.7999 26.2522C15.9625 26.1039 16.225 25.8865 16.6395 25.5516Z" stroke="white" stroke-opacity="0.86" stroke-width="0.2"/>
<path d="M30.5586 24.8232C30.4133 24.9685 30.3899 25.0857 30.4742 25.2591C30.5024 25.3201 31.0086 25.7513 31.5992 26.2201C32.4055 26.8623 32.7102 27.0779 32.8039 27.0779C33.0617 27.0779 33.268 26.8248 33.2071 26.581C33.1836 26.4966 32.8508 26.2013 32.1383 25.6294C31.5664 25.1701 31.0555 24.7716 30.9992 24.7435C30.8352 24.6544 30.7039 24.6779 30.5586 24.8232Z" fill="white" fill-opacity="0.86"/>
<path d="M33.3034 26.5542L33.3034 26.5542C33.2954 26.5255 33.2786 26.4996 33.2641 26.48C33.2481 26.4583 33.2275 26.4344 33.2032 26.4086C33.1546 26.357 33.086 26.292 32.9976 26.2133C32.8204 26.0557 32.5574 25.8376 32.2009 25.5515L33.3034 26.5542ZM33.3034 26.5542L33.3041 26.5568M33.3034 26.5542L33.3041 26.5568M33.3041 26.5568C33.3818 26.8677 33.1226 27.1779 32.8039 27.1779C32.7749 27.1779 32.7468 27.1699 32.7229 27.1609C32.6979 27.1514 32.6705 27.138 32.6409 27.1215C32.5818 27.0886 32.5062 27.0391 32.4108 26.9713C32.2197 26.8354 31.9401 26.6194 31.537 26.2983C31.241 26.0634 30.9659 25.8377 30.7609 25.6627C30.6585 25.5753 30.5729 25.5 30.5108 25.4423C30.4798 25.4136 30.4538 25.3884 30.4341 25.3677C30.4243 25.3574 30.4152 25.3474 30.4075 25.338C30.4013 25.3303 30.3908 25.3169 30.3835 25.301L30.4742 25.2591L30.3843 25.3029M33.3041 26.5568L30.3843 25.3029M30.3843 25.3029C30.3369 25.2055 30.313 25.1099 30.3322 25.0115M30.3843 25.3029L30.3322 25.0115M30.3322 25.0115C30.3511 24.9144 30.4088 24.8316 30.4879 24.7525M30.3322 25.0115L30.4879 24.7525M30.4879 24.7525C30.5685 24.6719 30.6552 24.6149 30.7542 24.597C30.8543 24.579 30.9511 24.6038 31.0459 24.6551L30.4879 24.7525Z" stroke="white" stroke-opacity="0.86" stroke-width="0.2"/>
<path d="M15.7508 13.2029C15.6102 13.3435 15.5867 13.5076 15.6852 13.6716C15.7836 13.8216 17.7196 15.392 17.8977 15.4576C18.2446 15.5888 18.5774 15.1341 18.343 14.8529C18.2961 14.7966 17.7946 14.3841 17.2274 13.9295C16.3039 13.1982 16.1774 13.1091 16.0227 13.1091C15.9055 13.1091 15.8117 13.142 15.7508 13.2029Z" fill="white" fill-opacity="0.86"/>
<path d="M17.8627 15.5513C17.8406 15.543 17.8146 15.5277 17.7912 15.5129C17.7652 15.4965 17.7336 15.4751 17.6979 15.4499C17.6262 15.3993 17.5345 15.3311 17.43 15.2514C17.2209 15.0919 16.9584 14.8841 16.6987 14.674C16.4389 14.4639 16.1814 14.2509 15.9824 14.0808C15.883 13.9958 15.7976 13.921 15.7337 13.8625C15.7018 13.8333 15.6746 13.8075 15.6534 13.7862C15.6342 13.7669 15.614 13.7454 15.6016 13.7265L15.6015 13.7266L15.5994 13.7231C15.5406 13.625 15.5145 13.5201 15.5293 13.4145C15.5441 13.3095 15.598 13.2143 15.6801 13.1322C15.7654 13.0469 15.8882 13.0091 16.0227 13.0091C16.131 13.0091 16.2221 13.0457 16.3932 13.1625C16.5632 13.2787 16.829 13.4864 17.2895 13.8511L17.2895 13.8511L17.2899 13.8514C17.5737 14.079 17.8413 14.2961 18.044 14.4635C18.1453 14.5472 18.2307 14.6187 18.2938 14.673C18.3254 14.7001 18.3518 14.7233 18.3721 14.7417C18.3906 14.7585 18.4088 14.7756 18.4198 14.7889C18.5743 14.9743 18.5354 15.2106 18.4189 15.3691C18.3024 15.5277 18.0885 15.6365 17.8627 15.5513ZM17.8627 15.5513C17.8628 15.5513 17.863 15.5514 17.8631 15.5514L17.8977 15.4576M17.8627 15.5513C17.8626 15.5512 17.8624 15.5512 17.8623 15.5511L17.8977 15.4576M17.8977 15.4576C18.2446 15.5888 18.5774 15.1341 18.343 14.8529C18.2961 14.7966 17.7946 14.3841 17.2274 13.9295C16.3039 13.1982 16.1774 13.1091 16.0227 13.1091C15.9055 13.1091 15.8117 13.142 15.7508 13.2029C15.6102 13.3435 15.5867 13.5076 15.6852 13.6716C15.7836 13.8216 17.7196 15.392 17.8977 15.4576Z" stroke="white" stroke-opacity="0.86" stroke-width="0.2"/>
<path d="M31.5946 13.9576C31.0133 14.4216 30.5118 14.8388 30.4836 14.881C30.2727 15.1482 30.6196 15.5841 30.9477 15.4576C31.1258 15.3919 33.0618 13.8216 33.1602 13.6716C33.3196 13.4091 33.1414 13.1091 32.8274 13.1091C32.668 13.1091 32.5414 13.1982 31.5946 13.9576Z" fill="white" fill-opacity="0.86"/>
<path d="M30.9477 15.4576L30.9837 15.5509C30.7669 15.6345 30.555 15.5287 30.4355 15.3795C30.3168 15.2313 30.2613 15.0034 30.4036 14.821C30.4105 14.8116 30.4183 14.8035 30.4228 14.7989C30.4297 14.7918 30.4381 14.7838 30.4474 14.7751C30.4662 14.7576 30.4913 14.7352 30.5217 14.7088C30.5826 14.6557 30.6667 14.5846 30.7677 14.5006C30.9699 14.3325 31.2411 14.1118 31.5321 13.8795C32.0042 13.5009 32.2759 13.286 32.4495 13.1663C32.6245 13.0456 32.7168 13.0091 32.8274 13.0091C33.0176 13.0091 33.1744 13.101 33.2574 13.241C33.3406 13.3815 33.344 13.5617 33.2457 13.7235L33.2457 13.7236L33.2438 13.7265C33.2314 13.7454 33.2111 13.7669 33.192 13.7862C33.1708 13.8075 33.1436 13.8333 33.1117 13.8625C33.0478 13.921 32.9624 13.9958 32.863 14.0808C32.664 14.2508 32.4065 14.4639 32.1467 14.674C31.887 14.8841 31.6244 15.0919 31.4154 15.2514C31.3109 15.3311 31.2192 15.3993 31.1475 15.4499C31.1118 15.4751 31.0802 15.4965 31.0542 15.5129C31.0306 15.5278 31.0045 15.5432 30.9823 15.5514L30.9477 15.4576ZM30.9477 15.4576C30.6196 15.5841 30.2727 15.1482 30.4836 14.881M30.9477 15.4576C31.1258 15.3919 33.0618 13.8216 33.1602 13.6716L30.4836 14.881M30.4836 14.881C30.5118 14.8388 31.0133 14.4216 31.5946 13.9576L30.4836 14.881Z" stroke="white" stroke-opacity="0.86" stroke-width="0.2"/>
</g>
<defs>
<clipPath id="clip0_85_8925">
<rect width="24" height="24" fill="white" transform="translate(12.4226 12.6873)"/>
</clipPath>
</defs>
</svg>
