<svg width="25" height="23" viewBox="0 0 25 23" fill="none" xmlns="http://www.w3.org/2000/svg">
<path d="M3.09668 20.1189H21.0828C23.0632 20.1189 24.0725 19.1287 24.0725 17.1672V8.01709C24.0725 6.06519 23.0632 5.07495 21.0828 5.07495H3.09668C1.09717 5.07495 0.106933 6.05567 0.106933 8.01709V17.1672C0.106933 19.1287 1.09717 20.1189 3.09668 20.1189ZM3.11572 18.5859C2.16357 18.5859 1.63989 18.0718 1.63989 17.0815V8.10278C1.63989 7.11255 2.16357 6.60791 3.11572 6.60791H21.0542C21.9968 6.60791 22.5395 7.11255 22.5395 8.10278V17.0815C22.5395 18.0718 21.9968 18.5859 21.0542 18.5859H3.11572ZM3.97266 10.3784H4.84863C5.11523 10.3784 5.2771 10.2166 5.2771 9.95947V9.0835C5.2771 8.8169 5.11523 8.65503 4.84863 8.65503H3.97266C3.71558 8.65503 3.55371 8.8169 3.55371 9.0835V9.95947C3.55371 10.2166 3.71558 10.3784 3.97266 10.3784ZM7.03857 10.3784H7.91455C8.17163 10.3784 8.3335 10.2166 8.3335 9.95947V9.0835C8.3335 8.8169 8.17163 8.65503 7.91455 8.65503H7.03857C6.77197 8.65503 6.61011 8.8169 6.61011 9.0835V9.95947C6.61011 10.2166 6.77197 10.3784 7.03857 10.3784ZM10.1045 10.3784H10.9709C11.2375 10.3784 11.3994 10.2166 11.3994 9.95947V9.0835C11.3994 8.8169 11.2375 8.65503 10.9709 8.65503H10.1045C9.83789 8.65503 9.67602 8.8169 9.67602 9.0835V9.95947C9.67602 10.2166 9.83789 10.3784 10.1045 10.3784ZM13.1609 10.3784H14.0369C14.3035 10.3784 14.4653 10.2166 14.4653 9.95947V9.0835C14.4653 8.8169 14.3035 8.65503 14.0369 8.65503H13.1609C12.9038 8.65503 12.7419 8.8169 12.7419 9.0835V9.95947C12.7419 10.2166 12.9038 10.3784 13.1609 10.3784ZM16.2268 10.3784H17.1028C17.3599 10.3784 17.5217 10.2166 17.5217 9.95947V9.0835C17.5217 8.8169 17.3599 8.65503 17.1028 8.65503H16.2268C15.9602 8.65503 15.7983 8.8169 15.7983 9.0835V9.95947C15.7983 10.2166 15.9602 10.3784 16.2268 10.3784ZM19.2927 10.3784H20.1592C20.4258 10.3784 20.5876 10.2166 20.5876 9.95947V9.0835C20.5876 8.8169 20.4258 8.65503 20.1592 8.65503H19.2927C19.0261 8.65503 18.8643 8.8169 18.8643 9.0835V9.95947C18.8643 10.2166 19.0261 10.3784 19.2927 10.3784ZM3.97266 13.4443H4.84863C5.11523 13.4443 5.2771 13.2825 5.2771 13.0159V12.1494C5.2771 11.8828 5.11523 11.7209 4.84863 11.7209H3.97266C3.71558 11.7209 3.55371 11.8828 3.55371 12.1494V13.0159C3.55371 13.2825 3.71558 13.4443 3.97266 13.4443ZM7.03857 13.4443H7.91455C8.17163 13.4443 8.3335 13.2825 8.3335 13.0159V12.1494C8.3335 11.8828 8.17163 11.7209 7.91455 11.7209H7.03857C6.77197 11.7209 6.61011 11.8828 6.61011 12.1494V13.0159C6.61011 13.2825 6.77197 13.4443 7.03857 13.4443ZM10.1045 13.4443H10.9709C11.2375 13.4443 11.3994 13.2825 11.3994 13.0159V12.1494C11.3994 11.8828 11.2375 11.7209 10.9709 11.7209H10.1045C9.83789 11.7209 9.67602 11.8828 9.67602 12.1494V13.0159C9.67602 13.2825 9.83789 13.4443 10.1045 13.4443ZM13.1609 13.4443H14.0369C14.3035 13.4443 14.4653 13.2825 14.4653 13.0159V12.1494C14.4653 11.8828 14.3035 11.7209 14.0369 11.7209H13.1609C12.9038 11.7209 12.7419 11.8828 12.7419 12.1494V13.0159C12.7419 13.2825 12.9038 13.4443 13.1609 13.4443ZM16.2268 13.4443H17.1028C17.3599 13.4443 17.5217 13.2825 17.5217 13.0159V12.1494C17.5217 11.8828 17.3599 11.7209 17.1028 11.7209H16.2268C15.9602 11.7209 15.7983 11.8828 15.7983 12.1494V13.0159C15.7983 13.2825 15.9602 13.4443 16.2268 13.4443ZM19.2927 13.4443H20.1592C20.4258 13.4443 20.5876 13.2825 20.5876 13.0159V12.1494C20.5876 11.8828 20.4258 11.7209 20.1592 11.7209H19.2927C19.0261 11.7209 18.8643 11.8828 18.8643 12.1494V13.0159C18.8643 13.2825 19.0261 13.4443 19.2927 13.4443ZM3.97266 16.5103H4.84863C5.11523 16.5103 5.2771 16.3484 5.2771 16.0818V15.2058C5.2771 14.9487 5.11523 14.7869 4.84863 14.7869H3.97266C3.71558 14.7869 3.55371 14.9487 3.55371 15.2058V16.0818C3.55371 16.3484 3.71558 16.5103 3.97266 16.5103ZM7.13379 16.5103H17.0076C17.3313 16.5103 17.5217 16.3198 17.5217 15.9866V15.301C17.5217 14.9773 17.3313 14.7869 17.0076 14.7869H7.13379C6.80054 14.7869 6.61011 14.9773 6.61011 15.301V15.9866C6.61011 16.3198 6.80054 16.5103 7.13379 16.5103ZM19.2927 16.5103H20.1592C20.4258 16.5103 20.5876 16.3484 20.5876 16.0818V15.2058C20.5876 14.9487 20.4258 14.7869 20.1592 14.7869H19.2927C19.0261 14.7869 18.8643 14.9487 18.8643 15.2058V16.0818C18.8643 16.3484 19.0261 16.5103 19.2927 16.5103Z" fill="white" fill-opacity="0.86"/>
</svg>
