<svg width="49" height="49" viewBox="0 0 49 49" fill="none" xmlns="http://www.w3.org/2000/svg">
<path d="M24.8442 48.4714C30.3967 48.4715 35.7774 46.5463 40.0696 43.0239C44.3618 39.5015 47.2999 34.5997 48.3832 29.1539C49.4665 23.708 48.6281 18.0551 46.0107 13.1581C43.3933 8.26121 39.1589 4.42337 34.0291 2.29845C28.8993 0.173524 23.1914 -0.106963 17.8779 1.50479C12.5645 3.11655 7.97425 6.52081 4.88939 11.1375C1.80452 15.7543 0.415876 21.2978 0.960062 26.8236C1.50425 32.3494 3.9476 37.5156 7.87378 41.4419C12.3746 45.9428 18.479 48.4713 24.8442 48.4714Z" fill="#0CBC84"/>
<path d="M16.0967 33.1189H34.0828C36.0632 33.1189 37.0725 32.1287 37.0725 30.1672V21.0171C37.0725 19.0652 36.0632 18.075 34.0828 18.075H16.0967C14.0972 18.075 13.1069 19.0557 13.1069 21.0171V30.1672C13.1069 32.1287 14.0972 33.1189 16.0967 33.1189ZM16.1157 31.5859C15.1636 31.5859 14.6399 31.0718 14.6399 30.0815V21.1028C14.6399 20.1126 15.1636 19.6079 16.1157 19.6079H34.0542C34.9968 19.6079 35.5395 20.1126 35.5395 21.1028V30.0815C35.5395 31.0718 34.9968 31.5859 34.0542 31.5859H16.1157ZM16.9727 23.3784H17.8486C18.1152 23.3784 18.2771 23.2166 18.2771 22.9595V22.0835C18.2771 21.8169 18.1152 21.655 17.8486 21.655H16.9727C16.7156 21.655 16.5537 21.8169 16.5537 22.0835V22.9595C16.5537 23.2166 16.7156 23.3784 16.9727 23.3784ZM20.0386 23.3784H20.9145C21.1716 23.3784 21.3335 23.2166 21.3335 22.9595V22.0835C21.3335 21.8169 21.1716 21.655 20.9145 21.655H20.0386C19.772 21.655 19.6101 21.8169 19.6101 22.0835V22.9595C19.6101 23.2166 19.772 23.3784 20.0386 23.3784ZM23.1045 23.3784H23.9709C24.2375 23.3784 24.3994 23.2166 24.3994 22.9595V22.0835C24.3994 21.8169 24.2375 21.655 23.9709 21.655H23.1045C22.8379 21.655 22.676 21.8169 22.676 22.0835V22.9595C22.676 23.2166 22.8379 23.3784 23.1045 23.3784ZM26.1609 23.3784H27.0369C27.3035 23.3784 27.4653 23.2166 27.4653 22.9595V22.0835C27.4653 21.8169 27.3035 21.655 27.0369 21.655H26.1609C25.9038 21.655 25.7419 21.8169 25.7419 22.0835V22.9595C25.7419 23.2166 25.9038 23.3784 26.1609 23.3784ZM29.2268 23.3784H30.1028C30.3599 23.3784 30.5217 23.2166 30.5217 22.9595V22.0835C30.5217 21.8169 30.3599 21.655 30.1028 21.655H29.2268C28.9602 21.655 28.7983 21.8169 28.7983 22.0835V22.9595C28.7983 23.2166 28.9602 23.3784 29.2268 23.3784ZM32.2927 23.3784H33.1592C33.4258 23.3784 33.5876 23.2166 33.5876 22.9595V22.0835C33.5876 21.8169 33.4258 21.655 33.1592 21.655H32.2927C32.0261 21.655 31.8643 21.8169 31.8643 22.0835V22.9595C31.8643 23.2166 32.0261 23.3784 32.2927 23.3784ZM16.9727 26.4443H17.8486C18.1152 26.4443 18.2771 26.2825 18.2771 26.0159V25.1494C18.2771 24.8828 18.1152 24.7209 17.8486 24.7209H16.9727C16.7156 24.7209 16.5537 24.8828 16.5537 25.1494V26.0159C16.5537 26.2825 16.7156 26.4443 16.9727 26.4443ZM20.0386 26.4443H20.9145C21.1716 26.4443 21.3335 26.2825 21.3335 26.0159V25.1494C21.3335 24.8828 21.1716 24.7209 20.9145 24.7209H20.0386C19.772 24.7209 19.6101 24.8828 19.6101 25.1494V26.0159C19.6101 26.2825 19.772 26.4443 20.0386 26.4443ZM23.1045 26.4443H23.9709C24.2375 26.4443 24.3994 26.2825 24.3994 26.0159V25.1494C24.3994 24.8828 24.2375 24.7209 23.9709 24.7209H23.1045C22.8379 24.7209 22.676 24.8828 22.676 25.1494V26.0159C22.676 26.2825 22.8379 26.4443 23.1045 26.4443ZM26.1609 26.4443H27.0369C27.3035 26.4443 27.4653 26.2825 27.4653 26.0159V25.1494C27.4653 24.8828 27.3035 24.7209 27.0369 24.7209H26.1609C25.9038 24.7209 25.7419 24.8828 25.7419 25.1494V26.0159C25.7419 26.2825 25.9038 26.4443 26.1609 26.4443ZM29.2268 26.4443H30.1028C30.3599 26.4443 30.5217 26.2825 30.5217 26.0159V25.1494C30.5217 24.8828 30.3599 24.7209 30.1028 24.7209H29.2268C28.9602 24.7209 28.7983 24.8828 28.7983 25.1494V26.0159C28.7983 26.2825 28.9602 26.4443 29.2268 26.4443ZM32.2927 26.4443H33.1592C33.4258 26.4443 33.5876 26.2825 33.5876 26.0159V25.1494C33.5876 24.8828 33.4258 24.7209 33.1592 24.7209H32.2927C32.0261 24.7209 31.8643 24.8828 31.8643 25.1494V26.0159C31.8643 26.2825 32.0261 26.4443 32.2927 26.4443ZM16.9727 29.5103H17.8486C18.1152 29.5103 18.2771 29.3484 18.2771 29.0818V28.2058C18.2771 27.9487 18.1152 27.7869 17.8486 27.7869H16.9727C16.7156 27.7869 16.5537 27.9487 16.5537 28.2058V29.0818C16.5537 29.3484 16.7156 29.5103 16.9727 29.5103ZM20.1338 29.5103H30.0076C30.3313 29.5103 30.5217 29.3198 30.5217 28.9866V28.301C30.5217 27.9773 30.3313 27.7869 30.0076 27.7869H20.1338C19.8005 27.7869 19.6101 27.9773 19.6101 28.301V28.9866C19.6101 29.3198 19.8005 29.5103 20.1338 29.5103ZM32.2927 29.5103H33.1592C33.4258 29.5103 33.5876 29.3484 33.5876 29.0818V28.2058C33.5876 27.9487 33.4258 27.7869 33.1592 27.7869H32.2927C32.0261 27.7869 31.8643 27.9487 31.8643 28.2058V29.0818C31.8643 29.3484 32.0261 29.5103 32.2927 29.5103Z" fill="white" fill-opacity="0.86"/>
</svg>
