<svg width="15" height="24" viewBox="0 0 15 24" fill="none" xmlns="http://www.w3.org/2000/svg">
<path opacity="0.9" fill-rule="evenodd" clip-rule="evenodd" d="M4.69577 3.87982C4.69577 3.02533 5.01161 2.20583 5.5738 1.60162C6.13599 0.997404 6.89849 0.657959 7.69355 0.657959C8.48861 0.657959 9.25111 0.997404 9.8133 1.60162C10.3755 2.20583 10.6913 3.02533 10.6913 3.87982V11.2279C10.6913 12.0824 10.3755 12.9019 9.8133 13.5061C9.25111 14.1103 8.48861 14.4498 7.69355 14.4498C6.89849 14.4498 6.13599 14.1103 5.5738 13.5061C5.01161 12.9019 4.69577 12.0824 4.69577 11.2279V3.87982ZM8.69281 18.6704C10.3578 18.4119 11.8803 17.5172 12.9815 16.1503C14.0826 14.7835 14.6886 13.0359 14.6884 11.2279C14.6884 10.9431 14.5831 10.6699 14.3957 10.4685C14.2083 10.2671 13.9541 10.154 13.6891 10.154C13.4241 10.154 13.1699 10.2671 12.9825 10.4685C12.7951 10.6699 12.6898 10.9431 12.6898 11.2279C12.6898 12.6521 12.1635 14.0179 11.2265 15.0249C10.2895 16.0319 9.01865 16.5977 7.69355 16.5977C6.36845 16.5977 5.09762 16.0319 4.16063 15.0249C3.22364 14.0179 2.69725 12.6521 2.69725 11.2279C2.69725 10.9431 2.59197 10.6699 2.40457 10.4685C2.21718 10.2671 1.96301 10.154 1.69799 10.154C1.43297 10.154 1.1788 10.2671 0.991407 10.4685C0.804009 10.6699 0.698731 10.9431 0.698731 11.2279C0.698507 13.0359 1.30448 14.7835 2.40562 16.1503C3.50676 17.5172 5.02931 18.4119 6.69429 18.6704V20.8935H5.3107C5.04568 20.8935 4.79151 21.0066 4.60412 21.208C4.41672 21.4094 4.31144 21.6826 4.31144 21.9674C4.31144 22.2523 4.41672 22.5254 4.60412 22.7268C4.79151 22.9282 5.04568 23.0414 5.3107 23.0414H10.0764C10.3414 23.0414 10.5956 22.9282 10.783 22.7268C10.9704 22.5254 11.0757 22.2523 11.0757 21.9674C11.0757 21.6826 10.9704 21.4094 10.783 21.208C10.5956 21.0066 10.3414 20.8935 10.0764 20.8935H8.69281V18.6704Z" fill="white"/>
</svg>
