<svg width="25" height="25" viewBox="0 0 25 25" fill="none" xmlns="http://www.w3.org/2000/svg">
<path d="M21.1075 3.88304C21.0062 3.78229 20.8784 3.71254 20.7388 3.68198C20.5993 3.65142 20.454 3.66133 20.32 3.71054L3.81995 9.71054C3.67765 9.76451 3.55514 9.8605 3.46869 9.98575C3.38224 10.111 3.33594 10.2596 3.33594 10.4118C3.33594 10.564 3.38224 10.7126 3.46869 10.8378C3.55514 10.9631 3.67765 11.0591 3.81995 11.113L10.2625 13.6855L15.0175 8.91554L16.075 9.97304L11.2975 14.7505L13.8775 21.193C13.933 21.3326 14.0292 21.4522 14.1536 21.5365C14.278 21.6207 14.4247 21.6657 14.575 21.6655C14.7265 21.6624 14.8736 21.6135 14.9968 21.5251C15.1199 21.4367 15.2134 21.3131 15.265 21.1705L21.265 4.67054C21.3161 4.53785 21.3284 4.39336 21.3005 4.25393C21.2726 4.1145 21.2057 3.98587 21.1075 3.88304Z" fill="#007BFF"/>
</svg>
